%TF.GenerationSoftware,KiCad,Pcbnew,9.0.7*%
%TF.CreationDate,2026-02-05T01:50:22-05:00*%
%TF.ProjectId,LM5143_Buck,4c4d3531-3433-45f4-9275-636b2e6b6963,rev?*%
%TF.SameCoordinates,Original*%
%TF.FileFunction,Paste,Top*%
%TF.FilePolarity,Positive*%
%FSLAX46Y46*%
G04 Gerber Fmt 4.6, Leading zero omitted, Abs format (unit mm)*
G04 Created by KiCad (PCBNEW 9.0.7) date 2026-02-05 01:50:22*
%MOMM*%
%LPD*%
G01*
G04 APERTURE LIST*
G04 Aperture macros list*
%AMRoundRect*
0 Rectangle with rounded corners*
0 $1 Rounding radius*
0 $2 $3 $4 $5 $6 $7 $8 $9 X,Y pos of 4 corners*
0 Add a 4 corners polygon primitive as box body*
4,1,4,$2,$3,$4,$5,$6,$7,$8,$9,$2,$3,0*
0 Add four circle primitives for the rounded corners*
1,1,$1+$1,$2,$3*
1,1,$1+$1,$4,$5*
1,1,$1+$1,$6,$7*
1,1,$1+$1,$8,$9*
0 Add four rect primitives between the rounded corners*
20,1,$1+$1,$2,$3,$4,$5,0*
20,1,$1+$1,$4,$5,$6,$7,0*
20,1,$1+$1,$6,$7,$8,$9,0*
20,1,$1+$1,$8,$9,$2,$3,0*%
G04 Aperture macros list end*
%ADD10RoundRect,0.200000X-0.275000X0.200000X-0.275000X-0.200000X0.275000X-0.200000X0.275000X0.200000X0*%
%ADD11RoundRect,0.250000X-0.250000X0.250000X-0.250000X-0.250000X0.250000X-0.250000X0.250000X0.250000X0*%
%ADD12RoundRect,0.200000X0.275000X-0.200000X0.275000X0.200000X-0.275000X0.200000X-0.275000X-0.200000X0*%
%ADD13RoundRect,0.153846X-0.296154X0.246154X-0.296154X-0.246154X0.296154X-0.246154X0.296154X0.246154X0*%
%ADD14RoundRect,0.094500X0.220500X-0.380500X0.220500X0.380500X-0.220500X0.380500X-0.220500X-0.380500X0*%
%ADD15RoundRect,0.067500X0.157500X-1.582500X0.157500X1.582500X-0.157500X1.582500X-0.157500X-1.582500X0*%
%ADD16RoundRect,0.094500X0.220500X-1.555500X0.220500X1.555500X-0.220500X1.555500X-0.220500X-1.555500X0*%
%ADD17RoundRect,0.094500X0.220500X-0.930500X0.220500X0.930500X-0.220500X0.930500X-0.220500X-0.930500X0*%
%ADD18RoundRect,0.225000X-0.225000X-0.250000X0.225000X-0.250000X0.225000X0.250000X-0.225000X0.250000X0*%
%ADD19RoundRect,0.153846X0.296154X-0.246154X0.296154X0.246154X-0.296154X0.246154X-0.296154X-0.246154X0*%
%ADD20RoundRect,0.150000X-0.700000X0.150000X-0.700000X-0.150000X0.700000X-0.150000X0.700000X0.150000X0*%
%ADD21RoundRect,0.250000X-1.100000X0.250000X-1.100000X-0.250000X1.100000X-0.250000X1.100000X0.250000X0*%
%ADD22RoundRect,0.250000X0.250000X-0.250000X0.250000X0.250000X-0.250000X0.250000X-0.250000X-0.250000X0*%
%ADD23RoundRect,0.094500X-0.220500X0.380500X-0.220500X-0.380500X0.220500X-0.380500X0.220500X0.380500X0*%
%ADD24RoundRect,0.067500X-0.157500X1.582500X-0.157500X-1.582500X0.157500X-1.582500X0.157500X1.582500X0*%
%ADD25RoundRect,0.094500X-0.220500X1.555500X-0.220500X-1.555500X0.220500X-1.555500X0.220500X1.555500X0*%
%ADD26RoundRect,0.094500X-0.220500X0.930500X-0.220500X-0.930500X0.220500X-0.930500X0.220500X0.930500X0*%
%ADD27RoundRect,0.200000X0.200000X0.275000X-0.200000X0.275000X-0.200000X-0.275000X0.200000X-0.275000X0*%
%ADD28RoundRect,0.200000X-0.200000X-0.275000X0.200000X-0.275000X0.200000X0.275000X-0.200000X0.275000X0*%
G04 APERTURE END LIST*
D10*
%TO.C,R12*%
X143750000Y-114175000D03*
X143750000Y-115825000D03*
%TD*%
D11*
%TO.C,D11*%
X147000000Y-113500000D03*
X147000000Y-116000000D03*
%TD*%
D12*
%TO.C,R11*%
X136250000Y-115825000D03*
X136250000Y-114175000D03*
%TD*%
D13*
%TO.C,D6*%
X142250000Y-108600000D03*
X142250000Y-110900000D03*
%TD*%
D10*
%TO.C,R8*%
X145250000Y-108675000D03*
X145250000Y-110325000D03*
%TD*%
D14*
%TO.C,Q1*%
X131425000Y-110925000D03*
D15*
X130325000Y-109750000D03*
X129250000Y-109750000D03*
X128175000Y-109750000D03*
D16*
X127075000Y-109750000D03*
D17*
X131425000Y-109125000D03*
%TD*%
D12*
%TO.C,R3*%
X136250000Y-110325000D03*
X136250000Y-108675000D03*
%TD*%
D10*
%TO.C,R16*%
X145250000Y-114175000D03*
X145250000Y-115825000D03*
%TD*%
D13*
%TO.C,D12*%
X142250000Y-113600000D03*
X142250000Y-115900000D03*
%TD*%
D10*
%TO.C,R14*%
X140750000Y-114175000D03*
X140750000Y-115825000D03*
%TD*%
D12*
%TO.C,R13*%
X139250000Y-115825000D03*
X139250000Y-114175000D03*
%TD*%
%TO.C,R15*%
X134750000Y-115825000D03*
X134750000Y-114175000D03*
%TD*%
D18*
%TO.C,C17*%
X144975000Y-103250000D03*
X146525000Y-103250000D03*
%TD*%
D19*
%TO.C,D10*%
X137750000Y-115900000D03*
X137750000Y-113600000D03*
%TD*%
D20*
%TO.C,J3*%
X103600000Y-86125000D03*
X103600000Y-87375000D03*
X103600000Y-88625000D03*
X103600000Y-89875000D03*
D21*
X100400000Y-84275000D03*
X100400000Y-91725000D03*
%TD*%
D14*
%TO.C,Q3*%
X131425000Y-115925000D03*
D15*
X130325000Y-114750000D03*
X129250000Y-114750000D03*
X128175000Y-114750000D03*
D16*
X127075000Y-114750000D03*
D17*
X131425000Y-114125000D03*
%TD*%
D11*
%TO.C,D5*%
X147000000Y-108500000D03*
X147000000Y-111000000D03*
%TD*%
D22*
%TO.C,D3*%
X133000000Y-111000000D03*
X133000000Y-108500000D03*
%TD*%
D23*
%TO.C,Q4*%
X148575000Y-113575000D03*
D24*
X149675000Y-114750000D03*
X150750000Y-114750000D03*
X151825000Y-114750000D03*
D25*
X152925000Y-114750000D03*
D26*
X148575000Y-115375000D03*
%TD*%
D23*
%TO.C,Q2*%
X148575000Y-108575000D03*
D24*
X149675000Y-109750000D03*
X150750000Y-109750000D03*
X151825000Y-109750000D03*
D25*
X152925000Y-109750000D03*
D26*
X148575000Y-110375000D03*
%TD*%
D12*
%TO.C,R7*%
X134750000Y-110325000D03*
X134750000Y-108675000D03*
%TD*%
D20*
%TO.C,J4*%
X103600000Y-96625000D03*
X103600000Y-97875000D03*
X103600000Y-99125000D03*
X103600000Y-100375000D03*
D21*
X100400000Y-94775000D03*
X100400000Y-102225000D03*
%TD*%
D19*
%TO.C,D4*%
X137750000Y-110900000D03*
X137750000Y-108600000D03*
%TD*%
D12*
%TO.C,R5*%
X139250000Y-110325000D03*
X139250000Y-108675000D03*
%TD*%
D10*
%TO.C,R4*%
X143750000Y-108675000D03*
X143750000Y-110325000D03*
%TD*%
D22*
%TO.C,D9*%
X133000000Y-116000000D03*
X133000000Y-113500000D03*
%TD*%
D10*
%TO.C,R6*%
X140750000Y-108675000D03*
X140750000Y-110325000D03*
%TD*%
D27*
%TO.C,R19*%
X146575000Y-101750000D03*
X144925000Y-101750000D03*
%TD*%
D28*
%TO.C,R17*%
X133425000Y-106000000D03*
X135075000Y-106000000D03*
%TD*%
M02*
