%TF.GenerationSoftware,KiCad,Pcbnew,9.0.7*%
%TF.CreationDate,2026-02-05T01:50:22-05:00*%
%TF.ProjectId,LM5143_Buck,4c4d3531-3433-45f4-9275-636b2e6b6963,rev?*%
%TF.SameCoordinates,Original*%
%TF.FileFunction,Paste,Bot*%
%TF.FilePolarity,Positive*%
%FSLAX46Y46*%
G04 Gerber Fmt 4.6, Leading zero omitted, Abs format (unit mm)*
G04 Created by KiCad (PCBNEW 9.0.7) date 2026-02-05 01:50:22*
%MOMM*%
%LPD*%
G01*
G04 APERTURE LIST*
G04 Aperture macros list*
%AMRoundRect*
0 Rectangle with rounded corners*
0 $1 Rounding radius*
0 $2 $3 $4 $5 $6 $7 $8 $9 X,Y pos of 4 corners*
0 Add a 4 corners polygon primitive as box body*
4,1,4,$2,$3,$4,$5,$6,$7,$8,$9,$2,$3,0*
0 Add four circle primitives for the rounded corners*
1,1,$1+$1,$2,$3*
1,1,$1+$1,$4,$5*
1,1,$1+$1,$6,$7*
1,1,$1+$1,$8,$9*
0 Add four rect primitives between the rounded corners*
20,1,$1+$1,$2,$3,$4,$5,0*
20,1,$1+$1,$4,$5,$6,$7,0*
20,1,$1+$1,$6,$7,$8,$9,0*
20,1,$1+$1,$8,$9,$2,$3,0*%
G04 Aperture macros list end*
%ADD10RoundRect,0.200000X0.200000X0.275000X-0.200000X0.275000X-0.200000X-0.275000X0.200000X-0.275000X0*%
%ADD11RoundRect,0.247500X1.602500X-0.577500X1.602500X0.577500X-1.602500X0.577500X-1.602500X-0.577500X0*%
%ADD12RoundRect,0.250000X1.100000X-0.325000X1.100000X0.325000X-1.100000X0.325000X-1.100000X-0.325000X0*%
%ADD13RoundRect,0.250000X0.475000X-0.250000X0.475000X0.250000X-0.475000X0.250000X-0.475000X-0.250000X0*%
%ADD14RoundRect,0.180000X0.420000X-0.520000X0.420000X0.520000X-0.420000X0.520000X-0.420000X-0.520000X0*%
%ADD15RoundRect,0.247500X0.752500X-0.577500X0.752500X0.577500X-0.752500X0.577500X-0.752500X-0.577500X0*%
%ADD16RoundRect,0.250000X0.325000X1.100000X-0.325000X1.100000X-0.325000X-1.100000X0.325000X-1.100000X0*%
%ADD17RoundRect,0.225000X-0.225000X-0.250000X0.225000X-0.250000X0.225000X0.250000X-0.225000X0.250000X0*%
%ADD18RoundRect,0.225000X-0.250000X0.225000X-0.250000X-0.225000X0.250000X-0.225000X0.250000X0.225000X0*%
%ADD19RoundRect,0.225000X0.250000X-0.225000X0.250000X0.225000X-0.250000X0.225000X-0.250000X-0.225000X0*%
%ADD20RoundRect,0.075000X-0.650000X-0.075000X0.650000X-0.075000X0.650000X0.075000X-0.650000X0.075000X0*%
%ADD21RoundRect,0.127000X1.143000X-1.208000X1.143000X1.208000X-1.143000X1.208000X-1.143000X-1.208000X0*%
%ADD22RoundRect,0.076200X0.558800X-0.304800X0.558800X0.304800X-0.558800X0.304800X-0.558800X-0.304800X0*%
%ADD23RoundRect,0.062500X0.375000X0.062500X-0.375000X0.062500X-0.375000X-0.062500X0.375000X-0.062500X0*%
%ADD24RoundRect,0.062500X0.062500X0.375000X-0.062500X0.375000X-0.062500X-0.375000X0.062500X-0.375000X0*%
%ADD25R,3.300000X3.300000*%
%ADD26RoundRect,0.150000X0.512500X0.150000X-0.512500X0.150000X-0.512500X-0.150000X0.512500X-0.150000X0*%
%ADD27RoundRect,0.200000X0.275000X-0.200000X0.275000X0.200000X-0.275000X0.200000X-0.275000X-0.200000X0*%
%ADD28RoundRect,0.317500X0.317500X-0.382500X0.317500X0.382500X-0.317500X0.382500X-0.317500X-0.382500X0*%
%ADD29R,4.720000X4.800000*%
%ADD30RoundRect,0.200000X-0.200000X-0.275000X0.200000X-0.275000X0.200000X0.275000X-0.200000X0.275000X0*%
%ADD31RoundRect,0.218750X-0.218750X-0.256250X0.218750X-0.256250X0.218750X0.256250X-0.218750X0.256250X0*%
%ADD32RoundRect,0.317500X-0.317500X0.382500X-0.317500X-0.382500X0.317500X-0.382500X0.317500X0.382500X0*%
%ADD33RoundRect,0.270000X-1.430000X0.630000X-1.430000X-0.630000X1.430000X-0.630000X1.430000X0.630000X0*%
%ADD34RoundRect,0.200000X-0.275000X0.200000X-0.275000X-0.200000X0.275000X-0.200000X0.275000X0.200000X0*%
%ADD35RoundRect,0.250000X-0.325000X-1.100000X0.325000X-1.100000X0.325000X1.100000X-0.325000X1.100000X0*%
%ADD36RoundRect,0.225000X0.225000X0.250000X-0.225000X0.250000X-0.225000X-0.250000X0.225000X-0.250000X0*%
%ADD37RoundRect,0.180000X-0.420000X0.520000X-0.420000X-0.520000X0.420000X-0.520000X0.420000X0.520000X0*%
%ADD38RoundRect,0.247500X-0.752500X0.577500X-0.752500X-0.577500X0.752500X-0.577500X0.752500X0.577500X0*%
%ADD39RoundRect,0.247500X-1.602500X0.577500X-1.602500X-0.577500X1.602500X-0.577500X1.602500X0.577500X0*%
G04 APERTURE END LIST*
D10*
%TO.C,R1*%
X137425000Y-116000000D03*
X135775000Y-116000000D03*
%TD*%
D11*
%TO.C,R29*%
X138000000Y-126075000D03*
X138000000Y-120425000D03*
%TD*%
D12*
%TO.C,C2*%
X131000000Y-110725000D03*
X131000000Y-107775000D03*
%TD*%
D13*
%TO.C,C9*%
X135500000Y-111450000D03*
X135500000Y-109550000D03*
%TD*%
D14*
%TO.C,R30*%
X132750000Y-126200000D03*
D15*
X134850000Y-126075000D03*
D11*
X134000000Y-120425000D03*
%TD*%
D16*
%TO.C,C11*%
X125725000Y-127250000D03*
X122775000Y-127250000D03*
%TD*%
D10*
%TO.C,R21*%
X135075000Y-101750000D03*
X133425000Y-101750000D03*
%TD*%
D17*
%TO.C,C15*%
X134225000Y-113500000D03*
X135775000Y-113500000D03*
%TD*%
D12*
%TO.C,C3*%
X149000000Y-110725000D03*
X149000000Y-107775000D03*
%TD*%
D18*
%TO.C,C24*%
X144750000Y-97975000D03*
X144750000Y-99525000D03*
%TD*%
D19*
%TO.C,C22*%
X142750000Y-100525000D03*
X142750000Y-98975000D03*
%TD*%
D20*
%TO.C,U3*%
X126300000Y-98500000D03*
X126300000Y-98000000D03*
X126300000Y-97500000D03*
X126300000Y-97000000D03*
X126300000Y-96500000D03*
X130700000Y-96500000D03*
X130700000Y-97000000D03*
X130700000Y-97500000D03*
X130700000Y-98000000D03*
X130700000Y-98500000D03*
%TD*%
D11*
%TO.C,R28*%
X142000000Y-126075000D03*
X142000000Y-120425000D03*
%TD*%
D18*
%TO.C,C23*%
X150750000Y-97975000D03*
X150750000Y-99525000D03*
%TD*%
D21*
%TO.C,D2*%
X141750000Y-113250000D03*
D22*
X141750000Y-110899000D03*
%TD*%
D23*
%TO.C,U1*%
X142937500Y-103250000D03*
X142937500Y-103750000D03*
X142937500Y-104250000D03*
X142937500Y-104750000D03*
X142937500Y-105250000D03*
X142937500Y-105750000D03*
X142937500Y-106250000D03*
X142937500Y-106750000D03*
X142937500Y-107250000D03*
X142937500Y-107750000D03*
D24*
X142250000Y-108437500D03*
X141750000Y-108437500D03*
X141250000Y-108437500D03*
X140750000Y-108437500D03*
X140250000Y-108437500D03*
X139750000Y-108437500D03*
X139250000Y-108437500D03*
X138750000Y-108437500D03*
X138250000Y-108437500D03*
X137750000Y-108437500D03*
D23*
X137062500Y-107750000D03*
X137062500Y-107250000D03*
X137062500Y-106750000D03*
X137062500Y-106250000D03*
X137062500Y-105750000D03*
X137062500Y-105250000D03*
X137062500Y-104750000D03*
X137062500Y-104250000D03*
X137062500Y-103750000D03*
X137062500Y-103250000D03*
D24*
X137750000Y-102562500D03*
X138250000Y-102562500D03*
X138750000Y-102562500D03*
X139250000Y-102562500D03*
X139750000Y-102562500D03*
X140250000Y-102562500D03*
X140750000Y-102562500D03*
X141250000Y-102562500D03*
X141750000Y-102562500D03*
X142250000Y-102562500D03*
D25*
X140000000Y-105500000D03*
%TD*%
D26*
%TO.C,U2*%
X148887500Y-97800000D03*
X148887500Y-98750000D03*
X148887500Y-99700000D03*
X146612500Y-99700000D03*
X146612500Y-97800000D03*
%TD*%
D27*
%TO.C,R31*%
X134500000Y-99575000D03*
X134500000Y-97925000D03*
%TD*%
D21*
%TO.C,D1*%
X138250000Y-113250000D03*
D22*
X138250000Y-110899000D03*
%TD*%
D28*
%TO.C,D7*%
X132515000Y-115790000D03*
X132515000Y-113710000D03*
D29*
X128710000Y-114750000D03*
%TD*%
D30*
%TO.C,R23*%
X122675000Y-97000000D03*
X124325000Y-97000000D03*
%TD*%
D31*
%TO.C,D13*%
X133462500Y-106000000D03*
X135037500Y-106000000D03*
%TD*%
D13*
%TO.C,C10*%
X144500000Y-111450000D03*
X144500000Y-109550000D03*
%TD*%
D32*
%TO.C,D8*%
X147485000Y-113710000D03*
X147485000Y-115790000D03*
D29*
X151290000Y-114750000D03*
%TD*%
D30*
%TO.C,R22*%
X133425000Y-103250000D03*
X135075000Y-103250000D03*
%TD*%
%TO.C,R26*%
X129425000Y-100250000D03*
X131075000Y-100250000D03*
%TD*%
D19*
%TO.C,C20*%
X137250000Y-100525000D03*
X137250000Y-98975000D03*
%TD*%
%TO.C,C21*%
X139000000Y-100525000D03*
X139000000Y-98975000D03*
%TD*%
%TO.C,C26*%
X132750000Y-99525000D03*
X132750000Y-97975000D03*
%TD*%
D33*
%TO.C,R9*%
X129000000Y-122150000D03*
X129000000Y-127350000D03*
%TD*%
D34*
%TO.C,R18*%
X141000000Y-98925000D03*
X141000000Y-100575000D03*
%TD*%
%TO.C,R20*%
X152500000Y-97925000D03*
X152500000Y-99575000D03*
%TD*%
D35*
%TO.C,C14*%
X154275000Y-127250000D03*
X157225000Y-127250000D03*
%TD*%
D36*
%TO.C,C18*%
X146525000Y-103250000D03*
X144975000Y-103250000D03*
%TD*%
D12*
%TO.C,C4*%
X152250000Y-110725000D03*
X152250000Y-107775000D03*
%TD*%
D33*
%TO.C,R10*%
X151000000Y-122150000D03*
X151000000Y-127350000D03*
%TD*%
D37*
%TO.C,R27*%
X147250000Y-120300000D03*
D38*
X145150000Y-120425000D03*
D39*
X146000000Y-126075000D03*
%TD*%
D17*
%TO.C,C19*%
X144975000Y-101750000D03*
X146525000Y-101750000D03*
%TD*%
D30*
%TO.C,R2*%
X142575000Y-116000000D03*
X144225000Y-116000000D03*
%TD*%
D12*
%TO.C,C1*%
X127750000Y-110725000D03*
X127750000Y-107775000D03*
%TD*%
D30*
%TO.C,R24*%
X122675000Y-95250000D03*
X124325000Y-95250000D03*
%TD*%
D10*
%TO.C,R25*%
X127825000Y-94750000D03*
X126175000Y-94750000D03*
%TD*%
D36*
%TO.C,C16*%
X145775000Y-113500000D03*
X144225000Y-113500000D03*
%TD*%
D17*
%TO.C,C25*%
X129475000Y-94750000D03*
X131025000Y-94750000D03*
%TD*%
M02*
