%TF.GenerationSoftware,KiCad,Pcbnew,10.0.0*%
%TF.CreationDate,2026-03-28T05:55:39-04:00*%
%TF.ProjectId,LTC7890_Buck,4c544337-3839-4305-9f42-75636b2e6b69,rev?*%
%TF.SameCoordinates,Original*%
%TF.FileFunction,Copper,L3,Inr*%
%TF.FilePolarity,Positive*%
%FSLAX46Y46*%
G04 Gerber Fmt 4.6, Leading zero omitted, Abs format (unit mm)*
G04 Created by KiCad (PCBNEW 10.0.0) date 2026-03-28 05:55:39*
%MOMM*%
%LPD*%
G01*
G04 APERTURE LIST*
G04 Aperture macros list*
%AMRoundRect*
0 Rectangle with rounded corners*
0 $1 Rounding radius*
0 $2 $3 $4 $5 $6 $7 $8 $9 X,Y pos of 4 corners*
0 Add a 4 corners polygon primitive as box body*
4,1,4,$2,$3,$4,$5,$6,$7,$8,$9,$2,$3,0*
0 Add four circle primitives for the rounded corners*
1,1,$1+$1,$2,$3*
1,1,$1+$1,$4,$5*
1,1,$1+$1,$6,$7*
1,1,$1+$1,$8,$9*
0 Add four rect primitives between the rounded corners*
20,1,$1+$1,$2,$3,$4,$5,0*
20,1,$1+$1,$4,$5,$6,$7,0*
20,1,$1+$1,$6,$7,$8,$9,0*
20,1,$1+$1,$8,$9,$2,$3,0*%
G04 Aperture macros list end*
%TA.AperFunction,ComponentPad*%
%ADD10RoundRect,0.250001X-0.949999X-0.949999X0.949999X-0.949999X0.949999X0.949999X-0.949999X0.949999X0*%
%TD*%
%TA.AperFunction,ComponentPad*%
%ADD11C,2.400000*%
%TD*%
%TA.AperFunction,ComponentPad*%
%ADD12O,1.400000X2.500000*%
%TD*%
%TA.AperFunction,ComponentPad*%
%ADD13C,4.500000*%
%TD*%
%TA.AperFunction,ComponentPad*%
%ADD14O,1.400000X2.200000*%
%TD*%
%TA.AperFunction,ComponentPad*%
%ADD15C,1.500000*%
%TD*%
%TA.AperFunction,ComponentPad*%
%ADD16RoundRect,0.250000X0.750000X0.750000X-0.750000X0.750000X-0.750000X-0.750000X0.750000X-0.750000X0*%
%TD*%
%TA.AperFunction,ComponentPad*%
%ADD17C,2.000000*%
%TD*%
%TA.AperFunction,ComponentPad*%
%ADD18O,3.450000X7.000000*%
%TD*%
%TA.AperFunction,ComponentPad*%
%ADD19RoundRect,0.250000X-0.750000X-0.750000X0.750000X-0.750000X0.750000X0.750000X-0.750000X0.750000X0*%
%TD*%
%TA.AperFunction,HeatsinkPad*%
%ADD20C,0.600000*%
%TD*%
%TA.AperFunction,ViaPad*%
%ADD21C,0.600000*%
%TD*%
%TA.AperFunction,Conductor*%
%ADD22C,0.250000*%
%TD*%
%TA.AperFunction,Conductor*%
%ADD23C,0.500000*%
%TD*%
G04 APERTURE END LIST*
D10*
%TO.N,VDD*%
%TO.C,C12*%
X125000000Y-90500000D03*
D11*
%TO.N,GNDPWR*%
X130000000Y-90500000D03*
%TD*%
D12*
%TO.N,GNDPWR*%
%TO.C,J1*%
X102250000Y-85000000D03*
X115750000Y-85000000D03*
D13*
X112600000Y-91000000D03*
%TO.N,VDD*%
X105400000Y-91000000D03*
%TD*%
D14*
%TO.N,GNDPWR*%
%TO.C,SW2*%
X159600000Y-100000000D03*
X173900000Y-100000000D03*
D15*
%TO.N,GNDA*%
X161750000Y-100000000D03*
%TO.N,+3.3V*%
X163750000Y-100000000D03*
%TO.N,Net-(J3-Pin_3)*%
X169750000Y-100000000D03*
%TO.N,Net-(J3-Pin_4)*%
X171750000Y-100000000D03*
%TO.N,Net-(U3-A1)*%
X165750000Y-100000000D03*
%TD*%
D16*
%TO.N,VOUT*%
%TO.C,C30*%
X126250000Y-131500000D03*
D17*
%TO.N,GNDPWR*%
X121250000Y-131500000D03*
%TD*%
D18*
%TO.N,Net-(D1-K)*%
%TO.C,L1*%
X158250000Y-112000000D03*
%TO.N,Net-(L1-Pad2)*%
X158250000Y-122500000D03*
%TD*%
D19*
%TO.N,VOUT*%
%TO.C,C3*%
X153750000Y-131500000D03*
D17*
%TO.N,GNDPWR*%
X158750000Y-131500000D03*
%TD*%
%TO.N,+24V*%
%TO.C,TP3*%
X150000000Y-135000000D03*
%TD*%
D18*
%TO.N,Net-(L2-Pad1)*%
%TO.C,L2*%
X121750000Y-122500000D03*
%TO.N,Net-(D2-K)*%
X121750000Y-112000000D03*
%TD*%
D10*
%TO.N,VDD*%
%TO.C,C15*%
X166250000Y-90500000D03*
D11*
%TO.N,GNDPWR*%
X171250000Y-90500000D03*
%TD*%
D14*
%TO.N,GNDPWR*%
%TO.C,SW1*%
X106100000Y-100000000D03*
X120400000Y-100000000D03*
D15*
%TO.N,GNDA*%
X108250000Y-100000000D03*
%TO.N,+3.3V*%
X110250000Y-100000000D03*
%TO.N,Net-(J3-Pin_3)*%
X116250000Y-100000000D03*
%TO.N,Net-(J3-Pin_4)*%
X118250000Y-100000000D03*
%TO.N,Net-(U3-A0)*%
X112250000Y-100000000D03*
%TD*%
D17*
%TO.N,GNDPWR*%
%TO.C,TP2*%
X119000000Y-85000000D03*
%TD*%
%TO.N,GNDPWR*%
%TO.C,TP4*%
X130000000Y-135000000D03*
%TD*%
%TO.N,VDD*%
%TO.C,TP1*%
X99000000Y-85000000D03*
%TD*%
D10*
%TO.N,VDD*%
%TO.C,C13*%
X138750000Y-90500000D03*
D11*
%TO.N,GNDPWR*%
X143750000Y-90500000D03*
%TD*%
D20*
%TO.N,GNDPWR*%
%TO.C,U1*%
X141750000Y-105000000D03*
X140600000Y-105000000D03*
X139400000Y-105000000D03*
X138250000Y-105000000D03*
X141750000Y-106150000D03*
X140600000Y-106150000D03*
X139400000Y-106150000D03*
X138250000Y-106150000D03*
X141750000Y-107350000D03*
X140600000Y-107350000D03*
X139400000Y-107350000D03*
X138250000Y-107350000D03*
X141750000Y-108500000D03*
X140600000Y-108500000D03*
X139400000Y-108500000D03*
X138250000Y-108500000D03*
%TD*%
D12*
%TO.N,GNDPWR*%
%TO.C,J2*%
X146750000Y-135000000D03*
X133250000Y-135000000D03*
D13*
X136400000Y-129000000D03*
%TO.N,+24V*%
X143600000Y-129000000D03*
%TD*%
D10*
%TO.N,VDD*%
%TO.C,C14*%
X152500000Y-90500000D03*
D11*
%TO.N,GNDPWR*%
X157500000Y-90500000D03*
%TD*%
D21*
%TO.N,GNDPWR*%
X130000000Y-117500000D03*
X182500000Y-96000000D03*
X155000000Y-92000000D03*
X157500000Y-104000000D03*
X150000000Y-117500000D03*
X165000000Y-84000000D03*
X131000000Y-101250000D03*
X149500000Y-100750000D03*
X142500000Y-88000000D03*
X155000000Y-101250000D03*
X150500000Y-100750000D03*
X117500000Y-128000000D03*
X150500000Y-117000000D03*
X170000000Y-84000000D03*
X128500000Y-118000000D03*
X125000000Y-124000000D03*
X132500000Y-88000000D03*
X97500000Y-88000000D03*
X167500000Y-112000000D03*
X177500000Y-120000000D03*
X162500000Y-104000000D03*
X153000000Y-116500000D03*
X127500000Y-88000000D03*
X152500000Y-136000000D03*
X165000000Y-132000000D03*
X172500000Y-112000000D03*
X151000000Y-116500000D03*
X97500000Y-136000000D03*
X162500000Y-136000000D03*
X134000000Y-112000000D03*
X122500000Y-88000000D03*
X133250000Y-112500000D03*
X105000000Y-116000000D03*
X112500000Y-104000000D03*
X182500000Y-104000000D03*
X154000000Y-101250000D03*
X130000000Y-116500000D03*
X125500000Y-100750000D03*
X167500000Y-104000000D03*
X165000000Y-116000000D03*
X132500000Y-112000000D03*
X157500000Y-88000000D03*
X115000000Y-132000000D03*
X126000000Y-101250000D03*
X128000000Y-116500000D03*
X182500000Y-128000000D03*
X177500000Y-104000000D03*
X127000000Y-117500000D03*
X130000000Y-101250000D03*
X126500000Y-100750000D03*
X153000000Y-101250000D03*
X129000000Y-116500000D03*
X157500000Y-136000000D03*
X172500000Y-120000000D03*
X152500000Y-88000000D03*
X149000000Y-101250000D03*
X149500000Y-118000000D03*
X180000000Y-116000000D03*
X127500000Y-100750000D03*
X127500000Y-118000000D03*
X107500000Y-120000000D03*
X127000000Y-116500000D03*
X135000000Y-92000000D03*
X177500000Y-112000000D03*
X149000000Y-117500000D03*
X142500000Y-136000000D03*
X175000000Y-92000000D03*
X134750000Y-112500000D03*
X145000000Y-132000000D03*
X151500000Y-100750000D03*
X151000000Y-117500000D03*
X150000000Y-92000000D03*
X124000000Y-101250000D03*
X152500000Y-120000000D03*
X165000000Y-124000000D03*
X129000000Y-117500000D03*
X148500000Y-100750000D03*
X151000000Y-101250000D03*
X97500000Y-112000000D03*
X105000000Y-84000000D03*
X112500000Y-112000000D03*
X130500000Y-117000000D03*
X112500000Y-136000000D03*
X128500000Y-117000000D03*
X127500000Y-120000000D03*
X105000000Y-132000000D03*
X131500000Y-117000000D03*
X175000000Y-132000000D03*
X102500000Y-120000000D03*
X128000000Y-117500000D03*
X129000000Y-101250000D03*
X151500000Y-118000000D03*
X120000000Y-116000000D03*
X137500000Y-88000000D03*
X97500000Y-120000000D03*
X100000000Y-132000000D03*
X100000000Y-116000000D03*
X152000000Y-116500000D03*
X107500000Y-128000000D03*
X148500000Y-117000000D03*
X155000000Y-84000000D03*
X155500000Y-100750000D03*
X165000000Y-108000000D03*
X152500000Y-117000000D03*
X162500000Y-128000000D03*
X115000000Y-108000000D03*
X162500000Y-88000000D03*
X130500000Y-100750000D03*
X110000000Y-124000000D03*
X177500000Y-136000000D03*
X107500000Y-96000000D03*
X110000000Y-116000000D03*
X150000000Y-116500000D03*
X130000000Y-124000000D03*
X180000000Y-100000000D03*
X177500000Y-128000000D03*
X117500000Y-136000000D03*
X125000000Y-84000000D03*
X128500000Y-100750000D03*
X131000000Y-116500000D03*
X152000000Y-101250000D03*
X180000000Y-108000000D03*
X117500000Y-88000000D03*
X172500000Y-128000000D03*
X117500000Y-120000000D03*
X112500000Y-128000000D03*
X150500000Y-118000000D03*
X175000000Y-108000000D03*
X127500000Y-117000000D03*
X125000000Y-101250000D03*
X160000000Y-92000000D03*
X110000000Y-84000000D03*
X149500000Y-117000000D03*
X182500000Y-136000000D03*
X140000000Y-132000000D03*
X154500000Y-100750000D03*
X122500000Y-104000000D03*
X115000000Y-116000000D03*
X97500000Y-128000000D03*
X117500000Y-104000000D03*
X151500000Y-117000000D03*
X162500000Y-120000000D03*
X115000000Y-124000000D03*
X129500000Y-117000000D03*
X100000000Y-100000000D03*
X152500000Y-118000000D03*
X120000000Y-108000000D03*
X102500000Y-104000000D03*
X156000000Y-101250000D03*
X110000000Y-108000000D03*
X170000000Y-124000000D03*
X160000000Y-84000000D03*
X102500000Y-128000000D03*
X131000000Y-117500000D03*
X172500000Y-104000000D03*
X122500000Y-136000000D03*
X180000000Y-124000000D03*
X124500000Y-100750000D03*
X175000000Y-116000000D03*
X107500000Y-136000000D03*
X100000000Y-92000000D03*
X129500000Y-100750000D03*
X129500000Y-118000000D03*
X107500000Y-88000000D03*
X167500000Y-136000000D03*
X153000000Y-117500000D03*
X105000000Y-108000000D03*
X155000000Y-124000000D03*
X170000000Y-108000000D03*
X153500000Y-100750000D03*
X147500000Y-88000000D03*
X162500000Y-112000000D03*
X160000000Y-108000000D03*
X107500000Y-104000000D03*
X182500000Y-88000000D03*
X175000000Y-84000000D03*
X149000000Y-116500000D03*
X137500000Y-136000000D03*
X150000000Y-124000000D03*
X172500000Y-96000000D03*
X102500000Y-96000000D03*
X182500000Y-112000000D03*
X145000000Y-84000000D03*
X127500000Y-136000000D03*
X112500000Y-96000000D03*
X150000000Y-84000000D03*
X152000000Y-117500000D03*
X170000000Y-116000000D03*
X128000000Y-101250000D03*
X97500000Y-96000000D03*
X100000000Y-108000000D03*
X110000000Y-132000000D03*
X170000000Y-132000000D03*
X105000000Y-124000000D03*
X167500000Y-96000000D03*
X140000000Y-84000000D03*
X102500000Y-136000000D03*
X172500000Y-136000000D03*
X152500000Y-100750000D03*
X112500000Y-120000000D03*
X175000000Y-124000000D03*
X117500000Y-112000000D03*
X127000000Y-101250000D03*
X131500000Y-100750000D03*
X107500000Y-112000000D03*
X180000000Y-132000000D03*
X182500000Y-120000000D03*
X102500000Y-88000000D03*
X97500000Y-104000000D03*
X167500000Y-120000000D03*
X130500000Y-118000000D03*
X167500000Y-88000000D03*
X167500000Y-128000000D03*
X160000000Y-116000000D03*
X172500000Y-88000000D03*
X100000000Y-124000000D03*
X130000000Y-84000000D03*
X102500000Y-112000000D03*
X120000000Y-92000000D03*
X135000000Y-84000000D03*
X150000000Y-101250000D03*
X135000000Y-132000000D03*
%TO.N,VDD*%
X129250000Y-106250000D03*
X127750000Y-106250000D03*
X150750000Y-106250000D03*
X126250000Y-106250000D03*
X147750000Y-106250000D03*
X129250000Y-105500000D03*
X147750000Y-105500000D03*
X149250000Y-105500000D03*
X149250000Y-106250000D03*
X153750000Y-105500000D03*
X150750000Y-105500000D03*
X130750000Y-106250000D03*
X126250000Y-105500000D03*
X132250000Y-105500000D03*
X124750000Y-105500000D03*
X132250000Y-106250000D03*
X155250000Y-105500000D03*
X124750000Y-106250000D03*
X155250000Y-106250000D03*
X152250000Y-106250000D03*
X141500000Y-112500000D03*
X153750000Y-106250000D03*
X127750000Y-105500000D03*
X133750000Y-106250000D03*
X130750000Y-105500000D03*
X152250000Y-105500000D03*
X133750000Y-105500000D03*
%TO.N,GNDA*%
X140750000Y-101250000D03*
X146250000Y-101250000D03*
X144000000Y-101250000D03*
X135750000Y-100500000D03*
X136250000Y-106250000D03*
X146000000Y-106250000D03*
X137500000Y-101250000D03*
X134500000Y-102000000D03*
%TO.N,+3.3V*%
X152750000Y-97250000D03*
X143400000Y-98075000D03*
%TO.N,Net-(J3-Pin_3)*%
X175250000Y-98500000D03*
X179250000Y-87750000D03*
X154750000Y-97750000D03*
%TO.N,Net-(J3-Pin_4)*%
X150000000Y-98750000D03*
X179250000Y-86500000D03*
X175375000Y-96375000D03*
%TO.N,Net-(Q3-SS)*%
X132250000Y-108750000D03*
X136250000Y-109250000D03*
%TO.N,VOUT*%
X140000000Y-126000000D03*
X153500000Y-126000000D03*
X140000000Y-110750000D03*
X143750000Y-103750000D03*
X126500000Y-126000000D03*
X136250000Y-103750000D03*
%TO.N,Net-(L1-Pad2)*%
X143750000Y-102800000D03*
X153500000Y-124000000D03*
%TO.N,+5V*%
X138500000Y-112500000D03*
X135750000Y-102000000D03*
X141500000Y-99500000D03*
%TO.N,+24V*%
X138250000Y-121250000D03*
X146250000Y-122250000D03*
X139750000Y-120750000D03*
X137750000Y-120750000D03*
X148250000Y-122250000D03*
X146750000Y-121750000D03*
X138750000Y-121750000D03*
X147250000Y-120250000D03*
X144750000Y-121250000D03*
X142250000Y-121750000D03*
X147750000Y-120750000D03*
X134750000Y-121250000D03*
X137250000Y-121250000D03*
X139750000Y-121750000D03*
X138250000Y-122250000D03*
X135750000Y-120250000D03*
X134750000Y-122250000D03*
X143750000Y-120250000D03*
X146250000Y-121250000D03*
X147250000Y-122250000D03*
X132750000Y-122250000D03*
X133750000Y-122250000D03*
X139250000Y-121250000D03*
X139250000Y-120250000D03*
X137750000Y-121750000D03*
X137250000Y-120250000D03*
X135750000Y-122250000D03*
X135750000Y-121250000D03*
X132750000Y-120250000D03*
X143750000Y-121250000D03*
X146750000Y-120750000D03*
X147750000Y-121750000D03*
X138750000Y-120750000D03*
X137250000Y-122250000D03*
X142750000Y-121250000D03*
X135250000Y-120750000D03*
X142750000Y-122250000D03*
X144250000Y-121750000D03*
X148250000Y-120250000D03*
X134250000Y-120750000D03*
X133750000Y-120250000D03*
X142250000Y-120750000D03*
X143750000Y-122250000D03*
X133750000Y-121250000D03*
X138250000Y-120250000D03*
X133250000Y-121750000D03*
X133250000Y-120750000D03*
X139250000Y-122250000D03*
X134750000Y-120250000D03*
X143250000Y-121750000D03*
X147250000Y-121250000D03*
X146250000Y-120250000D03*
X132750000Y-121250000D03*
X143250000Y-120750000D03*
X135250000Y-121750000D03*
X148250000Y-121250000D03*
X142750000Y-120250000D03*
X144750000Y-120250000D03*
X144750000Y-122250000D03*
X134250000Y-121750000D03*
X144250000Y-120750000D03*
%TO.N,/~{Alert}*%
X139000000Y-101250000D03*
X146500000Y-96500000D03*
%TO.N,Net-(L2-Pad1)*%
X126500000Y-124000000D03*
X136100000Y-102800000D03*
%TO.N,Net-(U3-A0)*%
X146000000Y-95500000D03*
%TO.N,Net-(U1-SNS2+)*%
X136000000Y-104750000D03*
%TO.N,Net-(U1-VFB1)*%
X144200000Y-105450000D03*
%TO.N,Net-(U1-SNS1+)*%
X143900000Y-104700000D03*
%TO.N,/R-*%
X145000000Y-100500000D03*
X140000000Y-115000000D03*
%TO.N,Net-(R24-Pad1)*%
X136500000Y-123250000D03*
X139250000Y-116750000D03*
%TO.N,/R+*%
X140000000Y-114175000D03*
X146250000Y-100250000D03*
%TO.N,Net-(R22-Pad1)*%
X145500000Y-123250000D03*
X143750000Y-116750000D03*
%TO.N,Net-(R25-Pad1)*%
X132000000Y-123250000D03*
X136250000Y-116750000D03*
%TO.N,Net-(R23-Pad1)*%
X141000000Y-123250000D03*
X140750000Y-116750000D03*
%TO.N,Net-(D3-A)*%
X134750000Y-105850000D03*
%TD*%
%TO.N,+3.3V*%
D22*
X152750000Y-97250000D02*
X151925000Y-98075000D01*
X151925000Y-98075000D02*
X143400000Y-98075000D01*
%TO.N,Net-(J3-Pin_3)*%
X154750000Y-97750000D02*
X155837040Y-97750000D01*
X155837040Y-97750000D02*
X156337040Y-98250000D01*
X154750000Y-97750000D02*
X154250000Y-97750000D01*
X168000000Y-98250000D02*
X169750000Y-100000000D01*
X147250000Y-97250000D02*
X119000000Y-97250000D01*
X154250000Y-97750000D02*
X153000000Y-96500000D01*
X156337040Y-98250000D02*
X168000000Y-98250000D01*
X119000000Y-97250000D02*
X116250000Y-100000000D01*
X153000000Y-96500000D02*
X148000000Y-96500000D01*
X148000000Y-96500000D02*
X147250000Y-97250000D01*
%TO.N,Net-(J3-Pin_4)*%
X121000000Y-98500000D02*
X119750000Y-98500000D01*
X180000000Y-87250000D02*
X179250000Y-86500000D01*
X159250000Y-101750000D02*
X170000000Y-101750000D01*
X175375000Y-96375000D02*
X180000000Y-91750000D01*
X171750000Y-100000000D02*
X175375000Y-96375000D01*
X119750000Y-98500000D02*
X118250000Y-100000000D01*
X180000000Y-91750000D02*
X180000000Y-87250000D01*
X150750000Y-99500000D02*
X157000000Y-99500000D01*
X157000000Y-99500000D02*
X159250000Y-101750000D01*
X150000000Y-98750000D02*
X150750000Y-99500000D01*
X150000000Y-98750000D02*
X121250000Y-98750000D01*
X170000000Y-101750000D02*
X171750000Y-100000000D01*
X121250000Y-98750000D02*
X121000000Y-98500000D01*
%TO.N,Net-(Q3-SS)*%
D23*
X132250000Y-108750000D02*
X135750000Y-108750000D01*
X135750000Y-108750000D02*
X136250000Y-109250000D01*
%TO.N,VOUT*%
D22*
X152750000Y-123750000D02*
X144825000Y-115825000D01*
X153500000Y-126000000D02*
X153500000Y-125000000D01*
X137125000Y-113375000D02*
X137125000Y-104625000D01*
X144825000Y-115825000D02*
X144825000Y-104741116D01*
X127250000Y-123250000D02*
X137125000Y-113375000D01*
X125750000Y-125250000D02*
X125750000Y-123750000D01*
X152750000Y-124250000D02*
X152750000Y-123750000D01*
X144825000Y-104741116D02*
X143833884Y-103750000D01*
X143833884Y-103750000D02*
X143750000Y-103750000D01*
X137125000Y-104625000D02*
X136250000Y-103750000D01*
X125750000Y-123750000D02*
X126250000Y-123250000D01*
X153500000Y-125000000D02*
X152750000Y-124250000D01*
X126500000Y-126000000D02*
X125750000Y-125250000D01*
X126250000Y-123250000D02*
X127250000Y-123250000D01*
%TO.N,Net-(L1-Pad2)*%
X145375000Y-115625000D02*
X145375000Y-104425000D01*
X153500000Y-123750000D02*
X145375000Y-115625000D01*
X145375000Y-104425000D02*
X143750000Y-102800000D01*
X153500000Y-124000000D02*
X153500000Y-123750000D01*
%TO.N,Net-(L2-Pad1)*%
X137625000Y-113625000D02*
X127250000Y-124000000D01*
X137625000Y-104125000D02*
X137625000Y-113625000D01*
X137625000Y-104125000D02*
X136300000Y-102800000D01*
X127250000Y-124000000D02*
X126500000Y-124000000D01*
X136300000Y-102800000D02*
X136100000Y-102800000D01*
%TO.N,Net-(U3-A0)*%
X116750000Y-95500000D02*
X112250000Y-100000000D01*
X146000000Y-95500000D02*
X116750000Y-95500000D01*
%TO.N,/R-*%
X140750000Y-115000000D02*
X143000000Y-112750000D01*
X143000000Y-112750000D02*
X143000000Y-101250000D01*
X143000000Y-101250000D02*
X143750000Y-100500000D01*
X143750000Y-100500000D02*
X145000000Y-100500000D01*
X140000000Y-115000000D02*
X140750000Y-115000000D01*
%TO.N,Net-(R24-Pad1)*%
X136500000Y-119500000D02*
X139250000Y-116750000D01*
X136500000Y-123250000D02*
X136500000Y-119500000D01*
%TO.N,/R+*%
X140825000Y-114175000D02*
X140000000Y-114175000D01*
X145750000Y-99750000D02*
X143750000Y-99750000D01*
X142500000Y-101000000D02*
X142500000Y-112500000D01*
X142500000Y-112500000D02*
X140825000Y-114175000D01*
X146250000Y-100250000D02*
X145750000Y-99750000D01*
X143750000Y-99750000D02*
X142500000Y-101000000D01*
%TO.N,Net-(R22-Pad1)*%
X145500000Y-123250000D02*
X145500000Y-118500000D01*
X145500000Y-118500000D02*
X143750000Y-116750000D01*
%TO.N,Net-(R25-Pad1)*%
X132000000Y-120000000D02*
X135250000Y-116750000D01*
X132000000Y-123250000D02*
X132000000Y-120000000D01*
X135250000Y-116750000D02*
X136250000Y-116750000D01*
%TO.N,Net-(R23-Pad1)*%
X141000000Y-117000000D02*
X140750000Y-116750000D01*
X141000000Y-123250000D02*
X141000000Y-117000000D01*
%TD*%
%TA.AperFunction,Conductor*%
%TO.N,GNDPWR*%
G36*
X167880850Y-98595185D02*
G01*
X167901492Y-98611819D01*
X168375700Y-99086027D01*
X168829105Y-99539431D01*
X168862590Y-99600754D01*
X168857606Y-99670445D01*
X168855990Y-99674553D01*
X168836027Y-99722749D01*
X168836026Y-99722752D01*
X168836026Y-99722753D01*
X168836025Y-99722756D01*
X168799500Y-99906379D01*
X168799500Y-100093620D01*
X168836025Y-100277243D01*
X168836027Y-100277251D01*
X168907676Y-100450228D01*
X168907681Y-100450237D01*
X169011697Y-100605907D01*
X169011700Y-100605911D01*
X169144088Y-100738299D01*
X169144092Y-100738302D01*
X169299762Y-100842318D01*
X169299771Y-100842323D01*
X169318305Y-100850000D01*
X169472749Y-100913973D01*
X169656379Y-100950499D01*
X169656383Y-100950500D01*
X169656384Y-100950500D01*
X169843617Y-100950500D01*
X169843618Y-100950499D01*
X170027251Y-100913973D01*
X170046155Y-100906142D01*
X170115620Y-100898673D01*
X170178100Y-100929945D01*
X170213754Y-100990033D01*
X170211263Y-101059858D01*
X170181288Y-101108384D01*
X169901492Y-101388181D01*
X169840169Y-101421666D01*
X169813811Y-101424500D01*
X160185456Y-101424500D01*
X160118417Y-101404815D01*
X160072662Y-101352011D01*
X160062718Y-101282853D01*
X160091743Y-101219297D01*
X160116565Y-101197398D01*
X160205589Y-101137913D01*
X160205593Y-101137910D01*
X160337910Y-101005593D01*
X160337913Y-101005589D01*
X160441875Y-100850000D01*
X160441880Y-100849991D01*
X160513491Y-100677105D01*
X160513493Y-100677097D01*
X160548720Y-100500000D01*
X159987316Y-100500000D01*
X160000000Y-100452661D01*
X160000000Y-99906379D01*
X160799500Y-99906379D01*
X160799500Y-100093620D01*
X160836025Y-100277243D01*
X160836027Y-100277251D01*
X160907676Y-100450228D01*
X160907681Y-100450237D01*
X161011697Y-100605907D01*
X161011700Y-100605911D01*
X161144088Y-100738299D01*
X161144092Y-100738302D01*
X161299762Y-100842318D01*
X161299771Y-100842323D01*
X161318305Y-100850000D01*
X161472749Y-100913973D01*
X161656379Y-100950499D01*
X161656383Y-100950500D01*
X161656384Y-100950500D01*
X161843617Y-100950500D01*
X161843618Y-100950499D01*
X162027251Y-100913973D01*
X162200231Y-100842322D01*
X162355908Y-100738302D01*
X162488302Y-100605908D01*
X162592322Y-100450231D01*
X162635439Y-100346138D01*
X162679280Y-100291734D01*
X162745574Y-100269669D01*
X162813273Y-100286948D01*
X162860884Y-100338085D01*
X162864561Y-100346138D01*
X162907674Y-100450224D01*
X162907681Y-100450237D01*
X163011697Y-100605907D01*
X163011700Y-100605911D01*
X163144088Y-100738299D01*
X163144092Y-100738302D01*
X163299762Y-100842318D01*
X163299771Y-100842323D01*
X163318305Y-100850000D01*
X163472749Y-100913973D01*
X163656379Y-100950499D01*
X163656383Y-100950500D01*
X163656384Y-100950500D01*
X163843617Y-100950500D01*
X163843618Y-100950499D01*
X164027251Y-100913973D01*
X164200231Y-100842322D01*
X164355908Y-100738302D01*
X164488302Y-100605908D01*
X164592322Y-100450231D01*
X164635439Y-100346138D01*
X164679280Y-100291734D01*
X164745574Y-100269669D01*
X164813273Y-100286948D01*
X164860884Y-100338085D01*
X164864561Y-100346138D01*
X164907674Y-100450224D01*
X164907681Y-100450237D01*
X165011697Y-100605907D01*
X165011700Y-100605911D01*
X165144088Y-100738299D01*
X165144092Y-100738302D01*
X165299762Y-100842318D01*
X165299771Y-100842323D01*
X165318305Y-100850000D01*
X165472749Y-100913973D01*
X165656379Y-100950499D01*
X165656383Y-100950500D01*
X165656384Y-100950500D01*
X165843617Y-100950500D01*
X165843618Y-100950499D01*
X166027251Y-100913973D01*
X166200231Y-100842322D01*
X166355908Y-100738302D01*
X166488302Y-100605908D01*
X166592322Y-100450231D01*
X166663973Y-100277251D01*
X166700500Y-100093616D01*
X166700500Y-99906384D01*
X166663973Y-99722749D01*
X166592322Y-99549769D01*
X166592321Y-99549768D01*
X166592318Y-99549762D01*
X166488302Y-99394092D01*
X166488299Y-99394088D01*
X166355911Y-99261700D01*
X166355907Y-99261697D01*
X166200237Y-99157681D01*
X166200228Y-99157676D01*
X166027251Y-99086027D01*
X166027243Y-99086025D01*
X165843620Y-99049500D01*
X165843616Y-99049500D01*
X165656384Y-99049500D01*
X165656379Y-99049500D01*
X165472756Y-99086025D01*
X165472748Y-99086027D01*
X165299771Y-99157676D01*
X165299762Y-99157681D01*
X165144092Y-99261697D01*
X165144088Y-99261700D01*
X165011700Y-99394088D01*
X165011697Y-99394092D01*
X164907681Y-99549762D01*
X164907676Y-99549772D01*
X164864561Y-99653862D01*
X164820720Y-99708265D01*
X164754426Y-99730330D01*
X164686726Y-99713051D01*
X164639116Y-99661913D01*
X164635439Y-99653862D01*
X164599000Y-99565891D01*
X164592322Y-99549769D01*
X164592320Y-99549766D01*
X164592318Y-99549762D01*
X164488302Y-99394092D01*
X164488299Y-99394088D01*
X164355911Y-99261700D01*
X164355907Y-99261697D01*
X164200237Y-99157681D01*
X164200228Y-99157676D01*
X164027251Y-99086027D01*
X164027243Y-99086025D01*
X163843620Y-99049500D01*
X163843616Y-99049500D01*
X163656384Y-99049500D01*
X163656379Y-99049500D01*
X163472756Y-99086025D01*
X163472748Y-99086027D01*
X163299771Y-99157676D01*
X163299762Y-99157681D01*
X163144092Y-99261697D01*
X163144088Y-99261700D01*
X163011700Y-99394088D01*
X163011697Y-99394092D01*
X162907681Y-99549762D01*
X162907676Y-99549772D01*
X162864561Y-99653862D01*
X162820720Y-99708265D01*
X162754426Y-99730330D01*
X162686726Y-99713051D01*
X162639116Y-99661913D01*
X162635439Y-99653862D01*
X162599000Y-99565891D01*
X162592322Y-99549769D01*
X162592320Y-99549766D01*
X162592318Y-99549762D01*
X162488302Y-99394092D01*
X162488299Y-99394088D01*
X162355911Y-99261700D01*
X162355907Y-99261697D01*
X162200237Y-99157681D01*
X162200228Y-99157676D01*
X162027251Y-99086027D01*
X162027243Y-99086025D01*
X161843620Y-99049500D01*
X161843616Y-99049500D01*
X161656384Y-99049500D01*
X161656379Y-99049500D01*
X161472756Y-99086025D01*
X161472748Y-99086027D01*
X161299771Y-99157676D01*
X161299762Y-99157681D01*
X161144092Y-99261697D01*
X161144088Y-99261700D01*
X161011700Y-99394088D01*
X161011697Y-99394092D01*
X160907681Y-99549762D01*
X160907676Y-99549771D01*
X160836027Y-99722748D01*
X160836025Y-99722756D01*
X160799500Y-99906379D01*
X160000000Y-99906379D01*
X160000000Y-99547339D01*
X159987316Y-99500000D01*
X160548720Y-99500000D01*
X160513493Y-99322902D01*
X160513491Y-99322894D01*
X160441880Y-99150008D01*
X160441875Y-99149999D01*
X160337913Y-98994410D01*
X160337910Y-98994406D01*
X160205593Y-98862089D01*
X160205589Y-98862086D01*
X160116565Y-98802602D01*
X160071760Y-98748990D01*
X160063053Y-98679665D01*
X160093207Y-98616637D01*
X160152650Y-98579918D01*
X160185456Y-98575500D01*
X167813811Y-98575500D01*
X167880850Y-98595185D01*
G37*
%TD.AperFunction*%
%TA.AperFunction,Conductor*%
G36*
X153385701Y-97358590D02*
G01*
X153424571Y-97384898D01*
X154050138Y-98010465D01*
X154124361Y-98053318D01*
X154207147Y-98075500D01*
X154292853Y-98075500D01*
X154316324Y-98075500D01*
X154383363Y-98095185D01*
X154404005Y-98111819D01*
X154442686Y-98150500D01*
X154556814Y-98216392D01*
X154684108Y-98250500D01*
X154684110Y-98250500D01*
X154815890Y-98250500D01*
X154815892Y-98250500D01*
X154943186Y-98216392D01*
X155057314Y-98150500D01*
X155095995Y-98111819D01*
X155157318Y-98078334D01*
X155183676Y-98075500D01*
X155650851Y-98075500D01*
X155717890Y-98095185D01*
X155738532Y-98111819D01*
X155933526Y-98306812D01*
X156076573Y-98449859D01*
X156076575Y-98449862D01*
X156137178Y-98510465D01*
X156174290Y-98531891D01*
X156183410Y-98537157D01*
X156183413Y-98537159D01*
X156199360Y-98546366D01*
X156211401Y-98553318D01*
X156294187Y-98575500D01*
X159014544Y-98575500D01*
X159081583Y-98595185D01*
X159127338Y-98647989D01*
X159137282Y-98717147D01*
X159108257Y-98780703D01*
X159083435Y-98802602D01*
X158994410Y-98862086D01*
X158994406Y-98862089D01*
X158862089Y-98994406D01*
X158862086Y-98994410D01*
X158758124Y-99149999D01*
X158758119Y-99150008D01*
X158686508Y-99322894D01*
X158686506Y-99322902D01*
X158651280Y-99500000D01*
X159212684Y-99500000D01*
X159200000Y-99547339D01*
X159200000Y-100452661D01*
X159212684Y-100500000D01*
X158650711Y-100500000D01*
X158594253Y-100538457D01*
X158524408Y-100540328D01*
X158468465Y-100508139D01*
X158298411Y-100338085D01*
X157199862Y-99239535D01*
X157161085Y-99217147D01*
X157125640Y-99196682D01*
X157084246Y-99185591D01*
X157042853Y-99174500D01*
X157042852Y-99174500D01*
X150936189Y-99174500D01*
X150869150Y-99154815D01*
X150848508Y-99138181D01*
X150536819Y-98826492D01*
X150503334Y-98765169D01*
X150502443Y-98760677D01*
X150500500Y-98749831D01*
X150500500Y-98684108D01*
X150466392Y-98556814D01*
X150465710Y-98555633D01*
X150464050Y-98546366D01*
X150467283Y-98516639D01*
X150467995Y-98486744D01*
X150471021Y-98482272D01*
X150471605Y-98476906D01*
X150490392Y-98453650D01*
X150507157Y-98428881D01*
X150512121Y-98426755D01*
X150515513Y-98422557D01*
X150543892Y-98413150D01*
X150571386Y-98401377D01*
X150581169Y-98400794D01*
X150581834Y-98400574D01*
X150582405Y-98400720D01*
X150586107Y-98400500D01*
X151967851Y-98400500D01*
X151967853Y-98400500D01*
X152050639Y-98378318D01*
X152124862Y-98335465D01*
X152673508Y-97786819D01*
X152734831Y-97753334D01*
X152761189Y-97750500D01*
X152815890Y-97750500D01*
X152815892Y-97750500D01*
X152943186Y-97716392D01*
X153057314Y-97650500D01*
X153150500Y-97557314D01*
X153216392Y-97443186D01*
X153217115Y-97440486D01*
X153218347Y-97438465D01*
X153219500Y-97435682D01*
X153219934Y-97435861D01*
X153253479Y-97380826D01*
X153316326Y-97350296D01*
X153385701Y-97358590D01*
G37*
%TD.AperFunction*%
%TA.AperFunction,Conductor*%
G36*
X182742539Y-83220185D02*
G01*
X182788294Y-83272989D01*
X182799500Y-83324500D01*
X182799500Y-136675500D01*
X182779815Y-136742539D01*
X182727011Y-136788294D01*
X182675500Y-136799500D01*
X97324500Y-136799500D01*
X97257461Y-136779815D01*
X97211706Y-136727011D01*
X97200500Y-136675500D01*
X97200500Y-136165414D01*
X129541691Y-136165414D01*
X129707294Y-136219221D01*
X129901618Y-136250000D01*
X130098382Y-136250000D01*
X130292703Y-136219221D01*
X130458307Y-136165413D01*
X130000001Y-135707106D01*
X130000000Y-135707106D01*
X129541691Y-136165414D01*
X97200500Y-136165414D01*
X97200500Y-135643571D01*
X132300000Y-135643571D01*
X132336506Y-135827097D01*
X132336508Y-135827105D01*
X132408119Y-135999991D01*
X132408124Y-136000000D01*
X132512086Y-136155589D01*
X132512089Y-136155593D01*
X132644406Y-136287910D01*
X132644410Y-136287913D01*
X132750000Y-136358466D01*
X132750000Y-136358465D01*
X133750000Y-136358465D01*
X133855589Y-136287913D01*
X133855593Y-136287910D01*
X133987910Y-136155593D01*
X133987913Y-136155589D01*
X134091875Y-136000000D01*
X134091880Y-135999991D01*
X134163491Y-135827105D01*
X134163493Y-135827097D01*
X134199999Y-135643571D01*
X145800000Y-135643571D01*
X145836506Y-135827097D01*
X145836508Y-135827105D01*
X145908119Y-135999991D01*
X145908124Y-136000000D01*
X146012086Y-136155589D01*
X146012089Y-136155593D01*
X146144406Y-136287910D01*
X146144410Y-136287913D01*
X146250000Y-136358466D01*
X146250000Y-136358465D01*
X147250000Y-136358465D01*
X147355589Y-136287913D01*
X147355593Y-136287910D01*
X147487910Y-136155593D01*
X147487913Y-136155589D01*
X147591875Y-136000000D01*
X147591880Y-135999991D01*
X147663491Y-135827105D01*
X147663493Y-135827097D01*
X147699999Y-135643571D01*
X147700000Y-135643569D01*
X147700000Y-135500000D01*
X147250000Y-135500000D01*
X147250000Y-136358465D01*
X146250000Y-136358465D01*
X146250000Y-135500000D01*
X145800000Y-135500000D01*
X145800000Y-135643571D01*
X134199999Y-135643571D01*
X134200000Y-135643569D01*
X134200000Y-135500000D01*
X133750000Y-135500000D01*
X133750000Y-136358465D01*
X132750000Y-136358465D01*
X132750000Y-135500000D01*
X132300000Y-135500000D01*
X132300000Y-135643571D01*
X97200500Y-135643571D01*
X97200500Y-134901617D01*
X128750000Y-134901617D01*
X128750000Y-135098382D01*
X128780779Y-135292710D01*
X128780779Y-135292713D01*
X128834584Y-135458307D01*
X128834585Y-135458307D01*
X129292893Y-135000000D01*
X129227067Y-134934174D01*
X129500000Y-134934174D01*
X129500000Y-135065826D01*
X129534075Y-135192993D01*
X129599901Y-135307007D01*
X129692993Y-135400099D01*
X129807007Y-135465925D01*
X129934174Y-135500000D01*
X130065826Y-135500000D01*
X130192993Y-135465925D01*
X130307007Y-135400099D01*
X130400099Y-135307007D01*
X130465925Y-135192993D01*
X130500000Y-135065826D01*
X130500000Y-135000000D01*
X130707106Y-135000000D01*
X131165413Y-135458306D01*
X131181006Y-135410319D01*
X131219221Y-135292703D01*
X131250000Y-135098382D01*
X131250000Y-134901617D01*
X131219221Y-134707294D01*
X131219221Y-134707293D01*
X131165414Y-134541691D01*
X130707106Y-135000000D01*
X130500000Y-135000000D01*
X130500000Y-134934174D01*
X130465925Y-134807007D01*
X130400099Y-134692993D01*
X130307007Y-134599901D01*
X130192993Y-134534075D01*
X130065826Y-134500000D01*
X129934174Y-134500000D01*
X129807007Y-134534075D01*
X129692993Y-134599901D01*
X129599901Y-134692993D01*
X129534075Y-134807007D01*
X129500000Y-134934174D01*
X129227067Y-134934174D01*
X128834584Y-134541691D01*
X128780779Y-134707289D01*
X128750000Y-134901617D01*
X97200500Y-134901617D01*
X97200500Y-134356428D01*
X132300000Y-134356428D01*
X132300000Y-134500000D01*
X132750000Y-134500000D01*
X132750000Y-134397339D01*
X132850000Y-134397339D01*
X132850000Y-135602661D01*
X132877259Y-135704394D01*
X132929920Y-135795606D01*
X133004394Y-135870080D01*
X133095606Y-135922741D01*
X133197339Y-135950000D01*
X133302661Y-135950000D01*
X133404394Y-135922741D01*
X133495606Y-135870080D01*
X133570080Y-135795606D01*
X133622741Y-135704394D01*
X133650000Y-135602661D01*
X133650000Y-134500000D01*
X133750000Y-134500000D01*
X134200000Y-134500000D01*
X134200000Y-134356430D01*
X134199999Y-134356428D01*
X145800000Y-134356428D01*
X145800000Y-134500000D01*
X146250000Y-134500000D01*
X146250000Y-134397339D01*
X146350000Y-134397339D01*
X146350000Y-135602661D01*
X146377259Y-135704394D01*
X146429920Y-135795606D01*
X146504394Y-135870080D01*
X146595606Y-135922741D01*
X146697339Y-135950000D01*
X146802661Y-135950000D01*
X146904394Y-135922741D01*
X146995606Y-135870080D01*
X147070080Y-135795606D01*
X147122741Y-135704394D01*
X147150000Y-135602661D01*
X147150000Y-134905513D01*
X148799500Y-134905513D01*
X148799500Y-135094486D01*
X148829059Y-135281118D01*
X148887454Y-135460836D01*
X148959718Y-135602661D01*
X148973240Y-135629199D01*
X149084310Y-135782073D01*
X149217927Y-135915690D01*
X149370801Y-136026760D01*
X149450347Y-136067290D01*
X149539163Y-136112545D01*
X149539165Y-136112545D01*
X149539168Y-136112547D01*
X149635497Y-136143846D01*
X149718881Y-136170940D01*
X149905514Y-136200500D01*
X149905519Y-136200500D01*
X150094486Y-136200500D01*
X150281118Y-136170940D01*
X150298128Y-136165413D01*
X150460832Y-136112547D01*
X150629199Y-136026760D01*
X150782073Y-135915690D01*
X150915690Y-135782073D01*
X151026760Y-135629199D01*
X151112547Y-135460832D01*
X151170940Y-135281118D01*
X151200500Y-135094486D01*
X151200500Y-134905513D01*
X151170940Y-134718881D01*
X151132280Y-134599901D01*
X151112547Y-134539168D01*
X151112545Y-134539165D01*
X151112545Y-134539163D01*
X151067290Y-134450347D01*
X151026760Y-134370801D01*
X150915690Y-134217927D01*
X150782073Y-134084310D01*
X150629199Y-133973240D01*
X150460836Y-133887454D01*
X150281118Y-133829059D01*
X150094486Y-133799500D01*
X150094481Y-133799500D01*
X149905519Y-133799500D01*
X149905514Y-133799500D01*
X149718881Y-133829059D01*
X149539163Y-133887454D01*
X149370800Y-133973240D01*
X149333958Y-134000008D01*
X149217927Y-134084310D01*
X149217925Y-134084312D01*
X149217924Y-134084312D01*
X149084312Y-134217924D01*
X149084312Y-134217925D01*
X149084310Y-134217927D01*
X149036610Y-134283579D01*
X148973240Y-134370800D01*
X148887454Y-134539163D01*
X148829059Y-134718881D01*
X148799500Y-134905513D01*
X147150000Y-134905513D01*
X147150000Y-134500000D01*
X147250000Y-134500000D01*
X147700000Y-134500000D01*
X147700000Y-134356430D01*
X147699999Y-134356428D01*
X147663493Y-134172902D01*
X147663491Y-134172894D01*
X147591880Y-134000008D01*
X147591875Y-133999999D01*
X147487913Y-133844410D01*
X147487910Y-133844406D01*
X147355596Y-133712092D01*
X147250000Y-133641533D01*
X147250000Y-134500000D01*
X147150000Y-134500000D01*
X147150000Y-134397339D01*
X147122741Y-134295606D01*
X147070080Y-134204394D01*
X146995606Y-134129920D01*
X146904394Y-134077259D01*
X146802661Y-134050000D01*
X146697339Y-134050000D01*
X146595606Y-134077259D01*
X146504394Y-134129920D01*
X146429920Y-134204394D01*
X146377259Y-134295606D01*
X146350000Y-134397339D01*
X146250000Y-134397339D01*
X146250000Y-133641533D01*
X146144403Y-133712092D01*
X146144403Y-133712093D01*
X146012089Y-133844406D01*
X146012086Y-133844410D01*
X145908124Y-133999999D01*
X145908119Y-134000008D01*
X145836508Y-134172894D01*
X145836506Y-134172902D01*
X145800000Y-134356428D01*
X134199999Y-134356428D01*
X134163493Y-134172902D01*
X134163491Y-134172894D01*
X134091880Y-134000008D01*
X134091875Y-133999999D01*
X133987913Y-133844410D01*
X133987910Y-133844406D01*
X133855596Y-133712092D01*
X133750000Y-133641533D01*
X133750000Y-134500000D01*
X133650000Y-134500000D01*
X133650000Y-134397339D01*
X133622741Y-134295606D01*
X133570080Y-134204394D01*
X133495606Y-134129920D01*
X133404394Y-134077259D01*
X133302661Y-134050000D01*
X133197339Y-134050000D01*
X133095606Y-134077259D01*
X133004394Y-134129920D01*
X132929920Y-134204394D01*
X132877259Y-134295606D01*
X132850000Y-134397339D01*
X132750000Y-134397339D01*
X132750000Y-133641533D01*
X132644403Y-133712092D01*
X132644403Y-133712093D01*
X132512089Y-133844406D01*
X132512086Y-133844410D01*
X132408124Y-133999999D01*
X132408119Y-134000008D01*
X132336508Y-134172894D01*
X132336506Y-134172902D01*
X132300000Y-134356428D01*
X97200500Y-134356428D01*
X97200500Y-133834584D01*
X129541691Y-133834584D01*
X130000000Y-134292893D01*
X130000001Y-134292893D01*
X130030234Y-134262660D01*
X130458307Y-133834585D01*
X130458307Y-133834584D01*
X130292711Y-133780779D01*
X130098382Y-133750000D01*
X129901618Y-133750000D01*
X129707289Y-133780779D01*
X129541691Y-133834584D01*
X97200500Y-133834584D01*
X97200500Y-132665414D01*
X120791691Y-132665414D01*
X120957294Y-132719221D01*
X121151618Y-132750000D01*
X121348382Y-132750000D01*
X121542703Y-132719221D01*
X121708307Y-132665413D01*
X121250001Y-132207106D01*
X121250000Y-132207106D01*
X120791691Y-132665414D01*
X97200500Y-132665414D01*
X97200500Y-131401617D01*
X120000000Y-131401617D01*
X120000000Y-131598382D01*
X120030779Y-131792710D01*
X120030779Y-131792713D01*
X120084584Y-131958307D01*
X120084585Y-131958307D01*
X120542893Y-131500000D01*
X120477067Y-131434174D01*
X120750000Y-131434174D01*
X120750000Y-131565826D01*
X120784075Y-131692993D01*
X120849901Y-131807007D01*
X120942993Y-131900099D01*
X121057007Y-131965925D01*
X121184174Y-132000000D01*
X121315826Y-132000000D01*
X121442993Y-131965925D01*
X121557007Y-131900099D01*
X121650099Y-131807007D01*
X121715925Y-131692993D01*
X121750000Y-131565826D01*
X121750000Y-131500000D01*
X121957106Y-131500000D01*
X122415413Y-131958306D01*
X122469221Y-131792703D01*
X122500000Y-131598382D01*
X122500000Y-131401617D01*
X122469221Y-131207294D01*
X122469221Y-131207293D01*
X122415414Y-131041691D01*
X121957106Y-131500000D01*
X121750000Y-131500000D01*
X121750000Y-131434174D01*
X121715925Y-131307007D01*
X121650099Y-131192993D01*
X121557007Y-131099901D01*
X121442993Y-131034075D01*
X121315826Y-131000000D01*
X121184174Y-131000000D01*
X121057007Y-131034075D01*
X120942993Y-131099901D01*
X120849901Y-131192993D01*
X120784075Y-131307007D01*
X120750000Y-131434174D01*
X120477067Y-131434174D01*
X120084584Y-131041691D01*
X120030779Y-131207289D01*
X120000000Y-131401617D01*
X97200500Y-131401617D01*
X97200500Y-130334584D01*
X120791691Y-130334584D01*
X121250000Y-130792893D01*
X121250001Y-130792893D01*
X121347163Y-130695730D01*
X125049500Y-130695730D01*
X125049500Y-132304269D01*
X125052353Y-132334699D01*
X125052353Y-132334701D01*
X125097206Y-132462880D01*
X125097207Y-132462882D01*
X125177850Y-132572150D01*
X125287118Y-132652793D01*
X125323184Y-132665413D01*
X125415299Y-132697646D01*
X125445730Y-132700500D01*
X125445734Y-132700500D01*
X127054270Y-132700500D01*
X127084699Y-132697646D01*
X127084701Y-132697646D01*
X127148790Y-132675219D01*
X127212882Y-132652793D01*
X127322150Y-132572150D01*
X127402793Y-132462882D01*
X127425219Y-132398790D01*
X127447646Y-132334701D01*
X127447646Y-132334699D01*
X127450500Y-132304269D01*
X127450500Y-130695730D01*
X127447646Y-130665300D01*
X127447646Y-130665298D01*
X127402793Y-130537119D01*
X127402792Y-130537117D01*
X127338497Y-130450000D01*
X127322150Y-130427850D01*
X127212882Y-130347207D01*
X127212880Y-130347206D01*
X127084700Y-130302353D01*
X127054270Y-130299500D01*
X127054266Y-130299500D01*
X125445734Y-130299500D01*
X125445730Y-130299500D01*
X125415300Y-130302353D01*
X125415298Y-130302353D01*
X125287119Y-130347206D01*
X125287117Y-130347207D01*
X125177850Y-130427850D01*
X125097207Y-130537117D01*
X125097206Y-130537119D01*
X125052353Y-130665298D01*
X125052353Y-130665300D01*
X125049500Y-130695730D01*
X121347163Y-130695730D01*
X121437739Y-130605154D01*
X121708307Y-130334585D01*
X121708307Y-130334584D01*
X121542711Y-130280779D01*
X121348382Y-130250000D01*
X121151618Y-130250000D01*
X120957289Y-130280779D01*
X120791691Y-130334584D01*
X97200500Y-130334584D01*
X97200500Y-128859598D01*
X133900000Y-128859598D01*
X133900000Y-129140401D01*
X133931437Y-129419412D01*
X133931439Y-129419424D01*
X133993921Y-129693178D01*
X133993922Y-129693180D01*
X134086662Y-129958217D01*
X134208492Y-130211200D01*
X134313914Y-130378977D01*
X135083253Y-129609638D01*
X135159849Y-129759966D01*
X135294002Y-129944612D01*
X135455388Y-130105998D01*
X135640034Y-130240151D01*
X135790359Y-130316746D01*
X135021021Y-131086084D01*
X135021020Y-131086084D01*
X135188799Y-131191507D01*
X135441782Y-131313337D01*
X135706819Y-131406077D01*
X135706821Y-131406078D01*
X135980575Y-131468560D01*
X135980587Y-131468562D01*
X136259598Y-131499999D01*
X136259600Y-131500000D01*
X136540400Y-131500000D01*
X136540401Y-131499999D01*
X136819412Y-131468562D01*
X136819424Y-131468560D01*
X137093178Y-131406078D01*
X137093180Y-131406077D01*
X137358217Y-131313337D01*
X137611203Y-131191506D01*
X137778977Y-131086085D01*
X137778977Y-131086084D01*
X137009640Y-130316746D01*
X137159966Y-130240151D01*
X137344612Y-130105998D01*
X137505998Y-129944612D01*
X137640151Y-129759966D01*
X137716746Y-129609639D01*
X138486084Y-130378977D01*
X138486085Y-130378977D01*
X138591506Y-130211203D01*
X138713337Y-129958217D01*
X138806077Y-129693180D01*
X138806078Y-129693178D01*
X138868560Y-129419424D01*
X138868562Y-129419412D01*
X138899999Y-129140401D01*
X138900000Y-129140399D01*
X138900000Y-128862378D01*
X141149500Y-128862378D01*
X141149500Y-129137621D01*
X141180315Y-129411108D01*
X141180317Y-129411124D01*
X141241561Y-129679453D01*
X141241565Y-129679465D01*
X141332467Y-129939246D01*
X141451884Y-130187218D01*
X141451886Y-130187221D01*
X141598319Y-130420268D01*
X141769925Y-130635455D01*
X141964545Y-130830075D01*
X142179732Y-131001681D01*
X142412779Y-131148114D01*
X142660757Y-131267534D01*
X142791655Y-131313337D01*
X142920534Y-131358434D01*
X142920546Y-131358438D01*
X143188879Y-131419683D01*
X143462378Y-131450499D01*
X143462379Y-131450500D01*
X143462383Y-131450500D01*
X143737621Y-131450500D01*
X143737621Y-131450499D01*
X144011121Y-131419683D01*
X144279454Y-131358438D01*
X144539243Y-131267534D01*
X144787221Y-131148114D01*
X145020268Y-131001681D01*
X145235455Y-130830075D01*
X145369800Y-130695730D01*
X152549500Y-130695730D01*
X152549500Y-132304269D01*
X152552353Y-132334699D01*
X152552353Y-132334701D01*
X152597206Y-132462880D01*
X152597207Y-132462882D01*
X152677850Y-132572150D01*
X152787118Y-132652793D01*
X152823184Y-132665413D01*
X152915299Y-132697646D01*
X152945730Y-132700500D01*
X152945734Y-132700500D01*
X154554270Y-132700500D01*
X154584699Y-132697646D01*
X154584701Y-132697646D01*
X154648790Y-132675219D01*
X154676812Y-132665414D01*
X158291691Y-132665414D01*
X158457294Y-132719221D01*
X158651618Y-132750000D01*
X158848382Y-132750000D01*
X159042703Y-132719221D01*
X159208307Y-132665413D01*
X158750001Y-132207106D01*
X158750000Y-132207106D01*
X158291691Y-132665414D01*
X154676812Y-132665414D01*
X154712882Y-132652793D01*
X154822150Y-132572150D01*
X154902793Y-132462882D01*
X154925219Y-132398790D01*
X154947646Y-132334701D01*
X154947646Y-132334699D01*
X154950500Y-132304269D01*
X154950500Y-131401617D01*
X157500000Y-131401617D01*
X157500000Y-131598382D01*
X157530779Y-131792710D01*
X157530779Y-131792713D01*
X157584584Y-131958307D01*
X157584585Y-131958307D01*
X158042893Y-131500000D01*
X157977067Y-131434174D01*
X158250000Y-131434174D01*
X158250000Y-131565826D01*
X158284075Y-131692993D01*
X158349901Y-131807007D01*
X158442993Y-131900099D01*
X158557007Y-131965925D01*
X158684174Y-132000000D01*
X158815826Y-132000000D01*
X158942993Y-131965925D01*
X159057007Y-131900099D01*
X159150099Y-131807007D01*
X159215925Y-131692993D01*
X159250000Y-131565826D01*
X159250000Y-131500000D01*
X159457106Y-131500000D01*
X159915413Y-131958306D01*
X159969221Y-131792703D01*
X160000000Y-131598382D01*
X160000000Y-131401617D01*
X159969221Y-131207294D01*
X159969221Y-131207293D01*
X159915414Y-131041691D01*
X159457106Y-131500000D01*
X159250000Y-131500000D01*
X159250000Y-131434174D01*
X159215925Y-131307007D01*
X159150099Y-131192993D01*
X159057007Y-131099901D01*
X158942993Y-131034075D01*
X158815826Y-131000000D01*
X158684174Y-131000000D01*
X158557007Y-131034075D01*
X158442993Y-131099901D01*
X158349901Y-131192993D01*
X158284075Y-131307007D01*
X158250000Y-131434174D01*
X157977067Y-131434174D01*
X157584584Y-131041691D01*
X157530779Y-131207289D01*
X157500000Y-131401617D01*
X154950500Y-131401617D01*
X154950500Y-130695730D01*
X154947646Y-130665300D01*
X154947646Y-130665298D01*
X154902793Y-130537119D01*
X154902792Y-130537117D01*
X154838497Y-130450000D01*
X154822150Y-130427850D01*
X154712882Y-130347207D01*
X154712880Y-130347206D01*
X154676809Y-130334584D01*
X158291691Y-130334584D01*
X158750000Y-130792893D01*
X158750001Y-130792893D01*
X159208307Y-130334585D01*
X159208307Y-130334584D01*
X159042711Y-130280779D01*
X158848382Y-130250000D01*
X158651618Y-130250000D01*
X158457289Y-130280779D01*
X158291691Y-130334584D01*
X154676809Y-130334584D01*
X154584700Y-130302353D01*
X154554270Y-130299500D01*
X154554266Y-130299500D01*
X152945734Y-130299500D01*
X152945730Y-130299500D01*
X152915300Y-130302353D01*
X152915298Y-130302353D01*
X152787119Y-130347206D01*
X152787117Y-130347207D01*
X152677850Y-130427850D01*
X152597207Y-130537117D01*
X152597206Y-130537119D01*
X152552353Y-130665298D01*
X152552353Y-130665300D01*
X152549500Y-130695730D01*
X145369800Y-130695730D01*
X145430075Y-130635455D01*
X145430081Y-130635448D01*
X145445971Y-130615523D01*
X145445971Y-130615522D01*
X145508496Y-130537118D01*
X145601681Y-130420268D01*
X145748114Y-130187221D01*
X145867534Y-129939243D01*
X145958438Y-129679454D01*
X146019683Y-129411121D01*
X146050500Y-129137617D01*
X146050500Y-128862383D01*
X146019683Y-128588879D01*
X145958438Y-128320546D01*
X145953635Y-128306821D01*
X145930266Y-128240034D01*
X145867534Y-128060757D01*
X145748114Y-127812779D01*
X145601681Y-127579732D01*
X145430075Y-127364545D01*
X145235455Y-127169925D01*
X145020268Y-126998319D01*
X144787221Y-126851886D01*
X144787218Y-126851884D01*
X144539246Y-126732467D01*
X144279465Y-126641565D01*
X144279453Y-126641561D01*
X144011124Y-126580317D01*
X144011108Y-126580315D01*
X143737621Y-126549500D01*
X143737617Y-126549500D01*
X143462383Y-126549500D01*
X143462379Y-126549500D01*
X143188891Y-126580315D01*
X143188875Y-126580317D01*
X142920546Y-126641561D01*
X142920534Y-126641565D01*
X142660753Y-126732467D01*
X142412781Y-126851884D01*
X142179733Y-126998318D01*
X141964545Y-127169924D01*
X141769924Y-127364545D01*
X141598318Y-127579733D01*
X141451884Y-127812781D01*
X141332467Y-128060753D01*
X141241565Y-128320534D01*
X141241561Y-128320546D01*
X141180317Y-128588875D01*
X141180315Y-128588891D01*
X141149500Y-128862378D01*
X138900000Y-128862378D01*
X138900000Y-128859600D01*
X138899999Y-128859598D01*
X138868562Y-128580587D01*
X138868560Y-128580575D01*
X138806078Y-128306821D01*
X138806077Y-128306819D01*
X138713337Y-128041782D01*
X138591507Y-127788799D01*
X138486084Y-127621021D01*
X137716746Y-128390359D01*
X137640151Y-128240034D01*
X137505998Y-128055388D01*
X137344612Y-127894002D01*
X137159966Y-127759849D01*
X137009639Y-127683253D01*
X137778977Y-126913914D01*
X137778978Y-126913914D01*
X137611200Y-126808492D01*
X137358217Y-126686662D01*
X137093180Y-126593922D01*
X137093178Y-126593921D01*
X136819424Y-126531439D01*
X136819412Y-126531437D01*
X136540401Y-126500000D01*
X136259598Y-126500000D01*
X135980587Y-126531437D01*
X135980575Y-126531439D01*
X135706821Y-126593921D01*
X135706819Y-126593922D01*
X135441782Y-126686662D01*
X135188799Y-126808492D01*
X135021021Y-126913914D01*
X135790360Y-127683253D01*
X135640034Y-127759849D01*
X135455388Y-127894002D01*
X135294002Y-128055388D01*
X135159849Y-128240034D01*
X135083253Y-128390359D01*
X134313914Y-127621020D01*
X134208492Y-127788799D01*
X134086662Y-128041782D01*
X133993922Y-128306819D01*
X133993921Y-128306821D01*
X133931439Y-128580575D01*
X133931437Y-128580587D01*
X133900000Y-128859598D01*
X97200500Y-128859598D01*
X97200500Y-120598788D01*
X119824500Y-120598788D01*
X119824500Y-124401211D01*
X119857446Y-124651451D01*
X119922773Y-124895258D01*
X120019363Y-125128447D01*
X120019372Y-125128464D01*
X120145566Y-125347041D01*
X120145568Y-125347045D01*
X120299227Y-125547294D01*
X120299235Y-125547303D01*
X120477697Y-125725765D01*
X120477705Y-125725772D01*
X120677954Y-125879431D01*
X120677958Y-125879433D01*
X120896535Y-126005627D01*
X120896552Y-126005636D01*
X121025758Y-126059154D01*
X121129740Y-126102226D01*
X121373548Y-126167554D01*
X121623796Y-126200500D01*
X121623803Y-126200500D01*
X121876197Y-126200500D01*
X121876204Y-126200500D01*
X122126452Y-126167554D01*
X122370260Y-126102226D01*
X122603454Y-126005633D01*
X122822041Y-125879433D01*
X122822045Y-125879431D01*
X122916680Y-125806814D01*
X123022294Y-125725773D01*
X123022298Y-125725768D01*
X123022303Y-125725765D01*
X123200765Y-125547303D01*
X123200768Y-125547298D01*
X123200773Y-125547294D01*
X123354430Y-125347046D01*
X123480633Y-125128454D01*
X123577226Y-124895260D01*
X123642554Y-124651452D01*
X123675500Y-124401204D01*
X123675500Y-123707147D01*
X125424500Y-123707147D01*
X125424500Y-125207147D01*
X125424500Y-125292853D01*
X125424540Y-125293002D01*
X125446682Y-125375640D01*
X125468108Y-125412750D01*
X125489535Y-125449862D01*
X125489537Y-125449864D01*
X125963181Y-125923508D01*
X125996666Y-125984831D01*
X125999500Y-126011189D01*
X125999500Y-126065891D01*
X126033608Y-126193187D01*
X126066554Y-126250250D01*
X126099500Y-126307314D01*
X126192686Y-126400500D01*
X126306814Y-126466392D01*
X126434108Y-126500500D01*
X126434110Y-126500500D01*
X126565890Y-126500500D01*
X126565892Y-126500500D01*
X126693186Y-126466392D01*
X126807314Y-126400500D01*
X126900500Y-126307314D01*
X126966392Y-126193186D01*
X127000500Y-126065892D01*
X127000500Y-125934108D01*
X139499500Y-125934108D01*
X139499500Y-126065891D01*
X139533608Y-126193187D01*
X139566554Y-126250250D01*
X139599500Y-126307314D01*
X139692686Y-126400500D01*
X139806814Y-126466392D01*
X139934108Y-126500500D01*
X139934110Y-126500500D01*
X140065890Y-126500500D01*
X140065892Y-126500500D01*
X140193186Y-126466392D01*
X140307314Y-126400500D01*
X140400500Y-126307314D01*
X140466392Y-126193186D01*
X140500500Y-126065892D01*
X140500500Y-125934108D01*
X140466392Y-125806814D01*
X140400500Y-125692686D01*
X140307314Y-125599500D01*
X140249852Y-125566324D01*
X140193187Y-125533608D01*
X140129539Y-125516554D01*
X140065892Y-125499500D01*
X139934108Y-125499500D01*
X139806812Y-125533608D01*
X139692686Y-125599500D01*
X139692683Y-125599502D01*
X139599502Y-125692683D01*
X139599500Y-125692686D01*
X139533608Y-125806812D01*
X139499500Y-125934108D01*
X127000500Y-125934108D01*
X126966392Y-125806814D01*
X126900500Y-125692686D01*
X126807314Y-125599500D01*
X126749852Y-125566324D01*
X126693187Y-125533608D01*
X126629539Y-125516554D01*
X126565892Y-125499500D01*
X126565891Y-125499500D01*
X126511189Y-125499500D01*
X126444150Y-125479815D01*
X126423508Y-125463181D01*
X126111819Y-125151492D01*
X126078334Y-125090169D01*
X126075500Y-125063811D01*
X126075500Y-124547617D01*
X126095185Y-124480578D01*
X126147989Y-124434823D01*
X126217147Y-124424879D01*
X126261499Y-124440229D01*
X126306814Y-124466392D01*
X126434108Y-124500500D01*
X126434110Y-124500500D01*
X126565890Y-124500500D01*
X126565892Y-124500500D01*
X126693186Y-124466392D01*
X126807314Y-124400500D01*
X126845995Y-124361819D01*
X126907318Y-124328334D01*
X126933676Y-124325500D01*
X127292851Y-124325500D01*
X127292853Y-124325500D01*
X127375639Y-124303318D01*
X127449862Y-124260465D01*
X131462819Y-120247506D01*
X131524142Y-120214022D01*
X131593834Y-120219006D01*
X131649767Y-120260878D01*
X131674184Y-120326342D01*
X131674500Y-120335188D01*
X131674500Y-122816324D01*
X131654815Y-122883363D01*
X131638181Y-122904005D01*
X131599502Y-122942683D01*
X131599500Y-122942686D01*
X131533608Y-123056812D01*
X131499500Y-123184108D01*
X131499500Y-123315891D01*
X131533608Y-123443187D01*
X131566554Y-123500250D01*
X131599500Y-123557314D01*
X131692686Y-123650500D01*
X131806814Y-123716392D01*
X131934108Y-123750500D01*
X131934110Y-123750500D01*
X132065890Y-123750500D01*
X132065892Y-123750500D01*
X132193186Y-123716392D01*
X132307314Y-123650500D01*
X132400500Y-123557314D01*
X132466392Y-123443186D01*
X132500500Y-123315892D01*
X132500500Y-123184108D01*
X132466392Y-123056814D01*
X132400500Y-122942686D01*
X132361819Y-122904005D01*
X132328334Y-122842682D01*
X132325500Y-122816324D01*
X132325500Y-122797617D01*
X132345185Y-122730578D01*
X132397989Y-122684823D01*
X132467147Y-122674879D01*
X132511499Y-122690229D01*
X132556814Y-122716392D01*
X132684108Y-122750500D01*
X132684110Y-122750500D01*
X132815890Y-122750500D01*
X132815892Y-122750500D01*
X132943186Y-122716392D01*
X133057314Y-122650500D01*
X133150500Y-122557314D01*
X133150504Y-122557306D01*
X133151625Y-122555847D01*
X133152892Y-122554921D01*
X133156247Y-122551567D01*
X133156770Y-122552090D01*
X133208053Y-122514645D01*
X133277799Y-122510491D01*
X133338719Y-122544704D01*
X133348375Y-122555847D01*
X133349498Y-122557311D01*
X133349500Y-122557314D01*
X133442686Y-122650500D01*
X133556814Y-122716392D01*
X133684108Y-122750500D01*
X133684110Y-122750500D01*
X133815890Y-122750500D01*
X133815892Y-122750500D01*
X133943186Y-122716392D01*
X134057314Y-122650500D01*
X134150500Y-122557314D01*
X134150504Y-122557306D01*
X134151625Y-122555847D01*
X134152892Y-122554921D01*
X134156247Y-122551567D01*
X134156770Y-122552090D01*
X134208053Y-122514645D01*
X134277799Y-122510491D01*
X134338719Y-122544704D01*
X134348375Y-122555847D01*
X134349498Y-122557311D01*
X134349500Y-122557314D01*
X134442686Y-122650500D01*
X134556814Y-122716392D01*
X134684108Y-122750500D01*
X134684110Y-122750500D01*
X134815890Y-122750500D01*
X134815892Y-122750500D01*
X134943186Y-122716392D01*
X135057314Y-122650500D01*
X135150500Y-122557314D01*
X135150504Y-122557306D01*
X135151625Y-122555847D01*
X135152892Y-122554921D01*
X135156247Y-122551567D01*
X135156770Y-122552090D01*
X135208053Y-122514645D01*
X135277799Y-122510491D01*
X135338719Y-122544704D01*
X135348375Y-122555847D01*
X135349498Y-122557311D01*
X135349500Y-122557314D01*
X135442686Y-122650500D01*
X135556814Y-122716392D01*
X135684108Y-122750500D01*
X135684110Y-122750500D01*
X135815890Y-122750500D01*
X135815892Y-122750500D01*
X135943186Y-122716392D01*
X135988500Y-122690229D01*
X136056399Y-122673757D01*
X136122426Y-122696609D01*
X136165617Y-122751530D01*
X136174500Y-122797617D01*
X136174500Y-122816324D01*
X136154815Y-122883363D01*
X136138181Y-122904005D01*
X136099502Y-122942683D01*
X136099500Y-122942686D01*
X136033608Y-123056812D01*
X135999500Y-123184108D01*
X135999500Y-123315891D01*
X136033608Y-123443187D01*
X136066554Y-123500250D01*
X136099500Y-123557314D01*
X136192686Y-123650500D01*
X136306814Y-123716392D01*
X136434108Y-123750500D01*
X136434110Y-123750500D01*
X136565890Y-123750500D01*
X136565892Y-123750500D01*
X136693186Y-123716392D01*
X136807314Y-123650500D01*
X136900500Y-123557314D01*
X136966392Y-123443186D01*
X137000500Y-123315892D01*
X137000500Y-123184108D01*
X136966392Y-123056814D01*
X136900500Y-122942686D01*
X136861819Y-122904005D01*
X136828334Y-122842682D01*
X136825500Y-122816324D01*
X136825500Y-122797617D01*
X136845185Y-122730578D01*
X136897989Y-122684823D01*
X136967147Y-122674879D01*
X137011499Y-122690229D01*
X137056814Y-122716392D01*
X137184108Y-122750500D01*
X137184110Y-122750500D01*
X137315890Y-122750500D01*
X137315892Y-122750500D01*
X137443186Y-122716392D01*
X137557314Y-122650500D01*
X137650500Y-122557314D01*
X137650504Y-122557306D01*
X137651625Y-122555847D01*
X137652892Y-122554921D01*
X137656247Y-122551567D01*
X137656770Y-122552090D01*
X137708053Y-122514645D01*
X137777799Y-122510491D01*
X137838719Y-122544704D01*
X137848375Y-122555847D01*
X137849498Y-122557311D01*
X137849500Y-122557314D01*
X137942686Y-122650500D01*
X138056814Y-122716392D01*
X138184108Y-122750500D01*
X138184110Y-122750500D01*
X138315890Y-122750500D01*
X138315892Y-122750500D01*
X138443186Y-122716392D01*
X138557314Y-122650500D01*
X138650500Y-122557314D01*
X138650504Y-122557306D01*
X138651625Y-122555847D01*
X138652892Y-122554921D01*
X138656247Y-122551567D01*
X138656770Y-122552090D01*
X138708053Y-122514645D01*
X138777799Y-122510491D01*
X138838719Y-122544704D01*
X138848375Y-122555847D01*
X138849498Y-122557311D01*
X138849500Y-122557314D01*
X138942686Y-122650500D01*
X139056814Y-122716392D01*
X139184108Y-122750500D01*
X139184110Y-122750500D01*
X139315890Y-122750500D01*
X139315892Y-122750500D01*
X139443186Y-122716392D01*
X139557314Y-122650500D01*
X139650500Y-122557314D01*
X139716392Y-122443186D01*
X139745790Y-122333468D01*
X139782154Y-122273811D01*
X139833468Y-122245790D01*
X139943186Y-122216392D01*
X140057314Y-122150500D01*
X140150500Y-122057314D01*
X140216392Y-121943186D01*
X140250500Y-121815892D01*
X140250500Y-121684108D01*
X140216392Y-121556814D01*
X140150500Y-121442686D01*
X140057314Y-121349500D01*
X140057311Y-121349498D01*
X140055847Y-121348375D01*
X140054921Y-121347107D01*
X140051567Y-121343753D01*
X140052090Y-121343229D01*
X140014645Y-121291947D01*
X140010491Y-121222201D01*
X140044704Y-121161281D01*
X140055847Y-121151625D01*
X140057306Y-121150504D01*
X140057314Y-121150500D01*
X140150500Y-121057314D01*
X140216392Y-120943186D01*
X140250500Y-120815892D01*
X140250500Y-120684108D01*
X140216392Y-120556814D01*
X140150500Y-120442686D01*
X140057314Y-120349500D01*
X139943186Y-120283608D01*
X139833469Y-120254209D01*
X139773810Y-120217845D01*
X139745789Y-120166528D01*
X139729233Y-120104741D01*
X139716392Y-120056814D01*
X139650500Y-119942686D01*
X139557314Y-119849500D01*
X139477448Y-119803389D01*
X139443187Y-119783608D01*
X139363946Y-119762376D01*
X139315892Y-119749500D01*
X139184108Y-119749500D01*
X139056812Y-119783608D01*
X138942686Y-119849500D01*
X138942683Y-119849502D01*
X138849498Y-119942687D01*
X138848370Y-119944158D01*
X138847102Y-119945083D01*
X138843753Y-119948433D01*
X138843230Y-119947910D01*
X138791940Y-119985356D01*
X138722193Y-119989506D01*
X138661275Y-119955289D01*
X138651630Y-119944158D01*
X138650501Y-119942687D01*
X138557316Y-119849502D01*
X138557314Y-119849500D01*
X138477448Y-119803389D01*
X138443187Y-119783608D01*
X138363946Y-119762376D01*
X138315892Y-119749500D01*
X138184108Y-119749500D01*
X138056812Y-119783608D01*
X137942686Y-119849500D01*
X137942683Y-119849502D01*
X137849498Y-119942687D01*
X137848370Y-119944158D01*
X137847102Y-119945083D01*
X137843753Y-119948433D01*
X137843230Y-119947910D01*
X137791940Y-119985356D01*
X137722193Y-119989506D01*
X137661275Y-119955289D01*
X137651630Y-119944158D01*
X137650501Y-119942687D01*
X137557316Y-119849502D01*
X137557314Y-119849500D01*
X137477448Y-119803389D01*
X137443187Y-119783608D01*
X137363946Y-119762376D01*
X137315892Y-119749500D01*
X137184108Y-119749500D01*
X137056812Y-119783608D01*
X137011499Y-119809770D01*
X136943599Y-119826242D01*
X136877572Y-119803389D01*
X136834382Y-119748467D01*
X136825500Y-119702382D01*
X136825500Y-119686189D01*
X136845185Y-119619150D01*
X136861819Y-119598508D01*
X139173508Y-117286819D01*
X139234831Y-117253334D01*
X139261189Y-117250500D01*
X139315890Y-117250500D01*
X139315892Y-117250500D01*
X139443186Y-117216392D01*
X139557314Y-117150500D01*
X139650500Y-117057314D01*
X139716392Y-116943186D01*
X139750500Y-116815892D01*
X139750500Y-116684108D01*
X140249500Y-116684108D01*
X140249500Y-116815891D01*
X140283608Y-116943187D01*
X140316554Y-117000250D01*
X140349500Y-117057314D01*
X140442686Y-117150500D01*
X140556814Y-117216392D01*
X140582596Y-117223300D01*
X140642252Y-117259661D01*
X140672783Y-117322507D01*
X140674500Y-117343073D01*
X140674500Y-122816324D01*
X140654815Y-122883363D01*
X140638181Y-122904005D01*
X140599502Y-122942683D01*
X140599500Y-122942686D01*
X140533608Y-123056812D01*
X140499500Y-123184108D01*
X140499500Y-123315891D01*
X140533608Y-123443187D01*
X140566554Y-123500250D01*
X140599500Y-123557314D01*
X140692686Y-123650500D01*
X140806814Y-123716392D01*
X140934108Y-123750500D01*
X140934110Y-123750500D01*
X141065890Y-123750500D01*
X141065892Y-123750500D01*
X141193186Y-123716392D01*
X141307314Y-123650500D01*
X141400500Y-123557314D01*
X141466392Y-123443186D01*
X141500500Y-123315892D01*
X141500500Y-123184108D01*
X141466392Y-123056814D01*
X141400500Y-122942686D01*
X141361819Y-122904005D01*
X141328334Y-122842682D01*
X141325500Y-122816324D01*
X141325500Y-116957149D01*
X141325500Y-116957147D01*
X141303318Y-116874362D01*
X141267112Y-116811651D01*
X141250500Y-116749652D01*
X141250500Y-116684110D01*
X141250500Y-116684108D01*
X141216392Y-116556814D01*
X141150500Y-116442686D01*
X141057314Y-116349500D01*
X141000250Y-116316554D01*
X140943187Y-116283608D01*
X140879539Y-116266554D01*
X140815892Y-116249500D01*
X140684108Y-116249500D01*
X140556812Y-116283608D01*
X140442686Y-116349500D01*
X140442683Y-116349502D01*
X140349502Y-116442683D01*
X140349500Y-116442686D01*
X140283608Y-116556812D01*
X140249500Y-116684108D01*
X139750500Y-116684108D01*
X139716392Y-116556814D01*
X139650500Y-116442686D01*
X139557314Y-116349500D01*
X139500250Y-116316554D01*
X139443187Y-116283608D01*
X139379539Y-116266554D01*
X139315892Y-116249500D01*
X139184108Y-116249500D01*
X139056812Y-116283608D01*
X138942686Y-116349500D01*
X138942683Y-116349502D01*
X138849502Y-116442683D01*
X138849500Y-116442686D01*
X138783608Y-116556812D01*
X138749500Y-116684108D01*
X138749500Y-116738811D01*
X138729815Y-116805850D01*
X138713181Y-116826492D01*
X136239537Y-119300135D01*
X136239533Y-119300141D01*
X136196681Y-119374361D01*
X136196682Y-119374362D01*
X136174500Y-119457147D01*
X136174500Y-119702382D01*
X136154815Y-119769421D01*
X136102011Y-119815176D01*
X136032853Y-119825120D01*
X135988501Y-119809770D01*
X135943187Y-119783608D01*
X135863946Y-119762376D01*
X135815892Y-119749500D01*
X135684108Y-119749500D01*
X135556812Y-119783608D01*
X135442686Y-119849500D01*
X135442683Y-119849502D01*
X135349498Y-119942687D01*
X135348370Y-119944158D01*
X135347102Y-119945083D01*
X135343753Y-119948433D01*
X135343230Y-119947910D01*
X135291940Y-119985356D01*
X135222193Y-119989506D01*
X135161275Y-119955289D01*
X135151630Y-119944158D01*
X135150501Y-119942687D01*
X135057316Y-119849502D01*
X135057314Y-119849500D01*
X134977448Y-119803389D01*
X134943187Y-119783608D01*
X134863946Y-119762376D01*
X134815892Y-119749500D01*
X134684108Y-119749500D01*
X134556812Y-119783608D01*
X134442686Y-119849500D01*
X134442683Y-119849502D01*
X134349498Y-119942687D01*
X134348370Y-119944158D01*
X134347102Y-119945083D01*
X134343753Y-119948433D01*
X134343230Y-119947910D01*
X134291940Y-119985356D01*
X134222193Y-119989506D01*
X134161275Y-119955289D01*
X134151630Y-119944158D01*
X134150501Y-119942687D01*
X134057316Y-119849502D01*
X134057314Y-119849500D01*
X133977448Y-119803389D01*
X133943187Y-119783608D01*
X133863946Y-119762376D01*
X133815892Y-119749500D01*
X133684108Y-119749500D01*
X133556812Y-119783608D01*
X133442686Y-119849500D01*
X133442683Y-119849502D01*
X133349498Y-119942687D01*
X133348370Y-119944158D01*
X133347102Y-119945083D01*
X133343753Y-119948433D01*
X133343230Y-119947910D01*
X133291940Y-119985356D01*
X133222193Y-119989506D01*
X133161275Y-119955289D01*
X133151630Y-119944158D01*
X133150501Y-119942687D01*
X133057316Y-119849502D01*
X133057314Y-119849500D01*
X132977448Y-119803389D01*
X132943185Y-119783607D01*
X132943182Y-119783606D01*
X132940476Y-119782881D01*
X132938452Y-119781647D01*
X132935682Y-119780500D01*
X132935861Y-119780067D01*
X132880819Y-119746512D01*
X132850294Y-119683663D01*
X132858594Y-119614288D01*
X132884895Y-119575431D01*
X135348508Y-117111819D01*
X135409831Y-117078334D01*
X135436189Y-117075500D01*
X135816324Y-117075500D01*
X135883363Y-117095185D01*
X135904005Y-117111819D01*
X135942686Y-117150500D01*
X136056814Y-117216392D01*
X136184108Y-117250500D01*
X136184110Y-117250500D01*
X136315890Y-117250500D01*
X136315892Y-117250500D01*
X136443186Y-117216392D01*
X136557314Y-117150500D01*
X136650500Y-117057314D01*
X136716392Y-116943186D01*
X136750500Y-116815892D01*
X136750500Y-116684108D01*
X136716392Y-116556814D01*
X136650500Y-116442686D01*
X136557314Y-116349500D01*
X136500250Y-116316554D01*
X136443187Y-116283608D01*
X136379539Y-116266554D01*
X136315892Y-116249500D01*
X136184108Y-116249500D01*
X136056812Y-116283608D01*
X135942686Y-116349500D01*
X135942683Y-116349502D01*
X135904005Y-116388181D01*
X135842682Y-116421666D01*
X135816324Y-116424500D01*
X135585188Y-116424500D01*
X135518149Y-116404815D01*
X135472394Y-116352011D01*
X135462450Y-116282853D01*
X135491475Y-116219297D01*
X135497507Y-116212819D01*
X136042773Y-115667553D01*
X137601216Y-114109108D01*
X139499500Y-114109108D01*
X139499500Y-114240891D01*
X139533608Y-114368187D01*
X139549238Y-114395258D01*
X139599500Y-114482314D01*
X139599503Y-114482317D01*
X139617006Y-114499821D01*
X139650490Y-114561145D01*
X139645504Y-114630836D01*
X139617006Y-114675179D01*
X139599503Y-114692682D01*
X139599500Y-114692686D01*
X139533608Y-114806812D01*
X139499500Y-114934108D01*
X139499500Y-115065891D01*
X139533608Y-115193187D01*
X139552422Y-115225773D01*
X139599500Y-115307314D01*
X139692686Y-115400500D01*
X139791521Y-115457563D01*
X139804695Y-115465169D01*
X139806814Y-115466392D01*
X139934108Y-115500500D01*
X139934110Y-115500500D01*
X140065890Y-115500500D01*
X140065892Y-115500500D01*
X140193186Y-115466392D01*
X140307314Y-115400500D01*
X140345995Y-115361819D01*
X140407318Y-115328334D01*
X140433676Y-115325500D01*
X140792851Y-115325500D01*
X140792853Y-115325500D01*
X140875639Y-115303318D01*
X140949862Y-115260465D01*
X143189652Y-113020672D01*
X143189657Y-113020669D01*
X143199860Y-113010465D01*
X143199862Y-113010465D01*
X143260465Y-112949862D01*
X143303318Y-112875638D01*
X143303969Y-112873207D01*
X143325501Y-112792852D01*
X143325501Y-112707147D01*
X143325500Y-112707143D01*
X143325500Y-105132676D01*
X143345185Y-105065637D01*
X143397989Y-105019882D01*
X143467147Y-105009938D01*
X143530703Y-105038963D01*
X143537181Y-105044995D01*
X143592686Y-105100500D01*
X143668600Y-105144329D01*
X143716816Y-105194896D01*
X143730039Y-105263503D01*
X143726375Y-105283806D01*
X143699500Y-105384108D01*
X143699500Y-105515892D01*
X143706738Y-105542906D01*
X143733608Y-105643187D01*
X143741475Y-105656812D01*
X143799500Y-105757314D01*
X143892686Y-105850500D01*
X143987287Y-105905118D01*
X144005944Y-105915890D01*
X144006814Y-105916392D01*
X144134108Y-105950500D01*
X144134110Y-105950500D01*
X144265889Y-105950500D01*
X144265892Y-105950500D01*
X144343410Y-105929729D01*
X144413256Y-105931392D01*
X144471118Y-105970554D01*
X144498623Y-106034782D01*
X144499500Y-106049504D01*
X144499500Y-115867852D01*
X144521682Y-115950640D01*
X144543108Y-115987750D01*
X144564535Y-116024862D01*
X144564537Y-116024864D01*
X148115101Y-119575428D01*
X148148586Y-119636751D01*
X148143602Y-119706443D01*
X148101730Y-119762376D01*
X148059526Y-119782881D01*
X148056814Y-119783607D01*
X147942686Y-119849500D01*
X147942683Y-119849502D01*
X147849498Y-119942687D01*
X147848370Y-119944158D01*
X147847102Y-119945083D01*
X147843753Y-119948433D01*
X147843230Y-119947910D01*
X147791940Y-119985356D01*
X147722193Y-119989506D01*
X147661275Y-119955289D01*
X147651630Y-119944158D01*
X147650501Y-119942687D01*
X147557316Y-119849502D01*
X147557314Y-119849500D01*
X147477448Y-119803389D01*
X147443187Y-119783608D01*
X147363946Y-119762376D01*
X147315892Y-119749500D01*
X147184108Y-119749500D01*
X147056812Y-119783608D01*
X146942686Y-119849500D01*
X146942683Y-119849502D01*
X146849498Y-119942687D01*
X146848370Y-119944158D01*
X146847102Y-119945083D01*
X146843753Y-119948433D01*
X146843230Y-119947910D01*
X146791940Y-119985356D01*
X146722193Y-119989506D01*
X146661275Y-119955289D01*
X146651630Y-119944158D01*
X146650501Y-119942687D01*
X146557316Y-119849502D01*
X146557314Y-119849500D01*
X146477448Y-119803389D01*
X146443187Y-119783608D01*
X146363946Y-119762376D01*
X146315892Y-119749500D01*
X146184108Y-119749500D01*
X146056812Y-119783608D01*
X146011499Y-119809770D01*
X145943599Y-119826242D01*
X145877572Y-119803389D01*
X145834382Y-119748467D01*
X145825500Y-119702382D01*
X145825500Y-118552855D01*
X145825501Y-118552842D01*
X145825501Y-118457148D01*
X145825501Y-118457147D01*
X145803318Y-118374361D01*
X145781891Y-118337250D01*
X145760465Y-118300138D01*
X145699862Y-118239535D01*
X145699859Y-118239533D01*
X144286819Y-116826492D01*
X144253334Y-116765169D01*
X144250500Y-116738811D01*
X144250500Y-116684110D01*
X144250500Y-116684108D01*
X144216392Y-116556814D01*
X144150500Y-116442686D01*
X144057314Y-116349500D01*
X144000250Y-116316554D01*
X143943187Y-116283608D01*
X143879539Y-116266554D01*
X143815892Y-116249500D01*
X143684108Y-116249500D01*
X143556812Y-116283608D01*
X143442686Y-116349500D01*
X143442683Y-116349502D01*
X143349502Y-116442683D01*
X143349500Y-116442686D01*
X143283608Y-116556812D01*
X143249500Y-116684108D01*
X143249500Y-116815891D01*
X143283608Y-116943187D01*
X143316554Y-117000250D01*
X143349500Y-117057314D01*
X143442686Y-117150500D01*
X143556814Y-117216392D01*
X143684108Y-117250500D01*
X143738811Y-117250500D01*
X143805850Y-117270185D01*
X143826492Y-117286819D01*
X145138181Y-118598507D01*
X145171666Y-118659830D01*
X145174500Y-118686188D01*
X145174500Y-119702382D01*
X145154815Y-119769421D01*
X145102011Y-119815176D01*
X145032853Y-119825120D01*
X144988501Y-119809770D01*
X144943187Y-119783608D01*
X144863946Y-119762376D01*
X144815892Y-119749500D01*
X144684108Y-119749500D01*
X144556812Y-119783608D01*
X144442686Y-119849500D01*
X144442683Y-119849502D01*
X144349498Y-119942687D01*
X144348370Y-119944158D01*
X144347102Y-119945083D01*
X144343753Y-119948433D01*
X144343230Y-119947910D01*
X144291940Y-119985356D01*
X144222193Y-119989506D01*
X144161275Y-119955289D01*
X144151630Y-119944158D01*
X144150501Y-119942687D01*
X144057316Y-119849502D01*
X144057314Y-119849500D01*
X143977448Y-119803389D01*
X143943187Y-119783608D01*
X143863946Y-119762376D01*
X143815892Y-119749500D01*
X143684108Y-119749500D01*
X143556812Y-119783608D01*
X143442686Y-119849500D01*
X143442683Y-119849502D01*
X143349498Y-119942687D01*
X143348370Y-119944158D01*
X143347102Y-119945083D01*
X143343753Y-119948433D01*
X143343230Y-119947910D01*
X143291940Y-119985356D01*
X143222193Y-119989506D01*
X143161275Y-119955289D01*
X143151630Y-119944158D01*
X143150501Y-119942687D01*
X143057316Y-119849502D01*
X143057314Y-119849500D01*
X142977448Y-119803389D01*
X142943187Y-119783608D01*
X142863946Y-119762376D01*
X142815892Y-119749500D01*
X142684108Y-119749500D01*
X142556812Y-119783608D01*
X142442686Y-119849500D01*
X142442683Y-119849502D01*
X142349502Y-119942683D01*
X142349500Y-119942686D01*
X142283608Y-120056814D01*
X142270766Y-120104741D01*
X142254210Y-120166529D01*
X142217844Y-120226189D01*
X142166529Y-120254210D01*
X142141644Y-120260878D01*
X142056814Y-120283608D01*
X142056812Y-120283608D01*
X142056812Y-120283609D01*
X141942686Y-120349500D01*
X141942683Y-120349502D01*
X141849502Y-120442683D01*
X141849500Y-120442686D01*
X141783608Y-120556812D01*
X141749500Y-120684108D01*
X141749500Y-120815891D01*
X141783608Y-120943187D01*
X141807319Y-120984255D01*
X141849500Y-121057314D01*
X141849502Y-121057316D01*
X141942687Y-121150501D01*
X141944158Y-121151630D01*
X141945083Y-121152897D01*
X141948433Y-121156247D01*
X141947910Y-121156769D01*
X141985356Y-121208060D01*
X141989506Y-121277807D01*
X141955289Y-121338725D01*
X141944158Y-121348370D01*
X141942687Y-121349498D01*
X141849502Y-121442683D01*
X141849500Y-121442686D01*
X141783608Y-121556812D01*
X141749500Y-121684108D01*
X141749500Y-121815891D01*
X141783608Y-121943187D01*
X141807319Y-121984255D01*
X141849500Y-122057314D01*
X141942686Y-122150500D01*
X142056814Y-122216392D01*
X142166529Y-122245789D01*
X142226189Y-122282154D01*
X142254209Y-122333469D01*
X142283608Y-122443186D01*
X142349500Y-122557314D01*
X142442686Y-122650500D01*
X142556814Y-122716392D01*
X142684108Y-122750500D01*
X142684110Y-122750500D01*
X142815890Y-122750500D01*
X142815892Y-122750500D01*
X142943186Y-122716392D01*
X143057314Y-122650500D01*
X143150500Y-122557314D01*
X143150504Y-122557306D01*
X143151625Y-122555847D01*
X143152892Y-122554921D01*
X143156247Y-122551567D01*
X143156770Y-122552090D01*
X143208053Y-122514645D01*
X143277799Y-122510491D01*
X143338719Y-122544704D01*
X143348375Y-122555847D01*
X143349498Y-122557311D01*
X143349500Y-122557314D01*
X143442686Y-122650500D01*
X143556814Y-122716392D01*
X143684108Y-122750500D01*
X143684110Y-122750500D01*
X143815890Y-122750500D01*
X143815892Y-122750500D01*
X143943186Y-122716392D01*
X144057314Y-122650500D01*
X144150500Y-122557314D01*
X144150504Y-122557306D01*
X144151625Y-122555847D01*
X144152892Y-122554921D01*
X144156247Y-122551567D01*
X144156770Y-122552090D01*
X144208053Y-122514645D01*
X144277799Y-122510491D01*
X144338719Y-122544704D01*
X144348375Y-122555847D01*
X144349498Y-122557311D01*
X144349500Y-122557314D01*
X144442686Y-122650500D01*
X144556814Y-122716392D01*
X144684108Y-122750500D01*
X144684110Y-122750500D01*
X144815890Y-122750500D01*
X144815892Y-122750500D01*
X144943186Y-122716392D01*
X144988500Y-122690229D01*
X145056399Y-122673757D01*
X145122426Y-122696609D01*
X145165617Y-122751530D01*
X145174500Y-122797617D01*
X145174500Y-122816324D01*
X145154815Y-122883363D01*
X145138181Y-122904005D01*
X145099502Y-122942683D01*
X145099500Y-122942686D01*
X145033608Y-123056812D01*
X144999500Y-123184108D01*
X144999500Y-123315891D01*
X145033608Y-123443187D01*
X145066554Y-123500250D01*
X145099500Y-123557314D01*
X145192686Y-123650500D01*
X145306814Y-123716392D01*
X145434108Y-123750500D01*
X145434110Y-123750500D01*
X145565890Y-123750500D01*
X145565892Y-123750500D01*
X145693186Y-123716392D01*
X145807314Y-123650500D01*
X145900500Y-123557314D01*
X145966392Y-123443186D01*
X146000500Y-123315892D01*
X146000500Y-123184108D01*
X145966392Y-123056814D01*
X145900500Y-122942686D01*
X145861819Y-122904005D01*
X145828334Y-122842682D01*
X145825500Y-122816324D01*
X145825500Y-122797617D01*
X145845185Y-122730578D01*
X145897989Y-122684823D01*
X145967147Y-122674879D01*
X146011499Y-122690229D01*
X146056814Y-122716392D01*
X146184108Y-122750500D01*
X146184110Y-122750500D01*
X146315890Y-122750500D01*
X146315892Y-122750500D01*
X146443186Y-122716392D01*
X146557314Y-122650500D01*
X146650500Y-122557314D01*
X146650504Y-122557306D01*
X146651625Y-122555847D01*
X146652892Y-122554921D01*
X146656247Y-122551567D01*
X146656770Y-122552090D01*
X146708053Y-122514645D01*
X146777799Y-122510491D01*
X146838719Y-122544704D01*
X146848375Y-122555847D01*
X146849498Y-122557311D01*
X146849500Y-122557314D01*
X146942686Y-122650500D01*
X147056814Y-122716392D01*
X147184108Y-122750500D01*
X147184110Y-122750500D01*
X147315890Y-122750500D01*
X147315892Y-122750500D01*
X147443186Y-122716392D01*
X147557314Y-122650500D01*
X147650500Y-122557314D01*
X147650504Y-122557306D01*
X147651625Y-122555847D01*
X147652892Y-122554921D01*
X147656247Y-122551567D01*
X147656770Y-122552090D01*
X147708053Y-122514645D01*
X147777799Y-122510491D01*
X147838719Y-122544704D01*
X147848375Y-122555847D01*
X147849498Y-122557311D01*
X147849500Y-122557314D01*
X147942686Y-122650500D01*
X148056814Y-122716392D01*
X148184108Y-122750500D01*
X148184110Y-122750500D01*
X148315890Y-122750500D01*
X148315892Y-122750500D01*
X148443186Y-122716392D01*
X148557314Y-122650500D01*
X148650500Y-122557314D01*
X148716392Y-122443186D01*
X148750500Y-122315892D01*
X148750500Y-122184108D01*
X148716392Y-122056814D01*
X148650500Y-121942686D01*
X148557314Y-121849500D01*
X148557311Y-121849498D01*
X148555847Y-121848375D01*
X148554921Y-121847107D01*
X148551567Y-121843753D01*
X148552090Y-121843229D01*
X148514645Y-121791947D01*
X148510491Y-121722201D01*
X148544704Y-121661281D01*
X148555847Y-121651625D01*
X148557306Y-121650504D01*
X148557314Y-121650500D01*
X148650500Y-121557314D01*
X148716392Y-121443186D01*
X148750500Y-121315892D01*
X148750500Y-121184108D01*
X148716392Y-121056814D01*
X148650500Y-120942686D01*
X148557314Y-120849500D01*
X148557311Y-120849498D01*
X148555847Y-120848375D01*
X148554921Y-120847107D01*
X148551567Y-120843753D01*
X148552090Y-120843229D01*
X148514645Y-120791947D01*
X148510491Y-120722201D01*
X148544704Y-120661281D01*
X148555847Y-120651625D01*
X148557306Y-120650504D01*
X148557314Y-120650500D01*
X148650500Y-120557314D01*
X148716392Y-120443186D01*
X148717115Y-120440486D01*
X148718347Y-120438465D01*
X148719500Y-120435682D01*
X148719934Y-120435861D01*
X148753479Y-120380826D01*
X148816326Y-120350296D01*
X148885701Y-120358590D01*
X148924571Y-120384898D01*
X152388181Y-123848508D01*
X152421666Y-123909831D01*
X152424500Y-123936189D01*
X152424500Y-124207147D01*
X152424500Y-124292853D01*
X152428375Y-124307314D01*
X152446682Y-124375640D01*
X152461438Y-124401197D01*
X152489535Y-124449862D01*
X152489537Y-124449864D01*
X153138181Y-125098508D01*
X153171666Y-125159831D01*
X153174500Y-125186189D01*
X153174500Y-125566324D01*
X153154815Y-125633363D01*
X153138181Y-125654005D01*
X153099502Y-125692683D01*
X153099500Y-125692686D01*
X153033608Y-125806812D01*
X152999500Y-125934108D01*
X152999500Y-126065891D01*
X153033608Y-126193187D01*
X153066554Y-126250250D01*
X153099500Y-126307314D01*
X153192686Y-126400500D01*
X153306814Y-126466392D01*
X153434108Y-126500500D01*
X153434110Y-126500500D01*
X153565890Y-126500500D01*
X153565892Y-126500500D01*
X153693186Y-126466392D01*
X153807314Y-126400500D01*
X153900500Y-126307314D01*
X153966392Y-126193186D01*
X154000500Y-126065892D01*
X154000500Y-125934108D01*
X153966392Y-125806814D01*
X153900500Y-125692686D01*
X153861819Y-125654005D01*
X153828334Y-125592682D01*
X153825500Y-125566324D01*
X153825500Y-124957149D01*
X153825500Y-124957147D01*
X153803318Y-124874362D01*
X153803318Y-124874361D01*
X153760465Y-124800138D01*
X153634898Y-124674571D01*
X153601413Y-124613248D01*
X153606397Y-124543556D01*
X153648269Y-124487623D01*
X153690486Y-124467115D01*
X153693186Y-124466392D01*
X153807314Y-124400500D01*
X153900500Y-124307314D01*
X153966392Y-124193186D01*
X154000500Y-124065892D01*
X154000500Y-123934108D01*
X153966392Y-123806814D01*
X153900500Y-123692686D01*
X153807314Y-123599500D01*
X153807313Y-123599499D01*
X153807310Y-123599496D01*
X153800869Y-123594554D01*
X153801748Y-123593407D01*
X153763176Y-123554834D01*
X153760465Y-123550138D01*
X150809115Y-120598788D01*
X156324500Y-120598788D01*
X156324500Y-124401211D01*
X156357446Y-124651451D01*
X156422773Y-124895258D01*
X156519363Y-125128447D01*
X156519372Y-125128464D01*
X156645566Y-125347041D01*
X156645568Y-125347045D01*
X156799227Y-125547294D01*
X156799235Y-125547303D01*
X156977697Y-125725765D01*
X156977705Y-125725772D01*
X157177954Y-125879431D01*
X157177958Y-125879433D01*
X157396535Y-126005627D01*
X157396552Y-126005636D01*
X157525758Y-126059154D01*
X157629740Y-126102226D01*
X157873548Y-126167554D01*
X158123796Y-126200500D01*
X158123803Y-126200500D01*
X158376197Y-126200500D01*
X158376204Y-126200500D01*
X158626452Y-126167554D01*
X158870260Y-126102226D01*
X159103454Y-126005633D01*
X159322041Y-125879433D01*
X159322045Y-125879431D01*
X159416680Y-125806814D01*
X159522294Y-125725773D01*
X159522298Y-125725768D01*
X159522303Y-125725765D01*
X159700765Y-125547303D01*
X159700768Y-125547298D01*
X159700773Y-125547294D01*
X159854430Y-125347046D01*
X159980633Y-125128454D01*
X160077226Y-124895260D01*
X160142554Y-124651452D01*
X160175500Y-124401204D01*
X160175500Y-120598796D01*
X160142554Y-120348548D01*
X160077226Y-120104740D01*
X160012481Y-119948433D01*
X159980636Y-119871552D01*
X159980627Y-119871535D01*
X159854433Y-119652958D01*
X159854431Y-119652954D01*
X159700772Y-119452705D01*
X159700765Y-119452697D01*
X159522303Y-119274235D01*
X159522294Y-119274227D01*
X159322045Y-119120568D01*
X159322041Y-119120566D01*
X159103464Y-118994372D01*
X159103447Y-118994363D01*
X158870258Y-118897773D01*
X158715690Y-118856357D01*
X158626452Y-118832446D01*
X158595171Y-118828327D01*
X158376211Y-118799500D01*
X158376204Y-118799500D01*
X158123796Y-118799500D01*
X158123788Y-118799500D01*
X157873548Y-118832446D01*
X157629741Y-118897773D01*
X157396552Y-118994363D01*
X157396535Y-118994372D01*
X157177958Y-119120566D01*
X157177954Y-119120568D01*
X156977705Y-119274227D01*
X156799227Y-119452705D01*
X156645568Y-119652954D01*
X156645566Y-119652958D01*
X156519372Y-119871535D01*
X156519363Y-119871552D01*
X156422773Y-120104741D01*
X156357446Y-120348548D01*
X156324500Y-120598788D01*
X150809115Y-120598788D01*
X145736819Y-115526492D01*
X145703334Y-115465169D01*
X145700500Y-115438811D01*
X145700500Y-110098788D01*
X156324500Y-110098788D01*
X156324500Y-113901211D01*
X156357446Y-114151451D01*
X156422773Y-114395258D01*
X156519363Y-114628447D01*
X156519372Y-114628464D01*
X156645566Y-114847041D01*
X156645568Y-114847045D01*
X156799227Y-115047294D01*
X156799235Y-115047303D01*
X156977697Y-115225765D01*
X156977705Y-115225772D01*
X157177954Y-115379431D01*
X157177958Y-115379433D01*
X157396535Y-115505627D01*
X157396552Y-115505636D01*
X157525758Y-115559154D01*
X157629740Y-115602226D01*
X157873548Y-115667554D01*
X158123796Y-115700500D01*
X158123803Y-115700500D01*
X158376197Y-115700500D01*
X158376204Y-115700500D01*
X158626452Y-115667554D01*
X158870260Y-115602226D01*
X159103454Y-115505633D01*
X159322041Y-115379433D01*
X159322045Y-115379431D01*
X159392328Y-115325500D01*
X159522294Y-115225773D01*
X159522298Y-115225768D01*
X159522303Y-115225765D01*
X159700765Y-115047303D01*
X159700768Y-115047298D01*
X159700773Y-115047294D01*
X159854430Y-114847046D01*
X159980633Y-114628454D01*
X160077226Y-114395260D01*
X160142554Y-114151452D01*
X160175500Y-113901204D01*
X160175500Y-110098796D01*
X160142554Y-109848548D01*
X160077226Y-109604740D01*
X160010308Y-109443186D01*
X159980636Y-109371552D01*
X159980627Y-109371535D01*
X159854433Y-109152958D01*
X159854431Y-109152954D01*
X159700772Y-108952705D01*
X159700765Y-108952697D01*
X159522303Y-108774235D01*
X159522294Y-108774227D01*
X159322045Y-108620568D01*
X159322041Y-108620566D01*
X159103464Y-108494372D01*
X159103447Y-108494363D01*
X158870258Y-108397773D01*
X158715690Y-108356357D01*
X158626452Y-108332446D01*
X158595171Y-108328327D01*
X158376211Y-108299500D01*
X158376204Y-108299500D01*
X158123796Y-108299500D01*
X158123788Y-108299500D01*
X157873548Y-108332446D01*
X157629741Y-108397773D01*
X157396552Y-108494363D01*
X157396535Y-108494372D01*
X157177958Y-108620566D01*
X157177954Y-108620568D01*
X156977705Y-108774227D01*
X156799227Y-108952705D01*
X156645568Y-109152954D01*
X156645566Y-109152958D01*
X156519372Y-109371535D01*
X156519363Y-109371552D01*
X156422773Y-109604741D01*
X156357446Y-109848548D01*
X156324500Y-110098788D01*
X145700500Y-110098788D01*
X145700500Y-106849504D01*
X145720185Y-106782465D01*
X145772989Y-106736710D01*
X145842147Y-106726766D01*
X145856571Y-106729724D01*
X145934108Y-106750500D01*
X145934111Y-106750500D01*
X146065890Y-106750500D01*
X146065892Y-106750500D01*
X146193186Y-106716392D01*
X146307314Y-106650500D01*
X146400500Y-106557314D01*
X146466392Y-106443186D01*
X146500500Y-106315892D01*
X146500500Y-106184108D01*
X146466392Y-106056814D01*
X146400500Y-105942686D01*
X146307314Y-105849500D01*
X146208283Y-105792324D01*
X146193187Y-105783608D01*
X146129539Y-105766554D01*
X146065892Y-105749500D01*
X145934108Y-105749500D01*
X145904946Y-105757314D01*
X145856593Y-105770270D01*
X145786743Y-105768607D01*
X145728881Y-105729444D01*
X145701377Y-105665216D01*
X145700500Y-105650495D01*
X145700500Y-105434108D01*
X147249500Y-105434108D01*
X147249500Y-105565892D01*
X147273862Y-105656814D01*
X147283609Y-105693188D01*
X147283609Y-105693189D01*
X147352782Y-105813000D01*
X147369255Y-105880900D01*
X147352782Y-105937000D01*
X147283609Y-106056810D01*
X147283609Y-106056811D01*
X147249500Y-106184108D01*
X147249500Y-106315891D01*
X147283608Y-106443187D01*
X147287434Y-106449813D01*
X147349500Y-106557314D01*
X147442686Y-106650500D01*
X147556814Y-106716392D01*
X147684108Y-106750500D01*
X147684110Y-106750500D01*
X147815890Y-106750500D01*
X147815892Y-106750500D01*
X147943186Y-106716392D01*
X148057314Y-106650500D01*
X148150500Y-106557314D01*
X148216392Y-106443186D01*
X148250500Y-106315892D01*
X148250500Y-106184108D01*
X148216392Y-106056814D01*
X148150500Y-105942686D01*
X148150498Y-105942684D01*
X148147217Y-105937001D01*
X148130744Y-105869101D01*
X148147217Y-105812999D01*
X148150498Y-105807315D01*
X148150500Y-105807314D01*
X148216392Y-105693186D01*
X148250500Y-105565892D01*
X148250500Y-105434108D01*
X148749500Y-105434108D01*
X148749500Y-105565892D01*
X148773862Y-105656814D01*
X148783609Y-105693188D01*
X148783609Y-105693189D01*
X148852782Y-105813000D01*
X148869255Y-105880900D01*
X148852782Y-105937000D01*
X148783609Y-106056810D01*
X148783609Y-106056811D01*
X148749500Y-106184108D01*
X148749500Y-106315891D01*
X148783608Y-106443187D01*
X148787434Y-106449813D01*
X148849500Y-106557314D01*
X148942686Y-106650500D01*
X149056814Y-106716392D01*
X149184108Y-106750500D01*
X149184110Y-106750500D01*
X149315890Y-106750500D01*
X149315892Y-106750500D01*
X149443186Y-106716392D01*
X149557314Y-106650500D01*
X149650500Y-106557314D01*
X149716392Y-106443186D01*
X149750500Y-106315892D01*
X149750500Y-106184108D01*
X149716392Y-106056814D01*
X149650500Y-105942686D01*
X149650498Y-105942684D01*
X149647217Y-105937001D01*
X149630744Y-105869101D01*
X149647217Y-105812999D01*
X149650498Y-105807315D01*
X149650500Y-105807314D01*
X149716392Y-105693186D01*
X149750500Y-105565892D01*
X149750500Y-105434108D01*
X150249500Y-105434108D01*
X150249500Y-105565892D01*
X150273862Y-105656814D01*
X150283609Y-105693188D01*
X150283609Y-105693189D01*
X150352782Y-105813000D01*
X150369255Y-105880900D01*
X150352782Y-105937000D01*
X150283609Y-106056810D01*
X150283609Y-106056811D01*
X150249500Y-106184108D01*
X150249500Y-106315891D01*
X150283608Y-106443187D01*
X150287434Y-106449813D01*
X150349500Y-106557314D01*
X150442686Y-106650500D01*
X150556814Y-106716392D01*
X150684108Y-106750500D01*
X150684110Y-106750500D01*
X150815890Y-106750500D01*
X150815892Y-106750500D01*
X150943186Y-106716392D01*
X151057314Y-106650500D01*
X151150500Y-106557314D01*
X151216392Y-106443186D01*
X151250500Y-106315892D01*
X151250500Y-106184108D01*
X151216392Y-106056814D01*
X151150500Y-105942686D01*
X151150498Y-105942684D01*
X151147217Y-105937001D01*
X151130744Y-105869101D01*
X151147217Y-105812999D01*
X151150498Y-105807315D01*
X151150500Y-105807314D01*
X151216392Y-105693186D01*
X151250500Y-105565892D01*
X151250500Y-105434108D01*
X151749500Y-105434108D01*
X151749500Y-105565892D01*
X151773862Y-105656814D01*
X151783609Y-105693188D01*
X151783609Y-105693189D01*
X151852782Y-105813000D01*
X151869255Y-105880900D01*
X151852782Y-105937000D01*
X151783609Y-106056810D01*
X151783609Y-106056811D01*
X151749500Y-106184108D01*
X151749500Y-106315891D01*
X151783608Y-106443187D01*
X151787434Y-106449813D01*
X151849500Y-106557314D01*
X151942686Y-106650500D01*
X152056814Y-106716392D01*
X152184108Y-106750500D01*
X152184110Y-106750500D01*
X152315890Y-106750500D01*
X152315892Y-106750500D01*
X152443186Y-106716392D01*
X152557314Y-106650500D01*
X152650500Y-106557314D01*
X152716392Y-106443186D01*
X152750500Y-106315892D01*
X152750500Y-106184108D01*
X152716392Y-106056814D01*
X152650500Y-105942686D01*
X152650498Y-105942684D01*
X152647217Y-105937001D01*
X152630744Y-105869101D01*
X152647217Y-105812999D01*
X152650498Y-105807315D01*
X152650500Y-105807314D01*
X152716392Y-105693186D01*
X152750500Y-105565892D01*
X152750500Y-105434108D01*
X153249500Y-105434108D01*
X153249500Y-105565892D01*
X153273862Y-105656814D01*
X153283609Y-105693188D01*
X153283609Y-105693189D01*
X153352782Y-105813000D01*
X153369255Y-105880900D01*
X153352782Y-105937000D01*
X153283609Y-106056810D01*
X153283609Y-106056811D01*
X153249500Y-106184108D01*
X153249500Y-106315891D01*
X153283608Y-106443187D01*
X153287434Y-106449813D01*
X153349500Y-106557314D01*
X153442686Y-106650500D01*
X153556814Y-106716392D01*
X153684108Y-106750500D01*
X153684110Y-106750500D01*
X153815890Y-106750500D01*
X153815892Y-106750500D01*
X153943186Y-106716392D01*
X154057314Y-106650500D01*
X154150500Y-106557314D01*
X154216392Y-106443186D01*
X154250500Y-106315892D01*
X154250500Y-106184108D01*
X154216392Y-106056814D01*
X154150500Y-105942686D01*
X154150498Y-105942684D01*
X154147217Y-105937001D01*
X154130744Y-105869101D01*
X154147217Y-105812999D01*
X154150498Y-105807315D01*
X154150500Y-105807314D01*
X154216392Y-105693186D01*
X154250500Y-105565892D01*
X154250500Y-105434108D01*
X154749500Y-105434108D01*
X154749500Y-105565892D01*
X154773862Y-105656814D01*
X154783609Y-105693188D01*
X154783609Y-105693189D01*
X154852782Y-105813000D01*
X154869255Y-105880900D01*
X154852782Y-105937000D01*
X154783609Y-106056810D01*
X154783609Y-106056811D01*
X154749500Y-106184108D01*
X154749500Y-106315891D01*
X154783608Y-106443187D01*
X154787434Y-106449813D01*
X154849500Y-106557314D01*
X154942686Y-106650500D01*
X155056814Y-106716392D01*
X155184108Y-106750500D01*
X155184110Y-106750500D01*
X155315890Y-106750500D01*
X155315892Y-106750500D01*
X155443186Y-106716392D01*
X155557314Y-106650500D01*
X155650500Y-106557314D01*
X155716392Y-106443186D01*
X155750500Y-106315892D01*
X155750500Y-106184108D01*
X155716392Y-106056814D01*
X155650500Y-105942686D01*
X155650498Y-105942684D01*
X155647217Y-105937001D01*
X155630744Y-105869101D01*
X155647217Y-105812999D01*
X155650498Y-105807315D01*
X155650500Y-105807314D01*
X155716392Y-105693186D01*
X155750500Y-105565892D01*
X155750500Y-105434108D01*
X155716392Y-105306814D01*
X155650500Y-105192686D01*
X155557314Y-105099500D01*
X155498662Y-105065637D01*
X155443187Y-105033608D01*
X155379539Y-105016554D01*
X155315892Y-104999500D01*
X155184108Y-104999500D01*
X155056812Y-105033608D01*
X154942686Y-105099500D01*
X154942683Y-105099502D01*
X154849502Y-105192683D01*
X154849500Y-105192686D01*
X154783608Y-105306812D01*
X154772170Y-105349500D01*
X154749500Y-105434108D01*
X154250500Y-105434108D01*
X154216392Y-105306814D01*
X154150500Y-105192686D01*
X154057314Y-105099500D01*
X153998662Y-105065637D01*
X153943187Y-105033608D01*
X153879539Y-105016554D01*
X153815892Y-104999500D01*
X153684108Y-104999500D01*
X153556812Y-105033608D01*
X153442686Y-105099500D01*
X153442683Y-105099502D01*
X153349502Y-105192683D01*
X153349500Y-105192686D01*
X153283608Y-105306812D01*
X153272170Y-105349500D01*
X153249500Y-105434108D01*
X152750500Y-105434108D01*
X152716392Y-105306814D01*
X152650500Y-105192686D01*
X152557314Y-105099500D01*
X152498662Y-105065637D01*
X152443187Y-105033608D01*
X152379539Y-105016554D01*
X152315892Y-104999500D01*
X152184108Y-104999500D01*
X152056812Y-105033608D01*
X151942686Y-105099500D01*
X151942683Y-105099502D01*
X151849502Y-105192683D01*
X151849500Y-105192686D01*
X151783608Y-105306812D01*
X151772170Y-105349500D01*
X151749500Y-105434108D01*
X151250500Y-105434108D01*
X151216392Y-105306814D01*
X151150500Y-105192686D01*
X151057314Y-105099500D01*
X150998662Y-105065637D01*
X150943187Y-105033608D01*
X150879539Y-105016554D01*
X150815892Y-104999500D01*
X150684108Y-104999500D01*
X150556812Y-105033608D01*
X150442686Y-105099500D01*
X150442683Y-105099502D01*
X150349502Y-105192683D01*
X150349500Y-105192686D01*
X150283608Y-105306812D01*
X150272170Y-105349500D01*
X150249500Y-105434108D01*
X149750500Y-105434108D01*
X149716392Y-105306814D01*
X149650500Y-105192686D01*
X149557314Y-105099500D01*
X149498662Y-105065637D01*
X149443187Y-105033608D01*
X149379539Y-105016554D01*
X149315892Y-104999500D01*
X149184108Y-104999500D01*
X149056812Y-105033608D01*
X148942686Y-105099500D01*
X148942683Y-105099502D01*
X148849502Y-105192683D01*
X148849500Y-105192686D01*
X148783608Y-105306812D01*
X148772170Y-105349500D01*
X148749500Y-105434108D01*
X148250500Y-105434108D01*
X148216392Y-105306814D01*
X148150500Y-105192686D01*
X148057314Y-105099500D01*
X147998662Y-105065637D01*
X147943187Y-105033608D01*
X147879539Y-105016554D01*
X147815892Y-104999500D01*
X147684108Y-104999500D01*
X147556812Y-105033608D01*
X147442686Y-105099500D01*
X147442683Y-105099502D01*
X147349502Y-105192683D01*
X147349500Y-105192686D01*
X147283608Y-105306812D01*
X147272170Y-105349500D01*
X147249500Y-105434108D01*
X145700500Y-105434108D01*
X145700500Y-104382149D01*
X145700500Y-104382147D01*
X145678318Y-104299362D01*
X145678318Y-104299361D01*
X145635465Y-104225138D01*
X144286819Y-102876492D01*
X144253334Y-102815169D01*
X144250500Y-102788811D01*
X144250500Y-102734110D01*
X144250500Y-102734108D01*
X144216392Y-102606814D01*
X144150500Y-102492686D01*
X144057314Y-102399500D01*
X143977448Y-102353389D01*
X143943187Y-102333608D01*
X143879539Y-102316554D01*
X143815892Y-102299500D01*
X143684108Y-102299500D01*
X143556812Y-102333608D01*
X143511499Y-102359770D01*
X143443599Y-102376242D01*
X143377572Y-102353389D01*
X143334382Y-102298467D01*
X143325500Y-102252382D01*
X143325500Y-101545506D01*
X143345185Y-101478467D01*
X143397989Y-101432712D01*
X143467147Y-101422768D01*
X143530703Y-101451793D01*
X143556886Y-101483505D01*
X143599500Y-101557314D01*
X143692686Y-101650500D01*
X143806814Y-101716392D01*
X143934108Y-101750500D01*
X143934110Y-101750500D01*
X144065890Y-101750500D01*
X144065892Y-101750500D01*
X144193186Y-101716392D01*
X144307314Y-101650500D01*
X144400500Y-101557314D01*
X144466392Y-101443186D01*
X144500500Y-101315892D01*
X144500500Y-101184108D01*
X144466392Y-101056814D01*
X144440229Y-101011499D01*
X144423757Y-100943601D01*
X144446609Y-100877574D01*
X144501530Y-100834383D01*
X144547617Y-100825500D01*
X144566324Y-100825500D01*
X144633363Y-100845185D01*
X144654005Y-100861819D01*
X144692686Y-100900500D01*
X144806814Y-100966392D01*
X144934108Y-101000500D01*
X144934110Y-101000500D01*
X145065890Y-101000500D01*
X145065892Y-101000500D01*
X145193186Y-100966392D01*
X145307314Y-100900500D01*
X145400500Y-100807314D01*
X145466392Y-100693186D01*
X145500500Y-100565892D01*
X145500500Y-100434108D01*
X145466392Y-100306814D01*
X145440229Y-100261499D01*
X145423757Y-100193601D01*
X145446609Y-100127574D01*
X145501530Y-100084383D01*
X145547617Y-100075500D01*
X145563810Y-100075500D01*
X145630849Y-100095185D01*
X145651491Y-100111818D01*
X145713181Y-100173507D01*
X145746666Y-100234830D01*
X145749500Y-100261189D01*
X145749500Y-100315891D01*
X145783608Y-100443187D01*
X145789078Y-100452661D01*
X145849500Y-100557314D01*
X145849502Y-100557316D01*
X145942687Y-100650501D01*
X145944158Y-100651630D01*
X145945083Y-100652897D01*
X145948433Y-100656247D01*
X145947910Y-100656769D01*
X145985356Y-100708060D01*
X145989506Y-100777807D01*
X145955289Y-100838725D01*
X145944158Y-100848370D01*
X145942687Y-100849498D01*
X145849504Y-100942682D01*
X145849500Y-100942686D01*
X145783608Y-101056812D01*
X145749500Y-101184108D01*
X145749500Y-101315891D01*
X145783608Y-101443187D01*
X145806887Y-101483506D01*
X145849500Y-101557314D01*
X145942686Y-101650500D01*
X146056814Y-101716392D01*
X146184108Y-101750500D01*
X146184110Y-101750500D01*
X146315890Y-101750500D01*
X146315892Y-101750500D01*
X146443186Y-101716392D01*
X146557314Y-101650500D01*
X146650500Y-101557314D01*
X146716392Y-101443186D01*
X146750500Y-101315892D01*
X146750500Y-101184108D01*
X146716392Y-101056814D01*
X146650500Y-100942686D01*
X146557314Y-100849500D01*
X146557311Y-100849498D01*
X146555847Y-100848375D01*
X146554921Y-100847107D01*
X146551567Y-100843753D01*
X146552090Y-100843229D01*
X146514645Y-100791947D01*
X146510491Y-100722201D01*
X146544704Y-100661281D01*
X146555847Y-100651625D01*
X146557306Y-100650504D01*
X146557314Y-100650500D01*
X146650500Y-100557314D01*
X146716392Y-100443186D01*
X146750500Y-100315892D01*
X146750500Y-100184108D01*
X146716392Y-100056814D01*
X146650500Y-99942686D01*
X146557314Y-99849500D01*
X146500250Y-99816554D01*
X146443187Y-99783608D01*
X146356814Y-99760465D01*
X146315892Y-99749500D01*
X146315891Y-99749500D01*
X146261189Y-99749500D01*
X146194150Y-99729815D01*
X146173508Y-99713181D01*
X145949864Y-99489537D01*
X145949862Y-99489535D01*
X145906324Y-99464398D01*
X145875640Y-99446682D01*
X145816787Y-99430913D01*
X145792853Y-99424500D01*
X143792853Y-99424500D01*
X143707147Y-99424500D01*
X143624359Y-99446682D01*
X143550138Y-99489535D01*
X143550135Y-99489537D01*
X142239537Y-100800135D01*
X142239535Y-100800138D01*
X142196680Y-100874363D01*
X142178376Y-100942682D01*
X142178375Y-100942687D01*
X142174500Y-100957146D01*
X142174500Y-104395225D01*
X142154815Y-104462264D01*
X142102011Y-104508019D01*
X142032853Y-104517963D01*
X141988503Y-104502614D01*
X141962294Y-104487483D01*
X141962293Y-104487482D01*
X141822406Y-104450000D01*
X141677589Y-104450000D01*
X141635533Y-104461269D01*
X141874451Y-104700187D01*
X141907936Y-104761510D01*
X141902952Y-104831202D01*
X141874451Y-104875549D01*
X141856066Y-104893934D01*
X141834968Y-104872836D01*
X141779837Y-104850000D01*
X141720163Y-104850000D01*
X141665032Y-104872836D01*
X141622836Y-104915032D01*
X141600000Y-104970163D01*
X141600000Y-105029837D01*
X141622836Y-105084968D01*
X141665032Y-105127164D01*
X141720163Y-105150000D01*
X141779837Y-105150000D01*
X141834968Y-105127164D01*
X141856066Y-105106066D01*
X141874450Y-105124450D01*
X141907935Y-105185773D01*
X141902951Y-105255465D01*
X141874450Y-105299812D01*
X141635532Y-105538729D01*
X141636652Y-105542906D01*
X141636652Y-105607092D01*
X141635532Y-105611268D01*
X141874451Y-105850187D01*
X141907936Y-105911510D01*
X141902952Y-105981202D01*
X141874451Y-106025549D01*
X141856066Y-106043934D01*
X141834968Y-106022836D01*
X141779837Y-106000000D01*
X141720163Y-106000000D01*
X141665032Y-106022836D01*
X141622836Y-106065032D01*
X141600000Y-106120163D01*
X141600000Y-106179837D01*
X141622836Y-106234968D01*
X141665032Y-106277164D01*
X141720163Y-106300000D01*
X141779837Y-106300000D01*
X141834968Y-106277164D01*
X141856066Y-106256066D01*
X141874450Y-106274450D01*
X141907935Y-106335773D01*
X141902951Y-106405465D01*
X141874450Y-106449812D01*
X141635533Y-106688728D01*
X141643351Y-106717905D01*
X141643351Y-106782093D01*
X141635533Y-106811269D01*
X141874451Y-107050187D01*
X141907936Y-107111510D01*
X141902952Y-107181202D01*
X141874451Y-107225549D01*
X141856066Y-107243934D01*
X141834968Y-107222836D01*
X141779837Y-107200000D01*
X141720163Y-107200000D01*
X141665032Y-107222836D01*
X141622836Y-107265032D01*
X141600000Y-107320163D01*
X141600000Y-107379837D01*
X141622836Y-107434968D01*
X141665032Y-107477164D01*
X141720163Y-107500000D01*
X141779837Y-107500000D01*
X141834968Y-107477164D01*
X141856066Y-107456066D01*
X141874450Y-107474450D01*
X141907935Y-107535773D01*
X141902951Y-107605465D01*
X141874450Y-107649812D01*
X141635532Y-107888729D01*
X141636652Y-107892906D01*
X141636652Y-107957092D01*
X141635532Y-107961268D01*
X141874451Y-108200187D01*
X141907936Y-108261510D01*
X141902952Y-108331202D01*
X141874451Y-108375549D01*
X141856066Y-108393934D01*
X141834968Y-108372836D01*
X141779837Y-108350000D01*
X141720163Y-108350000D01*
X141665032Y-108372836D01*
X141622836Y-108415032D01*
X141600000Y-108470163D01*
X141600000Y-108529837D01*
X141622836Y-108584968D01*
X141665032Y-108627164D01*
X141720163Y-108650000D01*
X141779837Y-108650000D01*
X141834968Y-108627164D01*
X141856066Y-108606066D01*
X141874450Y-108624450D01*
X141907935Y-108685773D01*
X141902951Y-108755465D01*
X141874450Y-108799812D01*
X141635532Y-109038729D01*
X141635533Y-109038730D01*
X141677588Y-109049999D01*
X141677592Y-109050000D01*
X141822406Y-109050000D01*
X141962293Y-109012517D01*
X141962294Y-109012516D01*
X141988500Y-108997387D01*
X142056401Y-108980914D01*
X142122427Y-109003767D01*
X142165618Y-109058688D01*
X142174500Y-109104774D01*
X142174500Y-112204493D01*
X142154815Y-112271532D01*
X142102011Y-112317287D01*
X142032853Y-112327231D01*
X141969297Y-112298206D01*
X141943113Y-112266494D01*
X141900500Y-112192686D01*
X141807314Y-112099500D01*
X141750250Y-112066554D01*
X141693187Y-112033608D01*
X141629539Y-112016554D01*
X141565892Y-111999500D01*
X141434108Y-111999500D01*
X141306812Y-112033608D01*
X141192686Y-112099500D01*
X141192683Y-112099502D01*
X141099502Y-112192683D01*
X141099500Y-112192686D01*
X141033608Y-112306812D01*
X140999500Y-112434108D01*
X140999500Y-112565891D01*
X141033608Y-112693187D01*
X141041666Y-112707143D01*
X141099500Y-112807314D01*
X141192686Y-112900500D01*
X141306814Y-112966392D01*
X141309513Y-112967115D01*
X141311534Y-112968347D01*
X141314318Y-112969500D01*
X141314138Y-112969934D01*
X141369174Y-113003479D01*
X141399704Y-113066326D01*
X141391410Y-113135701D01*
X141365102Y-113174571D01*
X140726492Y-113813181D01*
X140665169Y-113846666D01*
X140638811Y-113849500D01*
X140433676Y-113849500D01*
X140366637Y-113829815D01*
X140345995Y-113813181D01*
X140307316Y-113774502D01*
X140307314Y-113774500D01*
X140250250Y-113741554D01*
X140193187Y-113708608D01*
X140129539Y-113691554D01*
X140065892Y-113674500D01*
X139934108Y-113674500D01*
X139806812Y-113708608D01*
X139692686Y-113774500D01*
X139692683Y-113774502D01*
X139599502Y-113867683D01*
X139599500Y-113867686D01*
X139533608Y-113981812D01*
X139499500Y-114109108D01*
X137601216Y-114109108D01*
X137814652Y-113895672D01*
X137814657Y-113895669D01*
X137824860Y-113885465D01*
X137824862Y-113885465D01*
X137885465Y-113824862D01*
X137906891Y-113787750D01*
X137928318Y-113750639D01*
X137950501Y-113667853D01*
X137950501Y-113582147D01*
X137950501Y-113574552D01*
X137950500Y-113574534D01*
X137950500Y-112957676D01*
X137970185Y-112890637D01*
X138022989Y-112844882D01*
X138092147Y-112834938D01*
X138155703Y-112863963D01*
X138162181Y-112869995D01*
X138192686Y-112900500D01*
X138306814Y-112966392D01*
X138434108Y-113000500D01*
X138434110Y-113000500D01*
X138565890Y-113000500D01*
X138565892Y-113000500D01*
X138693186Y-112966392D01*
X138807314Y-112900500D01*
X138900500Y-112807314D01*
X138966392Y-112693186D01*
X139000500Y-112565892D01*
X139000500Y-112434108D01*
X138966392Y-112306814D01*
X138900500Y-112192686D01*
X138807314Y-112099500D01*
X138750250Y-112066554D01*
X138693187Y-112033608D01*
X138629539Y-112016554D01*
X138565892Y-111999500D01*
X138434108Y-111999500D01*
X138306812Y-112033608D01*
X138192686Y-112099500D01*
X138192683Y-112099502D01*
X138162181Y-112130005D01*
X138100858Y-112163490D01*
X138031166Y-112158506D01*
X137975233Y-112116634D01*
X137950816Y-112051170D01*
X137950500Y-112042324D01*
X137950500Y-110684108D01*
X139499500Y-110684108D01*
X139499500Y-110815891D01*
X139533608Y-110943187D01*
X139566554Y-111000250D01*
X139599500Y-111057314D01*
X139692686Y-111150500D01*
X139806814Y-111216392D01*
X139934108Y-111250500D01*
X139934110Y-111250500D01*
X140065890Y-111250500D01*
X140065892Y-111250500D01*
X140193186Y-111216392D01*
X140307314Y-111150500D01*
X140400500Y-111057314D01*
X140466392Y-110943186D01*
X140500500Y-110815892D01*
X140500500Y-110684108D01*
X140466392Y-110556814D01*
X140400500Y-110442686D01*
X140307314Y-110349500D01*
X140250250Y-110316554D01*
X140193187Y-110283608D01*
X140129539Y-110266554D01*
X140065892Y-110249500D01*
X139934108Y-110249500D01*
X139806812Y-110283608D01*
X139692686Y-110349500D01*
X139692683Y-110349502D01*
X139599502Y-110442683D01*
X139599500Y-110442686D01*
X139533608Y-110556812D01*
X139499500Y-110684108D01*
X137950500Y-110684108D01*
X137950500Y-109150750D01*
X137970185Y-109083711D01*
X138022989Y-109037956D01*
X138092147Y-109028012D01*
X138106595Y-109030975D01*
X138177595Y-109050000D01*
X138322409Y-109050000D01*
X138322409Y-109049999D01*
X138364466Y-109038730D01*
X139285532Y-109038730D01*
X139327588Y-109049999D01*
X139327592Y-109050000D01*
X139472409Y-109050000D01*
X139472409Y-109049999D01*
X139514466Y-109038730D01*
X140485532Y-109038730D01*
X140527588Y-109049999D01*
X140527592Y-109050000D01*
X140672409Y-109050000D01*
X140672409Y-109049999D01*
X140714466Y-109038730D01*
X140714466Y-109038729D01*
X140600001Y-108924264D01*
X140485532Y-109038730D01*
X139514466Y-109038730D01*
X139514466Y-109038729D01*
X139400001Y-108924264D01*
X139285532Y-109038730D01*
X138364466Y-109038730D01*
X138125549Y-108799813D01*
X138092064Y-108738490D01*
X138097048Y-108668798D01*
X138125549Y-108624451D01*
X138143934Y-108606066D01*
X138165032Y-108627164D01*
X138220163Y-108650000D01*
X138279837Y-108650000D01*
X138334968Y-108627164D01*
X138377164Y-108584968D01*
X138400000Y-108529837D01*
X138400000Y-108500000D01*
X138674264Y-108500000D01*
X138788728Y-108614465D01*
X138792906Y-108613346D01*
X138857094Y-108613347D01*
X138861268Y-108614465D01*
X138975735Y-108499999D01*
X138945899Y-108470163D01*
X139250000Y-108470163D01*
X139250000Y-108529837D01*
X139272836Y-108584968D01*
X139315032Y-108627164D01*
X139370163Y-108650000D01*
X139429837Y-108650000D01*
X139484968Y-108627164D01*
X139527164Y-108584968D01*
X139550000Y-108529837D01*
X139550000Y-108500000D01*
X139824264Y-108500000D01*
X139938729Y-108614465D01*
X139967908Y-108606648D01*
X140032094Y-108606648D01*
X140061268Y-108614465D01*
X140175735Y-108499999D01*
X140145899Y-108470163D01*
X140450000Y-108470163D01*
X140450000Y-108529837D01*
X140472836Y-108584968D01*
X140515032Y-108627164D01*
X140570163Y-108650000D01*
X140629837Y-108650000D01*
X140684968Y-108627164D01*
X140727164Y-108584968D01*
X140750000Y-108529837D01*
X140750000Y-108500000D01*
X141024264Y-108500000D01*
X141138728Y-108614465D01*
X141142906Y-108613346D01*
X141207094Y-108613347D01*
X141211268Y-108614465D01*
X141325735Y-108499999D01*
X141211269Y-108385533D01*
X141207094Y-108386652D01*
X141142907Y-108386652D01*
X141138730Y-108385532D01*
X141024264Y-108500000D01*
X140750000Y-108500000D01*
X140750000Y-108470163D01*
X140727164Y-108415032D01*
X140684968Y-108372836D01*
X140629837Y-108350000D01*
X140570163Y-108350000D01*
X140515032Y-108372836D01*
X140472836Y-108415032D01*
X140450000Y-108470163D01*
X140145899Y-108470163D01*
X140061268Y-108385532D01*
X140032094Y-108393350D01*
X139967909Y-108393350D01*
X139938731Y-108385532D01*
X139824264Y-108500000D01*
X139550000Y-108500000D01*
X139550000Y-108470163D01*
X139527164Y-108415032D01*
X139484968Y-108372836D01*
X139429837Y-108350000D01*
X139370163Y-108350000D01*
X139315032Y-108372836D01*
X139272836Y-108415032D01*
X139250000Y-108470163D01*
X138945899Y-108470163D01*
X138861269Y-108385533D01*
X138857094Y-108386652D01*
X138792907Y-108386652D01*
X138788730Y-108385532D01*
X138674264Y-108500000D01*
X138400000Y-108500000D01*
X138400000Y-108470163D01*
X138377164Y-108415032D01*
X138334968Y-108372836D01*
X138279837Y-108350000D01*
X138220163Y-108350000D01*
X138165032Y-108372836D01*
X138143934Y-108393934D01*
X138125548Y-108375548D01*
X138092063Y-108314225D01*
X138097047Y-108244533D01*
X138125548Y-108200186D01*
X138364465Y-107961269D01*
X138363347Y-107957094D01*
X138363346Y-107892906D01*
X138364465Y-107888730D01*
X139285532Y-107888730D01*
X139286652Y-107892907D01*
X139286652Y-107957094D01*
X139285533Y-107961269D01*
X139399999Y-108075735D01*
X139514465Y-107961268D01*
X139513347Y-107957094D01*
X139513346Y-107892906D01*
X139514464Y-107888730D01*
X140485532Y-107888730D01*
X140486652Y-107892907D01*
X140486652Y-107957094D01*
X140485533Y-107961269D01*
X140599999Y-108075735D01*
X140714465Y-107961268D01*
X140713347Y-107957094D01*
X140713346Y-107892906D01*
X140714465Y-107888728D01*
X140600001Y-107774264D01*
X140485532Y-107888730D01*
X139514464Y-107888730D01*
X139514465Y-107888728D01*
X139400001Y-107774264D01*
X139285532Y-107888730D01*
X138364465Y-107888730D01*
X138364465Y-107888729D01*
X138125549Y-107649813D01*
X138092064Y-107588490D01*
X138097048Y-107518798D01*
X138125549Y-107474451D01*
X138143934Y-107456066D01*
X138165032Y-107477164D01*
X138220163Y-107500000D01*
X138279837Y-107500000D01*
X138334968Y-107477164D01*
X138377164Y-107434968D01*
X138400000Y-107379837D01*
X138400000Y-107350000D01*
X138674264Y-107350000D01*
X138788728Y-107464465D01*
X138792906Y-107463346D01*
X138857094Y-107463347D01*
X138861268Y-107464465D01*
X138975735Y-107349999D01*
X138945899Y-107320163D01*
X139250000Y-107320163D01*
X139250000Y-107379837D01*
X139272836Y-107434968D01*
X139315032Y-107477164D01*
X139370163Y-107500000D01*
X139429837Y-107500000D01*
X139484968Y-107477164D01*
X139527164Y-107434968D01*
X139550000Y-107379837D01*
X139550000Y-107350000D01*
X139824264Y-107350000D01*
X139938729Y-107464465D01*
X139967908Y-107456648D01*
X140032094Y-107456648D01*
X140061268Y-107464465D01*
X140175735Y-107349999D01*
X140145899Y-107320163D01*
X140450000Y-107320163D01*
X140450000Y-107379837D01*
X140472836Y-107434968D01*
X140515032Y-107477164D01*
X140570163Y-107500000D01*
X140629837Y-107500000D01*
X140684968Y-107477164D01*
X140727164Y-107434968D01*
X140750000Y-107379837D01*
X140750000Y-107350000D01*
X141024264Y-107350000D01*
X141138728Y-107464465D01*
X141142906Y-107463346D01*
X141207094Y-107463347D01*
X141211268Y-107464465D01*
X141325735Y-107349999D01*
X141211269Y-107235533D01*
X141207094Y-107236652D01*
X141142907Y-107236652D01*
X141138730Y-107235532D01*
X141024264Y-107350000D01*
X140750000Y-107350000D01*
X140750000Y-107320163D01*
X140727164Y-107265032D01*
X140684968Y-107222836D01*
X140629837Y-107200000D01*
X140570163Y-107200000D01*
X140515032Y-107222836D01*
X140472836Y-107265032D01*
X140450000Y-107320163D01*
X140145899Y-107320163D01*
X140061268Y-107235532D01*
X140032094Y-107243350D01*
X139967909Y-107243350D01*
X139938731Y-107235532D01*
X139824264Y-107350000D01*
X139550000Y-107350000D01*
X139550000Y-107320163D01*
X139527164Y-107265032D01*
X139484968Y-107222836D01*
X139429837Y-107200000D01*
X139370163Y-107200000D01*
X139315032Y-107222836D01*
X139272836Y-107265032D01*
X139250000Y-107320163D01*
X138945899Y-107320163D01*
X138861269Y-107235533D01*
X138857094Y-107236652D01*
X138792907Y-107236652D01*
X138788730Y-107235532D01*
X138674264Y-107350000D01*
X138400000Y-107350000D01*
X138400000Y-107320163D01*
X138377164Y-107265032D01*
X138334968Y-107222836D01*
X138279837Y-107200000D01*
X138220163Y-107200000D01*
X138165032Y-107222836D01*
X138143934Y-107243934D01*
X138125548Y-107225548D01*
X138092063Y-107164225D01*
X138097047Y-107094533D01*
X138125548Y-107050186D01*
X138364465Y-106811269D01*
X138356648Y-106782094D01*
X138356648Y-106717908D01*
X138364464Y-106688731D01*
X139285532Y-106688731D01*
X139293350Y-106717909D01*
X139293350Y-106782094D01*
X139285532Y-106811268D01*
X139399999Y-106925735D01*
X139514465Y-106811268D01*
X139506648Y-106782094D01*
X139506648Y-106717908D01*
X139514464Y-106688731D01*
X140485532Y-106688731D01*
X140493350Y-106717909D01*
X140493350Y-106782094D01*
X140485532Y-106811268D01*
X140599999Y-106925735D01*
X140714465Y-106811268D01*
X140706648Y-106782094D01*
X140706648Y-106717908D01*
X140714465Y-106688729D01*
X140600001Y-106574264D01*
X140485532Y-106688731D01*
X139514464Y-106688731D01*
X139514465Y-106688729D01*
X139400001Y-106574264D01*
X139285532Y-106688731D01*
X138364464Y-106688731D01*
X138364465Y-106688729D01*
X138125549Y-106449813D01*
X138092064Y-106388490D01*
X138097048Y-106318798D01*
X138125549Y-106274451D01*
X138143934Y-106256066D01*
X138165032Y-106277164D01*
X138220163Y-106300000D01*
X138279837Y-106300000D01*
X138334968Y-106277164D01*
X138377164Y-106234968D01*
X138400000Y-106179837D01*
X138400000Y-106150000D01*
X138674264Y-106150000D01*
X138788728Y-106264465D01*
X138792906Y-106263346D01*
X138857094Y-106263347D01*
X138861268Y-106264465D01*
X138975735Y-106149999D01*
X138945899Y-106120163D01*
X139250000Y-106120163D01*
X139250000Y-106179837D01*
X139272836Y-106234968D01*
X139315032Y-106277164D01*
X139370163Y-106300000D01*
X139429837Y-106300000D01*
X139484968Y-106277164D01*
X139527164Y-106234968D01*
X139550000Y-106179837D01*
X139550000Y-106150000D01*
X139824264Y-106150000D01*
X139938729Y-106264465D01*
X139967908Y-106256648D01*
X140032094Y-106256648D01*
X140061268Y-106264465D01*
X140175735Y-106149999D01*
X140145899Y-106120163D01*
X140450000Y-106120163D01*
X140450000Y-106179837D01*
X140472836Y-106234968D01*
X140515032Y-106277164D01*
X140570163Y-106300000D01*
X140629837Y-106300000D01*
X140684968Y-106277164D01*
X140727164Y-106234968D01*
X140750000Y-106179837D01*
X140750000Y-106150000D01*
X141024264Y-106150000D01*
X141138728Y-106264465D01*
X141142906Y-106263346D01*
X141207094Y-106263347D01*
X141211268Y-106264465D01*
X141325735Y-106149999D01*
X141211269Y-106035533D01*
X141207094Y-106036652D01*
X141142907Y-106036652D01*
X141138730Y-106035532D01*
X141024264Y-106150000D01*
X140750000Y-106150000D01*
X140750000Y-106120163D01*
X140727164Y-106065032D01*
X140684968Y-106022836D01*
X140629837Y-106000000D01*
X140570163Y-106000000D01*
X140515032Y-106022836D01*
X140472836Y-106065032D01*
X140450000Y-106120163D01*
X140145899Y-106120163D01*
X140061268Y-106035532D01*
X140032094Y-106043350D01*
X139967909Y-106043350D01*
X139938731Y-106035532D01*
X139824264Y-106150000D01*
X139550000Y-106150000D01*
X139550000Y-106120163D01*
X139527164Y-106065032D01*
X139484968Y-106022836D01*
X139429837Y-106000000D01*
X139370163Y-106000000D01*
X139315032Y-106022836D01*
X139272836Y-106065032D01*
X139250000Y-106120163D01*
X138945899Y-106120163D01*
X138861269Y-106035533D01*
X138857094Y-106036652D01*
X138792907Y-106036652D01*
X138788730Y-106035532D01*
X138674264Y-106150000D01*
X138400000Y-106150000D01*
X138400000Y-106120163D01*
X138377164Y-106065032D01*
X138334968Y-106022836D01*
X138279837Y-106000000D01*
X138220163Y-106000000D01*
X138165032Y-106022836D01*
X138143934Y-106043934D01*
X138125548Y-106025548D01*
X138092063Y-105964225D01*
X138097047Y-105894533D01*
X138125548Y-105850186D01*
X138364465Y-105611269D01*
X138363347Y-105607094D01*
X138363346Y-105542906D01*
X138364465Y-105538730D01*
X139285532Y-105538730D01*
X139286652Y-105542907D01*
X139286652Y-105607094D01*
X139285533Y-105611269D01*
X139399999Y-105725735D01*
X139514465Y-105611268D01*
X139513347Y-105607094D01*
X139513346Y-105542906D01*
X139514464Y-105538730D01*
X140485532Y-105538730D01*
X140486652Y-105542907D01*
X140486652Y-105607094D01*
X140485533Y-105611269D01*
X140599999Y-105725735D01*
X140714465Y-105611268D01*
X140713347Y-105607094D01*
X140713346Y-105542906D01*
X140714465Y-105538728D01*
X140600001Y-105424264D01*
X140485532Y-105538730D01*
X139514464Y-105538730D01*
X139514465Y-105538728D01*
X139400001Y-105424264D01*
X139285532Y-105538730D01*
X138364465Y-105538730D01*
X138364465Y-105538729D01*
X138125549Y-105299813D01*
X138092064Y-105238490D01*
X138097048Y-105168798D01*
X138125549Y-105124451D01*
X138143934Y-105106066D01*
X138165032Y-105127164D01*
X138220163Y-105150000D01*
X138279837Y-105150000D01*
X138334968Y-105127164D01*
X138377164Y-105084968D01*
X138400000Y-105029837D01*
X138400000Y-105000000D01*
X138674264Y-105000000D01*
X138788728Y-105114465D01*
X138792906Y-105113346D01*
X138857094Y-105113347D01*
X138861268Y-105114465D01*
X138975735Y-104999999D01*
X138945899Y-104970163D01*
X139250000Y-104970163D01*
X139250000Y-105029837D01*
X139272836Y-105084968D01*
X139315032Y-105127164D01*
X139370163Y-105150000D01*
X139429837Y-105150000D01*
X139484968Y-105127164D01*
X139527164Y-105084968D01*
X139550000Y-105029837D01*
X139550000Y-105000000D01*
X139824264Y-105000000D01*
X139938729Y-105114465D01*
X139967908Y-105106648D01*
X140032094Y-105106648D01*
X140061268Y-105114465D01*
X140175735Y-104999999D01*
X140145899Y-104970163D01*
X140450000Y-104970163D01*
X140450000Y-105029837D01*
X140472836Y-105084968D01*
X140515032Y-105127164D01*
X140570163Y-105150000D01*
X140629837Y-105150000D01*
X140684968Y-105127164D01*
X140727164Y-105084968D01*
X140750000Y-105029837D01*
X140750000Y-105000000D01*
X141024264Y-105000000D01*
X141138728Y-105114465D01*
X141142906Y-105113346D01*
X141207094Y-105113347D01*
X141211268Y-105114465D01*
X141325735Y-104999999D01*
X141211269Y-104885533D01*
X141207094Y-104886652D01*
X141142907Y-104886652D01*
X141138730Y-104885532D01*
X141024264Y-105000000D01*
X140750000Y-105000000D01*
X140750000Y-104970163D01*
X140727164Y-104915032D01*
X140684968Y-104872836D01*
X140629837Y-104850000D01*
X140570163Y-104850000D01*
X140515032Y-104872836D01*
X140472836Y-104915032D01*
X140450000Y-104970163D01*
X140145899Y-104970163D01*
X140061268Y-104885532D01*
X140032094Y-104893350D01*
X139967909Y-104893350D01*
X139938731Y-104885532D01*
X139824264Y-105000000D01*
X139550000Y-105000000D01*
X139550000Y-104970163D01*
X139527164Y-104915032D01*
X139484968Y-104872836D01*
X139429837Y-104850000D01*
X139370163Y-104850000D01*
X139315032Y-104872836D01*
X139272836Y-104915032D01*
X139250000Y-104970163D01*
X138945899Y-104970163D01*
X138861269Y-104885533D01*
X138857094Y-104886652D01*
X138792907Y-104886652D01*
X138788730Y-104885532D01*
X138674264Y-105000000D01*
X138400000Y-105000000D01*
X138400000Y-104970163D01*
X138377164Y-104915032D01*
X138334968Y-104872836D01*
X138279837Y-104850000D01*
X138220163Y-104850000D01*
X138165032Y-104872836D01*
X138143934Y-104893934D01*
X138125548Y-104875548D01*
X138092063Y-104814225D01*
X138097047Y-104744533D01*
X138125548Y-104700186D01*
X138364465Y-104461269D01*
X139285533Y-104461269D01*
X139399999Y-104575735D01*
X139514465Y-104461269D01*
X140485533Y-104461269D01*
X140599999Y-104575735D01*
X140714465Y-104461269D01*
X140672408Y-104450000D01*
X140527589Y-104450000D01*
X140485533Y-104461269D01*
X139514465Y-104461269D01*
X139472408Y-104450000D01*
X139327589Y-104450000D01*
X139285533Y-104461269D01*
X138364465Y-104461269D01*
X138322408Y-104450000D01*
X138177591Y-104450000D01*
X138106593Y-104469024D01*
X138036743Y-104467361D01*
X137978881Y-104428198D01*
X137951377Y-104363970D01*
X137950500Y-104349249D01*
X137950500Y-104082149D01*
X137950500Y-104082147D01*
X137928318Y-103999362D01*
X137928318Y-103999361D01*
X137885465Y-103925138D01*
X136576912Y-102616585D01*
X136557206Y-102590904D01*
X136500502Y-102492689D01*
X136500498Y-102492684D01*
X136407316Y-102399502D01*
X136407314Y-102399500D01*
X136293186Y-102333608D01*
X136293181Y-102333606D01*
X136290667Y-102332565D01*
X136288866Y-102331114D01*
X136286147Y-102329544D01*
X136286391Y-102329120D01*
X136236262Y-102288725D01*
X136214195Y-102222432D01*
X136218340Y-102185915D01*
X136250500Y-102065892D01*
X136250500Y-101934108D01*
X136216392Y-101806814D01*
X136150500Y-101692686D01*
X136057314Y-101599500D01*
X136000250Y-101566554D01*
X135943187Y-101533608D01*
X135879539Y-101516554D01*
X135815892Y-101499500D01*
X135684108Y-101499500D01*
X135556812Y-101533608D01*
X135442686Y-101599500D01*
X135442683Y-101599502D01*
X135349502Y-101692683D01*
X135349500Y-101692686D01*
X135283608Y-101806812D01*
X135249500Y-101934108D01*
X135249500Y-102065892D01*
X135252075Y-102075501D01*
X135283608Y-102193187D01*
X135300493Y-102222432D01*
X135349500Y-102307314D01*
X135442686Y-102400500D01*
X135541521Y-102457563D01*
X135556812Y-102466391D01*
X135559326Y-102467432D01*
X135561122Y-102468879D01*
X135563853Y-102470456D01*
X135563607Y-102470881D01*
X135613733Y-102511269D01*
X135635804Y-102577561D01*
X135631658Y-102614090D01*
X135599500Y-102734108D01*
X135599500Y-102865891D01*
X135633608Y-102993187D01*
X135666554Y-103050250D01*
X135699500Y-103107314D01*
X135792686Y-103200500D01*
X135842294Y-103229141D01*
X135890509Y-103279708D01*
X135903733Y-103348315D01*
X135877765Y-103413180D01*
X135867979Y-103424206D01*
X135849501Y-103442685D01*
X135849500Y-103442686D01*
X135783608Y-103556812D01*
X135749500Y-103684108D01*
X135749500Y-103815891D01*
X135783608Y-103943187D01*
X135816041Y-103999361D01*
X135849500Y-104057314D01*
X135849502Y-104057316D01*
X135867083Y-104074897D01*
X135900568Y-104136220D01*
X135895584Y-104205912D01*
X135853712Y-104261845D01*
X135811505Y-104282350D01*
X135806817Y-104283606D01*
X135806814Y-104283607D01*
X135692686Y-104349500D01*
X135692683Y-104349502D01*
X135599502Y-104442683D01*
X135599500Y-104442686D01*
X135533608Y-104556812D01*
X135499500Y-104684108D01*
X135499500Y-104815891D01*
X135533608Y-104943187D01*
X135549183Y-104970163D01*
X135599500Y-105057314D01*
X135692686Y-105150500D01*
X135806814Y-105216392D01*
X135934108Y-105250500D01*
X135934110Y-105250500D01*
X136065890Y-105250500D01*
X136065892Y-105250500D01*
X136193186Y-105216392D01*
X136307314Y-105150500D01*
X136400500Y-105057314D01*
X136466392Y-104943186D01*
X136500500Y-104815892D01*
X136500500Y-104760189D01*
X136520185Y-104693150D01*
X136572989Y-104647395D01*
X136642147Y-104637451D01*
X136705703Y-104666476D01*
X136712181Y-104672508D01*
X136763181Y-104723508D01*
X136796666Y-104784831D01*
X136799500Y-104811189D01*
X136799500Y-105792324D01*
X136779815Y-105859363D01*
X136727011Y-105905118D01*
X136657853Y-105915062D01*
X136594297Y-105886037D01*
X136587819Y-105880005D01*
X136557316Y-105849502D01*
X136557314Y-105849500D01*
X136458283Y-105792324D01*
X136443187Y-105783608D01*
X136379539Y-105766554D01*
X136315892Y-105749500D01*
X136184108Y-105749500D01*
X136056812Y-105783608D01*
X135942686Y-105849500D01*
X135942683Y-105849502D01*
X135849502Y-105942683D01*
X135849500Y-105942686D01*
X135783608Y-106056812D01*
X135749500Y-106184108D01*
X135749500Y-106315891D01*
X135783608Y-106443187D01*
X135787434Y-106449813D01*
X135849500Y-106557314D01*
X135942686Y-106650500D01*
X136056814Y-106716392D01*
X136184108Y-106750500D01*
X136184110Y-106750500D01*
X136315890Y-106750500D01*
X136315892Y-106750500D01*
X136443186Y-106716392D01*
X136557314Y-106650500D01*
X136587819Y-106619995D01*
X136649142Y-106586510D01*
X136718834Y-106591494D01*
X136774767Y-106633366D01*
X136799184Y-106698830D01*
X136799500Y-106707676D01*
X136799500Y-108792324D01*
X136779815Y-108859363D01*
X136727011Y-108905118D01*
X136657853Y-108915062D01*
X136608335Y-108896558D01*
X136597191Y-108889377D01*
X136557314Y-108849500D01*
X136443186Y-108783608D01*
X136425828Y-108778956D01*
X136409506Y-108768439D01*
X136401383Y-108759042D01*
X136388990Y-108751886D01*
X136026616Y-108389513D01*
X136026614Y-108389511D01*
X135957314Y-108349500D01*
X135923888Y-108330201D01*
X135911780Y-108326957D01*
X135899673Y-108323713D01*
X135899670Y-108323712D01*
X135861478Y-108313478D01*
X135809309Y-108299500D01*
X135809308Y-108299500D01*
X132503937Y-108299500D01*
X132451249Y-108285381D01*
X132450696Y-108286719D01*
X132443188Y-108283609D01*
X132443186Y-108283608D01*
X132315892Y-108249500D01*
X132184108Y-108249500D01*
X132056812Y-108283608D01*
X131942686Y-108349500D01*
X131942683Y-108349502D01*
X131849502Y-108442683D01*
X131849500Y-108442686D01*
X131783608Y-108556812D01*
X131749500Y-108684108D01*
X131749500Y-108815891D01*
X131783608Y-108943187D01*
X131789104Y-108952706D01*
X131849500Y-109057314D01*
X131942686Y-109150500D01*
X132041521Y-109207563D01*
X132051425Y-109213281D01*
X132056814Y-109216392D01*
X132184108Y-109250500D01*
X132184110Y-109250500D01*
X132315890Y-109250500D01*
X132315892Y-109250500D01*
X132443186Y-109216392D01*
X132443194Y-109216387D01*
X132450696Y-109213281D01*
X132451249Y-109214618D01*
X132503937Y-109200500D01*
X135512035Y-109200500D01*
X135579074Y-109220185D01*
X135599710Y-109236814D01*
X135751888Y-109388992D01*
X135779160Y-109436224D01*
X135780495Y-109435672D01*
X135783606Y-109443183D01*
X135783608Y-109443186D01*
X135849500Y-109557314D01*
X135942686Y-109650500D01*
X136056814Y-109716392D01*
X136184108Y-109750500D01*
X136184110Y-109750500D01*
X136315890Y-109750500D01*
X136315892Y-109750500D01*
X136443186Y-109716392D01*
X136557314Y-109650500D01*
X136587819Y-109619995D01*
X136649142Y-109586510D01*
X136718834Y-109591494D01*
X136774767Y-109633366D01*
X136799184Y-109698830D01*
X136799500Y-109707676D01*
X136799500Y-113188811D01*
X136779815Y-113255850D01*
X136763181Y-113276492D01*
X127151492Y-122888181D01*
X127090169Y-122921666D01*
X127063811Y-122924500D01*
X126207147Y-122924500D01*
X126124361Y-122946682D01*
X126124358Y-122946683D01*
X126087250Y-122968107D01*
X126087250Y-122968108D01*
X126050138Y-122989535D01*
X126050135Y-122989537D01*
X125489537Y-123550135D01*
X125489535Y-123550138D01*
X125446680Y-123624363D01*
X125432519Y-123677215D01*
X125432518Y-123677219D01*
X125428375Y-123692686D01*
X125424500Y-123707147D01*
X123675500Y-123707147D01*
X123675500Y-120598796D01*
X123642554Y-120348548D01*
X123577226Y-120104740D01*
X123512481Y-119948433D01*
X123480636Y-119871552D01*
X123480627Y-119871535D01*
X123354433Y-119652958D01*
X123354431Y-119652954D01*
X123200772Y-119452705D01*
X123200765Y-119452697D01*
X123022303Y-119274235D01*
X123022294Y-119274227D01*
X122822045Y-119120568D01*
X122822041Y-119120566D01*
X122603464Y-118994372D01*
X122603447Y-118994363D01*
X122370258Y-118897773D01*
X122215690Y-118856357D01*
X122126452Y-118832446D01*
X122095171Y-118828327D01*
X121876211Y-118799500D01*
X121876204Y-118799500D01*
X121623796Y-118799500D01*
X121623788Y-118799500D01*
X121373548Y-118832446D01*
X121129741Y-118897773D01*
X120896552Y-118994363D01*
X120896535Y-118994372D01*
X120677958Y-119120566D01*
X120677954Y-119120568D01*
X120477705Y-119274227D01*
X120299227Y-119452705D01*
X120145568Y-119652954D01*
X120145566Y-119652958D01*
X120019372Y-119871535D01*
X120019363Y-119871552D01*
X119922773Y-120104741D01*
X119857446Y-120348548D01*
X119824500Y-120598788D01*
X97200500Y-120598788D01*
X97200500Y-110098788D01*
X119824500Y-110098788D01*
X119824500Y-113901211D01*
X119857446Y-114151451D01*
X119922773Y-114395258D01*
X120019363Y-114628447D01*
X120019372Y-114628464D01*
X120145566Y-114847041D01*
X120145568Y-114847045D01*
X120299227Y-115047294D01*
X120299235Y-115047303D01*
X120477697Y-115225765D01*
X120477705Y-115225772D01*
X120677954Y-115379431D01*
X120677958Y-115379433D01*
X120896535Y-115505627D01*
X120896552Y-115505636D01*
X121025758Y-115559154D01*
X121129740Y-115602226D01*
X121373548Y-115667554D01*
X121623796Y-115700500D01*
X121623803Y-115700500D01*
X121876197Y-115700500D01*
X121876204Y-115700500D01*
X122126452Y-115667554D01*
X122370260Y-115602226D01*
X122603454Y-115505633D01*
X122822041Y-115379433D01*
X122822045Y-115379431D01*
X122892328Y-115325500D01*
X123022294Y-115225773D01*
X123022298Y-115225768D01*
X123022303Y-115225765D01*
X123200765Y-115047303D01*
X123200768Y-115047298D01*
X123200773Y-115047294D01*
X123354430Y-114847046D01*
X123480633Y-114628454D01*
X123577226Y-114395260D01*
X123642554Y-114151452D01*
X123675500Y-113901204D01*
X123675500Y-110098796D01*
X123642554Y-109848548D01*
X123577226Y-109604740D01*
X123510308Y-109443186D01*
X123480636Y-109371552D01*
X123480627Y-109371535D01*
X123354433Y-109152958D01*
X123354431Y-109152954D01*
X123200772Y-108952705D01*
X123200765Y-108952697D01*
X123022303Y-108774235D01*
X123022294Y-108774227D01*
X122822045Y-108620568D01*
X122822041Y-108620566D01*
X122603464Y-108494372D01*
X122603447Y-108494363D01*
X122370258Y-108397773D01*
X122215690Y-108356357D01*
X122126452Y-108332446D01*
X122095171Y-108328327D01*
X121876211Y-108299500D01*
X121876204Y-108299500D01*
X121623796Y-108299500D01*
X121623788Y-108299500D01*
X121373548Y-108332446D01*
X121129741Y-108397773D01*
X120896552Y-108494363D01*
X120896535Y-108494372D01*
X120677958Y-108620566D01*
X120677954Y-108620568D01*
X120477705Y-108774227D01*
X120299227Y-108952705D01*
X120145568Y-109152954D01*
X120145566Y-109152958D01*
X120019372Y-109371535D01*
X120019363Y-109371552D01*
X119922773Y-109604741D01*
X119857446Y-109848548D01*
X119824500Y-110098788D01*
X97200500Y-110098788D01*
X97200500Y-105434108D01*
X124249500Y-105434108D01*
X124249500Y-105565892D01*
X124273862Y-105656814D01*
X124283609Y-105693188D01*
X124283609Y-105693189D01*
X124352782Y-105813000D01*
X124369255Y-105880900D01*
X124352782Y-105937000D01*
X124283609Y-106056810D01*
X124283609Y-106056811D01*
X124249500Y-106184108D01*
X124249500Y-106315891D01*
X124283608Y-106443187D01*
X124287434Y-106449813D01*
X124349500Y-106557314D01*
X124442686Y-106650500D01*
X124556814Y-106716392D01*
X124684108Y-106750500D01*
X124684110Y-106750500D01*
X124815890Y-106750500D01*
X124815892Y-106750500D01*
X124943186Y-106716392D01*
X125057314Y-106650500D01*
X125150500Y-106557314D01*
X125216392Y-106443186D01*
X125250500Y-106315892D01*
X125250500Y-106184108D01*
X125216392Y-106056814D01*
X125150500Y-105942686D01*
X125150498Y-105942684D01*
X125147217Y-105937001D01*
X125130744Y-105869101D01*
X125147217Y-105812999D01*
X125150498Y-105807315D01*
X125150500Y-105807314D01*
X125216392Y-105693186D01*
X125250500Y-105565892D01*
X125250500Y-105434108D01*
X125749500Y-105434108D01*
X125749500Y-105565892D01*
X125773862Y-105656814D01*
X125783609Y-105693188D01*
X125783609Y-105693189D01*
X125852782Y-105813000D01*
X125869255Y-105880900D01*
X125852782Y-105937000D01*
X125783609Y-106056810D01*
X125783609Y-106056811D01*
X125749500Y-106184108D01*
X125749500Y-106315891D01*
X125783608Y-106443187D01*
X125787434Y-106449813D01*
X125849500Y-106557314D01*
X125942686Y-106650500D01*
X126056814Y-106716392D01*
X126184108Y-106750500D01*
X126184110Y-106750500D01*
X126315890Y-106750500D01*
X126315892Y-106750500D01*
X126443186Y-106716392D01*
X126557314Y-106650500D01*
X126650500Y-106557314D01*
X126716392Y-106443186D01*
X126750500Y-106315892D01*
X126750500Y-106184108D01*
X126716392Y-106056814D01*
X126650500Y-105942686D01*
X126650498Y-105942684D01*
X126647217Y-105937001D01*
X126630744Y-105869101D01*
X126647217Y-105812999D01*
X126650498Y-105807315D01*
X126650500Y-105807314D01*
X126716392Y-105693186D01*
X126750500Y-105565892D01*
X126750500Y-105434108D01*
X127249500Y-105434108D01*
X127249500Y-105565892D01*
X127273862Y-105656814D01*
X127283609Y-105693188D01*
X127283609Y-105693189D01*
X127352782Y-105813000D01*
X127369255Y-105880900D01*
X127352782Y-105937000D01*
X127283609Y-106056810D01*
X127283609Y-106056811D01*
X127249500Y-106184108D01*
X127249500Y-106315891D01*
X127283608Y-106443187D01*
X127287434Y-106449813D01*
X127349500Y-106557314D01*
X127442686Y-106650500D01*
X127556814Y-106716392D01*
X127684108Y-106750500D01*
X127684110Y-106750500D01*
X127815890Y-106750500D01*
X127815892Y-106750500D01*
X127943186Y-106716392D01*
X128057314Y-106650500D01*
X128150500Y-106557314D01*
X128216392Y-106443186D01*
X128250500Y-106315892D01*
X128250500Y-106184108D01*
X128216392Y-106056814D01*
X128150500Y-105942686D01*
X128150498Y-105942684D01*
X128147217Y-105937001D01*
X128130744Y-105869101D01*
X128147217Y-105812999D01*
X128150498Y-105807315D01*
X128150500Y-105807314D01*
X128216392Y-105693186D01*
X128250500Y-105565892D01*
X128250500Y-105434108D01*
X128749500Y-105434108D01*
X128749500Y-105565892D01*
X128773862Y-105656814D01*
X128783609Y-105693188D01*
X128783609Y-105693189D01*
X128852782Y-105813000D01*
X128869255Y-105880900D01*
X128852782Y-105937000D01*
X128783609Y-106056810D01*
X128783609Y-106056811D01*
X128749500Y-106184108D01*
X128749500Y-106315891D01*
X128783608Y-106443187D01*
X128787434Y-106449813D01*
X128849500Y-106557314D01*
X128942686Y-106650500D01*
X129056814Y-106716392D01*
X129184108Y-106750500D01*
X129184110Y-106750500D01*
X129315890Y-106750500D01*
X129315892Y-106750500D01*
X129443186Y-106716392D01*
X129557314Y-106650500D01*
X129650500Y-106557314D01*
X129716392Y-106443186D01*
X129750500Y-106315892D01*
X129750500Y-106184108D01*
X129716392Y-106056814D01*
X129650500Y-105942686D01*
X129650498Y-105942684D01*
X129647217Y-105937001D01*
X129630744Y-105869101D01*
X129647217Y-105812999D01*
X129650498Y-105807315D01*
X129650500Y-105807314D01*
X129716392Y-105693186D01*
X129750500Y-105565892D01*
X129750500Y-105434108D01*
X130249500Y-105434108D01*
X130249500Y-105565892D01*
X130273862Y-105656814D01*
X130283609Y-105693188D01*
X130283609Y-105693189D01*
X130352782Y-105813000D01*
X130369255Y-105880900D01*
X130352782Y-105937000D01*
X130283609Y-106056810D01*
X130283609Y-106056811D01*
X130249500Y-106184108D01*
X130249500Y-106315891D01*
X130283608Y-106443187D01*
X130287434Y-106449813D01*
X130349500Y-106557314D01*
X130442686Y-106650500D01*
X130556814Y-106716392D01*
X130684108Y-106750500D01*
X130684110Y-106750500D01*
X130815890Y-106750500D01*
X130815892Y-106750500D01*
X130943186Y-106716392D01*
X131057314Y-106650500D01*
X131150500Y-106557314D01*
X131216392Y-106443186D01*
X131250500Y-106315892D01*
X131250500Y-106184108D01*
X131216392Y-106056814D01*
X131150500Y-105942686D01*
X131150498Y-105942684D01*
X131147217Y-105937001D01*
X131130744Y-105869101D01*
X131147217Y-105812999D01*
X131150498Y-105807315D01*
X131150500Y-105807314D01*
X131216392Y-105693186D01*
X131250500Y-105565892D01*
X131250500Y-105434108D01*
X131749500Y-105434108D01*
X131749500Y-105565892D01*
X131773862Y-105656814D01*
X131783609Y-105693188D01*
X131783609Y-105693189D01*
X131852782Y-105813000D01*
X131869255Y-105880900D01*
X131852782Y-105937000D01*
X131783609Y-106056810D01*
X131783609Y-106056811D01*
X131749500Y-106184108D01*
X131749500Y-106315891D01*
X131783608Y-106443187D01*
X131787434Y-106449813D01*
X131849500Y-106557314D01*
X131942686Y-106650500D01*
X132056814Y-106716392D01*
X132184108Y-106750500D01*
X132184110Y-106750500D01*
X132315890Y-106750500D01*
X132315892Y-106750500D01*
X132443186Y-106716392D01*
X132557314Y-106650500D01*
X132650500Y-106557314D01*
X132716392Y-106443186D01*
X132750500Y-106315892D01*
X132750500Y-106184108D01*
X132716392Y-106056814D01*
X132650500Y-105942686D01*
X132650498Y-105942684D01*
X132647217Y-105937001D01*
X132630744Y-105869101D01*
X132647217Y-105812999D01*
X132650498Y-105807315D01*
X132650500Y-105807314D01*
X132716392Y-105693186D01*
X132750500Y-105565892D01*
X132750500Y-105434108D01*
X133249500Y-105434108D01*
X133249500Y-105565892D01*
X133273862Y-105656814D01*
X133283609Y-105693188D01*
X133283609Y-105693189D01*
X133352782Y-105813000D01*
X133369255Y-105880900D01*
X133352782Y-105937000D01*
X133283609Y-106056810D01*
X133283609Y-106056811D01*
X133249500Y-106184108D01*
X133249500Y-106315891D01*
X133283608Y-106443187D01*
X133287434Y-106449813D01*
X133349500Y-106557314D01*
X133442686Y-106650500D01*
X133556814Y-106716392D01*
X133684108Y-106750500D01*
X133684110Y-106750500D01*
X133815890Y-106750500D01*
X133815892Y-106750500D01*
X133943186Y-106716392D01*
X134057314Y-106650500D01*
X134150500Y-106557314D01*
X134216392Y-106443186D01*
X134249778Y-106318584D01*
X134286142Y-106258927D01*
X134348988Y-106228397D01*
X134418364Y-106236691D01*
X134435487Y-106246714D01*
X134435648Y-106246436D01*
X134442684Y-106250498D01*
X134442686Y-106250500D01*
X134528422Y-106300000D01*
X134555944Y-106315890D01*
X134556814Y-106316392D01*
X134684108Y-106350500D01*
X134684110Y-106350500D01*
X134815890Y-106350500D01*
X134815892Y-106350500D01*
X134943186Y-106316392D01*
X135057314Y-106250500D01*
X135150500Y-106157314D01*
X135216392Y-106043186D01*
X135250500Y-105915892D01*
X135250500Y-105784108D01*
X135216392Y-105656814D01*
X135150500Y-105542686D01*
X135057314Y-105449500D01*
X135000250Y-105416554D01*
X134943187Y-105383608D01*
X134879539Y-105366554D01*
X134815892Y-105349500D01*
X134684108Y-105349500D01*
X134556812Y-105383608D01*
X134442686Y-105449500D01*
X134436240Y-105454447D01*
X134434599Y-105452309D01*
X134384884Y-105479442D01*
X134315193Y-105474442D01*
X134259269Y-105432558D01*
X134238779Y-105390366D01*
X134216392Y-105306814D01*
X134150500Y-105192686D01*
X134057314Y-105099500D01*
X133998662Y-105065637D01*
X133943187Y-105033608D01*
X133879539Y-105016554D01*
X133815892Y-104999500D01*
X133684108Y-104999500D01*
X133556812Y-105033608D01*
X133442686Y-105099500D01*
X133442683Y-105099502D01*
X133349502Y-105192683D01*
X133349500Y-105192686D01*
X133283608Y-105306812D01*
X133272170Y-105349500D01*
X133249500Y-105434108D01*
X132750500Y-105434108D01*
X132716392Y-105306814D01*
X132650500Y-105192686D01*
X132557314Y-105099500D01*
X132498662Y-105065637D01*
X132443187Y-105033608D01*
X132379539Y-105016554D01*
X132315892Y-104999500D01*
X132184108Y-104999500D01*
X132056812Y-105033608D01*
X131942686Y-105099500D01*
X131942683Y-105099502D01*
X131849502Y-105192683D01*
X131849500Y-105192686D01*
X131783608Y-105306812D01*
X131772170Y-105349500D01*
X131749500Y-105434108D01*
X131250500Y-105434108D01*
X131216392Y-105306814D01*
X131150500Y-105192686D01*
X131057314Y-105099500D01*
X130998662Y-105065637D01*
X130943187Y-105033608D01*
X130879539Y-105016554D01*
X130815892Y-104999500D01*
X130684108Y-104999500D01*
X130556812Y-105033608D01*
X130442686Y-105099500D01*
X130442683Y-105099502D01*
X130349502Y-105192683D01*
X130349500Y-105192686D01*
X130283608Y-105306812D01*
X130272170Y-105349500D01*
X130249500Y-105434108D01*
X129750500Y-105434108D01*
X129716392Y-105306814D01*
X129650500Y-105192686D01*
X129557314Y-105099500D01*
X129498662Y-105065637D01*
X129443187Y-105033608D01*
X129379539Y-105016554D01*
X129315892Y-104999500D01*
X129184108Y-104999500D01*
X129056812Y-105033608D01*
X128942686Y-105099500D01*
X128942683Y-105099502D01*
X128849502Y-105192683D01*
X128849500Y-105192686D01*
X128783608Y-105306812D01*
X128772170Y-105349500D01*
X128749500Y-105434108D01*
X128250500Y-105434108D01*
X128216392Y-105306814D01*
X128150500Y-105192686D01*
X128057314Y-105099500D01*
X127998662Y-105065637D01*
X127943187Y-105033608D01*
X127879539Y-105016554D01*
X127815892Y-104999500D01*
X127684108Y-104999500D01*
X127556812Y-105033608D01*
X127442686Y-105099500D01*
X127442683Y-105099502D01*
X127349502Y-105192683D01*
X127349500Y-105192686D01*
X127283608Y-105306812D01*
X127272170Y-105349500D01*
X127249500Y-105434108D01*
X126750500Y-105434108D01*
X126716392Y-105306814D01*
X126650500Y-105192686D01*
X126557314Y-105099500D01*
X126498662Y-105065637D01*
X126443187Y-105033608D01*
X126379539Y-105016554D01*
X126315892Y-104999500D01*
X126184108Y-104999500D01*
X126056812Y-105033608D01*
X125942686Y-105099500D01*
X125942683Y-105099502D01*
X125849502Y-105192683D01*
X125849500Y-105192686D01*
X125783608Y-105306812D01*
X125772170Y-105349500D01*
X125749500Y-105434108D01*
X125250500Y-105434108D01*
X125216392Y-105306814D01*
X125150500Y-105192686D01*
X125057314Y-105099500D01*
X124998662Y-105065637D01*
X124943187Y-105033608D01*
X124879539Y-105016554D01*
X124815892Y-104999500D01*
X124684108Y-104999500D01*
X124556812Y-105033608D01*
X124442686Y-105099500D01*
X124442683Y-105099502D01*
X124349502Y-105192683D01*
X124349500Y-105192686D01*
X124283608Y-105306812D01*
X124272170Y-105349500D01*
X124249500Y-105434108D01*
X97200500Y-105434108D01*
X97200500Y-101934108D01*
X133999500Y-101934108D01*
X133999500Y-102065892D01*
X134002075Y-102075501D01*
X134033608Y-102193187D01*
X134050493Y-102222432D01*
X134099500Y-102307314D01*
X134192686Y-102400500D01*
X134306814Y-102466392D01*
X134434108Y-102500500D01*
X134434110Y-102500500D01*
X134565890Y-102500500D01*
X134565892Y-102500500D01*
X134693186Y-102466392D01*
X134807314Y-102400500D01*
X134900500Y-102307314D01*
X134966392Y-102193186D01*
X135000500Y-102065892D01*
X135000500Y-101934108D01*
X134966392Y-101806814D01*
X134900500Y-101692686D01*
X134807314Y-101599500D01*
X134750250Y-101566554D01*
X134693187Y-101533608D01*
X134629539Y-101516554D01*
X134565892Y-101499500D01*
X134434108Y-101499500D01*
X134306812Y-101533608D01*
X134192686Y-101599500D01*
X134192683Y-101599502D01*
X134099502Y-101692683D01*
X134099500Y-101692686D01*
X134033608Y-101806812D01*
X133999500Y-101934108D01*
X97200500Y-101934108D01*
X97200500Y-100500000D01*
X105151280Y-100500000D01*
X105186506Y-100677097D01*
X105186508Y-100677105D01*
X105258119Y-100849991D01*
X105258124Y-100850000D01*
X105362086Y-101005589D01*
X105362089Y-101005593D01*
X105494406Y-101137910D01*
X105494410Y-101137913D01*
X105600000Y-101208466D01*
X105600000Y-101208465D01*
X106600000Y-101208465D01*
X106705589Y-101137913D01*
X106705593Y-101137910D01*
X106837910Y-101005593D01*
X106837913Y-101005589D01*
X106941875Y-100850000D01*
X106941880Y-100849991D01*
X107013491Y-100677105D01*
X107013493Y-100677097D01*
X107048720Y-100500000D01*
X106600000Y-100500000D01*
X106600000Y-101208465D01*
X105600000Y-101208465D01*
X105600000Y-100500000D01*
X105151280Y-100500000D01*
X97200500Y-100500000D01*
X97200500Y-99547339D01*
X105700000Y-99547339D01*
X105700000Y-100452661D01*
X105727259Y-100554394D01*
X105779920Y-100645606D01*
X105854394Y-100720080D01*
X105945606Y-100772741D01*
X106047339Y-100800000D01*
X106152661Y-100800000D01*
X106254394Y-100772741D01*
X106345606Y-100720080D01*
X106420080Y-100645606D01*
X106472741Y-100554394D01*
X106500000Y-100452661D01*
X106500000Y-99906379D01*
X107299500Y-99906379D01*
X107299500Y-100093620D01*
X107336025Y-100277243D01*
X107336027Y-100277251D01*
X107407676Y-100450228D01*
X107407681Y-100450237D01*
X107511697Y-100605907D01*
X107511700Y-100605911D01*
X107644088Y-100738299D01*
X107644092Y-100738302D01*
X107799762Y-100842318D01*
X107799771Y-100842323D01*
X107818305Y-100850000D01*
X107972749Y-100913973D01*
X108156379Y-100950499D01*
X108156383Y-100950500D01*
X108156384Y-100950500D01*
X108343617Y-100950500D01*
X108343618Y-100950499D01*
X108527251Y-100913973D01*
X108700231Y-100842322D01*
X108855908Y-100738302D01*
X108988302Y-100605908D01*
X109092322Y-100450231D01*
X109135439Y-100346138D01*
X109179280Y-100291734D01*
X109245574Y-100269669D01*
X109313273Y-100286948D01*
X109360884Y-100338085D01*
X109364561Y-100346138D01*
X109407674Y-100450224D01*
X109407681Y-100450237D01*
X109511697Y-100605907D01*
X109511700Y-100605911D01*
X109644088Y-100738299D01*
X109644092Y-100738302D01*
X109799762Y-100842318D01*
X109799771Y-100842323D01*
X109818305Y-100850000D01*
X109972749Y-100913973D01*
X110156379Y-100950499D01*
X110156383Y-100950500D01*
X110156384Y-100950500D01*
X110343617Y-100950500D01*
X110343618Y-100950499D01*
X110527251Y-100913973D01*
X110700231Y-100842322D01*
X110855908Y-100738302D01*
X110988302Y-100605908D01*
X111092322Y-100450231D01*
X111135439Y-100346138D01*
X111179280Y-100291734D01*
X111245574Y-100269669D01*
X111313273Y-100286948D01*
X111360884Y-100338085D01*
X111364561Y-100346138D01*
X111407674Y-100450224D01*
X111407681Y-100450237D01*
X111511697Y-100605907D01*
X111511700Y-100605911D01*
X111644088Y-100738299D01*
X111644092Y-100738302D01*
X111799762Y-100842318D01*
X111799771Y-100842323D01*
X111818305Y-100850000D01*
X111972749Y-100913973D01*
X112156379Y-100950499D01*
X112156383Y-100950500D01*
X112156384Y-100950500D01*
X112343617Y-100950500D01*
X112343618Y-100950499D01*
X112527251Y-100913973D01*
X112700231Y-100842322D01*
X112855908Y-100738302D01*
X112988302Y-100605908D01*
X113092322Y-100450231D01*
X113163973Y-100277251D01*
X113200500Y-100093616D01*
X113200500Y-99906384D01*
X113163973Y-99722749D01*
X113144013Y-99674564D01*
X113136545Y-99605096D01*
X113167820Y-99542617D01*
X113170866Y-99539459D01*
X116848508Y-95861819D01*
X116909831Y-95828334D01*
X116936189Y-95825500D01*
X145566324Y-95825500D01*
X145633363Y-95845185D01*
X145654005Y-95861819D01*
X145692686Y-95900500D01*
X145806814Y-95966392D01*
X145934108Y-96000500D01*
X145934110Y-96000500D01*
X145995685Y-96000500D01*
X146062724Y-96020185D01*
X146108479Y-96072989D01*
X146118423Y-96142147D01*
X146103072Y-96186501D01*
X146099502Y-96192683D01*
X146099500Y-96192686D01*
X146069509Y-96244630D01*
X146033608Y-96306812D01*
X145999500Y-96434108D01*
X145999500Y-96565891D01*
X146033608Y-96693186D01*
X146059770Y-96738499D01*
X146076243Y-96806399D01*
X146053391Y-96872426D01*
X145998470Y-96915617D01*
X145952383Y-96924500D01*
X118957147Y-96924500D01*
X118874362Y-96946682D01*
X118874359Y-96946683D01*
X118840223Y-96966392D01*
X118826661Y-96974222D01*
X118800139Y-96989534D01*
X118800136Y-96989536D01*
X116710567Y-99079104D01*
X116649244Y-99112589D01*
X116579552Y-99107605D01*
X116575435Y-99105985D01*
X116545468Y-99093573D01*
X116527251Y-99086027D01*
X116527247Y-99086026D01*
X116527243Y-99086025D01*
X116343620Y-99049500D01*
X116343616Y-99049500D01*
X116156384Y-99049500D01*
X116156379Y-99049500D01*
X115972756Y-99086025D01*
X115972748Y-99086027D01*
X115799771Y-99157676D01*
X115799762Y-99157681D01*
X115644092Y-99261697D01*
X115644088Y-99261700D01*
X115511700Y-99394088D01*
X115511697Y-99394092D01*
X115407681Y-99549762D01*
X115407676Y-99549771D01*
X115336027Y-99722748D01*
X115336025Y-99722756D01*
X115299500Y-99906379D01*
X115299500Y-100093620D01*
X115336025Y-100277243D01*
X115336027Y-100277251D01*
X115407676Y-100450228D01*
X115407681Y-100450237D01*
X115511697Y-100605907D01*
X115511700Y-100605911D01*
X115644088Y-100738299D01*
X115644092Y-100738302D01*
X115799762Y-100842318D01*
X115799771Y-100842323D01*
X115818305Y-100850000D01*
X115972749Y-100913973D01*
X116156379Y-100950499D01*
X116156383Y-100950500D01*
X116156384Y-100950500D01*
X116343617Y-100950500D01*
X116343618Y-100950499D01*
X116527251Y-100913973D01*
X116700231Y-100842322D01*
X116855908Y-100738302D01*
X116988302Y-100605908D01*
X117092322Y-100450231D01*
X117135439Y-100346138D01*
X117179280Y-100291734D01*
X117245574Y-100269669D01*
X117313273Y-100286948D01*
X117360884Y-100338085D01*
X117364561Y-100346138D01*
X117407674Y-100450224D01*
X117407681Y-100450237D01*
X117511697Y-100605907D01*
X117511700Y-100605911D01*
X117644088Y-100738299D01*
X117644092Y-100738302D01*
X117799762Y-100842318D01*
X117799771Y-100842323D01*
X117818305Y-100850000D01*
X117972749Y-100913973D01*
X118156379Y-100950499D01*
X118156383Y-100950500D01*
X118156384Y-100950500D01*
X118343617Y-100950500D01*
X118343618Y-100950499D01*
X118527251Y-100913973D01*
X118700231Y-100842322D01*
X118855908Y-100738302D01*
X118988302Y-100605908D01*
X119059067Y-100500000D01*
X119451280Y-100500000D01*
X119486506Y-100677097D01*
X119486508Y-100677105D01*
X119558119Y-100849991D01*
X119558124Y-100850000D01*
X119662086Y-101005589D01*
X119662089Y-101005593D01*
X119794406Y-101137910D01*
X119794410Y-101137913D01*
X119900000Y-101208466D01*
X119900000Y-101208465D01*
X120900000Y-101208465D01*
X120936453Y-101184108D01*
X136999500Y-101184108D01*
X136999500Y-101315891D01*
X137033608Y-101443187D01*
X137056887Y-101483506D01*
X137099500Y-101557314D01*
X137192686Y-101650500D01*
X137306814Y-101716392D01*
X137434108Y-101750500D01*
X137434110Y-101750500D01*
X137565890Y-101750500D01*
X137565892Y-101750500D01*
X137693186Y-101716392D01*
X137807314Y-101650500D01*
X137900500Y-101557314D01*
X137966392Y-101443186D01*
X138000500Y-101315892D01*
X138000500Y-101184108D01*
X138499500Y-101184108D01*
X138499500Y-101315891D01*
X138533608Y-101443187D01*
X138556887Y-101483506D01*
X138599500Y-101557314D01*
X138692686Y-101650500D01*
X138806814Y-101716392D01*
X138934108Y-101750500D01*
X138934110Y-101750500D01*
X139065890Y-101750500D01*
X139065892Y-101750500D01*
X139193186Y-101716392D01*
X139307314Y-101650500D01*
X139400500Y-101557314D01*
X139466392Y-101443186D01*
X139500500Y-101315892D01*
X139500500Y-101184108D01*
X140249500Y-101184108D01*
X140249500Y-101315891D01*
X140283608Y-101443187D01*
X140306887Y-101483506D01*
X140349500Y-101557314D01*
X140442686Y-101650500D01*
X140556814Y-101716392D01*
X140684108Y-101750500D01*
X140684110Y-101750500D01*
X140815890Y-101750500D01*
X140815892Y-101750500D01*
X140943186Y-101716392D01*
X141057314Y-101650500D01*
X141150500Y-101557314D01*
X141216392Y-101443186D01*
X141250500Y-101315892D01*
X141250500Y-101184108D01*
X141216392Y-101056814D01*
X141150500Y-100942686D01*
X141057314Y-100849500D01*
X141000250Y-100816554D01*
X140943187Y-100783608D01*
X140879539Y-100766554D01*
X140815892Y-100749500D01*
X140684108Y-100749500D01*
X140556812Y-100783608D01*
X140442686Y-100849500D01*
X140442683Y-100849502D01*
X140349504Y-100942682D01*
X140349500Y-100942686D01*
X140283608Y-101056812D01*
X140249500Y-101184108D01*
X139500500Y-101184108D01*
X139466392Y-101056814D01*
X139400500Y-100942686D01*
X139307314Y-100849500D01*
X139250250Y-100816554D01*
X139193187Y-100783608D01*
X139129539Y-100766554D01*
X139065892Y-100749500D01*
X138934108Y-100749500D01*
X138806812Y-100783608D01*
X138692686Y-100849500D01*
X138692683Y-100849502D01*
X138599504Y-100942682D01*
X138599500Y-100942686D01*
X138533608Y-101056812D01*
X138499500Y-101184108D01*
X138000500Y-101184108D01*
X137966392Y-101056814D01*
X137900500Y-100942686D01*
X137807314Y-100849500D01*
X137750250Y-100816554D01*
X137693187Y-100783608D01*
X137629539Y-100766554D01*
X137565892Y-100749500D01*
X137434108Y-100749500D01*
X137306812Y-100783608D01*
X137192686Y-100849500D01*
X137192683Y-100849502D01*
X137099504Y-100942682D01*
X137099500Y-100942686D01*
X137033608Y-101056812D01*
X136999500Y-101184108D01*
X120936453Y-101184108D01*
X121005589Y-101137913D01*
X121005593Y-101137910D01*
X121055204Y-101088300D01*
X121137910Y-101005593D01*
X121137913Y-101005589D01*
X121241875Y-100850000D01*
X121241880Y-100849991D01*
X121313491Y-100677105D01*
X121313493Y-100677097D01*
X121348720Y-100500000D01*
X120900000Y-100500000D01*
X120900000Y-101208465D01*
X119900000Y-101208465D01*
X119900000Y-100500000D01*
X119451280Y-100500000D01*
X119059067Y-100500000D01*
X119092322Y-100450231D01*
X119163973Y-100277251D01*
X119200500Y-100093616D01*
X119200500Y-99906384D01*
X119163973Y-99722749D01*
X119144013Y-99674564D01*
X119136545Y-99605096D01*
X119167820Y-99542617D01*
X119170864Y-99539461D01*
X119245929Y-99464396D01*
X119307250Y-99430913D01*
X119376942Y-99435897D01*
X119429461Y-99473414D01*
X119451280Y-99500000D01*
X120012684Y-99500000D01*
X120000000Y-99547339D01*
X120000000Y-100452661D01*
X120027259Y-100554394D01*
X120079920Y-100645606D01*
X120154394Y-100720080D01*
X120245606Y-100772741D01*
X120347339Y-100800000D01*
X120452661Y-100800000D01*
X120554394Y-100772741D01*
X120645606Y-100720080D01*
X120720080Y-100645606D01*
X120772741Y-100554394D01*
X120800000Y-100452661D01*
X120800000Y-100434108D01*
X135249500Y-100434108D01*
X135249500Y-100565891D01*
X135283608Y-100693187D01*
X135297006Y-100716392D01*
X135349500Y-100807314D01*
X135442686Y-100900500D01*
X135556814Y-100966392D01*
X135684108Y-101000500D01*
X135684110Y-101000500D01*
X135815890Y-101000500D01*
X135815892Y-101000500D01*
X135943186Y-100966392D01*
X136057314Y-100900500D01*
X136150500Y-100807314D01*
X136216392Y-100693186D01*
X136250500Y-100565892D01*
X136250500Y-100434108D01*
X136216392Y-100306814D01*
X136150500Y-100192686D01*
X136057314Y-100099500D01*
X135983380Y-100056814D01*
X135943187Y-100033608D01*
X135879539Y-100016554D01*
X135815892Y-99999500D01*
X135684108Y-99999500D01*
X135556812Y-100033608D01*
X135442686Y-100099500D01*
X135442683Y-100099502D01*
X135349502Y-100192683D01*
X135349500Y-100192686D01*
X135283608Y-100306812D01*
X135249500Y-100434108D01*
X120800000Y-100434108D01*
X120800000Y-99547339D01*
X120787316Y-99500000D01*
X121348720Y-99500000D01*
X121313493Y-99322902D01*
X121313490Y-99322890D01*
X121282036Y-99246952D01*
X121274567Y-99177483D01*
X121305842Y-99115004D01*
X121365931Y-99079352D01*
X121396597Y-99075500D01*
X140952383Y-99075500D01*
X141019422Y-99095185D01*
X141065177Y-99147989D01*
X141075121Y-99217147D01*
X141059770Y-99261499D01*
X141059656Y-99261698D01*
X141033608Y-99306813D01*
X140999500Y-99434108D01*
X140999500Y-99565891D01*
X141033608Y-99693187D01*
X141050680Y-99722756D01*
X141099500Y-99807314D01*
X141192686Y-99900500D01*
X141306814Y-99966392D01*
X141434108Y-100000500D01*
X141434110Y-100000500D01*
X141565890Y-100000500D01*
X141565892Y-100000500D01*
X141693186Y-99966392D01*
X141807314Y-99900500D01*
X141900500Y-99807314D01*
X141966392Y-99693186D01*
X142000500Y-99565892D01*
X142000500Y-99434108D01*
X141966392Y-99306814D01*
X141940229Y-99261499D01*
X141923757Y-99193601D01*
X141946609Y-99127574D01*
X142001530Y-99084383D01*
X142047617Y-99075500D01*
X149566324Y-99075500D01*
X149633363Y-99095185D01*
X149654005Y-99111819D01*
X149692686Y-99150500D01*
X149806814Y-99216392D01*
X149934108Y-99250500D01*
X149988811Y-99250500D01*
X150055850Y-99270185D01*
X150076492Y-99286819D01*
X150550138Y-99760465D01*
X150624361Y-99803318D01*
X150707147Y-99825500D01*
X150792853Y-99825500D01*
X156813811Y-99825500D01*
X156880850Y-99845185D01*
X156901492Y-99861819D01*
X158985194Y-101945520D01*
X158985204Y-101945531D01*
X158989534Y-101949861D01*
X158989535Y-101949862D01*
X159050138Y-102010465D01*
X159121258Y-102051526D01*
X159123331Y-102052723D01*
X159124358Y-102053316D01*
X159124362Y-102053318D01*
X159207148Y-102075501D01*
X159207151Y-102075501D01*
X159300449Y-102075501D01*
X159300465Y-102075500D01*
X170042851Y-102075500D01*
X170042853Y-102075500D01*
X170125639Y-102053318D01*
X170199862Y-102010465D01*
X171289432Y-100920892D01*
X171350753Y-100887409D01*
X171420444Y-100892393D01*
X171424564Y-100894014D01*
X171472749Y-100913973D01*
X171656379Y-100950499D01*
X171656383Y-100950500D01*
X171656384Y-100950500D01*
X171843617Y-100950500D01*
X171843618Y-100950499D01*
X172027251Y-100913973D01*
X172200231Y-100842322D01*
X172355908Y-100738302D01*
X172488302Y-100605908D01*
X172559067Y-100500000D01*
X172951280Y-100500000D01*
X172986506Y-100677097D01*
X172986508Y-100677105D01*
X173058119Y-100849991D01*
X173058124Y-100850000D01*
X173162086Y-101005589D01*
X173162089Y-101005593D01*
X173294406Y-101137910D01*
X173294410Y-101137913D01*
X173400000Y-101208466D01*
X173400000Y-101208465D01*
X174400000Y-101208465D01*
X174505589Y-101137913D01*
X174505593Y-101137910D01*
X174637910Y-101005593D01*
X174637913Y-101005589D01*
X174741875Y-100850000D01*
X174741880Y-100849991D01*
X174813491Y-100677105D01*
X174813493Y-100677097D01*
X174848720Y-100500000D01*
X174400000Y-100500000D01*
X174400000Y-101208465D01*
X173400000Y-101208465D01*
X173400000Y-100500000D01*
X172951280Y-100500000D01*
X172559067Y-100500000D01*
X172592322Y-100450231D01*
X172663973Y-100277251D01*
X172700500Y-100093616D01*
X172700500Y-99906384D01*
X172663973Y-99722749D01*
X172644013Y-99674564D01*
X172636545Y-99605096D01*
X172665456Y-99547339D01*
X173500000Y-99547339D01*
X173500000Y-100452661D01*
X173527259Y-100554394D01*
X173579920Y-100645606D01*
X173654394Y-100720080D01*
X173745606Y-100772741D01*
X173847339Y-100800000D01*
X173952661Y-100800000D01*
X174054394Y-100772741D01*
X174145606Y-100720080D01*
X174220080Y-100645606D01*
X174272741Y-100554394D01*
X174300000Y-100452661D01*
X174300000Y-99547339D01*
X174287316Y-99500000D01*
X174400000Y-99500000D01*
X174848720Y-99500000D01*
X174813493Y-99322902D01*
X174813491Y-99322894D01*
X174741880Y-99150008D01*
X174741875Y-99149999D01*
X174637913Y-98994410D01*
X174637910Y-98994406D01*
X174505596Y-98862092D01*
X174400000Y-98791533D01*
X174400000Y-99500000D01*
X174287316Y-99500000D01*
X174272741Y-99445606D01*
X174220080Y-99354394D01*
X174145606Y-99279920D01*
X174054394Y-99227259D01*
X173952661Y-99200000D01*
X173847339Y-99200000D01*
X173745606Y-99227259D01*
X173654394Y-99279920D01*
X173579920Y-99354394D01*
X173527259Y-99445606D01*
X173500000Y-99547339D01*
X172665456Y-99547339D01*
X172667820Y-99542617D01*
X172670865Y-99539460D01*
X172745929Y-99464396D01*
X172807250Y-99430913D01*
X172876942Y-99435897D01*
X172929461Y-99473414D01*
X172951280Y-99500000D01*
X173400000Y-99500000D01*
X173400000Y-98861688D01*
X173419685Y-98794649D01*
X173436319Y-98774007D01*
X173776218Y-98434108D01*
X174749500Y-98434108D01*
X174749500Y-98565892D01*
X174753258Y-98579918D01*
X174783608Y-98693187D01*
X174797442Y-98717147D01*
X174849500Y-98807314D01*
X174942686Y-98900500D01*
X175056814Y-98966392D01*
X175184108Y-99000500D01*
X175184110Y-99000500D01*
X175315890Y-99000500D01*
X175315892Y-99000500D01*
X175443186Y-98966392D01*
X175557314Y-98900500D01*
X175650500Y-98807314D01*
X175716392Y-98693186D01*
X175750500Y-98565892D01*
X175750500Y-98434108D01*
X175716392Y-98306814D01*
X175650500Y-98192686D01*
X175557314Y-98099500D01*
X175477323Y-98053317D01*
X175443187Y-98033608D01*
X175356814Y-98010465D01*
X175315892Y-97999500D01*
X175184108Y-97999500D01*
X175056812Y-98033608D01*
X174942686Y-98099500D01*
X174942683Y-98099502D01*
X174849502Y-98192683D01*
X174849500Y-98192686D01*
X174783608Y-98306812D01*
X174775931Y-98335464D01*
X174749500Y-98434108D01*
X173776218Y-98434108D01*
X173872026Y-98338300D01*
X173993934Y-98216393D01*
X175298508Y-96911819D01*
X175359831Y-96878334D01*
X175386189Y-96875500D01*
X175440890Y-96875500D01*
X175440892Y-96875500D01*
X175568186Y-96841392D01*
X175682314Y-96775500D01*
X175775500Y-96682314D01*
X175841392Y-96568186D01*
X175875500Y-96440892D01*
X175875500Y-96386187D01*
X175895185Y-96319148D01*
X175911814Y-96298511D01*
X180199859Y-92010466D01*
X180199862Y-92010465D01*
X180260465Y-91949862D01*
X180290612Y-91897646D01*
X180303318Y-91875639D01*
X180325501Y-91792853D01*
X180325501Y-91707147D01*
X180325501Y-91699552D01*
X180325500Y-91699534D01*
X180325500Y-87207149D01*
X180325500Y-87207147D01*
X180303318Y-87124362D01*
X180303318Y-87124361D01*
X180260465Y-87050138D01*
X179786819Y-86576492D01*
X179753334Y-86515169D01*
X179750500Y-86488811D01*
X179750500Y-86434110D01*
X179750500Y-86434108D01*
X179716392Y-86306814D01*
X179650500Y-86192686D01*
X179557314Y-86099500D01*
X179485341Y-86057946D01*
X179443187Y-86033608D01*
X179379539Y-86016554D01*
X179315892Y-85999500D01*
X179184108Y-85999500D01*
X179056812Y-86033608D01*
X178942686Y-86099500D01*
X178942683Y-86099502D01*
X178849502Y-86192683D01*
X178849500Y-86192686D01*
X178783608Y-86306812D01*
X178749500Y-86434108D01*
X178749500Y-86565891D01*
X178783608Y-86693187D01*
X178816554Y-86750250D01*
X178849500Y-86807314D01*
X178942686Y-86900500D01*
X179056814Y-86966392D01*
X179184108Y-87000500D01*
X179238811Y-87000500D01*
X179305850Y-87020185D01*
X179326492Y-87036819D01*
X179327492Y-87037819D01*
X179360977Y-87099142D01*
X179355993Y-87168834D01*
X179314121Y-87224767D01*
X179248657Y-87249184D01*
X179239811Y-87249500D01*
X179184108Y-87249500D01*
X179056812Y-87283608D01*
X178942686Y-87349500D01*
X178942683Y-87349502D01*
X178849502Y-87442683D01*
X178849500Y-87442686D01*
X178783608Y-87556812D01*
X178749500Y-87684108D01*
X178749500Y-87815891D01*
X178783608Y-87943187D01*
X178816554Y-88000250D01*
X178849500Y-88057314D01*
X178942686Y-88150500D01*
X179056814Y-88216392D01*
X179184108Y-88250500D01*
X179184110Y-88250500D01*
X179315890Y-88250500D01*
X179315892Y-88250500D01*
X179443186Y-88216392D01*
X179488500Y-88190229D01*
X179556399Y-88173757D01*
X179622426Y-88196609D01*
X179665617Y-88251530D01*
X179674500Y-88297617D01*
X179674500Y-91563811D01*
X179654815Y-91630850D01*
X179638181Y-91651492D01*
X175451492Y-95838181D01*
X175390169Y-95871666D01*
X175363811Y-95874500D01*
X175309108Y-95874500D01*
X175181812Y-95908608D01*
X175067686Y-95974500D01*
X175067683Y-95974502D01*
X174974502Y-96067683D01*
X174974500Y-96067686D01*
X174908608Y-96181812D01*
X174874500Y-96309108D01*
X174874500Y-96363810D01*
X174854815Y-96430849D01*
X174838181Y-96451491D01*
X172210567Y-99079104D01*
X172149244Y-99112589D01*
X172079552Y-99107605D01*
X172075435Y-99105985D01*
X172045468Y-99093573D01*
X172027251Y-99086027D01*
X172027247Y-99086026D01*
X172027243Y-99086025D01*
X171843620Y-99049500D01*
X171843616Y-99049500D01*
X171656384Y-99049500D01*
X171656379Y-99049500D01*
X171472756Y-99086025D01*
X171472748Y-99086027D01*
X171299771Y-99157676D01*
X171299762Y-99157681D01*
X171144092Y-99261697D01*
X171144088Y-99261700D01*
X171011700Y-99394088D01*
X171011697Y-99394092D01*
X170907681Y-99549762D01*
X170907676Y-99549772D01*
X170864561Y-99653862D01*
X170820720Y-99708265D01*
X170754426Y-99730330D01*
X170686726Y-99713051D01*
X170639116Y-99661913D01*
X170635439Y-99653862D01*
X170599000Y-99565891D01*
X170592322Y-99549769D01*
X170592320Y-99549766D01*
X170592318Y-99549762D01*
X170488302Y-99394092D01*
X170488299Y-99394088D01*
X170355911Y-99261700D01*
X170355907Y-99261697D01*
X170200237Y-99157681D01*
X170200228Y-99157676D01*
X170027251Y-99086027D01*
X170027243Y-99086025D01*
X169843620Y-99049500D01*
X169843616Y-99049500D01*
X169656384Y-99049500D01*
X169656379Y-99049500D01*
X169472756Y-99086025D01*
X169472753Y-99086026D01*
X169472752Y-99086026D01*
X169472749Y-99086027D01*
X169424563Y-99105986D01*
X169355094Y-99113454D01*
X169292615Y-99082178D01*
X169289431Y-99079105D01*
X168767140Y-98556814D01*
X168199862Y-97989535D01*
X168162750Y-97968108D01*
X168125640Y-97946682D01*
X168084246Y-97935591D01*
X168042853Y-97924500D01*
X168042852Y-97924500D01*
X156523228Y-97924500D01*
X156456189Y-97904815D01*
X156435547Y-97888181D01*
X156036904Y-97489537D01*
X156036903Y-97489536D01*
X156036902Y-97489535D01*
X155999790Y-97468108D01*
X155962680Y-97446682D01*
X155921286Y-97435591D01*
X155879893Y-97424500D01*
X155879892Y-97424500D01*
X155183676Y-97424500D01*
X155116637Y-97404815D01*
X155095995Y-97388181D01*
X155057316Y-97349502D01*
X155057314Y-97349500D01*
X154999103Y-97315892D01*
X154943187Y-97283608D01*
X154879539Y-97266554D01*
X154815892Y-97249500D01*
X154684108Y-97249500D01*
X154556814Y-97283608D01*
X154556813Y-97283608D01*
X154556811Y-97283609D01*
X154556810Y-97283609D01*
X154440857Y-97350555D01*
X154372957Y-97367028D01*
X154306930Y-97344175D01*
X154291176Y-97330849D01*
X153199864Y-96239537D01*
X153199862Y-96239535D01*
X153162750Y-96218108D01*
X153125640Y-96196682D01*
X153084246Y-96185591D01*
X153042853Y-96174500D01*
X148042853Y-96174500D01*
X147957147Y-96174500D01*
X147874359Y-96196682D01*
X147800138Y-96239535D01*
X147800135Y-96239537D01*
X147151492Y-96888181D01*
X147090169Y-96921666D01*
X147063811Y-96924500D01*
X147047617Y-96924500D01*
X146980578Y-96904815D01*
X146934823Y-96852011D01*
X146924879Y-96782853D01*
X146940230Y-96738499D01*
X146966392Y-96693186D01*
X147000500Y-96565892D01*
X147000500Y-96434108D01*
X146966392Y-96306814D01*
X146900500Y-96192686D01*
X146807314Y-96099500D01*
X146750250Y-96066554D01*
X146693187Y-96033608D01*
X146629539Y-96016554D01*
X146565892Y-95999500D01*
X146504315Y-95999500D01*
X146437276Y-95979815D01*
X146391521Y-95927011D01*
X146381577Y-95857853D01*
X146396928Y-95813499D01*
X146400497Y-95807316D01*
X146400500Y-95807314D01*
X146466392Y-95693186D01*
X146500500Y-95565892D01*
X146500500Y-95434108D01*
X146466392Y-95306814D01*
X146400500Y-95192686D01*
X146307314Y-95099500D01*
X146250250Y-95066554D01*
X146193187Y-95033608D01*
X146129539Y-95016554D01*
X146065892Y-94999500D01*
X145934108Y-94999500D01*
X145806812Y-95033608D01*
X145692686Y-95099500D01*
X145692683Y-95099502D01*
X145654005Y-95138181D01*
X145592682Y-95171666D01*
X145566324Y-95174500D01*
X116707147Y-95174500D01*
X116624359Y-95196682D01*
X116550138Y-95239535D01*
X116550135Y-95239537D01*
X112710567Y-99079104D01*
X112649244Y-99112589D01*
X112579552Y-99107605D01*
X112575435Y-99105985D01*
X112545468Y-99093573D01*
X112527251Y-99086027D01*
X112527247Y-99086026D01*
X112527243Y-99086025D01*
X112343620Y-99049500D01*
X112343616Y-99049500D01*
X112156384Y-99049500D01*
X112156379Y-99049500D01*
X111972756Y-99086025D01*
X111972748Y-99086027D01*
X111799771Y-99157676D01*
X111799762Y-99157681D01*
X111644092Y-99261697D01*
X111644088Y-99261700D01*
X111511700Y-99394088D01*
X111511697Y-99394092D01*
X111407681Y-99549762D01*
X111407676Y-99549772D01*
X111364561Y-99653862D01*
X111320720Y-99708265D01*
X111254426Y-99730330D01*
X111186726Y-99713051D01*
X111139116Y-99661913D01*
X111135439Y-99653862D01*
X111099000Y-99565891D01*
X111092322Y-99549769D01*
X111092320Y-99549766D01*
X111092318Y-99549762D01*
X110988302Y-99394092D01*
X110988299Y-99394088D01*
X110855911Y-99261700D01*
X110855907Y-99261697D01*
X110700237Y-99157681D01*
X110700228Y-99157676D01*
X110527251Y-99086027D01*
X110527243Y-99086025D01*
X110343620Y-99049500D01*
X110343616Y-99049500D01*
X110156384Y-99049500D01*
X110156379Y-99049500D01*
X109972756Y-99086025D01*
X109972748Y-99086027D01*
X109799771Y-99157676D01*
X109799762Y-99157681D01*
X109644092Y-99261697D01*
X109644088Y-99261700D01*
X109511700Y-99394088D01*
X109511697Y-99394092D01*
X109407681Y-99549762D01*
X109407676Y-99549772D01*
X109364561Y-99653862D01*
X109320720Y-99708265D01*
X109254426Y-99730330D01*
X109186726Y-99713051D01*
X109139116Y-99661913D01*
X109135439Y-99653862D01*
X109099000Y-99565891D01*
X109092322Y-99549769D01*
X109092320Y-99549766D01*
X109092318Y-99549762D01*
X108988302Y-99394092D01*
X108988299Y-99394088D01*
X108855911Y-99261700D01*
X108855907Y-99261697D01*
X108700237Y-99157681D01*
X108700228Y-99157676D01*
X108527251Y-99086027D01*
X108527243Y-99086025D01*
X108343620Y-99049500D01*
X108343616Y-99049500D01*
X108156384Y-99049500D01*
X108156379Y-99049500D01*
X107972756Y-99086025D01*
X107972748Y-99086027D01*
X107799771Y-99157676D01*
X107799762Y-99157681D01*
X107644092Y-99261697D01*
X107644088Y-99261700D01*
X107511700Y-99394088D01*
X107511697Y-99394092D01*
X107407681Y-99549762D01*
X107407676Y-99549771D01*
X107336027Y-99722748D01*
X107336025Y-99722756D01*
X107299500Y-99906379D01*
X106500000Y-99906379D01*
X106500000Y-99547339D01*
X106487316Y-99500000D01*
X106600000Y-99500000D01*
X107048720Y-99500000D01*
X107013493Y-99322902D01*
X107013491Y-99322894D01*
X106941880Y-99150008D01*
X106941875Y-99149999D01*
X106837913Y-98994410D01*
X106837910Y-98994406D01*
X106705596Y-98862092D01*
X106600000Y-98791533D01*
X106600000Y-99500000D01*
X106487316Y-99500000D01*
X106472741Y-99445606D01*
X106420080Y-99354394D01*
X106345606Y-99279920D01*
X106254394Y-99227259D01*
X106152661Y-99200000D01*
X106047339Y-99200000D01*
X105945606Y-99227259D01*
X105854394Y-99279920D01*
X105779920Y-99354394D01*
X105727259Y-99445606D01*
X105700000Y-99547339D01*
X97200500Y-99547339D01*
X97200500Y-99500000D01*
X105151280Y-99500000D01*
X105600000Y-99500000D01*
X105600000Y-98791533D01*
X105494403Y-98862092D01*
X105494403Y-98862093D01*
X105362089Y-98994406D01*
X105362086Y-98994410D01*
X105258124Y-99149999D01*
X105258119Y-99150008D01*
X105186508Y-99322894D01*
X105186506Y-99322902D01*
X105151280Y-99500000D01*
X97200500Y-99500000D01*
X97200500Y-90862378D01*
X102949500Y-90862378D01*
X102949500Y-91137621D01*
X102980315Y-91411108D01*
X102980317Y-91411124D01*
X103041561Y-91679453D01*
X103041565Y-91679465D01*
X103132467Y-91939246D01*
X103251884Y-92187218D01*
X103251886Y-92187221D01*
X103398319Y-92420268D01*
X103569925Y-92635455D01*
X103764545Y-92830075D01*
X103979732Y-93001681D01*
X104212779Y-93148114D01*
X104460757Y-93267534D01*
X104591655Y-93313337D01*
X104720534Y-93358434D01*
X104720546Y-93358438D01*
X104988879Y-93419683D01*
X105262378Y-93450499D01*
X105262379Y-93450500D01*
X105262383Y-93450500D01*
X105537621Y-93450500D01*
X105537621Y-93450499D01*
X105811121Y-93419683D01*
X106079454Y-93358438D01*
X106339243Y-93267534D01*
X106587221Y-93148114D01*
X106820268Y-93001681D01*
X107035455Y-92830075D01*
X107230075Y-92635455D01*
X107401681Y-92420268D01*
X107548114Y-92187221D01*
X107667534Y-91939243D01*
X107758438Y-91679454D01*
X107819683Y-91411121D01*
X107850500Y-91137617D01*
X107850500Y-90862383D01*
X107850186Y-90859598D01*
X110100000Y-90859598D01*
X110100000Y-91140401D01*
X110131437Y-91419412D01*
X110131439Y-91419424D01*
X110193921Y-91693178D01*
X110193922Y-91693180D01*
X110286662Y-91958217D01*
X110408492Y-92211200D01*
X110513914Y-92378977D01*
X111283253Y-91609638D01*
X111359849Y-91759966D01*
X111494002Y-91944612D01*
X111655388Y-92105998D01*
X111840034Y-92240151D01*
X111990359Y-92316746D01*
X111221021Y-93086084D01*
X111221020Y-93086084D01*
X111388799Y-93191507D01*
X111641782Y-93313337D01*
X111906819Y-93406077D01*
X111906821Y-93406078D01*
X112180575Y-93468560D01*
X112180587Y-93468562D01*
X112459598Y-93499999D01*
X112459600Y-93500000D01*
X112740400Y-93500000D01*
X112740401Y-93499999D01*
X113019412Y-93468562D01*
X113019424Y-93468560D01*
X113293178Y-93406078D01*
X113293180Y-93406077D01*
X113558217Y-93313337D01*
X113811203Y-93191506D01*
X113978977Y-93086085D01*
X113978977Y-93086084D01*
X113209640Y-92316746D01*
X113359966Y-92240151D01*
X113544612Y-92105998D01*
X113705998Y-91944612D01*
X113840151Y-91759966D01*
X113916746Y-91609639D01*
X114686084Y-92378977D01*
X114686085Y-92378977D01*
X114791506Y-92211203D01*
X114913337Y-91958217D01*
X115006077Y-91693180D01*
X115006078Y-91693178D01*
X115068560Y-91419424D01*
X115068562Y-91419412D01*
X115099999Y-91140401D01*
X115100000Y-91140399D01*
X115100000Y-90859600D01*
X115099999Y-90859598D01*
X115068562Y-90580587D01*
X115068560Y-90580575D01*
X115006078Y-90306821D01*
X115006077Y-90306819D01*
X114913337Y-90041782D01*
X114791507Y-89788799D01*
X114686084Y-89621021D01*
X113916746Y-90390359D01*
X113840151Y-90240034D01*
X113705998Y-90055388D01*
X113544612Y-89894002D01*
X113359966Y-89759849D01*
X113209639Y-89683253D01*
X113397161Y-89495731D01*
X123599500Y-89495731D01*
X123599500Y-91504258D01*
X123602354Y-91534698D01*
X123602354Y-91534699D01*
X123647206Y-91662881D01*
X123647207Y-91662882D01*
X123727850Y-91772150D01*
X123837118Y-91852793D01*
X123965302Y-91897646D01*
X123965301Y-91897646D01*
X123969271Y-91898018D01*
X123995735Y-91900500D01*
X126004264Y-91900499D01*
X126034698Y-91897646D01*
X126162882Y-91852793D01*
X126211726Y-91816745D01*
X129390359Y-91816745D01*
X129443395Y-91843768D01*
X129660455Y-91914295D01*
X129885884Y-91950000D01*
X130114116Y-91950000D01*
X130339544Y-91914295D01*
X130556605Y-91843768D01*
X130556612Y-91843765D01*
X130609639Y-91816745D01*
X130000001Y-91207106D01*
X130000000Y-91207106D01*
X129390359Y-91816745D01*
X126211726Y-91816745D01*
X126272150Y-91772150D01*
X126352793Y-91662882D01*
X126397646Y-91534698D01*
X126400500Y-91504265D01*
X126400499Y-90385883D01*
X128550000Y-90385883D01*
X128550000Y-90614116D01*
X128585704Y-90839544D01*
X128656230Y-91056604D01*
X128656231Y-91056607D01*
X128683253Y-91109638D01*
X129292893Y-90500000D01*
X129213902Y-90421009D01*
X129400000Y-90421009D01*
X129400000Y-90578991D01*
X129440889Y-90731591D01*
X129519881Y-90868408D01*
X129631592Y-90980119D01*
X129768409Y-91059111D01*
X129921009Y-91100000D01*
X130078991Y-91100000D01*
X130231591Y-91059111D01*
X130368408Y-90980119D01*
X130480119Y-90868408D01*
X130559111Y-90731591D01*
X130600000Y-90578991D01*
X130600000Y-90499999D01*
X130707106Y-90499999D01*
X130707106Y-90500000D01*
X131316745Y-91109639D01*
X131343765Y-91056612D01*
X131343768Y-91056605D01*
X131414295Y-90839544D01*
X131450000Y-90614116D01*
X131450000Y-90385883D01*
X131414295Y-90160455D01*
X131343768Y-89943395D01*
X131316745Y-89890359D01*
X130707106Y-90499999D01*
X130600000Y-90499999D01*
X130600000Y-90421009D01*
X130559111Y-90268409D01*
X130480119Y-90131592D01*
X130368408Y-90019881D01*
X130231591Y-89940889D01*
X130078991Y-89900000D01*
X129921009Y-89900000D01*
X129768409Y-89940889D01*
X129631592Y-90019881D01*
X129519881Y-90131592D01*
X129440889Y-90268409D01*
X129400000Y-90421009D01*
X129213902Y-90421009D01*
X128683252Y-89890359D01*
X128656231Y-89943393D01*
X128585704Y-90160455D01*
X128550000Y-90385883D01*
X126400499Y-90385883D01*
X126400499Y-89495736D01*
X126397646Y-89465302D01*
X126352793Y-89337118D01*
X126272150Y-89227850D01*
X126211722Y-89183252D01*
X129390359Y-89183252D01*
X130000000Y-89792893D01*
X130000001Y-89792893D01*
X130297162Y-89495731D01*
X137349500Y-89495731D01*
X137349500Y-91504258D01*
X137352354Y-91534698D01*
X137352354Y-91534699D01*
X137397206Y-91662881D01*
X137397207Y-91662882D01*
X137477850Y-91772150D01*
X137587118Y-91852793D01*
X137715302Y-91897646D01*
X137715301Y-91897646D01*
X137719271Y-91898018D01*
X137745735Y-91900500D01*
X139754264Y-91900499D01*
X139784698Y-91897646D01*
X139912882Y-91852793D01*
X139961726Y-91816745D01*
X143140359Y-91816745D01*
X143193395Y-91843768D01*
X143410455Y-91914295D01*
X143635884Y-91950000D01*
X143864116Y-91950000D01*
X144089544Y-91914295D01*
X144306605Y-91843768D01*
X144306612Y-91843765D01*
X144359639Y-91816745D01*
X143750001Y-91207106D01*
X143750000Y-91207106D01*
X143140359Y-91816745D01*
X139961726Y-91816745D01*
X140022150Y-91772150D01*
X140102793Y-91662882D01*
X140147646Y-91534698D01*
X140150500Y-91504265D01*
X140150499Y-90385883D01*
X142300000Y-90385883D01*
X142300000Y-90614116D01*
X142335704Y-90839544D01*
X142406230Y-91056604D01*
X142406231Y-91056607D01*
X142433253Y-91109638D01*
X143042893Y-90500000D01*
X143042893Y-90499999D01*
X142963903Y-90421009D01*
X143150000Y-90421009D01*
X143150000Y-90578991D01*
X143190889Y-90731591D01*
X143269881Y-90868408D01*
X143381592Y-90980119D01*
X143518409Y-91059111D01*
X143671009Y-91100000D01*
X143828991Y-91100000D01*
X143981591Y-91059111D01*
X144118408Y-90980119D01*
X144230119Y-90868408D01*
X144309111Y-90731591D01*
X144350000Y-90578991D01*
X144350000Y-90499999D01*
X144457106Y-90499999D01*
X144457106Y-90500000D01*
X145066745Y-91109639D01*
X145093765Y-91056612D01*
X145093768Y-91056605D01*
X145164295Y-90839544D01*
X145200000Y-90614116D01*
X145200000Y-90385883D01*
X145164295Y-90160455D01*
X145093768Y-89943395D01*
X145066745Y-89890359D01*
X144457106Y-90499999D01*
X144350000Y-90499999D01*
X144350000Y-90421009D01*
X144309111Y-90268409D01*
X144230119Y-90131592D01*
X144118408Y-90019881D01*
X143981591Y-89940889D01*
X143828991Y-89900000D01*
X143671009Y-89900000D01*
X143518409Y-89940889D01*
X143381592Y-90019881D01*
X143269881Y-90131592D01*
X143190889Y-90268409D01*
X143150000Y-90421009D01*
X142963903Y-90421009D01*
X142433252Y-89890359D01*
X142406231Y-89943393D01*
X142335704Y-90160455D01*
X142300000Y-90385883D01*
X140150499Y-90385883D01*
X140150499Y-89495736D01*
X140147646Y-89465302D01*
X140102793Y-89337118D01*
X140022150Y-89227850D01*
X139961722Y-89183252D01*
X143140359Y-89183252D01*
X143750000Y-89792893D01*
X143750001Y-89792893D01*
X144047162Y-89495731D01*
X151099500Y-89495731D01*
X151099500Y-91504258D01*
X151102354Y-91534698D01*
X151102354Y-91534699D01*
X151147206Y-91662881D01*
X151147207Y-91662882D01*
X151227850Y-91772150D01*
X151337118Y-91852793D01*
X151465302Y-91897646D01*
X151465301Y-91897646D01*
X151469271Y-91898018D01*
X151495735Y-91900500D01*
X153504264Y-91900499D01*
X153534698Y-91897646D01*
X153662882Y-91852793D01*
X153711726Y-91816745D01*
X156890359Y-91816745D01*
X156943395Y-91843768D01*
X157160455Y-91914295D01*
X157385884Y-91950000D01*
X157614116Y-91950000D01*
X157839544Y-91914295D01*
X158056605Y-91843768D01*
X158056612Y-91843765D01*
X158109639Y-91816745D01*
X157500001Y-91207106D01*
X157500000Y-91207106D01*
X156890359Y-91816745D01*
X153711726Y-91816745D01*
X153772150Y-91772150D01*
X153852793Y-91662882D01*
X153897646Y-91534698D01*
X153900500Y-91504265D01*
X153900499Y-90385883D01*
X156050000Y-90385883D01*
X156050000Y-90614116D01*
X156085704Y-90839544D01*
X156156230Y-91056604D01*
X156156231Y-91056607D01*
X156183253Y-91109638D01*
X156792893Y-90500000D01*
X156713902Y-90421009D01*
X156900000Y-90421009D01*
X156900000Y-90578991D01*
X156940889Y-90731591D01*
X157019881Y-90868408D01*
X157131592Y-90980119D01*
X157268409Y-91059111D01*
X157421009Y-91100000D01*
X157578991Y-91100000D01*
X157731591Y-91059111D01*
X157868408Y-90980119D01*
X157980119Y-90868408D01*
X158059111Y-90731591D01*
X158100000Y-90578991D01*
X158100000Y-90499999D01*
X158207106Y-90499999D01*
X158207106Y-90500000D01*
X158816745Y-91109639D01*
X158843765Y-91056612D01*
X158843768Y-91056605D01*
X158914295Y-90839544D01*
X158950000Y-90614116D01*
X158950000Y-90385883D01*
X158914295Y-90160455D01*
X158843768Y-89943395D01*
X158816745Y-89890359D01*
X158207106Y-90499999D01*
X158100000Y-90499999D01*
X158100000Y-90421009D01*
X158059111Y-90268409D01*
X157980119Y-90131592D01*
X157868408Y-90019881D01*
X157731591Y-89940889D01*
X157578991Y-89900000D01*
X157421009Y-89900000D01*
X157268409Y-89940889D01*
X157131592Y-90019881D01*
X157019881Y-90131592D01*
X156940889Y-90268409D01*
X156900000Y-90421009D01*
X156713902Y-90421009D01*
X156183252Y-89890359D01*
X156156231Y-89943393D01*
X156085704Y-90160455D01*
X156050000Y-90385883D01*
X153900499Y-90385883D01*
X153900499Y-89495736D01*
X153897646Y-89465302D01*
X153852793Y-89337118D01*
X153772150Y-89227850D01*
X153711722Y-89183252D01*
X156890359Y-89183252D01*
X157500000Y-89792893D01*
X157500001Y-89792893D01*
X157797162Y-89495731D01*
X164849500Y-89495731D01*
X164849500Y-91504258D01*
X164852354Y-91534698D01*
X164852354Y-91534699D01*
X164897206Y-91662881D01*
X164897207Y-91662882D01*
X164977850Y-91772150D01*
X165087118Y-91852793D01*
X165215302Y-91897646D01*
X165215301Y-91897646D01*
X165219271Y-91898018D01*
X165245735Y-91900500D01*
X167254264Y-91900499D01*
X167284698Y-91897646D01*
X167412882Y-91852793D01*
X167461726Y-91816745D01*
X170640359Y-91816745D01*
X170693395Y-91843768D01*
X170910455Y-91914295D01*
X171135884Y-91950000D01*
X171364116Y-91950000D01*
X171589544Y-91914295D01*
X171806605Y-91843768D01*
X171806612Y-91843765D01*
X171859639Y-91816745D01*
X171250001Y-91207106D01*
X171250000Y-91207106D01*
X170640359Y-91816745D01*
X167461726Y-91816745D01*
X167522150Y-91772150D01*
X167602793Y-91662882D01*
X167647646Y-91534698D01*
X167650500Y-91504265D01*
X167650499Y-90385883D01*
X169800000Y-90385883D01*
X169800000Y-90614116D01*
X169835704Y-90839544D01*
X169906230Y-91056604D01*
X169906231Y-91056607D01*
X169933253Y-91109638D01*
X170542893Y-90500000D01*
X170542893Y-90499999D01*
X170463903Y-90421009D01*
X170650000Y-90421009D01*
X170650000Y-90578991D01*
X170690889Y-90731591D01*
X170769881Y-90868408D01*
X170881592Y-90980119D01*
X171018409Y-91059111D01*
X171171009Y-91100000D01*
X171328991Y-91100000D01*
X171481591Y-91059111D01*
X171618408Y-90980119D01*
X171730119Y-90868408D01*
X171809111Y-90731591D01*
X171850000Y-90578991D01*
X171850000Y-90499999D01*
X171957106Y-90499999D01*
X171957106Y-90500000D01*
X172566745Y-91109639D01*
X172593765Y-91056612D01*
X172593768Y-91056605D01*
X172664295Y-90839544D01*
X172700000Y-90614116D01*
X172700000Y-90385883D01*
X172664295Y-90160455D01*
X172593768Y-89943395D01*
X172566745Y-89890359D01*
X171957106Y-90499999D01*
X171850000Y-90499999D01*
X171850000Y-90421009D01*
X171809111Y-90268409D01*
X171730119Y-90131592D01*
X171618408Y-90019881D01*
X171481591Y-89940889D01*
X171328991Y-89900000D01*
X171171009Y-89900000D01*
X171018409Y-89940889D01*
X170881592Y-90019881D01*
X170769881Y-90131592D01*
X170690889Y-90268409D01*
X170650000Y-90421009D01*
X170463903Y-90421009D01*
X169933252Y-89890359D01*
X169906231Y-89943393D01*
X169835704Y-90160455D01*
X169800000Y-90385883D01*
X167650499Y-90385883D01*
X167650499Y-89495736D01*
X167647646Y-89465302D01*
X167602793Y-89337118D01*
X167522150Y-89227850D01*
X167461722Y-89183252D01*
X170640359Y-89183252D01*
X171250000Y-89792893D01*
X171250001Y-89792893D01*
X171859638Y-89183253D01*
X171806607Y-89156231D01*
X171806604Y-89156230D01*
X171589544Y-89085704D01*
X171364116Y-89050000D01*
X171135884Y-89050000D01*
X170910455Y-89085704D01*
X170693393Y-89156231D01*
X170640359Y-89183252D01*
X167461722Y-89183252D01*
X167412882Y-89147207D01*
X167412881Y-89147206D01*
X167284695Y-89102353D01*
X167284698Y-89102353D01*
X167254268Y-89099500D01*
X165245741Y-89099500D01*
X165215301Y-89102354D01*
X165215300Y-89102354D01*
X165087118Y-89147206D01*
X164977850Y-89227850D01*
X164897206Y-89337118D01*
X164852353Y-89465302D01*
X164849500Y-89495731D01*
X157797162Y-89495731D01*
X157887738Y-89405155D01*
X158109639Y-89183253D01*
X158056607Y-89156231D01*
X158056604Y-89156230D01*
X157839544Y-89085704D01*
X157614116Y-89050000D01*
X157385884Y-89050000D01*
X157160455Y-89085704D01*
X156943393Y-89156231D01*
X156890359Y-89183252D01*
X153711722Y-89183252D01*
X153662882Y-89147207D01*
X153662881Y-89147206D01*
X153534695Y-89102353D01*
X153534698Y-89102353D01*
X153504268Y-89099500D01*
X151495741Y-89099500D01*
X151465301Y-89102354D01*
X151465300Y-89102354D01*
X151337118Y-89147206D01*
X151227850Y-89227850D01*
X151147206Y-89337118D01*
X151102353Y-89465302D01*
X151099500Y-89495731D01*
X144047162Y-89495731D01*
X144137738Y-89405155D01*
X144359639Y-89183253D01*
X144306607Y-89156231D01*
X144306604Y-89156230D01*
X144089544Y-89085704D01*
X143864116Y-89050000D01*
X143635884Y-89050000D01*
X143410455Y-89085704D01*
X143193393Y-89156231D01*
X143140359Y-89183252D01*
X139961722Y-89183252D01*
X139912882Y-89147207D01*
X139912881Y-89147206D01*
X139784695Y-89102353D01*
X139784698Y-89102353D01*
X139754268Y-89099500D01*
X137745741Y-89099500D01*
X137715301Y-89102354D01*
X137715300Y-89102354D01*
X137587118Y-89147206D01*
X137477850Y-89227850D01*
X137397206Y-89337118D01*
X137352353Y-89465302D01*
X137349500Y-89495731D01*
X130297162Y-89495731D01*
X130387738Y-89405155D01*
X130609639Y-89183253D01*
X130556607Y-89156231D01*
X130556604Y-89156230D01*
X130339544Y-89085704D01*
X130114116Y-89050000D01*
X129885884Y-89050000D01*
X129660455Y-89085704D01*
X129443393Y-89156231D01*
X129390359Y-89183252D01*
X126211722Y-89183252D01*
X126162882Y-89147207D01*
X126162881Y-89147206D01*
X126034695Y-89102353D01*
X126034698Y-89102353D01*
X126004268Y-89099500D01*
X123995741Y-89099500D01*
X123965301Y-89102354D01*
X123965300Y-89102354D01*
X123837118Y-89147206D01*
X123727850Y-89227850D01*
X123647206Y-89337118D01*
X123602353Y-89465302D01*
X123599500Y-89495731D01*
X113397161Y-89495731D01*
X113978977Y-88913914D01*
X113978978Y-88913914D01*
X113811200Y-88808492D01*
X113558217Y-88686662D01*
X113293180Y-88593922D01*
X113293178Y-88593921D01*
X113019424Y-88531439D01*
X113019412Y-88531437D01*
X112740401Y-88500000D01*
X112459598Y-88500000D01*
X112180587Y-88531437D01*
X112180575Y-88531439D01*
X111906821Y-88593921D01*
X111906819Y-88593922D01*
X111641782Y-88686662D01*
X111388799Y-88808492D01*
X111221021Y-88913914D01*
X111990360Y-89683253D01*
X111840034Y-89759849D01*
X111655388Y-89894002D01*
X111494002Y-90055388D01*
X111359849Y-90240034D01*
X111283253Y-90390360D01*
X110513914Y-89621021D01*
X110408492Y-89788799D01*
X110286662Y-90041782D01*
X110193922Y-90306819D01*
X110193921Y-90306821D01*
X110131439Y-90580575D01*
X110131437Y-90580587D01*
X110100000Y-90859598D01*
X107850186Y-90859598D01*
X107819683Y-90588879D01*
X107758438Y-90320546D01*
X107753635Y-90306821D01*
X107692320Y-90131592D01*
X107667534Y-90060757D01*
X107548114Y-89812779D01*
X107401681Y-89579732D01*
X107230075Y-89364545D01*
X107035455Y-89169925D01*
X106820268Y-88998319D01*
X106587221Y-88851886D01*
X106587218Y-88851884D01*
X106339246Y-88732467D01*
X106079465Y-88641565D01*
X106079453Y-88641561D01*
X105811124Y-88580317D01*
X105811108Y-88580315D01*
X105537621Y-88549500D01*
X105537617Y-88549500D01*
X105262383Y-88549500D01*
X105262379Y-88549500D01*
X104988891Y-88580315D01*
X104988875Y-88580317D01*
X104720546Y-88641561D01*
X104720534Y-88641565D01*
X104460753Y-88732467D01*
X104212781Y-88851884D01*
X103979733Y-88998318D01*
X103764545Y-89169924D01*
X103569924Y-89364545D01*
X103398318Y-89579733D01*
X103251884Y-89812781D01*
X103132467Y-90060753D01*
X103041565Y-90320534D01*
X103041561Y-90320546D01*
X102980317Y-90588875D01*
X102980315Y-90588891D01*
X102949500Y-90862378D01*
X97200500Y-90862378D01*
X97200500Y-84905513D01*
X97799500Y-84905513D01*
X97799500Y-85094486D01*
X97829059Y-85281118D01*
X97887454Y-85460836D01*
X97959718Y-85602661D01*
X97973240Y-85629199D01*
X98084310Y-85782073D01*
X98217927Y-85915690D01*
X98370801Y-86026760D01*
X98432007Y-86057946D01*
X98539163Y-86112545D01*
X98539165Y-86112545D01*
X98539168Y-86112547D01*
X98635497Y-86143846D01*
X98718881Y-86170940D01*
X98905514Y-86200500D01*
X98905519Y-86200500D01*
X99094486Y-86200500D01*
X99281118Y-86170940D01*
X99298128Y-86165413D01*
X99460832Y-86112547D01*
X99629199Y-86026760D01*
X99782073Y-85915690D01*
X99915690Y-85782073D01*
X100016318Y-85643571D01*
X101300000Y-85643571D01*
X101336506Y-85827097D01*
X101336508Y-85827105D01*
X101408119Y-85999991D01*
X101408124Y-86000000D01*
X101512086Y-86155589D01*
X101512089Y-86155593D01*
X101644406Y-86287910D01*
X101644410Y-86287913D01*
X101750000Y-86358466D01*
X101750000Y-86358465D01*
X102750000Y-86358465D01*
X102855589Y-86287913D01*
X102855593Y-86287910D01*
X102987910Y-86155593D01*
X102987913Y-86155589D01*
X103091875Y-86000000D01*
X103091880Y-85999991D01*
X103163491Y-85827105D01*
X103163493Y-85827097D01*
X103199999Y-85643571D01*
X114800000Y-85643571D01*
X114836506Y-85827097D01*
X114836508Y-85827105D01*
X114908119Y-85999991D01*
X114908124Y-86000000D01*
X115012086Y-86155589D01*
X115012089Y-86155593D01*
X115144406Y-86287910D01*
X115144410Y-86287913D01*
X115250000Y-86358466D01*
X115250000Y-86358465D01*
X116250000Y-86358465D01*
X116355589Y-86287913D01*
X116355593Y-86287910D01*
X116478089Y-86165414D01*
X118541691Y-86165414D01*
X118707294Y-86219221D01*
X118901618Y-86250000D01*
X119098382Y-86250000D01*
X119292703Y-86219221D01*
X119458307Y-86165413D01*
X119000001Y-85707106D01*
X119000000Y-85707106D01*
X118541691Y-86165414D01*
X116478089Y-86165414D01*
X116487910Y-86155593D01*
X116487913Y-86155589D01*
X116553157Y-86057946D01*
X116591875Y-86000000D01*
X116591880Y-85999991D01*
X116663491Y-85827105D01*
X116663493Y-85827097D01*
X116699999Y-85643571D01*
X116700000Y-85643569D01*
X116700000Y-85500000D01*
X116250000Y-85500000D01*
X116250000Y-86358465D01*
X115250000Y-86358465D01*
X115250000Y-85500000D01*
X114800000Y-85500000D01*
X114800000Y-85643571D01*
X103199999Y-85643571D01*
X103200000Y-85643569D01*
X103200000Y-85500000D01*
X102750000Y-85500000D01*
X102750000Y-86358465D01*
X101750000Y-86358465D01*
X101750000Y-85500000D01*
X101300000Y-85500000D01*
X101300000Y-85643571D01*
X100016318Y-85643571D01*
X100026760Y-85629199D01*
X100112547Y-85460832D01*
X100170940Y-85281118D01*
X100200500Y-85094486D01*
X100200500Y-84905516D01*
X100200499Y-84905510D01*
X100170940Y-84718881D01*
X100132280Y-84599901D01*
X100112547Y-84539168D01*
X100112545Y-84539165D01*
X100112545Y-84539163D01*
X100045019Y-84406636D01*
X100045018Y-84406632D01*
X100026763Y-84370805D01*
X100016317Y-84356428D01*
X101300000Y-84356428D01*
X101300000Y-84500000D01*
X101750000Y-84500000D01*
X101750000Y-84397339D01*
X101850000Y-84397339D01*
X101850000Y-85602661D01*
X101877259Y-85704394D01*
X101929920Y-85795606D01*
X102004394Y-85870080D01*
X102095606Y-85922741D01*
X102197339Y-85950000D01*
X102302661Y-85950000D01*
X102404394Y-85922741D01*
X102495606Y-85870080D01*
X102570080Y-85795606D01*
X102622741Y-85704394D01*
X102650000Y-85602661D01*
X102650000Y-84500000D01*
X102750000Y-84500000D01*
X103200000Y-84500000D01*
X103200000Y-84356430D01*
X103199999Y-84356428D01*
X114800000Y-84356428D01*
X114800000Y-84500000D01*
X115250000Y-84500000D01*
X115250000Y-84397339D01*
X115350000Y-84397339D01*
X115350000Y-85602661D01*
X115377259Y-85704394D01*
X115429920Y-85795606D01*
X115504394Y-85870080D01*
X115595606Y-85922741D01*
X115697339Y-85950000D01*
X115802661Y-85950000D01*
X115904394Y-85922741D01*
X115995606Y-85870080D01*
X116070080Y-85795606D01*
X116122741Y-85704394D01*
X116150000Y-85602661D01*
X116150000Y-84901617D01*
X117750000Y-84901617D01*
X117750000Y-85098382D01*
X117780779Y-85292710D01*
X117780779Y-85292713D01*
X117834584Y-85458307D01*
X117834585Y-85458307D01*
X118292893Y-85000000D01*
X118227067Y-84934174D01*
X118500000Y-84934174D01*
X118500000Y-85065826D01*
X118534075Y-85192993D01*
X118599901Y-85307007D01*
X118692993Y-85400099D01*
X118807007Y-85465925D01*
X118934174Y-85500000D01*
X119065826Y-85500000D01*
X119192993Y-85465925D01*
X119307007Y-85400099D01*
X119400099Y-85307007D01*
X119465925Y-85192993D01*
X119500000Y-85065826D01*
X119500000Y-85000000D01*
X119707106Y-85000000D01*
X120165413Y-85458306D01*
X120219221Y-85292703D01*
X120250000Y-85098382D01*
X120250000Y-84901617D01*
X120219221Y-84707294D01*
X120219221Y-84707293D01*
X120165414Y-84541691D01*
X119707106Y-85000000D01*
X119500000Y-85000000D01*
X119500000Y-84934174D01*
X119465925Y-84807007D01*
X119400099Y-84692993D01*
X119307007Y-84599901D01*
X119192993Y-84534075D01*
X119065826Y-84500000D01*
X118934174Y-84500000D01*
X118807007Y-84534075D01*
X118692993Y-84599901D01*
X118599901Y-84692993D01*
X118534075Y-84807007D01*
X118500000Y-84934174D01*
X118227067Y-84934174D01*
X117834584Y-84541691D01*
X117780779Y-84707289D01*
X117750000Y-84901617D01*
X116150000Y-84901617D01*
X116150000Y-84500000D01*
X116250000Y-84500000D01*
X116700000Y-84500000D01*
X116700000Y-84356430D01*
X116699999Y-84356428D01*
X116663493Y-84172902D01*
X116663491Y-84172894D01*
X116591880Y-84000008D01*
X116591872Y-83999994D01*
X116553158Y-83942054D01*
X116553157Y-83942053D01*
X116487913Y-83844410D01*
X116487910Y-83844406D01*
X116478088Y-83834584D01*
X118541691Y-83834584D01*
X119000000Y-84292893D01*
X119000001Y-84292893D01*
X119458307Y-83834585D01*
X119458307Y-83834584D01*
X119292711Y-83780779D01*
X119098382Y-83750000D01*
X118901618Y-83750000D01*
X118707289Y-83780779D01*
X118541691Y-83834584D01*
X116478088Y-83834584D01*
X116355596Y-83712092D01*
X116250000Y-83641533D01*
X116250000Y-84500000D01*
X116150000Y-84500000D01*
X116150000Y-84397339D01*
X116122741Y-84295606D01*
X116070080Y-84204394D01*
X115995606Y-84129920D01*
X115904394Y-84077259D01*
X115802661Y-84050000D01*
X115697339Y-84050000D01*
X115595606Y-84077259D01*
X115504394Y-84129920D01*
X115429920Y-84204394D01*
X115377259Y-84295606D01*
X115350000Y-84397339D01*
X115250000Y-84397339D01*
X115250000Y-83641533D01*
X115144403Y-83712092D01*
X115144403Y-83712093D01*
X115012089Y-83844406D01*
X115012086Y-83844410D01*
X114908124Y-83999999D01*
X114908119Y-84000008D01*
X114836508Y-84172894D01*
X114836506Y-84172902D01*
X114800000Y-84356428D01*
X103199999Y-84356428D01*
X103163493Y-84172902D01*
X103163491Y-84172894D01*
X103091880Y-84000008D01*
X103091875Y-83999999D01*
X102987913Y-83844410D01*
X102987910Y-83844406D01*
X102855596Y-83712092D01*
X102750000Y-83641533D01*
X102750000Y-84500000D01*
X102650000Y-84500000D01*
X102650000Y-84397339D01*
X102622741Y-84295606D01*
X102570080Y-84204394D01*
X102495606Y-84129920D01*
X102404394Y-84077259D01*
X102302661Y-84050000D01*
X102197339Y-84050000D01*
X102095606Y-84077259D01*
X102004394Y-84129920D01*
X101929920Y-84204394D01*
X101877259Y-84295606D01*
X101850000Y-84397339D01*
X101750000Y-84397339D01*
X101750000Y-83641533D01*
X101644403Y-83712092D01*
X101644403Y-83712093D01*
X101512089Y-83844406D01*
X101512086Y-83844410D01*
X101408124Y-83999999D01*
X101408119Y-84000008D01*
X101336508Y-84172894D01*
X101336506Y-84172902D01*
X101300000Y-84356428D01*
X100016317Y-84356428D01*
X99970156Y-84292893D01*
X99915690Y-84217927D01*
X99782073Y-84084310D01*
X99629199Y-83973240D01*
X99460836Y-83887454D01*
X99281118Y-83829059D01*
X99094486Y-83799500D01*
X99094481Y-83799500D01*
X98905519Y-83799500D01*
X98905514Y-83799500D01*
X98718881Y-83829059D01*
X98539163Y-83887454D01*
X98370800Y-83973240D01*
X98333958Y-84000008D01*
X98217927Y-84084310D01*
X98217925Y-84084312D01*
X98217924Y-84084312D01*
X98084312Y-84217924D01*
X98084312Y-84217925D01*
X98084310Y-84217927D01*
X98036610Y-84283579D01*
X97973240Y-84370800D01*
X97887454Y-84539163D01*
X97829059Y-84718881D01*
X97799500Y-84905513D01*
X97200500Y-84905513D01*
X97200500Y-83324500D01*
X97220185Y-83257461D01*
X97272989Y-83211706D01*
X97324500Y-83200500D01*
X182675500Y-83200500D01*
X182742539Y-83220185D01*
G37*
%TD.AperFunction*%
%TD*%
M02*
