%TF.GenerationSoftware,KiCad,Pcbnew,10.0.1*%
%TF.CreationDate,2026-04-20T11:26:39-04:00*%
%TF.ProjectId,LTC7890_Buck,4c544337-3839-4305-9f42-75636b2e6b69,2*%
%TF.SameCoordinates,Original*%
%TF.FileFunction,Legend,Top*%
%TF.FilePolarity,Positive*%
%FSLAX46Y46*%
G04 Gerber Fmt 4.6, Leading zero omitted, Abs format (unit mm)*
G04 Created by KiCad (PCBNEW 10.0.1) date 2026-04-20 11:26:39*
%MOMM*%
%LPD*%
G01*
G04 APERTURE LIST*
%ADD10C,0.100000*%
%ADD11C,0.000000*%
%ADD12C,0.150000*%
%ADD13C,0.300000*%
%ADD14C,0.120000*%
%ADD15C,0.250000*%
G04 APERTURE END LIST*
D10*
X126500000Y-98250000D02*
X127600000Y-98250000D01*
X128000000Y-98250000D02*
X129100000Y-98250000D01*
X129500000Y-98250000D02*
X130600000Y-98250000D01*
X131000000Y-98250000D02*
X132100000Y-98250000D01*
X132500000Y-98250000D02*
X133600000Y-98250000D01*
X134000000Y-98250000D02*
X135100000Y-98250000D01*
X135500000Y-98250000D02*
X136600000Y-98250000D01*
X137000000Y-98250000D02*
X137250000Y-98250000D01*
X126500000Y-107250000D02*
X126500000Y-106150000D01*
X126500000Y-105750000D02*
X126500000Y-105000000D01*
X126500000Y-112250000D02*
X126500000Y-111250000D01*
X126500000Y-125250000D02*
X126500000Y-124150000D01*
X126500000Y-123750000D02*
X126500000Y-122650000D01*
X126500000Y-122250000D02*
X126500000Y-121150000D01*
X126500000Y-120750000D02*
X126500000Y-119650000D01*
X126500000Y-119250000D02*
X126500000Y-118150000D01*
X126500000Y-117750000D02*
X126500000Y-116650000D01*
X144000000Y-98250000D02*
X145100000Y-98250000D01*
X145500000Y-98250000D02*
X146600000Y-98250000D01*
X147000000Y-98250000D02*
X148100000Y-98250000D01*
X148500000Y-98250000D02*
X149600000Y-98250000D01*
X150000000Y-98250000D02*
X151100000Y-98250000D01*
X151500000Y-98250000D02*
X152600000Y-98250000D01*
X153000000Y-98250000D02*
X153500000Y-98250000D01*
X153500000Y-107250000D02*
X153500000Y-106150000D01*
X153500000Y-105750000D02*
X153500000Y-105000000D01*
X153500000Y-112250000D02*
X153500000Y-111250000D01*
X153500000Y-125250000D02*
X152400000Y-125250000D01*
X152000000Y-125250000D02*
X150900000Y-125250000D01*
X150500000Y-125250000D02*
X149400000Y-125250000D01*
X149000000Y-125250000D02*
X147900000Y-125250000D01*
X147500000Y-125250000D02*
X146400000Y-125250000D01*
X146000000Y-125250000D02*
X144900000Y-125250000D01*
X144500000Y-125250000D02*
X143400000Y-125250000D01*
X143000000Y-125250000D02*
X141900000Y-125250000D01*
X141500000Y-125250000D02*
X140400000Y-125250000D01*
X140000000Y-125250000D02*
X138900000Y-125250000D01*
X138500000Y-125250000D02*
X137400000Y-125250000D01*
X137000000Y-125250000D02*
X135900000Y-125250000D01*
X135500000Y-125250000D02*
X134400000Y-125250000D01*
X134000000Y-125250000D02*
X132900000Y-125250000D01*
X132500000Y-125250000D02*
X131400000Y-125250000D01*
X131000000Y-125250000D02*
X129900000Y-125250000D01*
X129500000Y-125250000D02*
X128400000Y-125250000D01*
X128000000Y-125250000D02*
X126900000Y-125250000D01*
D11*
X126500000Y-125250000D02*
X126499999Y-125250000D01*
X126499999Y-125250000D01*
X126499999Y-125250000D01*
X126499999Y-125250000D01*
X126499999Y-125250000D01*
X126499999Y-125250000D01*
X126499999Y-125250000D01*
X126499999Y-125249999D01*
X126499999Y-125249999D01*
X126499999Y-125249999D01*
X126499999Y-125249999D01*
X126499999Y-125249999D01*
X126500000Y-125249999D01*
X126500000Y-125249999D01*
X126500000Y-125249999D01*
X126500000Y-125249999D01*
X126500000Y-125249999D01*
X126500000Y-125249999D01*
X126500000Y-125249999D01*
X126500000Y-125249999D01*
X126500000Y-125249999D01*
X126500000Y-125249999D01*
X126500000Y-125249999D01*
X126500000Y-125249999D01*
X126500001Y-125249999D01*
X126500001Y-125249999D01*
X126500001Y-125249999D01*
X126500001Y-125249999D01*
X126500001Y-125249999D01*
X126500001Y-125249999D01*
X126500001Y-125250000D01*
X126500001Y-125250000D01*
X126500001Y-125250000D01*
X126500001Y-125250000D01*
X126500001Y-125250000D01*
X126500001Y-125250000D01*
X126500001Y-125250000D01*
X126500000Y-125250000D01*
X126500000Y-125250000D02*
X126500001Y-125250000D01*
X126500001Y-125250000D01*
X126500001Y-125250000D01*
X126500001Y-125250000D01*
X126500001Y-125250000D01*
X126500001Y-125250000D01*
X126500001Y-125250001D01*
X126500001Y-125250001D01*
X126500001Y-125250001D01*
X126500001Y-125250001D01*
X126500001Y-125250001D01*
X126500001Y-125250001D01*
X126500001Y-125250001D01*
X126500000Y-125250001D01*
X126500000Y-125250001D01*
X126500000Y-125250001D01*
X126500000Y-125250001D01*
X126500000Y-125250001D01*
X126500000Y-125250001D01*
X126500000Y-125250001D01*
X126500000Y-125250001D01*
X126500000Y-125250001D01*
X126500000Y-125250001D01*
X126500000Y-125250001D01*
X126500000Y-125250001D01*
X126499999Y-125250001D01*
X126499999Y-125250001D01*
X126499999Y-125250001D01*
X126499999Y-125250001D01*
X126499999Y-125250001D01*
X126499999Y-125250001D01*
X126499999Y-125250000D01*
X126499999Y-125250000D01*
X126499999Y-125250000D01*
X126499999Y-125250000D01*
X126499999Y-125250000D01*
X126499999Y-125250000D01*
X126500000Y-125250000D01*
D10*
X153500000Y-125250000D02*
X153500000Y-124150000D01*
X153500000Y-123750000D02*
X153500000Y-122650000D01*
X153500000Y-122250000D02*
X153500000Y-121150000D01*
X153500000Y-120750000D02*
X153500000Y-119650000D01*
X153500000Y-119250000D02*
X153500000Y-118150000D01*
X153500000Y-117750000D02*
X153500000Y-116650000D01*
D12*
X101619048Y-88073866D02*
X102380953Y-88073866D01*
X136119048Y-132073866D02*
X136880953Y-132073866D01*
X143119048Y-132073866D02*
X143880953Y-132073866D01*
X143500000Y-132454819D02*
X143500000Y-131692914D01*
X131096009Y-133079887D02*
X131096009Y-133413220D01*
X131619819Y-133413220D02*
X130619819Y-133413220D01*
X130619819Y-133413220D02*
X130619819Y-132937030D01*
X131334104Y-132603696D02*
X131334104Y-132127506D01*
X131619819Y-132698934D02*
X130619819Y-132365601D01*
X130619819Y-132365601D02*
X131619819Y-132032268D01*
X131619819Y-131698934D02*
X130619819Y-131698934D01*
X130619819Y-131698934D02*
X131619819Y-131127506D01*
X131619819Y-131127506D02*
X130619819Y-131127506D01*
X131238866Y-130651315D02*
X131238866Y-129889411D01*
X148846009Y-133079887D02*
X148846009Y-133413220D01*
X149369819Y-133413220D02*
X148369819Y-133413220D01*
X148369819Y-133413220D02*
X148369819Y-132937030D01*
X149084104Y-132603696D02*
X149084104Y-132127506D01*
X149369819Y-132698934D02*
X148369819Y-132365601D01*
X148369819Y-132365601D02*
X149369819Y-132032268D01*
X149369819Y-131698934D02*
X148369819Y-131698934D01*
X148369819Y-131698934D02*
X149369819Y-131127506D01*
X149369819Y-131127506D02*
X148369819Y-131127506D01*
X148988866Y-130651315D02*
X148988866Y-129889411D01*
X149369819Y-130270363D02*
X148607914Y-130270363D01*
X109380951Y-87926133D02*
X108619047Y-87926133D01*
X108999999Y-87545180D02*
X108999999Y-88307085D01*
D13*
X103690475Y-132409638D02*
X104071428Y-132409638D01*
X104071428Y-132409638D02*
X104261904Y-132504876D01*
X104261904Y-132504876D02*
X104452380Y-132695352D01*
X104452380Y-132695352D02*
X104547618Y-133076304D01*
X104547618Y-133076304D02*
X104547618Y-133742971D01*
X104547618Y-133742971D02*
X104452380Y-134123923D01*
X104452380Y-134123923D02*
X104261904Y-134314400D01*
X104261904Y-134314400D02*
X104071428Y-134409638D01*
X104071428Y-134409638D02*
X103690475Y-134409638D01*
X103690475Y-134409638D02*
X103499999Y-134314400D01*
X103499999Y-134314400D02*
X103309523Y-134123923D01*
X103309523Y-134123923D02*
X103214285Y-133742971D01*
X103214285Y-133742971D02*
X103214285Y-133076304D01*
X103214285Y-133076304D02*
X103309523Y-132695352D01*
X103309523Y-132695352D02*
X103499999Y-132504876D01*
X103499999Y-132504876D02*
X103690475Y-132409638D01*
X105404761Y-132409638D02*
X105404761Y-134028685D01*
X105404761Y-134028685D02*
X105499999Y-134219161D01*
X105499999Y-134219161D02*
X105595237Y-134314400D01*
X105595237Y-134314400D02*
X105785713Y-134409638D01*
X105785713Y-134409638D02*
X106166666Y-134409638D01*
X106166666Y-134409638D02*
X106357142Y-134314400D01*
X106357142Y-134314400D02*
X106452380Y-134219161D01*
X106452380Y-134219161D02*
X106547618Y-134028685D01*
X106547618Y-134028685D02*
X106547618Y-132409638D01*
X107214285Y-132409638D02*
X108357142Y-132409638D01*
X107785713Y-134409638D02*
X107785713Y-132409638D01*
X109023809Y-134409638D02*
X109023809Y-132409638D01*
X109023809Y-132409638D02*
X109785714Y-132409638D01*
X109785714Y-132409638D02*
X109976190Y-132504876D01*
X109976190Y-132504876D02*
X110071428Y-132600114D01*
X110071428Y-132600114D02*
X110166666Y-132790590D01*
X110166666Y-132790590D02*
X110166666Y-133076304D01*
X110166666Y-133076304D02*
X110071428Y-133266780D01*
X110071428Y-133266780D02*
X109976190Y-133362019D01*
X109976190Y-133362019D02*
X109785714Y-133457257D01*
X109785714Y-133457257D02*
X109023809Y-133457257D01*
X111023809Y-132409638D02*
X111023809Y-134028685D01*
X111023809Y-134028685D02*
X111119047Y-134219161D01*
X111119047Y-134219161D02*
X111214285Y-134314400D01*
X111214285Y-134314400D02*
X111404761Y-134409638D01*
X111404761Y-134409638D02*
X111785714Y-134409638D01*
X111785714Y-134409638D02*
X111976190Y-134314400D01*
X111976190Y-134314400D02*
X112071428Y-134219161D01*
X112071428Y-134219161D02*
X112166666Y-134028685D01*
X112166666Y-134028685D02*
X112166666Y-132409638D01*
X112833333Y-132409638D02*
X113976190Y-132409638D01*
X113404761Y-134409638D02*
X113404761Y-132409638D01*
X116166667Y-133076304D02*
X117690477Y-133647733D01*
X117690477Y-133647733D02*
X116166667Y-134219161D01*
X163833333Y-133076304D02*
X162309523Y-133647733D01*
X162309523Y-133647733D02*
X163833333Y-134219161D01*
X166690475Y-132409638D02*
X167071428Y-132409638D01*
X167071428Y-132409638D02*
X167261904Y-132504876D01*
X167261904Y-132504876D02*
X167452380Y-132695352D01*
X167452380Y-132695352D02*
X167547618Y-133076304D01*
X167547618Y-133076304D02*
X167547618Y-133742971D01*
X167547618Y-133742971D02*
X167452380Y-134123923D01*
X167452380Y-134123923D02*
X167261904Y-134314400D01*
X167261904Y-134314400D02*
X167071428Y-134409638D01*
X167071428Y-134409638D02*
X166690475Y-134409638D01*
X166690475Y-134409638D02*
X166499999Y-134314400D01*
X166499999Y-134314400D02*
X166309523Y-134123923D01*
X166309523Y-134123923D02*
X166214285Y-133742971D01*
X166214285Y-133742971D02*
X166214285Y-133076304D01*
X166214285Y-133076304D02*
X166309523Y-132695352D01*
X166309523Y-132695352D02*
X166499999Y-132504876D01*
X166499999Y-132504876D02*
X166690475Y-132409638D01*
X168404761Y-132409638D02*
X168404761Y-134028685D01*
X168404761Y-134028685D02*
X168499999Y-134219161D01*
X168499999Y-134219161D02*
X168595237Y-134314400D01*
X168595237Y-134314400D02*
X168785713Y-134409638D01*
X168785713Y-134409638D02*
X169166666Y-134409638D01*
X169166666Y-134409638D02*
X169357142Y-134314400D01*
X169357142Y-134314400D02*
X169452380Y-134219161D01*
X169452380Y-134219161D02*
X169547618Y-134028685D01*
X169547618Y-134028685D02*
X169547618Y-132409638D01*
X170214285Y-132409638D02*
X171357142Y-132409638D01*
X170785713Y-134409638D02*
X170785713Y-132409638D01*
X172023809Y-134409638D02*
X172023809Y-132409638D01*
X172023809Y-132409638D02*
X172785714Y-132409638D01*
X172785714Y-132409638D02*
X172976190Y-132504876D01*
X172976190Y-132504876D02*
X173071428Y-132600114D01*
X173071428Y-132600114D02*
X173166666Y-132790590D01*
X173166666Y-132790590D02*
X173166666Y-133076304D01*
X173166666Y-133076304D02*
X173071428Y-133266780D01*
X173071428Y-133266780D02*
X172976190Y-133362019D01*
X172976190Y-133362019D02*
X172785714Y-133457257D01*
X172785714Y-133457257D02*
X172023809Y-133457257D01*
X174023809Y-132409638D02*
X174023809Y-134028685D01*
X174023809Y-134028685D02*
X174119047Y-134219161D01*
X174119047Y-134219161D02*
X174214285Y-134314400D01*
X174214285Y-134314400D02*
X174404761Y-134409638D01*
X174404761Y-134409638D02*
X174785714Y-134409638D01*
X174785714Y-134409638D02*
X174976190Y-134314400D01*
X174976190Y-134314400D02*
X175071428Y-134219161D01*
X175071428Y-134219161D02*
X175166666Y-134028685D01*
X175166666Y-134028685D02*
X175166666Y-132409638D01*
X175833333Y-132409638D02*
X176976190Y-132409638D01*
X176404761Y-134409638D02*
X176404761Y-132409638D01*
X109357142Y-93840361D02*
X109357142Y-95840361D01*
X108404761Y-93840361D02*
X108404761Y-95840361D01*
X108404761Y-95840361D02*
X107261904Y-93840361D01*
X107261904Y-93840361D02*
X107261904Y-95840361D01*
X106309523Y-93840361D02*
X106309523Y-95840361D01*
X106309523Y-95840361D02*
X105547618Y-95840361D01*
X105547618Y-95840361D02*
X105357142Y-95745123D01*
X105357142Y-95745123D02*
X105261904Y-95649885D01*
X105261904Y-95649885D02*
X105166666Y-95459409D01*
X105166666Y-95459409D02*
X105166666Y-95173695D01*
X105166666Y-95173695D02*
X105261904Y-94983219D01*
X105261904Y-94983219D02*
X105357142Y-94887980D01*
X105357142Y-94887980D02*
X105547618Y-94792742D01*
X105547618Y-94792742D02*
X106309523Y-94792742D01*
X104309523Y-95840361D02*
X104309523Y-94221314D01*
X104309523Y-94221314D02*
X104214285Y-94030838D01*
X104214285Y-94030838D02*
X104119047Y-93935600D01*
X104119047Y-93935600D02*
X103928571Y-93840361D01*
X103928571Y-93840361D02*
X103547618Y-93840361D01*
X103547618Y-93840361D02*
X103357142Y-93935600D01*
X103357142Y-93935600D02*
X103261904Y-94030838D01*
X103261904Y-94030838D02*
X103166666Y-94221314D01*
X103166666Y-94221314D02*
X103166666Y-95840361D01*
X102499999Y-95840361D02*
X101357142Y-95840361D01*
X101928571Y-93840361D02*
X101928571Y-95840361D01*
D12*
X128859580Y-100917857D02*
X128907200Y-100965476D01*
X128907200Y-100965476D02*
X128954819Y-101108333D01*
X128954819Y-101108333D02*
X128954819Y-101203571D01*
X128954819Y-101203571D02*
X128907200Y-101346428D01*
X128907200Y-101346428D02*
X128811961Y-101441666D01*
X128811961Y-101441666D02*
X128716723Y-101489285D01*
X128716723Y-101489285D02*
X128526247Y-101536904D01*
X128526247Y-101536904D02*
X128383390Y-101536904D01*
X128383390Y-101536904D02*
X128192914Y-101489285D01*
X128192914Y-101489285D02*
X128097676Y-101441666D01*
X128097676Y-101441666D02*
X128002438Y-101346428D01*
X128002438Y-101346428D02*
X127954819Y-101203571D01*
X127954819Y-101203571D02*
X127954819Y-101108333D01*
X127954819Y-101108333D02*
X128002438Y-100965476D01*
X128002438Y-100965476D02*
X128050057Y-100917857D01*
X128050057Y-100536904D02*
X128002438Y-100489285D01*
X128002438Y-100489285D02*
X127954819Y-100394047D01*
X127954819Y-100394047D02*
X127954819Y-100155952D01*
X127954819Y-100155952D02*
X128002438Y-100060714D01*
X128002438Y-100060714D02*
X128050057Y-100013095D01*
X128050057Y-100013095D02*
X128145295Y-99965476D01*
X128145295Y-99965476D02*
X128240533Y-99965476D01*
X128240533Y-99965476D02*
X128383390Y-100013095D01*
X128383390Y-100013095D02*
X128954819Y-100584523D01*
X128954819Y-100584523D02*
X128954819Y-99965476D01*
X127954819Y-99060714D02*
X127954819Y-99536904D01*
X127954819Y-99536904D02*
X128431009Y-99584523D01*
X128431009Y-99584523D02*
X128383390Y-99536904D01*
X128383390Y-99536904D02*
X128335771Y-99441666D01*
X128335771Y-99441666D02*
X128335771Y-99203571D01*
X128335771Y-99203571D02*
X128383390Y-99108333D01*
X128383390Y-99108333D02*
X128431009Y-99060714D01*
X128431009Y-99060714D02*
X128526247Y-99013095D01*
X128526247Y-99013095D02*
X128764342Y-99013095D01*
X128764342Y-99013095D02*
X128859580Y-99060714D01*
X128859580Y-99060714D02*
X128907200Y-99108333D01*
X128907200Y-99108333D02*
X128954819Y-99203571D01*
X128954819Y-99203571D02*
X128954819Y-99441666D01*
X128954819Y-99441666D02*
X128907200Y-99536904D01*
X128907200Y-99536904D02*
X128859580Y-99584523D01*
X125859580Y-100892857D02*
X125907200Y-100940476D01*
X125907200Y-100940476D02*
X125954819Y-101083333D01*
X125954819Y-101083333D02*
X125954819Y-101178571D01*
X125954819Y-101178571D02*
X125907200Y-101321428D01*
X125907200Y-101321428D02*
X125811961Y-101416666D01*
X125811961Y-101416666D02*
X125716723Y-101464285D01*
X125716723Y-101464285D02*
X125526247Y-101511904D01*
X125526247Y-101511904D02*
X125383390Y-101511904D01*
X125383390Y-101511904D02*
X125192914Y-101464285D01*
X125192914Y-101464285D02*
X125097676Y-101416666D01*
X125097676Y-101416666D02*
X125002438Y-101321428D01*
X125002438Y-101321428D02*
X124954819Y-101178571D01*
X124954819Y-101178571D02*
X124954819Y-101083333D01*
X124954819Y-101083333D02*
X125002438Y-100940476D01*
X125002438Y-100940476D02*
X125050057Y-100892857D01*
X125050057Y-100511904D02*
X125002438Y-100464285D01*
X125002438Y-100464285D02*
X124954819Y-100369047D01*
X124954819Y-100369047D02*
X124954819Y-100130952D01*
X124954819Y-100130952D02*
X125002438Y-100035714D01*
X125002438Y-100035714D02*
X125050057Y-99988095D01*
X125050057Y-99988095D02*
X125145295Y-99940476D01*
X125145295Y-99940476D02*
X125240533Y-99940476D01*
X125240533Y-99940476D02*
X125383390Y-99988095D01*
X125383390Y-99988095D02*
X125954819Y-100559523D01*
X125954819Y-100559523D02*
X125954819Y-99940476D01*
X124954819Y-99607142D02*
X124954819Y-98988095D01*
X124954819Y-98988095D02*
X125335771Y-99321428D01*
X125335771Y-99321428D02*
X125335771Y-99178571D01*
X125335771Y-99178571D02*
X125383390Y-99083333D01*
X125383390Y-99083333D02*
X125431009Y-99035714D01*
X125431009Y-99035714D02*
X125526247Y-98988095D01*
X125526247Y-98988095D02*
X125764342Y-98988095D01*
X125764342Y-98988095D02*
X125859580Y-99035714D01*
X125859580Y-99035714D02*
X125907200Y-99083333D01*
X125907200Y-99083333D02*
X125954819Y-99178571D01*
X125954819Y-99178571D02*
X125954819Y-99464285D01*
X125954819Y-99464285D02*
X125907200Y-99559523D01*
X125907200Y-99559523D02*
X125859580Y-99607142D01*
X153359580Y-100892857D02*
X153407200Y-100940476D01*
X153407200Y-100940476D02*
X153454819Y-101083333D01*
X153454819Y-101083333D02*
X153454819Y-101178571D01*
X153454819Y-101178571D02*
X153407200Y-101321428D01*
X153407200Y-101321428D02*
X153311961Y-101416666D01*
X153311961Y-101416666D02*
X153216723Y-101464285D01*
X153216723Y-101464285D02*
X153026247Y-101511904D01*
X153026247Y-101511904D02*
X152883390Y-101511904D01*
X152883390Y-101511904D02*
X152692914Y-101464285D01*
X152692914Y-101464285D02*
X152597676Y-101416666D01*
X152597676Y-101416666D02*
X152502438Y-101321428D01*
X152502438Y-101321428D02*
X152454819Y-101178571D01*
X152454819Y-101178571D02*
X152454819Y-101083333D01*
X152454819Y-101083333D02*
X152502438Y-100940476D01*
X152502438Y-100940476D02*
X152550057Y-100892857D01*
X153454819Y-99940476D02*
X153454819Y-100511904D01*
X153454819Y-100226190D02*
X152454819Y-100226190D01*
X152454819Y-100226190D02*
X152597676Y-100321428D01*
X152597676Y-100321428D02*
X152692914Y-100416666D01*
X152692914Y-100416666D02*
X152740533Y-100511904D01*
X153454819Y-99464285D02*
X153454819Y-99273809D01*
X153454819Y-99273809D02*
X153407200Y-99178571D01*
X153407200Y-99178571D02*
X153359580Y-99130952D01*
X153359580Y-99130952D02*
X153216723Y-99035714D01*
X153216723Y-99035714D02*
X153026247Y-98988095D01*
X153026247Y-98988095D02*
X152645295Y-98988095D01*
X152645295Y-98988095D02*
X152550057Y-99035714D01*
X152550057Y-99035714D02*
X152502438Y-99083333D01*
X152502438Y-99083333D02*
X152454819Y-99178571D01*
X152454819Y-99178571D02*
X152454819Y-99369047D01*
X152454819Y-99369047D02*
X152502438Y-99464285D01*
X152502438Y-99464285D02*
X152550057Y-99511904D01*
X152550057Y-99511904D02*
X152645295Y-99559523D01*
X152645295Y-99559523D02*
X152883390Y-99559523D01*
X152883390Y-99559523D02*
X152978628Y-99511904D01*
X152978628Y-99511904D02*
X153026247Y-99464285D01*
X153026247Y-99464285D02*
X153073866Y-99369047D01*
X153073866Y-99369047D02*
X153073866Y-99178571D01*
X153073866Y-99178571D02*
X153026247Y-99083333D01*
X153026247Y-99083333D02*
X152978628Y-99035714D01*
X152978628Y-99035714D02*
X152883390Y-98988095D01*
X145109580Y-100642857D02*
X145157200Y-100690476D01*
X145157200Y-100690476D02*
X145204819Y-100833333D01*
X145204819Y-100833333D02*
X145204819Y-100928571D01*
X145204819Y-100928571D02*
X145157200Y-101071428D01*
X145157200Y-101071428D02*
X145061961Y-101166666D01*
X145061961Y-101166666D02*
X144966723Y-101214285D01*
X144966723Y-101214285D02*
X144776247Y-101261904D01*
X144776247Y-101261904D02*
X144633390Y-101261904D01*
X144633390Y-101261904D02*
X144442914Y-101214285D01*
X144442914Y-101214285D02*
X144347676Y-101166666D01*
X144347676Y-101166666D02*
X144252438Y-101071428D01*
X144252438Y-101071428D02*
X144204819Y-100928571D01*
X144204819Y-100928571D02*
X144204819Y-100833333D01*
X144204819Y-100833333D02*
X144252438Y-100690476D01*
X144252438Y-100690476D02*
X144300057Y-100642857D01*
X144538152Y-99785714D02*
X145204819Y-99785714D01*
X144157200Y-100023809D02*
X144871485Y-100261904D01*
X144871485Y-100261904D02*
X144871485Y-99642857D01*
X144204819Y-99071428D02*
X144204819Y-98976190D01*
X144204819Y-98976190D02*
X144252438Y-98880952D01*
X144252438Y-98880952D02*
X144300057Y-98833333D01*
X144300057Y-98833333D02*
X144395295Y-98785714D01*
X144395295Y-98785714D02*
X144585771Y-98738095D01*
X144585771Y-98738095D02*
X144823866Y-98738095D01*
X144823866Y-98738095D02*
X145014342Y-98785714D01*
X145014342Y-98785714D02*
X145109580Y-98833333D01*
X145109580Y-98833333D02*
X145157200Y-98880952D01*
X145157200Y-98880952D02*
X145204819Y-98976190D01*
X145204819Y-98976190D02*
X145204819Y-99071428D01*
X145204819Y-99071428D02*
X145157200Y-99166666D01*
X145157200Y-99166666D02*
X145109580Y-99214285D01*
X145109580Y-99214285D02*
X145014342Y-99261904D01*
X145014342Y-99261904D02*
X144823866Y-99309523D01*
X144823866Y-99309523D02*
X144585771Y-99309523D01*
X144585771Y-99309523D02*
X144395295Y-99261904D01*
X144395295Y-99261904D02*
X144300057Y-99214285D01*
X144300057Y-99214285D02*
X144252438Y-99166666D01*
X144252438Y-99166666D02*
X144204819Y-99071428D01*
X124261905Y-112454819D02*
X124261905Y-111454819D01*
X124261905Y-111454819D02*
X124500000Y-111454819D01*
X124500000Y-111454819D02*
X124642857Y-111502438D01*
X124642857Y-111502438D02*
X124738095Y-111597676D01*
X124738095Y-111597676D02*
X124785714Y-111692914D01*
X124785714Y-111692914D02*
X124833333Y-111883390D01*
X124833333Y-111883390D02*
X124833333Y-112026247D01*
X124833333Y-112026247D02*
X124785714Y-112216723D01*
X124785714Y-112216723D02*
X124738095Y-112311961D01*
X124738095Y-112311961D02*
X124642857Y-112407200D01*
X124642857Y-112407200D02*
X124500000Y-112454819D01*
X124500000Y-112454819D02*
X124261905Y-112454819D01*
X125214286Y-111550057D02*
X125261905Y-111502438D01*
X125261905Y-111502438D02*
X125357143Y-111454819D01*
X125357143Y-111454819D02*
X125595238Y-111454819D01*
X125595238Y-111454819D02*
X125690476Y-111502438D01*
X125690476Y-111502438D02*
X125738095Y-111550057D01*
X125738095Y-111550057D02*
X125785714Y-111645295D01*
X125785714Y-111645295D02*
X125785714Y-111740533D01*
X125785714Y-111740533D02*
X125738095Y-111883390D01*
X125738095Y-111883390D02*
X125166667Y-112454819D01*
X125166667Y-112454819D02*
X125785714Y-112454819D01*
X124359580Y-100892857D02*
X124407200Y-100940476D01*
X124407200Y-100940476D02*
X124454819Y-101083333D01*
X124454819Y-101083333D02*
X124454819Y-101178571D01*
X124454819Y-101178571D02*
X124407200Y-101321428D01*
X124407200Y-101321428D02*
X124311961Y-101416666D01*
X124311961Y-101416666D02*
X124216723Y-101464285D01*
X124216723Y-101464285D02*
X124026247Y-101511904D01*
X124026247Y-101511904D02*
X123883390Y-101511904D01*
X123883390Y-101511904D02*
X123692914Y-101464285D01*
X123692914Y-101464285D02*
X123597676Y-101416666D01*
X123597676Y-101416666D02*
X123502438Y-101321428D01*
X123502438Y-101321428D02*
X123454819Y-101178571D01*
X123454819Y-101178571D02*
X123454819Y-101083333D01*
X123454819Y-101083333D02*
X123502438Y-100940476D01*
X123502438Y-100940476D02*
X123550057Y-100892857D01*
X123550057Y-100511904D02*
X123502438Y-100464285D01*
X123502438Y-100464285D02*
X123454819Y-100369047D01*
X123454819Y-100369047D02*
X123454819Y-100130952D01*
X123454819Y-100130952D02*
X123502438Y-100035714D01*
X123502438Y-100035714D02*
X123550057Y-99988095D01*
X123550057Y-99988095D02*
X123645295Y-99940476D01*
X123645295Y-99940476D02*
X123740533Y-99940476D01*
X123740533Y-99940476D02*
X123883390Y-99988095D01*
X123883390Y-99988095D02*
X124454819Y-100559523D01*
X124454819Y-100559523D02*
X124454819Y-99940476D01*
X123550057Y-99559523D02*
X123502438Y-99511904D01*
X123502438Y-99511904D02*
X123454819Y-99416666D01*
X123454819Y-99416666D02*
X123454819Y-99178571D01*
X123454819Y-99178571D02*
X123502438Y-99083333D01*
X123502438Y-99083333D02*
X123550057Y-99035714D01*
X123550057Y-99035714D02*
X123645295Y-98988095D01*
X123645295Y-98988095D02*
X123740533Y-98988095D01*
X123740533Y-98988095D02*
X123883390Y-99035714D01*
X123883390Y-99035714D02*
X124454819Y-99607142D01*
X124454819Y-99607142D02*
X124454819Y-98988095D01*
X125357142Y-84859580D02*
X125309523Y-84907200D01*
X125309523Y-84907200D02*
X125166666Y-84954819D01*
X125166666Y-84954819D02*
X125071428Y-84954819D01*
X125071428Y-84954819D02*
X124928571Y-84907200D01*
X124928571Y-84907200D02*
X124833333Y-84811961D01*
X124833333Y-84811961D02*
X124785714Y-84716723D01*
X124785714Y-84716723D02*
X124738095Y-84526247D01*
X124738095Y-84526247D02*
X124738095Y-84383390D01*
X124738095Y-84383390D02*
X124785714Y-84192914D01*
X124785714Y-84192914D02*
X124833333Y-84097676D01*
X124833333Y-84097676D02*
X124928571Y-84002438D01*
X124928571Y-84002438D02*
X125071428Y-83954819D01*
X125071428Y-83954819D02*
X125166666Y-83954819D01*
X125166666Y-83954819D02*
X125309523Y-84002438D01*
X125309523Y-84002438D02*
X125357142Y-84050057D01*
X126309523Y-84954819D02*
X125738095Y-84954819D01*
X126023809Y-84954819D02*
X126023809Y-83954819D01*
X126023809Y-83954819D02*
X125928571Y-84097676D01*
X125928571Y-84097676D02*
X125833333Y-84192914D01*
X125833333Y-84192914D02*
X125738095Y-84240533D01*
X126690476Y-84050057D02*
X126738095Y-84002438D01*
X126738095Y-84002438D02*
X126833333Y-83954819D01*
X126833333Y-83954819D02*
X127071428Y-83954819D01*
X127071428Y-83954819D02*
X127166666Y-84002438D01*
X127166666Y-84002438D02*
X127214285Y-84050057D01*
X127214285Y-84050057D02*
X127261904Y-84145295D01*
X127261904Y-84145295D02*
X127261904Y-84240533D01*
X127261904Y-84240533D02*
X127214285Y-84383390D01*
X127214285Y-84383390D02*
X126642857Y-84954819D01*
X126642857Y-84954819D02*
X127261904Y-84954819D01*
X133704819Y-106892857D02*
X133228628Y-107226190D01*
X133704819Y-107464285D02*
X132704819Y-107464285D01*
X132704819Y-107464285D02*
X132704819Y-107083333D01*
X132704819Y-107083333D02*
X132752438Y-106988095D01*
X132752438Y-106988095D02*
X132800057Y-106940476D01*
X132800057Y-106940476D02*
X132895295Y-106892857D01*
X132895295Y-106892857D02*
X133038152Y-106892857D01*
X133038152Y-106892857D02*
X133133390Y-106940476D01*
X133133390Y-106940476D02*
X133181009Y-106988095D01*
X133181009Y-106988095D02*
X133228628Y-107083333D01*
X133228628Y-107083333D02*
X133228628Y-107464285D01*
X133704819Y-105940476D02*
X133704819Y-106511904D01*
X133704819Y-106226190D02*
X132704819Y-106226190D01*
X132704819Y-106226190D02*
X132847676Y-106321428D01*
X132847676Y-106321428D02*
X132942914Y-106416666D01*
X132942914Y-106416666D02*
X132990533Y-106511904D01*
X132704819Y-105607142D02*
X132704819Y-104940476D01*
X132704819Y-104940476D02*
X133704819Y-105369047D01*
X114166666Y-83954819D02*
X114166666Y-84669104D01*
X114166666Y-84669104D02*
X114119047Y-84811961D01*
X114119047Y-84811961D02*
X114023809Y-84907200D01*
X114023809Y-84907200D02*
X113880952Y-84954819D01*
X113880952Y-84954819D02*
X113785714Y-84954819D01*
X115166666Y-84954819D02*
X114595238Y-84954819D01*
X114880952Y-84954819D02*
X114880952Y-83954819D01*
X114880952Y-83954819D02*
X114785714Y-84097676D01*
X114785714Y-84097676D02*
X114690476Y-84192914D01*
X114690476Y-84192914D02*
X114595238Y-84240533D01*
X158666667Y-103157200D02*
X158809524Y-103204819D01*
X158809524Y-103204819D02*
X159047619Y-103204819D01*
X159047619Y-103204819D02*
X159142857Y-103157200D01*
X159142857Y-103157200D02*
X159190476Y-103109580D01*
X159190476Y-103109580D02*
X159238095Y-103014342D01*
X159238095Y-103014342D02*
X159238095Y-102919104D01*
X159238095Y-102919104D02*
X159190476Y-102823866D01*
X159190476Y-102823866D02*
X159142857Y-102776247D01*
X159142857Y-102776247D02*
X159047619Y-102728628D01*
X159047619Y-102728628D02*
X158857143Y-102681009D01*
X158857143Y-102681009D02*
X158761905Y-102633390D01*
X158761905Y-102633390D02*
X158714286Y-102585771D01*
X158714286Y-102585771D02*
X158666667Y-102490533D01*
X158666667Y-102490533D02*
X158666667Y-102395295D01*
X158666667Y-102395295D02*
X158714286Y-102300057D01*
X158714286Y-102300057D02*
X158761905Y-102252438D01*
X158761905Y-102252438D02*
X158857143Y-102204819D01*
X158857143Y-102204819D02*
X159095238Y-102204819D01*
X159095238Y-102204819D02*
X159238095Y-102252438D01*
X159571429Y-102204819D02*
X159809524Y-103204819D01*
X159809524Y-103204819D02*
X160000000Y-102490533D01*
X160000000Y-102490533D02*
X160190476Y-103204819D01*
X160190476Y-103204819D02*
X160428572Y-102204819D01*
X160761905Y-102300057D02*
X160809524Y-102252438D01*
X160809524Y-102252438D02*
X160904762Y-102204819D01*
X160904762Y-102204819D02*
X161142857Y-102204819D01*
X161142857Y-102204819D02*
X161238095Y-102252438D01*
X161238095Y-102252438D02*
X161285714Y-102300057D01*
X161285714Y-102300057D02*
X161333333Y-102395295D01*
X161333333Y-102395295D02*
X161333333Y-102490533D01*
X161333333Y-102490533D02*
X161285714Y-102633390D01*
X161285714Y-102633390D02*
X160714286Y-103204819D01*
X160714286Y-103204819D02*
X161333333Y-103204819D01*
X129154761Y-107300057D02*
X129059523Y-107252438D01*
X129059523Y-107252438D02*
X128964285Y-107157200D01*
X128964285Y-107157200D02*
X128821428Y-107014342D01*
X128821428Y-107014342D02*
X128726190Y-106966723D01*
X128726190Y-106966723D02*
X128630952Y-106966723D01*
X128678571Y-107204819D02*
X128583333Y-107157200D01*
X128583333Y-107157200D02*
X128488095Y-107061961D01*
X128488095Y-107061961D02*
X128440476Y-106871485D01*
X128440476Y-106871485D02*
X128440476Y-106538152D01*
X128440476Y-106538152D02*
X128488095Y-106347676D01*
X128488095Y-106347676D02*
X128583333Y-106252438D01*
X128583333Y-106252438D02*
X128678571Y-106204819D01*
X128678571Y-106204819D02*
X128869047Y-106204819D01*
X128869047Y-106204819D02*
X128964285Y-106252438D01*
X128964285Y-106252438D02*
X129059523Y-106347676D01*
X129059523Y-106347676D02*
X129107142Y-106538152D01*
X129107142Y-106538152D02*
X129107142Y-106871485D01*
X129107142Y-106871485D02*
X129059523Y-107061961D01*
X129059523Y-107061961D02*
X128964285Y-107157200D01*
X128964285Y-107157200D02*
X128869047Y-107204819D01*
X128869047Y-107204819D02*
X128678571Y-107204819D01*
X129440476Y-106204819D02*
X130059523Y-106204819D01*
X130059523Y-106204819D02*
X129726190Y-106585771D01*
X129726190Y-106585771D02*
X129869047Y-106585771D01*
X129869047Y-106585771D02*
X129964285Y-106633390D01*
X129964285Y-106633390D02*
X130011904Y-106681009D01*
X130011904Y-106681009D02*
X130059523Y-106776247D01*
X130059523Y-106776247D02*
X130059523Y-107014342D01*
X130059523Y-107014342D02*
X130011904Y-107109580D01*
X130011904Y-107109580D02*
X129964285Y-107157200D01*
X129964285Y-107157200D02*
X129869047Y-107204819D01*
X129869047Y-107204819D02*
X129583333Y-107204819D01*
X129583333Y-107204819D02*
X129488095Y-107157200D01*
X129488095Y-107157200D02*
X129440476Y-107109580D01*
X176166666Y-98954819D02*
X176166666Y-99669104D01*
X176166666Y-99669104D02*
X176119047Y-99811961D01*
X176119047Y-99811961D02*
X176023809Y-99907200D01*
X176023809Y-99907200D02*
X175880952Y-99954819D01*
X175880952Y-99954819D02*
X175785714Y-99954819D01*
X177071428Y-99288152D02*
X177071428Y-99954819D01*
X176833333Y-98907200D02*
X176595238Y-99621485D01*
X176595238Y-99621485D02*
X177214285Y-99621485D01*
X127359580Y-100867857D02*
X127407200Y-100915476D01*
X127407200Y-100915476D02*
X127454819Y-101058333D01*
X127454819Y-101058333D02*
X127454819Y-101153571D01*
X127454819Y-101153571D02*
X127407200Y-101296428D01*
X127407200Y-101296428D02*
X127311961Y-101391666D01*
X127311961Y-101391666D02*
X127216723Y-101439285D01*
X127216723Y-101439285D02*
X127026247Y-101486904D01*
X127026247Y-101486904D02*
X126883390Y-101486904D01*
X126883390Y-101486904D02*
X126692914Y-101439285D01*
X126692914Y-101439285D02*
X126597676Y-101391666D01*
X126597676Y-101391666D02*
X126502438Y-101296428D01*
X126502438Y-101296428D02*
X126454819Y-101153571D01*
X126454819Y-101153571D02*
X126454819Y-101058333D01*
X126454819Y-101058333D02*
X126502438Y-100915476D01*
X126502438Y-100915476D02*
X126550057Y-100867857D01*
X126550057Y-100486904D02*
X126502438Y-100439285D01*
X126502438Y-100439285D02*
X126454819Y-100344047D01*
X126454819Y-100344047D02*
X126454819Y-100105952D01*
X126454819Y-100105952D02*
X126502438Y-100010714D01*
X126502438Y-100010714D02*
X126550057Y-99963095D01*
X126550057Y-99963095D02*
X126645295Y-99915476D01*
X126645295Y-99915476D02*
X126740533Y-99915476D01*
X126740533Y-99915476D02*
X126883390Y-99963095D01*
X126883390Y-99963095D02*
X127454819Y-100534523D01*
X127454819Y-100534523D02*
X127454819Y-99915476D01*
X126788152Y-99058333D02*
X127454819Y-99058333D01*
X126407200Y-99296428D02*
X127121485Y-99534523D01*
X127121485Y-99534523D02*
X127121485Y-98915476D01*
X148859580Y-100892857D02*
X148907200Y-100940476D01*
X148907200Y-100940476D02*
X148954819Y-101083333D01*
X148954819Y-101083333D02*
X148954819Y-101178571D01*
X148954819Y-101178571D02*
X148907200Y-101321428D01*
X148907200Y-101321428D02*
X148811961Y-101416666D01*
X148811961Y-101416666D02*
X148716723Y-101464285D01*
X148716723Y-101464285D02*
X148526247Y-101511904D01*
X148526247Y-101511904D02*
X148383390Y-101511904D01*
X148383390Y-101511904D02*
X148192914Y-101464285D01*
X148192914Y-101464285D02*
X148097676Y-101416666D01*
X148097676Y-101416666D02*
X148002438Y-101321428D01*
X148002438Y-101321428D02*
X147954819Y-101178571D01*
X147954819Y-101178571D02*
X147954819Y-101083333D01*
X147954819Y-101083333D02*
X148002438Y-100940476D01*
X148002438Y-100940476D02*
X148050057Y-100892857D01*
X148954819Y-99940476D02*
X148954819Y-100511904D01*
X148954819Y-100226190D02*
X147954819Y-100226190D01*
X147954819Y-100226190D02*
X148097676Y-100321428D01*
X148097676Y-100321428D02*
X148192914Y-100416666D01*
X148192914Y-100416666D02*
X148240533Y-100511904D01*
X147954819Y-99083333D02*
X147954819Y-99273809D01*
X147954819Y-99273809D02*
X148002438Y-99369047D01*
X148002438Y-99369047D02*
X148050057Y-99416666D01*
X148050057Y-99416666D02*
X148192914Y-99511904D01*
X148192914Y-99511904D02*
X148383390Y-99559523D01*
X148383390Y-99559523D02*
X148764342Y-99559523D01*
X148764342Y-99559523D02*
X148859580Y-99511904D01*
X148859580Y-99511904D02*
X148907200Y-99464285D01*
X148907200Y-99464285D02*
X148954819Y-99369047D01*
X148954819Y-99369047D02*
X148954819Y-99178571D01*
X148954819Y-99178571D02*
X148907200Y-99083333D01*
X148907200Y-99083333D02*
X148859580Y-99035714D01*
X148859580Y-99035714D02*
X148764342Y-98988095D01*
X148764342Y-98988095D02*
X148526247Y-98988095D01*
X148526247Y-98988095D02*
X148431009Y-99035714D01*
X148431009Y-99035714D02*
X148383390Y-99083333D01*
X148383390Y-99083333D02*
X148335771Y-99178571D01*
X148335771Y-99178571D02*
X148335771Y-99369047D01*
X148335771Y-99369047D02*
X148383390Y-99464285D01*
X148383390Y-99464285D02*
X148431009Y-99511904D01*
X148431009Y-99511904D02*
X148526247Y-99559523D01*
X150359580Y-100892857D02*
X150407200Y-100940476D01*
X150407200Y-100940476D02*
X150454819Y-101083333D01*
X150454819Y-101083333D02*
X150454819Y-101178571D01*
X150454819Y-101178571D02*
X150407200Y-101321428D01*
X150407200Y-101321428D02*
X150311961Y-101416666D01*
X150311961Y-101416666D02*
X150216723Y-101464285D01*
X150216723Y-101464285D02*
X150026247Y-101511904D01*
X150026247Y-101511904D02*
X149883390Y-101511904D01*
X149883390Y-101511904D02*
X149692914Y-101464285D01*
X149692914Y-101464285D02*
X149597676Y-101416666D01*
X149597676Y-101416666D02*
X149502438Y-101321428D01*
X149502438Y-101321428D02*
X149454819Y-101178571D01*
X149454819Y-101178571D02*
X149454819Y-101083333D01*
X149454819Y-101083333D02*
X149502438Y-100940476D01*
X149502438Y-100940476D02*
X149550057Y-100892857D01*
X150454819Y-99940476D02*
X150454819Y-100511904D01*
X150454819Y-100226190D02*
X149454819Y-100226190D01*
X149454819Y-100226190D02*
X149597676Y-100321428D01*
X149597676Y-100321428D02*
X149692914Y-100416666D01*
X149692914Y-100416666D02*
X149740533Y-100511904D01*
X149454819Y-99607142D02*
X149454819Y-98940476D01*
X149454819Y-98940476D02*
X150454819Y-99369047D01*
X117607142Y-136109580D02*
X117559523Y-136157200D01*
X117559523Y-136157200D02*
X117416666Y-136204819D01*
X117416666Y-136204819D02*
X117321428Y-136204819D01*
X117321428Y-136204819D02*
X117178571Y-136157200D01*
X117178571Y-136157200D02*
X117083333Y-136061961D01*
X117083333Y-136061961D02*
X117035714Y-135966723D01*
X117035714Y-135966723D02*
X116988095Y-135776247D01*
X116988095Y-135776247D02*
X116988095Y-135633390D01*
X116988095Y-135633390D02*
X117035714Y-135442914D01*
X117035714Y-135442914D02*
X117083333Y-135347676D01*
X117083333Y-135347676D02*
X117178571Y-135252438D01*
X117178571Y-135252438D02*
X117321428Y-135204819D01*
X117321428Y-135204819D02*
X117416666Y-135204819D01*
X117416666Y-135204819D02*
X117559523Y-135252438D01*
X117559523Y-135252438D02*
X117607142Y-135300057D01*
X117940476Y-135204819D02*
X118559523Y-135204819D01*
X118559523Y-135204819D02*
X118226190Y-135585771D01*
X118226190Y-135585771D02*
X118369047Y-135585771D01*
X118369047Y-135585771D02*
X118464285Y-135633390D01*
X118464285Y-135633390D02*
X118511904Y-135681009D01*
X118511904Y-135681009D02*
X118559523Y-135776247D01*
X118559523Y-135776247D02*
X118559523Y-136014342D01*
X118559523Y-136014342D02*
X118511904Y-136109580D01*
X118511904Y-136109580D02*
X118464285Y-136157200D01*
X118464285Y-136157200D02*
X118369047Y-136204819D01*
X118369047Y-136204819D02*
X118083333Y-136204819D01*
X118083333Y-136204819D02*
X117988095Y-136157200D01*
X117988095Y-136157200D02*
X117940476Y-136109580D01*
X119178571Y-135204819D02*
X119273809Y-135204819D01*
X119273809Y-135204819D02*
X119369047Y-135252438D01*
X119369047Y-135252438D02*
X119416666Y-135300057D01*
X119416666Y-135300057D02*
X119464285Y-135395295D01*
X119464285Y-135395295D02*
X119511904Y-135585771D01*
X119511904Y-135585771D02*
X119511904Y-135823866D01*
X119511904Y-135823866D02*
X119464285Y-136014342D01*
X119464285Y-136014342D02*
X119416666Y-136109580D01*
X119416666Y-136109580D02*
X119369047Y-136157200D01*
X119369047Y-136157200D02*
X119273809Y-136204819D01*
X119273809Y-136204819D02*
X119178571Y-136204819D01*
X119178571Y-136204819D02*
X119083333Y-136157200D01*
X119083333Y-136157200D02*
X119035714Y-136109580D01*
X119035714Y-136109580D02*
X118988095Y-136014342D01*
X118988095Y-136014342D02*
X118940476Y-135823866D01*
X118940476Y-135823866D02*
X118940476Y-135585771D01*
X118940476Y-135585771D02*
X118988095Y-135395295D01*
X118988095Y-135395295D02*
X119035714Y-135300057D01*
X119035714Y-135300057D02*
X119083333Y-135252438D01*
X119083333Y-135252438D02*
X119178571Y-135204819D01*
X129204819Y-133511904D02*
X129204819Y-132940476D01*
X130204819Y-133226190D02*
X129204819Y-133226190D01*
X130204819Y-132607142D02*
X129204819Y-132607142D01*
X129204819Y-132607142D02*
X129204819Y-132226190D01*
X129204819Y-132226190D02*
X129252438Y-132130952D01*
X129252438Y-132130952D02*
X129300057Y-132083333D01*
X129300057Y-132083333D02*
X129395295Y-132035714D01*
X129395295Y-132035714D02*
X129538152Y-132035714D01*
X129538152Y-132035714D02*
X129633390Y-132083333D01*
X129633390Y-132083333D02*
X129681009Y-132130952D01*
X129681009Y-132130952D02*
X129728628Y-132226190D01*
X129728628Y-132226190D02*
X129728628Y-132607142D01*
X129300057Y-131654761D02*
X129252438Y-131607142D01*
X129252438Y-131607142D02*
X129204819Y-131511904D01*
X129204819Y-131511904D02*
X129204819Y-131273809D01*
X129204819Y-131273809D02*
X129252438Y-131178571D01*
X129252438Y-131178571D02*
X129300057Y-131130952D01*
X129300057Y-131130952D02*
X129395295Y-131083333D01*
X129395295Y-131083333D02*
X129490533Y-131083333D01*
X129490533Y-131083333D02*
X129633390Y-131130952D01*
X129633390Y-131130952D02*
X130204819Y-131702380D01*
X130204819Y-131702380D02*
X130204819Y-131083333D01*
X161204819Y-106416666D02*
X161204819Y-106892856D01*
X161204819Y-106892856D02*
X160204819Y-106892856D01*
X161204819Y-105559523D02*
X161204819Y-106130951D01*
X161204819Y-105845237D02*
X160204819Y-105845237D01*
X160204819Y-105845237D02*
X160347676Y-105940475D01*
X160347676Y-105940475D02*
X160442914Y-106035713D01*
X160442914Y-106035713D02*
X160490533Y-106130951D01*
X154261905Y-112454819D02*
X154261905Y-111454819D01*
X154261905Y-111454819D02*
X154500000Y-111454819D01*
X154500000Y-111454819D02*
X154642857Y-111502438D01*
X154642857Y-111502438D02*
X154738095Y-111597676D01*
X154738095Y-111597676D02*
X154785714Y-111692914D01*
X154785714Y-111692914D02*
X154833333Y-111883390D01*
X154833333Y-111883390D02*
X154833333Y-112026247D01*
X154833333Y-112026247D02*
X154785714Y-112216723D01*
X154785714Y-112216723D02*
X154738095Y-112311961D01*
X154738095Y-112311961D02*
X154642857Y-112407200D01*
X154642857Y-112407200D02*
X154500000Y-112454819D01*
X154500000Y-112454819D02*
X154261905Y-112454819D01*
X155785714Y-112454819D02*
X155214286Y-112454819D01*
X155500000Y-112454819D02*
X155500000Y-111454819D01*
X155500000Y-111454819D02*
X155404762Y-111597676D01*
X155404762Y-111597676D02*
X155309524Y-111692914D01*
X155309524Y-111692914D02*
X155214286Y-111740533D01*
X141954819Y-98892857D02*
X141478628Y-99226190D01*
X141954819Y-99464285D02*
X140954819Y-99464285D01*
X140954819Y-99464285D02*
X140954819Y-99083333D01*
X140954819Y-99083333D02*
X141002438Y-98988095D01*
X141002438Y-98988095D02*
X141050057Y-98940476D01*
X141050057Y-98940476D02*
X141145295Y-98892857D01*
X141145295Y-98892857D02*
X141288152Y-98892857D01*
X141288152Y-98892857D02*
X141383390Y-98940476D01*
X141383390Y-98940476D02*
X141431009Y-98988095D01*
X141431009Y-98988095D02*
X141478628Y-99083333D01*
X141478628Y-99083333D02*
X141478628Y-99464285D01*
X141954819Y-97940476D02*
X141954819Y-98511904D01*
X141954819Y-98226190D02*
X140954819Y-98226190D01*
X140954819Y-98226190D02*
X141097676Y-98321428D01*
X141097676Y-98321428D02*
X141192914Y-98416666D01*
X141192914Y-98416666D02*
X141240533Y-98511904D01*
X141050057Y-97559523D02*
X141002438Y-97511904D01*
X141002438Y-97511904D02*
X140954819Y-97416666D01*
X140954819Y-97416666D02*
X140954819Y-97178571D01*
X140954819Y-97178571D02*
X141002438Y-97083333D01*
X141002438Y-97083333D02*
X141050057Y-97035714D01*
X141050057Y-97035714D02*
X141145295Y-96988095D01*
X141145295Y-96988095D02*
X141240533Y-96988095D01*
X141240533Y-96988095D02*
X141383390Y-97035714D01*
X141383390Y-97035714D02*
X141954819Y-97607142D01*
X141954819Y-97607142D02*
X141954819Y-96988095D01*
X131859580Y-100892857D02*
X131907200Y-100940476D01*
X131907200Y-100940476D02*
X131954819Y-101083333D01*
X131954819Y-101083333D02*
X131954819Y-101178571D01*
X131954819Y-101178571D02*
X131907200Y-101321428D01*
X131907200Y-101321428D02*
X131811961Y-101416666D01*
X131811961Y-101416666D02*
X131716723Y-101464285D01*
X131716723Y-101464285D02*
X131526247Y-101511904D01*
X131526247Y-101511904D02*
X131383390Y-101511904D01*
X131383390Y-101511904D02*
X131192914Y-101464285D01*
X131192914Y-101464285D02*
X131097676Y-101416666D01*
X131097676Y-101416666D02*
X131002438Y-101321428D01*
X131002438Y-101321428D02*
X130954819Y-101178571D01*
X130954819Y-101178571D02*
X130954819Y-101083333D01*
X130954819Y-101083333D02*
X131002438Y-100940476D01*
X131002438Y-100940476D02*
X131050057Y-100892857D01*
X131050057Y-100511904D02*
X131002438Y-100464285D01*
X131002438Y-100464285D02*
X130954819Y-100369047D01*
X130954819Y-100369047D02*
X130954819Y-100130952D01*
X130954819Y-100130952D02*
X131002438Y-100035714D01*
X131002438Y-100035714D02*
X131050057Y-99988095D01*
X131050057Y-99988095D02*
X131145295Y-99940476D01*
X131145295Y-99940476D02*
X131240533Y-99940476D01*
X131240533Y-99940476D02*
X131383390Y-99988095D01*
X131383390Y-99988095D02*
X131954819Y-100559523D01*
X131954819Y-100559523D02*
X131954819Y-99940476D01*
X130954819Y-99607142D02*
X130954819Y-98940476D01*
X130954819Y-98940476D02*
X131954819Y-99369047D01*
X150654761Y-107300057D02*
X150559523Y-107252438D01*
X150559523Y-107252438D02*
X150464285Y-107157200D01*
X150464285Y-107157200D02*
X150321428Y-107014342D01*
X150321428Y-107014342D02*
X150226190Y-106966723D01*
X150226190Y-106966723D02*
X150130952Y-106966723D01*
X150178571Y-107204819D02*
X150083333Y-107157200D01*
X150083333Y-107157200D02*
X149988095Y-107061961D01*
X149988095Y-107061961D02*
X149940476Y-106871485D01*
X149940476Y-106871485D02*
X149940476Y-106538152D01*
X149940476Y-106538152D02*
X149988095Y-106347676D01*
X149988095Y-106347676D02*
X150083333Y-106252438D01*
X150083333Y-106252438D02*
X150178571Y-106204819D01*
X150178571Y-106204819D02*
X150369047Y-106204819D01*
X150369047Y-106204819D02*
X150464285Y-106252438D01*
X150464285Y-106252438D02*
X150559523Y-106347676D01*
X150559523Y-106347676D02*
X150607142Y-106538152D01*
X150607142Y-106538152D02*
X150607142Y-106871485D01*
X150607142Y-106871485D02*
X150559523Y-107061961D01*
X150559523Y-107061961D02*
X150464285Y-107157200D01*
X150464285Y-107157200D02*
X150369047Y-107204819D01*
X150369047Y-107204819D02*
X150178571Y-107204819D01*
X151559523Y-107204819D02*
X150988095Y-107204819D01*
X151273809Y-107204819D02*
X151273809Y-106204819D01*
X151273809Y-106204819D02*
X151178571Y-106347676D01*
X151178571Y-106347676D02*
X151083333Y-106442914D01*
X151083333Y-106442914D02*
X150988095Y-106490533D01*
X133357142Y-117204819D02*
X133023809Y-116728628D01*
X132785714Y-117204819D02*
X132785714Y-116204819D01*
X132785714Y-116204819D02*
X133166666Y-116204819D01*
X133166666Y-116204819D02*
X133261904Y-116252438D01*
X133261904Y-116252438D02*
X133309523Y-116300057D01*
X133309523Y-116300057D02*
X133357142Y-116395295D01*
X133357142Y-116395295D02*
X133357142Y-116538152D01*
X133357142Y-116538152D02*
X133309523Y-116633390D01*
X133309523Y-116633390D02*
X133261904Y-116681009D01*
X133261904Y-116681009D02*
X133166666Y-116728628D01*
X133166666Y-116728628D02*
X132785714Y-116728628D01*
X133738095Y-116300057D02*
X133785714Y-116252438D01*
X133785714Y-116252438D02*
X133880952Y-116204819D01*
X133880952Y-116204819D02*
X134119047Y-116204819D01*
X134119047Y-116204819D02*
X134214285Y-116252438D01*
X134214285Y-116252438D02*
X134261904Y-116300057D01*
X134261904Y-116300057D02*
X134309523Y-116395295D01*
X134309523Y-116395295D02*
X134309523Y-116490533D01*
X134309523Y-116490533D02*
X134261904Y-116633390D01*
X134261904Y-116633390D02*
X133690476Y-117204819D01*
X133690476Y-117204819D02*
X134309523Y-117204819D01*
X134690476Y-116300057D02*
X134738095Y-116252438D01*
X134738095Y-116252438D02*
X134833333Y-116204819D01*
X134833333Y-116204819D02*
X135071428Y-116204819D01*
X135071428Y-116204819D02*
X135166666Y-116252438D01*
X135166666Y-116252438D02*
X135214285Y-116300057D01*
X135214285Y-116300057D02*
X135261904Y-116395295D01*
X135261904Y-116395295D02*
X135261904Y-116490533D01*
X135261904Y-116490533D02*
X135214285Y-116633390D01*
X135214285Y-116633390D02*
X134642857Y-117204819D01*
X134642857Y-117204819D02*
X135261904Y-117204819D01*
X128904761Y-117300057D02*
X128809523Y-117252438D01*
X128809523Y-117252438D02*
X128714285Y-117157200D01*
X128714285Y-117157200D02*
X128571428Y-117014342D01*
X128571428Y-117014342D02*
X128476190Y-116966723D01*
X128476190Y-116966723D02*
X128380952Y-116966723D01*
X128428571Y-117204819D02*
X128333333Y-117157200D01*
X128333333Y-117157200D02*
X128238095Y-117061961D01*
X128238095Y-117061961D02*
X128190476Y-116871485D01*
X128190476Y-116871485D02*
X128190476Y-116538152D01*
X128190476Y-116538152D02*
X128238095Y-116347676D01*
X128238095Y-116347676D02*
X128333333Y-116252438D01*
X128333333Y-116252438D02*
X128428571Y-116204819D01*
X128428571Y-116204819D02*
X128619047Y-116204819D01*
X128619047Y-116204819D02*
X128714285Y-116252438D01*
X128714285Y-116252438D02*
X128809523Y-116347676D01*
X128809523Y-116347676D02*
X128857142Y-116538152D01*
X128857142Y-116538152D02*
X128857142Y-116871485D01*
X128857142Y-116871485D02*
X128809523Y-117061961D01*
X128809523Y-117061961D02*
X128714285Y-117157200D01*
X128714285Y-117157200D02*
X128619047Y-117204819D01*
X128619047Y-117204819D02*
X128428571Y-117204819D01*
X129714285Y-116538152D02*
X129714285Y-117204819D01*
X129476190Y-116157200D02*
X129238095Y-116871485D01*
X129238095Y-116871485D02*
X129857142Y-116871485D01*
X160833333Y-136359580D02*
X160785714Y-136407200D01*
X160785714Y-136407200D02*
X160642857Y-136454819D01*
X160642857Y-136454819D02*
X160547619Y-136454819D01*
X160547619Y-136454819D02*
X160404762Y-136407200D01*
X160404762Y-136407200D02*
X160309524Y-136311961D01*
X160309524Y-136311961D02*
X160261905Y-136216723D01*
X160261905Y-136216723D02*
X160214286Y-136026247D01*
X160214286Y-136026247D02*
X160214286Y-135883390D01*
X160214286Y-135883390D02*
X160261905Y-135692914D01*
X160261905Y-135692914D02*
X160309524Y-135597676D01*
X160309524Y-135597676D02*
X160404762Y-135502438D01*
X160404762Y-135502438D02*
X160547619Y-135454819D01*
X160547619Y-135454819D02*
X160642857Y-135454819D01*
X160642857Y-135454819D02*
X160785714Y-135502438D01*
X160785714Y-135502438D02*
X160833333Y-135550057D01*
X161166667Y-135454819D02*
X161785714Y-135454819D01*
X161785714Y-135454819D02*
X161452381Y-135835771D01*
X161452381Y-135835771D02*
X161595238Y-135835771D01*
X161595238Y-135835771D02*
X161690476Y-135883390D01*
X161690476Y-135883390D02*
X161738095Y-135931009D01*
X161738095Y-135931009D02*
X161785714Y-136026247D01*
X161785714Y-136026247D02*
X161785714Y-136264342D01*
X161785714Y-136264342D02*
X161738095Y-136359580D01*
X161738095Y-136359580D02*
X161690476Y-136407200D01*
X161690476Y-136407200D02*
X161595238Y-136454819D01*
X161595238Y-136454819D02*
X161309524Y-136454819D01*
X161309524Y-136454819D02*
X161214286Y-136407200D01*
X161214286Y-136407200D02*
X161166667Y-136359580D01*
X181166666Y-88954819D02*
X181166666Y-89669104D01*
X181166666Y-89669104D02*
X181119047Y-89811961D01*
X181119047Y-89811961D02*
X181023809Y-89907200D01*
X181023809Y-89907200D02*
X180880952Y-89954819D01*
X180880952Y-89954819D02*
X180785714Y-89954819D01*
X181547619Y-88954819D02*
X182166666Y-88954819D01*
X182166666Y-88954819D02*
X181833333Y-89335771D01*
X181833333Y-89335771D02*
X181976190Y-89335771D01*
X181976190Y-89335771D02*
X182071428Y-89383390D01*
X182071428Y-89383390D02*
X182119047Y-89431009D01*
X182119047Y-89431009D02*
X182166666Y-89526247D01*
X182166666Y-89526247D02*
X182166666Y-89764342D01*
X182166666Y-89764342D02*
X182119047Y-89859580D01*
X182119047Y-89859580D02*
X182071428Y-89907200D01*
X182071428Y-89907200D02*
X181976190Y-89954819D01*
X181976190Y-89954819D02*
X181690476Y-89954819D01*
X181690476Y-89954819D02*
X181595238Y-89907200D01*
X181595238Y-89907200D02*
X181547619Y-89859580D01*
X145833333Y-119704819D02*
X145500000Y-119228628D01*
X145261905Y-119704819D02*
X145261905Y-118704819D01*
X145261905Y-118704819D02*
X145642857Y-118704819D01*
X145642857Y-118704819D02*
X145738095Y-118752438D01*
X145738095Y-118752438D02*
X145785714Y-118800057D01*
X145785714Y-118800057D02*
X145833333Y-118895295D01*
X145833333Y-118895295D02*
X145833333Y-119038152D01*
X145833333Y-119038152D02*
X145785714Y-119133390D01*
X145785714Y-119133390D02*
X145738095Y-119181009D01*
X145738095Y-119181009D02*
X145642857Y-119228628D01*
X145642857Y-119228628D02*
X145261905Y-119228628D01*
X146166667Y-118704819D02*
X146785714Y-118704819D01*
X146785714Y-118704819D02*
X146452381Y-119085771D01*
X146452381Y-119085771D02*
X146595238Y-119085771D01*
X146595238Y-119085771D02*
X146690476Y-119133390D01*
X146690476Y-119133390D02*
X146738095Y-119181009D01*
X146738095Y-119181009D02*
X146785714Y-119276247D01*
X146785714Y-119276247D02*
X146785714Y-119514342D01*
X146785714Y-119514342D02*
X146738095Y-119609580D01*
X146738095Y-119609580D02*
X146690476Y-119657200D01*
X146690476Y-119657200D02*
X146595238Y-119704819D01*
X146595238Y-119704819D02*
X146309524Y-119704819D01*
X146309524Y-119704819D02*
X146214286Y-119657200D01*
X146214286Y-119657200D02*
X146166667Y-119609580D01*
X149704819Y-133511904D02*
X149704819Y-132940476D01*
X150704819Y-133226190D02*
X149704819Y-133226190D01*
X150704819Y-132607142D02*
X149704819Y-132607142D01*
X149704819Y-132607142D02*
X149704819Y-132226190D01*
X149704819Y-132226190D02*
X149752438Y-132130952D01*
X149752438Y-132130952D02*
X149800057Y-132083333D01*
X149800057Y-132083333D02*
X149895295Y-132035714D01*
X149895295Y-132035714D02*
X150038152Y-132035714D01*
X150038152Y-132035714D02*
X150133390Y-132083333D01*
X150133390Y-132083333D02*
X150181009Y-132130952D01*
X150181009Y-132130952D02*
X150228628Y-132226190D01*
X150228628Y-132226190D02*
X150228628Y-132607142D01*
X150704819Y-131083333D02*
X150704819Y-131654761D01*
X150704819Y-131369047D02*
X149704819Y-131369047D01*
X149704819Y-131369047D02*
X149847676Y-131464285D01*
X149847676Y-131464285D02*
X149942914Y-131559523D01*
X149942914Y-131559523D02*
X149990533Y-131654761D01*
X156359580Y-100892857D02*
X156407200Y-100940476D01*
X156407200Y-100940476D02*
X156454819Y-101083333D01*
X156454819Y-101083333D02*
X156454819Y-101178571D01*
X156454819Y-101178571D02*
X156407200Y-101321428D01*
X156407200Y-101321428D02*
X156311961Y-101416666D01*
X156311961Y-101416666D02*
X156216723Y-101464285D01*
X156216723Y-101464285D02*
X156026247Y-101511904D01*
X156026247Y-101511904D02*
X155883390Y-101511904D01*
X155883390Y-101511904D02*
X155692914Y-101464285D01*
X155692914Y-101464285D02*
X155597676Y-101416666D01*
X155597676Y-101416666D02*
X155502438Y-101321428D01*
X155502438Y-101321428D02*
X155454819Y-101178571D01*
X155454819Y-101178571D02*
X155454819Y-101083333D01*
X155454819Y-101083333D02*
X155502438Y-100940476D01*
X155502438Y-100940476D02*
X155550057Y-100892857D01*
X155550057Y-100511904D02*
X155502438Y-100464285D01*
X155502438Y-100464285D02*
X155454819Y-100369047D01*
X155454819Y-100369047D02*
X155454819Y-100130952D01*
X155454819Y-100130952D02*
X155502438Y-100035714D01*
X155502438Y-100035714D02*
X155550057Y-99988095D01*
X155550057Y-99988095D02*
X155645295Y-99940476D01*
X155645295Y-99940476D02*
X155740533Y-99940476D01*
X155740533Y-99940476D02*
X155883390Y-99988095D01*
X155883390Y-99988095D02*
X156454819Y-100559523D01*
X156454819Y-100559523D02*
X156454819Y-99940476D01*
X156454819Y-98988095D02*
X156454819Y-99559523D01*
X156454819Y-99273809D02*
X155454819Y-99273809D01*
X155454819Y-99273809D02*
X155597676Y-99369047D01*
X155597676Y-99369047D02*
X155692914Y-99464285D01*
X155692914Y-99464285D02*
X155740533Y-99559523D01*
X138704819Y-98906666D02*
X138228628Y-99239999D01*
X138704819Y-99478094D02*
X137704819Y-99478094D01*
X137704819Y-99478094D02*
X137704819Y-99097142D01*
X137704819Y-99097142D02*
X137752438Y-99001904D01*
X137752438Y-99001904D02*
X137800057Y-98954285D01*
X137800057Y-98954285D02*
X137895295Y-98906666D01*
X137895295Y-98906666D02*
X138038152Y-98906666D01*
X138038152Y-98906666D02*
X138133390Y-98954285D01*
X138133390Y-98954285D02*
X138181009Y-99001904D01*
X138181009Y-99001904D02*
X138228628Y-99097142D01*
X138228628Y-99097142D02*
X138228628Y-99478094D01*
X137800057Y-98525713D02*
X137752438Y-98478094D01*
X137752438Y-98478094D02*
X137704819Y-98382856D01*
X137704819Y-98382856D02*
X137704819Y-98144761D01*
X137704819Y-98144761D02*
X137752438Y-98049523D01*
X137752438Y-98049523D02*
X137800057Y-98001904D01*
X137800057Y-98001904D02*
X137895295Y-97954285D01*
X137895295Y-97954285D02*
X137990533Y-97954285D01*
X137990533Y-97954285D02*
X138133390Y-98001904D01*
X138133390Y-98001904D02*
X138704819Y-98573332D01*
X138704819Y-98573332D02*
X138704819Y-97954285D01*
X151859580Y-100892857D02*
X151907200Y-100940476D01*
X151907200Y-100940476D02*
X151954819Y-101083333D01*
X151954819Y-101083333D02*
X151954819Y-101178571D01*
X151954819Y-101178571D02*
X151907200Y-101321428D01*
X151907200Y-101321428D02*
X151811961Y-101416666D01*
X151811961Y-101416666D02*
X151716723Y-101464285D01*
X151716723Y-101464285D02*
X151526247Y-101511904D01*
X151526247Y-101511904D02*
X151383390Y-101511904D01*
X151383390Y-101511904D02*
X151192914Y-101464285D01*
X151192914Y-101464285D02*
X151097676Y-101416666D01*
X151097676Y-101416666D02*
X151002438Y-101321428D01*
X151002438Y-101321428D02*
X150954819Y-101178571D01*
X150954819Y-101178571D02*
X150954819Y-101083333D01*
X150954819Y-101083333D02*
X151002438Y-100940476D01*
X151002438Y-100940476D02*
X151050057Y-100892857D01*
X151954819Y-99940476D02*
X151954819Y-100511904D01*
X151954819Y-100226190D02*
X150954819Y-100226190D01*
X150954819Y-100226190D02*
X151097676Y-100321428D01*
X151097676Y-100321428D02*
X151192914Y-100416666D01*
X151192914Y-100416666D02*
X151240533Y-100511904D01*
X151383390Y-99369047D02*
X151335771Y-99464285D01*
X151335771Y-99464285D02*
X151288152Y-99511904D01*
X151288152Y-99511904D02*
X151192914Y-99559523D01*
X151192914Y-99559523D02*
X151145295Y-99559523D01*
X151145295Y-99559523D02*
X151050057Y-99511904D01*
X151050057Y-99511904D02*
X151002438Y-99464285D01*
X151002438Y-99464285D02*
X150954819Y-99369047D01*
X150954819Y-99369047D02*
X150954819Y-99178571D01*
X150954819Y-99178571D02*
X151002438Y-99083333D01*
X151002438Y-99083333D02*
X151050057Y-99035714D01*
X151050057Y-99035714D02*
X151145295Y-98988095D01*
X151145295Y-98988095D02*
X151192914Y-98988095D01*
X151192914Y-98988095D02*
X151288152Y-99035714D01*
X151288152Y-99035714D02*
X151335771Y-99083333D01*
X151335771Y-99083333D02*
X151383390Y-99178571D01*
X151383390Y-99178571D02*
X151383390Y-99369047D01*
X151383390Y-99369047D02*
X151431009Y-99464285D01*
X151431009Y-99464285D02*
X151478628Y-99511904D01*
X151478628Y-99511904D02*
X151573866Y-99559523D01*
X151573866Y-99559523D02*
X151764342Y-99559523D01*
X151764342Y-99559523D02*
X151859580Y-99511904D01*
X151859580Y-99511904D02*
X151907200Y-99464285D01*
X151907200Y-99464285D02*
X151954819Y-99369047D01*
X151954819Y-99369047D02*
X151954819Y-99178571D01*
X151954819Y-99178571D02*
X151907200Y-99083333D01*
X151907200Y-99083333D02*
X151859580Y-99035714D01*
X151859580Y-99035714D02*
X151764342Y-98988095D01*
X151764342Y-98988095D02*
X151573866Y-98988095D01*
X151573866Y-98988095D02*
X151478628Y-99035714D01*
X151478628Y-99035714D02*
X151431009Y-99083333D01*
X151431009Y-99083333D02*
X151383390Y-99178571D01*
X140204819Y-98916666D02*
X139728628Y-99249999D01*
X140204819Y-99488094D02*
X139204819Y-99488094D01*
X139204819Y-99488094D02*
X139204819Y-99107142D01*
X139204819Y-99107142D02*
X139252438Y-99011904D01*
X139252438Y-99011904D02*
X139300057Y-98964285D01*
X139300057Y-98964285D02*
X139395295Y-98916666D01*
X139395295Y-98916666D02*
X139538152Y-98916666D01*
X139538152Y-98916666D02*
X139633390Y-98964285D01*
X139633390Y-98964285D02*
X139681009Y-99011904D01*
X139681009Y-99011904D02*
X139728628Y-99107142D01*
X139728628Y-99107142D02*
X139728628Y-99488094D01*
X140204819Y-97964285D02*
X140204819Y-98535713D01*
X140204819Y-98249999D02*
X139204819Y-98249999D01*
X139204819Y-98249999D02*
X139347676Y-98345237D01*
X139347676Y-98345237D02*
X139442914Y-98440475D01*
X139442914Y-98440475D02*
X139490533Y-98535713D01*
X138714286Y-114204819D02*
X139285714Y-114204819D01*
X139000000Y-115204819D02*
X139000000Y-114204819D01*
X139619048Y-115204819D02*
X139619048Y-114204819D01*
X139619048Y-114681009D02*
X140190476Y-114681009D01*
X140190476Y-115204819D02*
X140190476Y-114204819D01*
X141190476Y-115204819D02*
X140619048Y-115204819D01*
X140904762Y-115204819D02*
X140904762Y-114204819D01*
X140904762Y-114204819D02*
X140809524Y-114347676D01*
X140809524Y-114347676D02*
X140714286Y-114442914D01*
X140714286Y-114442914D02*
X140619048Y-114490533D01*
X146609580Y-100642857D02*
X146657200Y-100690476D01*
X146657200Y-100690476D02*
X146704819Y-100833333D01*
X146704819Y-100833333D02*
X146704819Y-100928571D01*
X146704819Y-100928571D02*
X146657200Y-101071428D01*
X146657200Y-101071428D02*
X146561961Y-101166666D01*
X146561961Y-101166666D02*
X146466723Y-101214285D01*
X146466723Y-101214285D02*
X146276247Y-101261904D01*
X146276247Y-101261904D02*
X146133390Y-101261904D01*
X146133390Y-101261904D02*
X145942914Y-101214285D01*
X145942914Y-101214285D02*
X145847676Y-101166666D01*
X145847676Y-101166666D02*
X145752438Y-101071428D01*
X145752438Y-101071428D02*
X145704819Y-100928571D01*
X145704819Y-100928571D02*
X145704819Y-100833333D01*
X145704819Y-100833333D02*
X145752438Y-100690476D01*
X145752438Y-100690476D02*
X145800057Y-100642857D01*
X145704819Y-100309523D02*
X145704819Y-99690476D01*
X145704819Y-99690476D02*
X146085771Y-100023809D01*
X146085771Y-100023809D02*
X146085771Y-99880952D01*
X146085771Y-99880952D02*
X146133390Y-99785714D01*
X146133390Y-99785714D02*
X146181009Y-99738095D01*
X146181009Y-99738095D02*
X146276247Y-99690476D01*
X146276247Y-99690476D02*
X146514342Y-99690476D01*
X146514342Y-99690476D02*
X146609580Y-99738095D01*
X146609580Y-99738095D02*
X146657200Y-99785714D01*
X146657200Y-99785714D02*
X146704819Y-99880952D01*
X146704819Y-99880952D02*
X146704819Y-100166666D01*
X146704819Y-100166666D02*
X146657200Y-100261904D01*
X146657200Y-100261904D02*
X146609580Y-100309523D01*
X146704819Y-99214285D02*
X146704819Y-99023809D01*
X146704819Y-99023809D02*
X146657200Y-98928571D01*
X146657200Y-98928571D02*
X146609580Y-98880952D01*
X146609580Y-98880952D02*
X146466723Y-98785714D01*
X146466723Y-98785714D02*
X146276247Y-98738095D01*
X146276247Y-98738095D02*
X145895295Y-98738095D01*
X145895295Y-98738095D02*
X145800057Y-98785714D01*
X145800057Y-98785714D02*
X145752438Y-98833333D01*
X145752438Y-98833333D02*
X145704819Y-98928571D01*
X145704819Y-98928571D02*
X145704819Y-99119047D01*
X145704819Y-99119047D02*
X145752438Y-99214285D01*
X145752438Y-99214285D02*
X145800057Y-99261904D01*
X145800057Y-99261904D02*
X145895295Y-99309523D01*
X145895295Y-99309523D02*
X146133390Y-99309523D01*
X146133390Y-99309523D02*
X146228628Y-99261904D01*
X146228628Y-99261904D02*
X146276247Y-99214285D01*
X146276247Y-99214285D02*
X146323866Y-99119047D01*
X146323866Y-99119047D02*
X146323866Y-98928571D01*
X146323866Y-98928571D02*
X146276247Y-98833333D01*
X146276247Y-98833333D02*
X146228628Y-98785714D01*
X146228628Y-98785714D02*
X146133390Y-98738095D01*
X119704819Y-106416666D02*
X119704819Y-106892856D01*
X119704819Y-106892856D02*
X118704819Y-106892856D01*
X118800057Y-106130951D02*
X118752438Y-106083332D01*
X118752438Y-106083332D02*
X118704819Y-105988094D01*
X118704819Y-105988094D02*
X118704819Y-105749999D01*
X118704819Y-105749999D02*
X118752438Y-105654761D01*
X118752438Y-105654761D02*
X118800057Y-105607142D01*
X118800057Y-105607142D02*
X118895295Y-105559523D01*
X118895295Y-105559523D02*
X118990533Y-105559523D01*
X118990533Y-105559523D02*
X119133390Y-105607142D01*
X119133390Y-105607142D02*
X119704819Y-106178570D01*
X119704819Y-106178570D02*
X119704819Y-105559523D01*
X145833333Y-122704819D02*
X145500000Y-122228628D01*
X145261905Y-122704819D02*
X145261905Y-121704819D01*
X145261905Y-121704819D02*
X145642857Y-121704819D01*
X145642857Y-121704819D02*
X145738095Y-121752438D01*
X145738095Y-121752438D02*
X145785714Y-121800057D01*
X145785714Y-121800057D02*
X145833333Y-121895295D01*
X145833333Y-121895295D02*
X145833333Y-122038152D01*
X145833333Y-122038152D02*
X145785714Y-122133390D01*
X145785714Y-122133390D02*
X145738095Y-122181009D01*
X145738095Y-122181009D02*
X145642857Y-122228628D01*
X145642857Y-122228628D02*
X145261905Y-122228628D01*
X146166667Y-121704819D02*
X146833333Y-121704819D01*
X146833333Y-121704819D02*
X146404762Y-122704819D01*
X166607142Y-84859580D02*
X166559523Y-84907200D01*
X166559523Y-84907200D02*
X166416666Y-84954819D01*
X166416666Y-84954819D02*
X166321428Y-84954819D01*
X166321428Y-84954819D02*
X166178571Y-84907200D01*
X166178571Y-84907200D02*
X166083333Y-84811961D01*
X166083333Y-84811961D02*
X166035714Y-84716723D01*
X166035714Y-84716723D02*
X165988095Y-84526247D01*
X165988095Y-84526247D02*
X165988095Y-84383390D01*
X165988095Y-84383390D02*
X166035714Y-84192914D01*
X166035714Y-84192914D02*
X166083333Y-84097676D01*
X166083333Y-84097676D02*
X166178571Y-84002438D01*
X166178571Y-84002438D02*
X166321428Y-83954819D01*
X166321428Y-83954819D02*
X166416666Y-83954819D01*
X166416666Y-83954819D02*
X166559523Y-84002438D01*
X166559523Y-84002438D02*
X166607142Y-84050057D01*
X167559523Y-84954819D02*
X166988095Y-84954819D01*
X167273809Y-84954819D02*
X167273809Y-83954819D01*
X167273809Y-83954819D02*
X167178571Y-84097676D01*
X167178571Y-84097676D02*
X167083333Y-84192914D01*
X167083333Y-84192914D02*
X166988095Y-84240533D01*
X168464285Y-83954819D02*
X167988095Y-83954819D01*
X167988095Y-83954819D02*
X167940476Y-84431009D01*
X167940476Y-84431009D02*
X167988095Y-84383390D01*
X167988095Y-84383390D02*
X168083333Y-84335771D01*
X168083333Y-84335771D02*
X168321428Y-84335771D01*
X168321428Y-84335771D02*
X168416666Y-84383390D01*
X168416666Y-84383390D02*
X168464285Y-84431009D01*
X168464285Y-84431009D02*
X168511904Y-84526247D01*
X168511904Y-84526247D02*
X168511904Y-84764342D01*
X168511904Y-84764342D02*
X168464285Y-84859580D01*
X168464285Y-84859580D02*
X168416666Y-84907200D01*
X168416666Y-84907200D02*
X168321428Y-84954819D01*
X168321428Y-84954819D02*
X168083333Y-84954819D01*
X168083333Y-84954819D02*
X167988095Y-84907200D01*
X167988095Y-84907200D02*
X167940476Y-84859580D01*
X142609580Y-113142857D02*
X142657200Y-113190476D01*
X142657200Y-113190476D02*
X142704819Y-113333333D01*
X142704819Y-113333333D02*
X142704819Y-113428571D01*
X142704819Y-113428571D02*
X142657200Y-113571428D01*
X142657200Y-113571428D02*
X142561961Y-113666666D01*
X142561961Y-113666666D02*
X142466723Y-113714285D01*
X142466723Y-113714285D02*
X142276247Y-113761904D01*
X142276247Y-113761904D02*
X142133390Y-113761904D01*
X142133390Y-113761904D02*
X141942914Y-113714285D01*
X141942914Y-113714285D02*
X141847676Y-113666666D01*
X141847676Y-113666666D02*
X141752438Y-113571428D01*
X141752438Y-113571428D02*
X141704819Y-113428571D01*
X141704819Y-113428571D02*
X141704819Y-113333333D01*
X141704819Y-113333333D02*
X141752438Y-113190476D01*
X141752438Y-113190476D02*
X141800057Y-113142857D01*
X141704819Y-112809523D02*
X141704819Y-112190476D01*
X141704819Y-112190476D02*
X142085771Y-112523809D01*
X142085771Y-112523809D02*
X142085771Y-112380952D01*
X142085771Y-112380952D02*
X142133390Y-112285714D01*
X142133390Y-112285714D02*
X142181009Y-112238095D01*
X142181009Y-112238095D02*
X142276247Y-112190476D01*
X142276247Y-112190476D02*
X142514342Y-112190476D01*
X142514342Y-112190476D02*
X142609580Y-112238095D01*
X142609580Y-112238095D02*
X142657200Y-112285714D01*
X142657200Y-112285714D02*
X142704819Y-112380952D01*
X142704819Y-112380952D02*
X142704819Y-112666666D01*
X142704819Y-112666666D02*
X142657200Y-112761904D01*
X142657200Y-112761904D02*
X142609580Y-112809523D01*
X142704819Y-111238095D02*
X142704819Y-111809523D01*
X142704819Y-111523809D02*
X141704819Y-111523809D01*
X141704819Y-111523809D02*
X141847676Y-111619047D01*
X141847676Y-111619047D02*
X141942914Y-111714285D01*
X141942914Y-111714285D02*
X141990533Y-111809523D01*
X118666667Y-103157200D02*
X118809524Y-103204819D01*
X118809524Y-103204819D02*
X119047619Y-103204819D01*
X119047619Y-103204819D02*
X119142857Y-103157200D01*
X119142857Y-103157200D02*
X119190476Y-103109580D01*
X119190476Y-103109580D02*
X119238095Y-103014342D01*
X119238095Y-103014342D02*
X119238095Y-102919104D01*
X119238095Y-102919104D02*
X119190476Y-102823866D01*
X119190476Y-102823866D02*
X119142857Y-102776247D01*
X119142857Y-102776247D02*
X119047619Y-102728628D01*
X119047619Y-102728628D02*
X118857143Y-102681009D01*
X118857143Y-102681009D02*
X118761905Y-102633390D01*
X118761905Y-102633390D02*
X118714286Y-102585771D01*
X118714286Y-102585771D02*
X118666667Y-102490533D01*
X118666667Y-102490533D02*
X118666667Y-102395295D01*
X118666667Y-102395295D02*
X118714286Y-102300057D01*
X118714286Y-102300057D02*
X118761905Y-102252438D01*
X118761905Y-102252438D02*
X118857143Y-102204819D01*
X118857143Y-102204819D02*
X119095238Y-102204819D01*
X119095238Y-102204819D02*
X119238095Y-102252438D01*
X119571429Y-102204819D02*
X119809524Y-103204819D01*
X119809524Y-103204819D02*
X120000000Y-102490533D01*
X120000000Y-102490533D02*
X120190476Y-103204819D01*
X120190476Y-103204819D02*
X120428572Y-102204819D01*
X121333333Y-103204819D02*
X120761905Y-103204819D01*
X121047619Y-103204819D02*
X121047619Y-102204819D01*
X121047619Y-102204819D02*
X120952381Y-102347676D01*
X120952381Y-102347676D02*
X120857143Y-102442914D01*
X120857143Y-102442914D02*
X120761905Y-102490533D01*
X145833333Y-121204819D02*
X145500000Y-120728628D01*
X145261905Y-121204819D02*
X145261905Y-120204819D01*
X145261905Y-120204819D02*
X145642857Y-120204819D01*
X145642857Y-120204819D02*
X145738095Y-120252438D01*
X145738095Y-120252438D02*
X145785714Y-120300057D01*
X145785714Y-120300057D02*
X145833333Y-120395295D01*
X145833333Y-120395295D02*
X145833333Y-120538152D01*
X145833333Y-120538152D02*
X145785714Y-120633390D01*
X145785714Y-120633390D02*
X145738095Y-120681009D01*
X145738095Y-120681009D02*
X145642857Y-120728628D01*
X145642857Y-120728628D02*
X145261905Y-120728628D01*
X146690476Y-120538152D02*
X146690476Y-121204819D01*
X146452381Y-120157200D02*
X146214286Y-120871485D01*
X146214286Y-120871485D02*
X146833333Y-120871485D01*
X150654761Y-117380057D02*
X150559523Y-117332438D01*
X150559523Y-117332438D02*
X150464285Y-117237200D01*
X150464285Y-117237200D02*
X150321428Y-117094342D01*
X150321428Y-117094342D02*
X150226190Y-117046723D01*
X150226190Y-117046723D02*
X150130952Y-117046723D01*
X150178571Y-117284819D02*
X150083333Y-117237200D01*
X150083333Y-117237200D02*
X149988095Y-117141961D01*
X149988095Y-117141961D02*
X149940476Y-116951485D01*
X149940476Y-116951485D02*
X149940476Y-116618152D01*
X149940476Y-116618152D02*
X149988095Y-116427676D01*
X149988095Y-116427676D02*
X150083333Y-116332438D01*
X150083333Y-116332438D02*
X150178571Y-116284819D01*
X150178571Y-116284819D02*
X150369047Y-116284819D01*
X150369047Y-116284819D02*
X150464285Y-116332438D01*
X150464285Y-116332438D02*
X150559523Y-116427676D01*
X150559523Y-116427676D02*
X150607142Y-116618152D01*
X150607142Y-116618152D02*
X150607142Y-116951485D01*
X150607142Y-116951485D02*
X150559523Y-117141961D01*
X150559523Y-117141961D02*
X150464285Y-117237200D01*
X150464285Y-117237200D02*
X150369047Y-117284819D01*
X150369047Y-117284819D02*
X150178571Y-117284819D01*
X150988095Y-116380057D02*
X151035714Y-116332438D01*
X151035714Y-116332438D02*
X151130952Y-116284819D01*
X151130952Y-116284819D02*
X151369047Y-116284819D01*
X151369047Y-116284819D02*
X151464285Y-116332438D01*
X151464285Y-116332438D02*
X151511904Y-116380057D01*
X151511904Y-116380057D02*
X151559523Y-116475295D01*
X151559523Y-116475295D02*
X151559523Y-116570533D01*
X151559523Y-116570533D02*
X151511904Y-116713390D01*
X151511904Y-116713390D02*
X150940476Y-117284819D01*
X150940476Y-117284819D02*
X151559523Y-117284819D01*
X138109580Y-113142857D02*
X138157200Y-113190476D01*
X138157200Y-113190476D02*
X138204819Y-113333333D01*
X138204819Y-113333333D02*
X138204819Y-113428571D01*
X138204819Y-113428571D02*
X138157200Y-113571428D01*
X138157200Y-113571428D02*
X138061961Y-113666666D01*
X138061961Y-113666666D02*
X137966723Y-113714285D01*
X137966723Y-113714285D02*
X137776247Y-113761904D01*
X137776247Y-113761904D02*
X137633390Y-113761904D01*
X137633390Y-113761904D02*
X137442914Y-113714285D01*
X137442914Y-113714285D02*
X137347676Y-113666666D01*
X137347676Y-113666666D02*
X137252438Y-113571428D01*
X137252438Y-113571428D02*
X137204819Y-113428571D01*
X137204819Y-113428571D02*
X137204819Y-113333333D01*
X137204819Y-113333333D02*
X137252438Y-113190476D01*
X137252438Y-113190476D02*
X137300057Y-113142857D01*
X137204819Y-112809523D02*
X137204819Y-112190476D01*
X137204819Y-112190476D02*
X137585771Y-112523809D01*
X137585771Y-112523809D02*
X137585771Y-112380952D01*
X137585771Y-112380952D02*
X137633390Y-112285714D01*
X137633390Y-112285714D02*
X137681009Y-112238095D01*
X137681009Y-112238095D02*
X137776247Y-112190476D01*
X137776247Y-112190476D02*
X138014342Y-112190476D01*
X138014342Y-112190476D02*
X138109580Y-112238095D01*
X138109580Y-112238095D02*
X138157200Y-112285714D01*
X138157200Y-112285714D02*
X138204819Y-112380952D01*
X138204819Y-112380952D02*
X138204819Y-112666666D01*
X138204819Y-112666666D02*
X138157200Y-112761904D01*
X138157200Y-112761904D02*
X138109580Y-112809523D01*
X137204819Y-111285714D02*
X137204819Y-111761904D01*
X137204819Y-111761904D02*
X137681009Y-111809523D01*
X137681009Y-111809523D02*
X137633390Y-111761904D01*
X137633390Y-111761904D02*
X137585771Y-111666666D01*
X137585771Y-111666666D02*
X137585771Y-111428571D01*
X137585771Y-111428571D02*
X137633390Y-111333333D01*
X137633390Y-111333333D02*
X137681009Y-111285714D01*
X137681009Y-111285714D02*
X137776247Y-111238095D01*
X137776247Y-111238095D02*
X138014342Y-111238095D01*
X138014342Y-111238095D02*
X138109580Y-111285714D01*
X138109580Y-111285714D02*
X138157200Y-111333333D01*
X138157200Y-111333333D02*
X138204819Y-111428571D01*
X138204819Y-111428571D02*
X138204819Y-111666666D01*
X138204819Y-111666666D02*
X138157200Y-111761904D01*
X138157200Y-111761904D02*
X138109580Y-111809523D01*
X135204819Y-103392857D02*
X134728628Y-103726190D01*
X135204819Y-103964285D02*
X134204819Y-103964285D01*
X134204819Y-103964285D02*
X134204819Y-103583333D01*
X134204819Y-103583333D02*
X134252438Y-103488095D01*
X134252438Y-103488095D02*
X134300057Y-103440476D01*
X134300057Y-103440476D02*
X134395295Y-103392857D01*
X134395295Y-103392857D02*
X134538152Y-103392857D01*
X134538152Y-103392857D02*
X134633390Y-103440476D01*
X134633390Y-103440476D02*
X134681009Y-103488095D01*
X134681009Y-103488095D02*
X134728628Y-103583333D01*
X134728628Y-103583333D02*
X134728628Y-103964285D01*
X135204819Y-102440476D02*
X135204819Y-103011904D01*
X135204819Y-102726190D02*
X134204819Y-102726190D01*
X134204819Y-102726190D02*
X134347676Y-102821428D01*
X134347676Y-102821428D02*
X134442914Y-102916666D01*
X134442914Y-102916666D02*
X134490533Y-103011904D01*
X134204819Y-102107142D02*
X134204819Y-101488095D01*
X134204819Y-101488095D02*
X134585771Y-101821428D01*
X134585771Y-101821428D02*
X134585771Y-101678571D01*
X134585771Y-101678571D02*
X134633390Y-101583333D01*
X134633390Y-101583333D02*
X134681009Y-101535714D01*
X134681009Y-101535714D02*
X134776247Y-101488095D01*
X134776247Y-101488095D02*
X135014342Y-101488095D01*
X135014342Y-101488095D02*
X135109580Y-101535714D01*
X135109580Y-101535714D02*
X135157200Y-101583333D01*
X135157200Y-101583333D02*
X135204819Y-101678571D01*
X135204819Y-101678571D02*
X135204819Y-101964285D01*
X135204819Y-101964285D02*
X135157200Y-102059523D01*
X135157200Y-102059523D02*
X135109580Y-102107142D01*
X133357142Y-111954819D02*
X133023809Y-111478628D01*
X132785714Y-111954819D02*
X132785714Y-110954819D01*
X132785714Y-110954819D02*
X133166666Y-110954819D01*
X133166666Y-110954819D02*
X133261904Y-111002438D01*
X133261904Y-111002438D02*
X133309523Y-111050057D01*
X133309523Y-111050057D02*
X133357142Y-111145295D01*
X133357142Y-111145295D02*
X133357142Y-111288152D01*
X133357142Y-111288152D02*
X133309523Y-111383390D01*
X133309523Y-111383390D02*
X133261904Y-111431009D01*
X133261904Y-111431009D02*
X133166666Y-111478628D01*
X133166666Y-111478628D02*
X132785714Y-111478628D01*
X134309523Y-111954819D02*
X133738095Y-111954819D01*
X134023809Y-111954819D02*
X134023809Y-110954819D01*
X134023809Y-110954819D02*
X133928571Y-111097676D01*
X133928571Y-111097676D02*
X133833333Y-111192914D01*
X133833333Y-111192914D02*
X133738095Y-111240533D01*
X134785714Y-111954819D02*
X134976190Y-111954819D01*
X134976190Y-111954819D02*
X135071428Y-111907200D01*
X135071428Y-111907200D02*
X135119047Y-111859580D01*
X135119047Y-111859580D02*
X135214285Y-111716723D01*
X135214285Y-111716723D02*
X135261904Y-111526247D01*
X135261904Y-111526247D02*
X135261904Y-111145295D01*
X135261904Y-111145295D02*
X135214285Y-111050057D01*
X135214285Y-111050057D02*
X135166666Y-111002438D01*
X135166666Y-111002438D02*
X135071428Y-110954819D01*
X135071428Y-110954819D02*
X134880952Y-110954819D01*
X134880952Y-110954819D02*
X134785714Y-111002438D01*
X134785714Y-111002438D02*
X134738095Y-111050057D01*
X134738095Y-111050057D02*
X134690476Y-111145295D01*
X134690476Y-111145295D02*
X134690476Y-111383390D01*
X134690476Y-111383390D02*
X134738095Y-111478628D01*
X134738095Y-111478628D02*
X134785714Y-111526247D01*
X134785714Y-111526247D02*
X134880952Y-111573866D01*
X134880952Y-111573866D02*
X135071428Y-111573866D01*
X135071428Y-111573866D02*
X135166666Y-111526247D01*
X135166666Y-111526247D02*
X135214285Y-111478628D01*
X135214285Y-111478628D02*
X135261904Y-111383390D01*
X130359580Y-100892857D02*
X130407200Y-100940476D01*
X130407200Y-100940476D02*
X130454819Y-101083333D01*
X130454819Y-101083333D02*
X130454819Y-101178571D01*
X130454819Y-101178571D02*
X130407200Y-101321428D01*
X130407200Y-101321428D02*
X130311961Y-101416666D01*
X130311961Y-101416666D02*
X130216723Y-101464285D01*
X130216723Y-101464285D02*
X130026247Y-101511904D01*
X130026247Y-101511904D02*
X129883390Y-101511904D01*
X129883390Y-101511904D02*
X129692914Y-101464285D01*
X129692914Y-101464285D02*
X129597676Y-101416666D01*
X129597676Y-101416666D02*
X129502438Y-101321428D01*
X129502438Y-101321428D02*
X129454819Y-101178571D01*
X129454819Y-101178571D02*
X129454819Y-101083333D01*
X129454819Y-101083333D02*
X129502438Y-100940476D01*
X129502438Y-100940476D02*
X129550057Y-100892857D01*
X129550057Y-100511904D02*
X129502438Y-100464285D01*
X129502438Y-100464285D02*
X129454819Y-100369047D01*
X129454819Y-100369047D02*
X129454819Y-100130952D01*
X129454819Y-100130952D02*
X129502438Y-100035714D01*
X129502438Y-100035714D02*
X129550057Y-99988095D01*
X129550057Y-99988095D02*
X129645295Y-99940476D01*
X129645295Y-99940476D02*
X129740533Y-99940476D01*
X129740533Y-99940476D02*
X129883390Y-99988095D01*
X129883390Y-99988095D02*
X130454819Y-100559523D01*
X130454819Y-100559523D02*
X130454819Y-99940476D01*
X129454819Y-99083333D02*
X129454819Y-99273809D01*
X129454819Y-99273809D02*
X129502438Y-99369047D01*
X129502438Y-99369047D02*
X129550057Y-99416666D01*
X129550057Y-99416666D02*
X129692914Y-99511904D01*
X129692914Y-99511904D02*
X129883390Y-99559523D01*
X129883390Y-99559523D02*
X130264342Y-99559523D01*
X130264342Y-99559523D02*
X130359580Y-99511904D01*
X130359580Y-99511904D02*
X130407200Y-99464285D01*
X130407200Y-99464285D02*
X130454819Y-99369047D01*
X130454819Y-99369047D02*
X130454819Y-99178571D01*
X130454819Y-99178571D02*
X130407200Y-99083333D01*
X130407200Y-99083333D02*
X130359580Y-99035714D01*
X130359580Y-99035714D02*
X130264342Y-98988095D01*
X130264342Y-98988095D02*
X130026247Y-98988095D01*
X130026247Y-98988095D02*
X129931009Y-99035714D01*
X129931009Y-99035714D02*
X129883390Y-99083333D01*
X129883390Y-99083333D02*
X129835771Y-99178571D01*
X129835771Y-99178571D02*
X129835771Y-99369047D01*
X129835771Y-99369047D02*
X129883390Y-99464285D01*
X129883390Y-99464285D02*
X129931009Y-99511904D01*
X129931009Y-99511904D02*
X130026247Y-99559523D01*
X145357142Y-116704819D02*
X145023809Y-116228628D01*
X144785714Y-116704819D02*
X144785714Y-115704819D01*
X144785714Y-115704819D02*
X145166666Y-115704819D01*
X145166666Y-115704819D02*
X145261904Y-115752438D01*
X145261904Y-115752438D02*
X145309523Y-115800057D01*
X145309523Y-115800057D02*
X145357142Y-115895295D01*
X145357142Y-115895295D02*
X145357142Y-116038152D01*
X145357142Y-116038152D02*
X145309523Y-116133390D01*
X145309523Y-116133390D02*
X145261904Y-116181009D01*
X145261904Y-116181009D02*
X145166666Y-116228628D01*
X145166666Y-116228628D02*
X144785714Y-116228628D01*
X145738095Y-115800057D02*
X145785714Y-115752438D01*
X145785714Y-115752438D02*
X145880952Y-115704819D01*
X145880952Y-115704819D02*
X146119047Y-115704819D01*
X146119047Y-115704819D02*
X146214285Y-115752438D01*
X146214285Y-115752438D02*
X146261904Y-115800057D01*
X146261904Y-115800057D02*
X146309523Y-115895295D01*
X146309523Y-115895295D02*
X146309523Y-115990533D01*
X146309523Y-115990533D02*
X146261904Y-116133390D01*
X146261904Y-116133390D02*
X145690476Y-116704819D01*
X145690476Y-116704819D02*
X146309523Y-116704819D01*
X146928571Y-115704819D02*
X147023809Y-115704819D01*
X147023809Y-115704819D02*
X147119047Y-115752438D01*
X147119047Y-115752438D02*
X147166666Y-115800057D01*
X147166666Y-115800057D02*
X147214285Y-115895295D01*
X147214285Y-115895295D02*
X147261904Y-116085771D01*
X147261904Y-116085771D02*
X147261904Y-116323866D01*
X147261904Y-116323866D02*
X147214285Y-116514342D01*
X147214285Y-116514342D02*
X147166666Y-116609580D01*
X147166666Y-116609580D02*
X147119047Y-116657200D01*
X147119047Y-116657200D02*
X147023809Y-116704819D01*
X147023809Y-116704819D02*
X146928571Y-116704819D01*
X146928571Y-116704819D02*
X146833333Y-116657200D01*
X146833333Y-116657200D02*
X146785714Y-116609580D01*
X146785714Y-116609580D02*
X146738095Y-116514342D01*
X146738095Y-116514342D02*
X146690476Y-116323866D01*
X146690476Y-116323866D02*
X146690476Y-116085771D01*
X146690476Y-116085771D02*
X146738095Y-115895295D01*
X146738095Y-115895295D02*
X146785714Y-115800057D01*
X146785714Y-115800057D02*
X146833333Y-115752438D01*
X146833333Y-115752438D02*
X146928571Y-115704819D01*
X133357142Y-118704819D02*
X133023809Y-118228628D01*
X132785714Y-118704819D02*
X132785714Y-117704819D01*
X132785714Y-117704819D02*
X133166666Y-117704819D01*
X133166666Y-117704819D02*
X133261904Y-117752438D01*
X133261904Y-117752438D02*
X133309523Y-117800057D01*
X133309523Y-117800057D02*
X133357142Y-117895295D01*
X133357142Y-117895295D02*
X133357142Y-118038152D01*
X133357142Y-118038152D02*
X133309523Y-118133390D01*
X133309523Y-118133390D02*
X133261904Y-118181009D01*
X133261904Y-118181009D02*
X133166666Y-118228628D01*
X133166666Y-118228628D02*
X132785714Y-118228628D01*
X133738095Y-117800057D02*
X133785714Y-117752438D01*
X133785714Y-117752438D02*
X133880952Y-117704819D01*
X133880952Y-117704819D02*
X134119047Y-117704819D01*
X134119047Y-117704819D02*
X134214285Y-117752438D01*
X134214285Y-117752438D02*
X134261904Y-117800057D01*
X134261904Y-117800057D02*
X134309523Y-117895295D01*
X134309523Y-117895295D02*
X134309523Y-117990533D01*
X134309523Y-117990533D02*
X134261904Y-118133390D01*
X134261904Y-118133390D02*
X133690476Y-118704819D01*
X133690476Y-118704819D02*
X134309523Y-118704819D01*
X135261904Y-118704819D02*
X134690476Y-118704819D01*
X134976190Y-118704819D02*
X134976190Y-117704819D01*
X134976190Y-117704819D02*
X134880952Y-117847676D01*
X134880952Y-117847676D02*
X134785714Y-117942914D01*
X134785714Y-117942914D02*
X134690476Y-117990533D01*
X145833333Y-124204819D02*
X145500000Y-123728628D01*
X145261905Y-124204819D02*
X145261905Y-123204819D01*
X145261905Y-123204819D02*
X145642857Y-123204819D01*
X145642857Y-123204819D02*
X145738095Y-123252438D01*
X145738095Y-123252438D02*
X145785714Y-123300057D01*
X145785714Y-123300057D02*
X145833333Y-123395295D01*
X145833333Y-123395295D02*
X145833333Y-123538152D01*
X145833333Y-123538152D02*
X145785714Y-123633390D01*
X145785714Y-123633390D02*
X145738095Y-123681009D01*
X145738095Y-123681009D02*
X145642857Y-123728628D01*
X145642857Y-123728628D02*
X145261905Y-123728628D01*
X146404762Y-123633390D02*
X146309524Y-123585771D01*
X146309524Y-123585771D02*
X146261905Y-123538152D01*
X146261905Y-123538152D02*
X146214286Y-123442914D01*
X146214286Y-123442914D02*
X146214286Y-123395295D01*
X146214286Y-123395295D02*
X146261905Y-123300057D01*
X146261905Y-123300057D02*
X146309524Y-123252438D01*
X146309524Y-123252438D02*
X146404762Y-123204819D01*
X146404762Y-123204819D02*
X146595238Y-123204819D01*
X146595238Y-123204819D02*
X146690476Y-123252438D01*
X146690476Y-123252438D02*
X146738095Y-123300057D01*
X146738095Y-123300057D02*
X146785714Y-123395295D01*
X146785714Y-123395295D02*
X146785714Y-123442914D01*
X146785714Y-123442914D02*
X146738095Y-123538152D01*
X146738095Y-123538152D02*
X146690476Y-123585771D01*
X146690476Y-123585771D02*
X146595238Y-123633390D01*
X146595238Y-123633390D02*
X146404762Y-123633390D01*
X146404762Y-123633390D02*
X146309524Y-123681009D01*
X146309524Y-123681009D02*
X146261905Y-123728628D01*
X146261905Y-123728628D02*
X146214286Y-123823866D01*
X146214286Y-123823866D02*
X146214286Y-124014342D01*
X146214286Y-124014342D02*
X146261905Y-124109580D01*
X146261905Y-124109580D02*
X146309524Y-124157200D01*
X146309524Y-124157200D02*
X146404762Y-124204819D01*
X146404762Y-124204819D02*
X146595238Y-124204819D01*
X146595238Y-124204819D02*
X146690476Y-124157200D01*
X146690476Y-124157200D02*
X146738095Y-124109580D01*
X146738095Y-124109580D02*
X146785714Y-124014342D01*
X146785714Y-124014342D02*
X146785714Y-123823866D01*
X146785714Y-123823866D02*
X146738095Y-123728628D01*
X146738095Y-123728628D02*
X146690476Y-123681009D01*
X146690476Y-123681009D02*
X146595238Y-123633390D01*
X154859580Y-100892857D02*
X154907200Y-100940476D01*
X154907200Y-100940476D02*
X154954819Y-101083333D01*
X154954819Y-101083333D02*
X154954819Y-101178571D01*
X154954819Y-101178571D02*
X154907200Y-101321428D01*
X154907200Y-101321428D02*
X154811961Y-101416666D01*
X154811961Y-101416666D02*
X154716723Y-101464285D01*
X154716723Y-101464285D02*
X154526247Y-101511904D01*
X154526247Y-101511904D02*
X154383390Y-101511904D01*
X154383390Y-101511904D02*
X154192914Y-101464285D01*
X154192914Y-101464285D02*
X154097676Y-101416666D01*
X154097676Y-101416666D02*
X154002438Y-101321428D01*
X154002438Y-101321428D02*
X153954819Y-101178571D01*
X153954819Y-101178571D02*
X153954819Y-101083333D01*
X153954819Y-101083333D02*
X154002438Y-100940476D01*
X154002438Y-100940476D02*
X154050057Y-100892857D01*
X154050057Y-100511904D02*
X154002438Y-100464285D01*
X154002438Y-100464285D02*
X153954819Y-100369047D01*
X153954819Y-100369047D02*
X153954819Y-100130952D01*
X153954819Y-100130952D02*
X154002438Y-100035714D01*
X154002438Y-100035714D02*
X154050057Y-99988095D01*
X154050057Y-99988095D02*
X154145295Y-99940476D01*
X154145295Y-99940476D02*
X154240533Y-99940476D01*
X154240533Y-99940476D02*
X154383390Y-99988095D01*
X154383390Y-99988095D02*
X154954819Y-100559523D01*
X154954819Y-100559523D02*
X154954819Y-99940476D01*
X153954819Y-99321428D02*
X153954819Y-99226190D01*
X153954819Y-99226190D02*
X154002438Y-99130952D01*
X154002438Y-99130952D02*
X154050057Y-99083333D01*
X154050057Y-99083333D02*
X154145295Y-99035714D01*
X154145295Y-99035714D02*
X154335771Y-98988095D01*
X154335771Y-98988095D02*
X154573866Y-98988095D01*
X154573866Y-98988095D02*
X154764342Y-99035714D01*
X154764342Y-99035714D02*
X154859580Y-99083333D01*
X154859580Y-99083333D02*
X154907200Y-99130952D01*
X154907200Y-99130952D02*
X154954819Y-99226190D01*
X154954819Y-99226190D02*
X154954819Y-99321428D01*
X154954819Y-99321428D02*
X154907200Y-99416666D01*
X154907200Y-99416666D02*
X154859580Y-99464285D01*
X154859580Y-99464285D02*
X154764342Y-99511904D01*
X154764342Y-99511904D02*
X154573866Y-99559523D01*
X154573866Y-99559523D02*
X154335771Y-99559523D01*
X154335771Y-99559523D02*
X154145295Y-99511904D01*
X154145295Y-99511904D02*
X154050057Y-99464285D01*
X154050057Y-99464285D02*
X154002438Y-99416666D01*
X154002438Y-99416666D02*
X153954819Y-99321428D01*
X139107142Y-84859580D02*
X139059523Y-84907200D01*
X139059523Y-84907200D02*
X138916666Y-84954819D01*
X138916666Y-84954819D02*
X138821428Y-84954819D01*
X138821428Y-84954819D02*
X138678571Y-84907200D01*
X138678571Y-84907200D02*
X138583333Y-84811961D01*
X138583333Y-84811961D02*
X138535714Y-84716723D01*
X138535714Y-84716723D02*
X138488095Y-84526247D01*
X138488095Y-84526247D02*
X138488095Y-84383390D01*
X138488095Y-84383390D02*
X138535714Y-84192914D01*
X138535714Y-84192914D02*
X138583333Y-84097676D01*
X138583333Y-84097676D02*
X138678571Y-84002438D01*
X138678571Y-84002438D02*
X138821428Y-83954819D01*
X138821428Y-83954819D02*
X138916666Y-83954819D01*
X138916666Y-83954819D02*
X139059523Y-84002438D01*
X139059523Y-84002438D02*
X139107142Y-84050057D01*
X140059523Y-84954819D02*
X139488095Y-84954819D01*
X139773809Y-84954819D02*
X139773809Y-83954819D01*
X139773809Y-83954819D02*
X139678571Y-84097676D01*
X139678571Y-84097676D02*
X139583333Y-84192914D01*
X139583333Y-84192914D02*
X139488095Y-84240533D01*
X140392857Y-83954819D02*
X141011904Y-83954819D01*
X141011904Y-83954819D02*
X140678571Y-84335771D01*
X140678571Y-84335771D02*
X140821428Y-84335771D01*
X140821428Y-84335771D02*
X140916666Y-84383390D01*
X140916666Y-84383390D02*
X140964285Y-84431009D01*
X140964285Y-84431009D02*
X141011904Y-84526247D01*
X141011904Y-84526247D02*
X141011904Y-84764342D01*
X141011904Y-84764342D02*
X140964285Y-84859580D01*
X140964285Y-84859580D02*
X140916666Y-84907200D01*
X140916666Y-84907200D02*
X140821428Y-84954819D01*
X140821428Y-84954819D02*
X140535714Y-84954819D01*
X140535714Y-84954819D02*
X140440476Y-84907200D01*
X140440476Y-84907200D02*
X140392857Y-84859580D01*
X143454819Y-98892857D02*
X142978628Y-99226190D01*
X143454819Y-99464285D02*
X142454819Y-99464285D01*
X142454819Y-99464285D02*
X142454819Y-99083333D01*
X142454819Y-99083333D02*
X142502438Y-98988095D01*
X142502438Y-98988095D02*
X142550057Y-98940476D01*
X142550057Y-98940476D02*
X142645295Y-98892857D01*
X142645295Y-98892857D02*
X142788152Y-98892857D01*
X142788152Y-98892857D02*
X142883390Y-98940476D01*
X142883390Y-98940476D02*
X142931009Y-98988095D01*
X142931009Y-98988095D02*
X142978628Y-99083333D01*
X142978628Y-99083333D02*
X142978628Y-99464285D01*
X143454819Y-97940476D02*
X143454819Y-98511904D01*
X143454819Y-98226190D02*
X142454819Y-98226190D01*
X142454819Y-98226190D02*
X142597676Y-98321428D01*
X142597676Y-98321428D02*
X142692914Y-98416666D01*
X142692914Y-98416666D02*
X142740533Y-98511904D01*
X143454819Y-96988095D02*
X143454819Y-97559523D01*
X143454819Y-97273809D02*
X142454819Y-97273809D01*
X142454819Y-97273809D02*
X142597676Y-97369047D01*
X142597676Y-97369047D02*
X142692914Y-97464285D01*
X142692914Y-97464285D02*
X142740533Y-97559523D01*
X135738095Y-101704819D02*
X135738095Y-102514342D01*
X135738095Y-102514342D02*
X135785714Y-102609580D01*
X135785714Y-102609580D02*
X135833333Y-102657200D01*
X135833333Y-102657200D02*
X135928571Y-102704819D01*
X135928571Y-102704819D02*
X136119047Y-102704819D01*
X136119047Y-102704819D02*
X136214285Y-102657200D01*
X136214285Y-102657200D02*
X136261904Y-102609580D01*
X136261904Y-102609580D02*
X136309523Y-102514342D01*
X136309523Y-102514342D02*
X136309523Y-101704819D01*
X137309523Y-102704819D02*
X136738095Y-102704819D01*
X137023809Y-102704819D02*
X137023809Y-101704819D01*
X137023809Y-101704819D02*
X136928571Y-101847676D01*
X136928571Y-101847676D02*
X136833333Y-101942914D01*
X136833333Y-101942914D02*
X136738095Y-101990533D01*
X130916666Y-126954819D02*
X130916666Y-127669104D01*
X130916666Y-127669104D02*
X130869047Y-127811961D01*
X130869047Y-127811961D02*
X130773809Y-127907200D01*
X130773809Y-127907200D02*
X130630952Y-127954819D01*
X130630952Y-127954819D02*
X130535714Y-127954819D01*
X131345238Y-127050057D02*
X131392857Y-127002438D01*
X131392857Y-127002438D02*
X131488095Y-126954819D01*
X131488095Y-126954819D02*
X131726190Y-126954819D01*
X131726190Y-126954819D02*
X131821428Y-127002438D01*
X131821428Y-127002438D02*
X131869047Y-127050057D01*
X131869047Y-127050057D02*
X131916666Y-127145295D01*
X131916666Y-127145295D02*
X131916666Y-127240533D01*
X131916666Y-127240533D02*
X131869047Y-127383390D01*
X131869047Y-127383390D02*
X131297619Y-127954819D01*
X131297619Y-127954819D02*
X131916666Y-127954819D01*
X152857142Y-84859580D02*
X152809523Y-84907200D01*
X152809523Y-84907200D02*
X152666666Y-84954819D01*
X152666666Y-84954819D02*
X152571428Y-84954819D01*
X152571428Y-84954819D02*
X152428571Y-84907200D01*
X152428571Y-84907200D02*
X152333333Y-84811961D01*
X152333333Y-84811961D02*
X152285714Y-84716723D01*
X152285714Y-84716723D02*
X152238095Y-84526247D01*
X152238095Y-84526247D02*
X152238095Y-84383390D01*
X152238095Y-84383390D02*
X152285714Y-84192914D01*
X152285714Y-84192914D02*
X152333333Y-84097676D01*
X152333333Y-84097676D02*
X152428571Y-84002438D01*
X152428571Y-84002438D02*
X152571428Y-83954819D01*
X152571428Y-83954819D02*
X152666666Y-83954819D01*
X152666666Y-83954819D02*
X152809523Y-84002438D01*
X152809523Y-84002438D02*
X152857142Y-84050057D01*
X153809523Y-84954819D02*
X153238095Y-84954819D01*
X153523809Y-84954819D02*
X153523809Y-83954819D01*
X153523809Y-83954819D02*
X153428571Y-84097676D01*
X153428571Y-84097676D02*
X153333333Y-84192914D01*
X153333333Y-84192914D02*
X153238095Y-84240533D01*
X154666666Y-84288152D02*
X154666666Y-84954819D01*
X154428571Y-83907200D02*
X154190476Y-84621485D01*
X154190476Y-84621485D02*
X154809523Y-84621485D01*
X136609580Y-115142857D02*
X136657200Y-115190476D01*
X136657200Y-115190476D02*
X136704819Y-115333333D01*
X136704819Y-115333333D02*
X136704819Y-115428571D01*
X136704819Y-115428571D02*
X136657200Y-115571428D01*
X136657200Y-115571428D02*
X136561961Y-115666666D01*
X136561961Y-115666666D02*
X136466723Y-115714285D01*
X136466723Y-115714285D02*
X136276247Y-115761904D01*
X136276247Y-115761904D02*
X136133390Y-115761904D01*
X136133390Y-115761904D02*
X135942914Y-115714285D01*
X135942914Y-115714285D02*
X135847676Y-115666666D01*
X135847676Y-115666666D02*
X135752438Y-115571428D01*
X135752438Y-115571428D02*
X135704819Y-115428571D01*
X135704819Y-115428571D02*
X135704819Y-115333333D01*
X135704819Y-115333333D02*
X135752438Y-115190476D01*
X135752438Y-115190476D02*
X135800057Y-115142857D01*
X136038152Y-114285714D02*
X136704819Y-114285714D01*
X135657200Y-114523809D02*
X136371485Y-114761904D01*
X136371485Y-114761904D02*
X136371485Y-114142857D01*
X136704819Y-113238095D02*
X136704819Y-113809523D01*
X136704819Y-113523809D02*
X135704819Y-113523809D01*
X135704819Y-113523809D02*
X135847676Y-113619047D01*
X135847676Y-113619047D02*
X135942914Y-113714285D01*
X135942914Y-113714285D02*
X135990533Y-113809523D01*
X145357142Y-118109580D02*
X145309523Y-118157200D01*
X145309523Y-118157200D02*
X145166666Y-118204819D01*
X145166666Y-118204819D02*
X145071428Y-118204819D01*
X145071428Y-118204819D02*
X144928571Y-118157200D01*
X144928571Y-118157200D02*
X144833333Y-118061961D01*
X144833333Y-118061961D02*
X144785714Y-117966723D01*
X144785714Y-117966723D02*
X144738095Y-117776247D01*
X144738095Y-117776247D02*
X144738095Y-117633390D01*
X144738095Y-117633390D02*
X144785714Y-117442914D01*
X144785714Y-117442914D02*
X144833333Y-117347676D01*
X144833333Y-117347676D02*
X144928571Y-117252438D01*
X144928571Y-117252438D02*
X145071428Y-117204819D01*
X145071428Y-117204819D02*
X145166666Y-117204819D01*
X145166666Y-117204819D02*
X145309523Y-117252438D01*
X145309523Y-117252438D02*
X145357142Y-117300057D01*
X145690476Y-117204819D02*
X146309523Y-117204819D01*
X146309523Y-117204819D02*
X145976190Y-117585771D01*
X145976190Y-117585771D02*
X146119047Y-117585771D01*
X146119047Y-117585771D02*
X146214285Y-117633390D01*
X146214285Y-117633390D02*
X146261904Y-117681009D01*
X146261904Y-117681009D02*
X146309523Y-117776247D01*
X146309523Y-117776247D02*
X146309523Y-118014342D01*
X146309523Y-118014342D02*
X146261904Y-118109580D01*
X146261904Y-118109580D02*
X146214285Y-118157200D01*
X146214285Y-118157200D02*
X146119047Y-118204819D01*
X146119047Y-118204819D02*
X145833333Y-118204819D01*
X145833333Y-118204819D02*
X145738095Y-118157200D01*
X145738095Y-118157200D02*
X145690476Y-118109580D01*
X146880952Y-117633390D02*
X146785714Y-117585771D01*
X146785714Y-117585771D02*
X146738095Y-117538152D01*
X146738095Y-117538152D02*
X146690476Y-117442914D01*
X146690476Y-117442914D02*
X146690476Y-117395295D01*
X146690476Y-117395295D02*
X146738095Y-117300057D01*
X146738095Y-117300057D02*
X146785714Y-117252438D01*
X146785714Y-117252438D02*
X146880952Y-117204819D01*
X146880952Y-117204819D02*
X147071428Y-117204819D01*
X147071428Y-117204819D02*
X147166666Y-117252438D01*
X147166666Y-117252438D02*
X147214285Y-117300057D01*
X147214285Y-117300057D02*
X147261904Y-117395295D01*
X147261904Y-117395295D02*
X147261904Y-117442914D01*
X147261904Y-117442914D02*
X147214285Y-117538152D01*
X147214285Y-117538152D02*
X147166666Y-117585771D01*
X147166666Y-117585771D02*
X147071428Y-117633390D01*
X147071428Y-117633390D02*
X146880952Y-117633390D01*
X146880952Y-117633390D02*
X146785714Y-117681009D01*
X146785714Y-117681009D02*
X146738095Y-117728628D01*
X146738095Y-117728628D02*
X146690476Y-117823866D01*
X146690476Y-117823866D02*
X146690476Y-118014342D01*
X146690476Y-118014342D02*
X146738095Y-118109580D01*
X146738095Y-118109580D02*
X146785714Y-118157200D01*
X146785714Y-118157200D02*
X146880952Y-118204819D01*
X146880952Y-118204819D02*
X147071428Y-118204819D01*
X147071428Y-118204819D02*
X147166666Y-118157200D01*
X147166666Y-118157200D02*
X147214285Y-118109580D01*
X147214285Y-118109580D02*
X147261904Y-118014342D01*
X147261904Y-118014342D02*
X147261904Y-117823866D01*
X147261904Y-117823866D02*
X147214285Y-117728628D01*
X147214285Y-117728628D02*
X147166666Y-117681009D01*
X147166666Y-117681009D02*
X147071428Y-117633390D01*
X144109580Y-115142857D02*
X144157200Y-115190476D01*
X144157200Y-115190476D02*
X144204819Y-115333333D01*
X144204819Y-115333333D02*
X144204819Y-115428571D01*
X144204819Y-115428571D02*
X144157200Y-115571428D01*
X144157200Y-115571428D02*
X144061961Y-115666666D01*
X144061961Y-115666666D02*
X143966723Y-115714285D01*
X143966723Y-115714285D02*
X143776247Y-115761904D01*
X143776247Y-115761904D02*
X143633390Y-115761904D01*
X143633390Y-115761904D02*
X143442914Y-115714285D01*
X143442914Y-115714285D02*
X143347676Y-115666666D01*
X143347676Y-115666666D02*
X143252438Y-115571428D01*
X143252438Y-115571428D02*
X143204819Y-115428571D01*
X143204819Y-115428571D02*
X143204819Y-115333333D01*
X143204819Y-115333333D02*
X143252438Y-115190476D01*
X143252438Y-115190476D02*
X143300057Y-115142857D01*
X143204819Y-114809523D02*
X143204819Y-114190476D01*
X143204819Y-114190476D02*
X143585771Y-114523809D01*
X143585771Y-114523809D02*
X143585771Y-114380952D01*
X143585771Y-114380952D02*
X143633390Y-114285714D01*
X143633390Y-114285714D02*
X143681009Y-114238095D01*
X143681009Y-114238095D02*
X143776247Y-114190476D01*
X143776247Y-114190476D02*
X144014342Y-114190476D01*
X144014342Y-114190476D02*
X144109580Y-114238095D01*
X144109580Y-114238095D02*
X144157200Y-114285714D01*
X144157200Y-114285714D02*
X144204819Y-114380952D01*
X144204819Y-114380952D02*
X144204819Y-114666666D01*
X144204819Y-114666666D02*
X144157200Y-114761904D01*
X144157200Y-114761904D02*
X144109580Y-114809523D01*
X143538152Y-113333333D02*
X144204819Y-113333333D01*
X143157200Y-113571428D02*
X143871485Y-113809523D01*
X143871485Y-113809523D02*
X143871485Y-113190476D01*
%TO.C,C25*%
D14*
X127990000Y-103109420D02*
X127990000Y-103390580D01*
X129010000Y-103109420D02*
X129010000Y-103390580D01*
%TO.C,C23*%
X124990000Y-103109420D02*
X124990000Y-103390580D01*
X126010000Y-103109420D02*
X126010000Y-103390580D01*
%TO.C,C19*%
X152490000Y-103109420D02*
X152490000Y-103390580D01*
X153510000Y-103109420D02*
X153510000Y-103390580D01*
%TO.C,C40*%
X144240000Y-103140580D02*
X144240000Y-102859420D01*
X145260000Y-103140580D02*
X145260000Y-102859420D01*
%TO.C,D2*%
X126000000Y-112710000D02*
X124000000Y-112710000D01*
%TO.C,C22*%
X123490000Y-103109420D02*
X123490000Y-103390580D01*
X124510000Y-103109420D02*
X124510000Y-103390580D01*
%TO.C,C12*%
X113932918Y-86675000D02*
X115182918Y-86675000D01*
X114557918Y-86050000D02*
X114557918Y-87300000D01*
X120750000Y-83920000D02*
X120750000Y-96580000D01*
X120790000Y-83920000D02*
X120790000Y-96580000D01*
X120830000Y-83921000D02*
X120830000Y-96579000D01*
X120870000Y-83921000D02*
X120870000Y-96579000D01*
X120910000Y-83922000D02*
X120910000Y-96578000D01*
X120950000Y-83923000D02*
X120950000Y-96577000D01*
X120990000Y-83925000D02*
X120990000Y-96575000D01*
X121030000Y-83926000D02*
X121030000Y-96574000D01*
X121070000Y-83928000D02*
X121070000Y-96572000D01*
X121110000Y-83930000D02*
X121110000Y-96570000D01*
X121150000Y-83933000D02*
X121150000Y-96567000D01*
X121190000Y-83935000D02*
X121190000Y-96565000D01*
X121230000Y-83938000D02*
X121230000Y-96562000D01*
X121270000Y-83941000D02*
X121270000Y-96559000D01*
X121310000Y-83945000D02*
X121310000Y-96555000D01*
X121350000Y-83948000D02*
X121350000Y-96552000D01*
X121390000Y-83952000D02*
X121390000Y-96548000D01*
X121430000Y-83956000D02*
X121430000Y-96544000D01*
X121470000Y-83961000D02*
X121470000Y-96539000D01*
X121510000Y-83966000D02*
X121510000Y-96534000D01*
X121550000Y-83970000D02*
X121550000Y-96530000D01*
X121590000Y-83976000D02*
X121590000Y-96524000D01*
X121630000Y-83981000D02*
X121630000Y-96519000D01*
X121670000Y-83987000D02*
X121670000Y-96513000D01*
X121710000Y-83993000D02*
X121710000Y-96507000D01*
X121750000Y-83999000D02*
X121750000Y-96501000D01*
X121790000Y-84005000D02*
X121790000Y-96495000D01*
X121830000Y-84012000D02*
X121830000Y-88810000D01*
X121830000Y-91690000D02*
X121830000Y-96488000D01*
X121870000Y-84019000D02*
X121870000Y-88810000D01*
X121870000Y-91690000D02*
X121870000Y-96481000D01*
X121910000Y-84027000D02*
X121910000Y-88810000D01*
X121910000Y-91690000D02*
X121910000Y-96473000D01*
X121950000Y-84034000D02*
X121950000Y-88810000D01*
X121950000Y-91690000D02*
X121950000Y-96466000D01*
X121990000Y-84042000D02*
X121990000Y-88810000D01*
X121990000Y-91690000D02*
X121990000Y-96458000D01*
X122030000Y-84050000D02*
X122030000Y-88810000D01*
X122030000Y-91690000D02*
X122030000Y-96450000D01*
X122070000Y-84058000D02*
X122070000Y-88810000D01*
X122070000Y-91690000D02*
X122070000Y-96442000D01*
X122110000Y-84067000D02*
X122110000Y-88810000D01*
X122110000Y-91690000D02*
X122110000Y-96433000D01*
X122150000Y-84076000D02*
X122150000Y-88810000D01*
X122150000Y-91690000D02*
X122150000Y-96424000D01*
X122190000Y-84085000D02*
X122190000Y-88810000D01*
X122190000Y-91690000D02*
X122190000Y-96415000D01*
X122230000Y-84094000D02*
X122230000Y-88810000D01*
X122230000Y-91690000D02*
X122230000Y-96406000D01*
X122270000Y-84104000D02*
X122270000Y-88810000D01*
X122270000Y-91690000D02*
X122270000Y-96396000D01*
X122310000Y-84114000D02*
X122310000Y-88810000D01*
X122310000Y-91690000D02*
X122310000Y-96386000D01*
X122350000Y-84124000D02*
X122350000Y-88810000D01*
X122350000Y-91690000D02*
X122350000Y-96376000D01*
X122390000Y-84135000D02*
X122390000Y-88810000D01*
X122390000Y-91690000D02*
X122390000Y-96365000D01*
X122430000Y-84146000D02*
X122430000Y-88810000D01*
X122430000Y-91690000D02*
X122430000Y-96354000D01*
X122470000Y-84157000D02*
X122470000Y-88810000D01*
X122470000Y-91690000D02*
X122470000Y-96343000D01*
X122510000Y-84168000D02*
X122510000Y-88810000D01*
X122510000Y-91690000D02*
X122510000Y-96332000D01*
X122550000Y-84180000D02*
X122550000Y-88810000D01*
X122550000Y-91690000D02*
X122550000Y-96320000D01*
X122590000Y-84192000D02*
X122590000Y-88810000D01*
X122590000Y-91690000D02*
X122590000Y-96308000D01*
X122630000Y-84204000D02*
X122630000Y-88810000D01*
X122630000Y-91690000D02*
X122630000Y-96296000D01*
X122670000Y-84216000D02*
X122670000Y-88810000D01*
X122670000Y-91690000D02*
X122670000Y-96284000D01*
X122710000Y-84229000D02*
X122710000Y-88810000D01*
X122710000Y-91690000D02*
X122710000Y-96271000D01*
X122750000Y-84242000D02*
X122750000Y-88810000D01*
X122750000Y-91690000D02*
X122750000Y-96258000D01*
X122790000Y-84255000D02*
X122790000Y-88810000D01*
X122790000Y-91690000D02*
X122790000Y-96245000D01*
X122830000Y-84269000D02*
X122830000Y-88810000D01*
X122830000Y-91690000D02*
X122830000Y-96231000D01*
X122870000Y-84283000D02*
X122870000Y-88810000D01*
X122870000Y-91690000D02*
X122870000Y-96217000D01*
X122910000Y-84297000D02*
X122910000Y-88810000D01*
X122910000Y-91690000D02*
X122910000Y-96203000D01*
X122950000Y-84312000D02*
X122950000Y-88810000D01*
X122950000Y-91690000D02*
X122950000Y-96188000D01*
X122990000Y-84327000D02*
X122990000Y-88810000D01*
X122990000Y-91690000D02*
X122990000Y-96173000D01*
X123030000Y-84342000D02*
X123030000Y-88810000D01*
X123030000Y-91690000D02*
X123030000Y-96158000D01*
X123070000Y-84358000D02*
X123070000Y-88810000D01*
X123070000Y-91690000D02*
X123070000Y-96142000D01*
X123110000Y-84373000D02*
X123110000Y-88810000D01*
X123110000Y-91690000D02*
X123110000Y-96127000D01*
X123150000Y-84389000D02*
X123150000Y-88810000D01*
X123150000Y-91690000D02*
X123150000Y-96111000D01*
X123190000Y-84406000D02*
X123190000Y-88810000D01*
X123190000Y-91690000D02*
X123190000Y-96094000D01*
X123230000Y-84423000D02*
X123230000Y-88810000D01*
X123230000Y-91690000D02*
X123230000Y-96077000D01*
X123270000Y-84440000D02*
X123270000Y-88810000D01*
X123270000Y-91690000D02*
X123270000Y-96060000D01*
X123310000Y-84457000D02*
X123310000Y-88810000D01*
X123310000Y-91690000D02*
X123310000Y-96043000D01*
X123350000Y-84475000D02*
X123350000Y-88810000D01*
X123350000Y-91690000D02*
X123350000Y-96025000D01*
X123390000Y-84493000D02*
X123390000Y-88810000D01*
X123390000Y-91690000D02*
X123390000Y-96007000D01*
X123430000Y-84511000D02*
X123430000Y-88810000D01*
X123430000Y-91690000D02*
X123430000Y-95989000D01*
X123470000Y-84530000D02*
X123470000Y-88810000D01*
X123470000Y-91690000D02*
X123470000Y-95970000D01*
X123510000Y-84549000D02*
X123510000Y-88810000D01*
X123510000Y-91690000D02*
X123510000Y-95951000D01*
X123550000Y-84568000D02*
X123550000Y-88810000D01*
X123550000Y-91690000D02*
X123550000Y-95932000D01*
X123590000Y-84588000D02*
X123590000Y-88810000D01*
X123590000Y-91690000D02*
X123590000Y-95912000D01*
X123630000Y-84608000D02*
X123630000Y-88810000D01*
X123630000Y-91690000D02*
X123630000Y-95892000D01*
X123670000Y-84629000D02*
X123670000Y-88810000D01*
X123670000Y-91690000D02*
X123670000Y-95871000D01*
X123710000Y-84649000D02*
X123710000Y-88810000D01*
X123710000Y-91690000D02*
X123710000Y-95851000D01*
X123750000Y-84671000D02*
X123750000Y-88810000D01*
X123750000Y-91690000D02*
X123750000Y-95829000D01*
X123790000Y-84692000D02*
X123790000Y-88810000D01*
X123790000Y-91690000D02*
X123790000Y-95808000D01*
X123830000Y-84714000D02*
X123830000Y-88810000D01*
X123830000Y-91690000D02*
X123830000Y-95786000D01*
X123870000Y-84736000D02*
X123870000Y-88810000D01*
X123870000Y-91690000D02*
X123870000Y-95764000D01*
X123910000Y-84759000D02*
X123910000Y-88810000D01*
X123910000Y-91690000D02*
X123910000Y-95741000D01*
X123950000Y-84782000D02*
X123950000Y-88810000D01*
X123950000Y-91690000D02*
X123950000Y-95718000D01*
X123990000Y-84806000D02*
X123990000Y-88810000D01*
X123990000Y-91690000D02*
X123990000Y-95694000D01*
X124030000Y-84829000D02*
X124030000Y-88810000D01*
X124030000Y-91690000D02*
X124030000Y-95671000D01*
X124070000Y-84854000D02*
X124070000Y-88810000D01*
X124070000Y-91690000D02*
X124070000Y-95646000D01*
X124110000Y-84878000D02*
X124110000Y-88810000D01*
X124110000Y-91690000D02*
X124110000Y-95622000D01*
X124150000Y-84903000D02*
X124150000Y-88810000D01*
X124150000Y-91690000D02*
X124150000Y-95597000D01*
X124190000Y-84929000D02*
X124190000Y-88810000D01*
X124190000Y-91690000D02*
X124190000Y-95571000D01*
X124230000Y-84955000D02*
X124230000Y-88810000D01*
X124230000Y-91690000D02*
X124230000Y-95545000D01*
X124270000Y-84981000D02*
X124270000Y-88810000D01*
X124270000Y-91690000D02*
X124270000Y-95519000D01*
X124310000Y-85008000D02*
X124310000Y-88810000D01*
X124310000Y-91690000D02*
X124310000Y-95492000D01*
X124350000Y-85035000D02*
X124350000Y-88810000D01*
X124350000Y-91690000D02*
X124350000Y-95465000D01*
X124390000Y-85062000D02*
X124390000Y-88810000D01*
X124390000Y-91690000D02*
X124390000Y-95438000D01*
X124430000Y-85091000D02*
X124430000Y-88810000D01*
X124430000Y-91690000D02*
X124430000Y-95409000D01*
X124470000Y-85119000D02*
X124470000Y-88810000D01*
X124470000Y-91690000D02*
X124470000Y-95381000D01*
X124510000Y-85148000D02*
X124510000Y-88810000D01*
X124510000Y-91690000D02*
X124510000Y-95352000D01*
X124550000Y-85178000D02*
X124550000Y-88810000D01*
X124550000Y-91690000D02*
X124550000Y-95322000D01*
X124590000Y-85208000D02*
X124590000Y-88810000D01*
X124590000Y-91690000D02*
X124590000Y-95292000D01*
X124630000Y-85238000D02*
X124630000Y-88810000D01*
X124630000Y-91690000D02*
X124630000Y-95262000D01*
X124670000Y-85269000D02*
X124670000Y-88810000D01*
X124670000Y-91690000D02*
X124670000Y-95231000D01*
X124710000Y-85300000D02*
X124710000Y-95200000D01*
X124750000Y-85332000D02*
X124750000Y-95168000D01*
X124790000Y-85365000D02*
X124790000Y-95135000D01*
X124830000Y-85398000D02*
X124830000Y-95102000D01*
X124870000Y-85432000D02*
X124870000Y-95068000D01*
X124910000Y-85466000D02*
X124910000Y-95034000D01*
X124950000Y-85501000D02*
X124950000Y-94999000D01*
X124990000Y-85536000D02*
X124990000Y-94964000D01*
X125030000Y-85572000D02*
X125030000Y-94928000D01*
X125070000Y-85609000D02*
X125070000Y-94891000D01*
X125110000Y-85646000D02*
X125110000Y-94854000D01*
X125150000Y-85684000D02*
X125150000Y-94816000D01*
X125190000Y-85722000D02*
X125190000Y-94778000D01*
X125230000Y-85762000D02*
X125230000Y-94738000D01*
X125270000Y-85802000D02*
X125270000Y-94698000D01*
X125310000Y-85842000D02*
X125310000Y-94658000D01*
X125350000Y-85884000D02*
X125350000Y-94616000D01*
X125390000Y-85926000D02*
X125390000Y-94574000D01*
X125430000Y-85969000D02*
X125430000Y-94531000D01*
X125470000Y-86012000D02*
X125470000Y-94488000D01*
X125510000Y-86057000D02*
X125510000Y-94443000D01*
X125550000Y-86102000D02*
X125550000Y-94398000D01*
X125590000Y-86149000D02*
X125590000Y-94351000D01*
X125630000Y-86196000D02*
X125630000Y-94304000D01*
X125670000Y-86244000D02*
X125670000Y-94256000D01*
X125710000Y-86293000D02*
X125710000Y-94207000D01*
X125750000Y-86343000D02*
X125750000Y-94157000D01*
X125790000Y-86394000D02*
X125790000Y-94106000D01*
X125830000Y-86447000D02*
X125830000Y-94053000D01*
X125870000Y-86500000D02*
X125870000Y-94000000D01*
X125910000Y-86555000D02*
X125910000Y-93945000D01*
X125950000Y-86611000D02*
X125950000Y-93889000D01*
X125990000Y-86668000D02*
X125990000Y-93832000D01*
X126030000Y-86727000D02*
X126030000Y-93773000D01*
X126070000Y-86787000D02*
X126070000Y-93713000D01*
X126110000Y-86848000D02*
X126110000Y-93652000D01*
X126150000Y-86911000D02*
X126150000Y-93589000D01*
X126190000Y-86976000D02*
X126190000Y-93524000D01*
X126230000Y-87042000D02*
X126230000Y-93458000D01*
X126270000Y-87111000D02*
X126270000Y-93389000D01*
X126310000Y-87181000D02*
X126310000Y-93319000D01*
X126350000Y-87254000D02*
X126350000Y-93246000D01*
X126390000Y-87329000D02*
X126390000Y-93171000D01*
X126430000Y-87407000D02*
X126430000Y-93093000D01*
X126470000Y-87487000D02*
X126470000Y-93013000D01*
X126510000Y-87570000D02*
X126510000Y-92930000D01*
X126550000Y-87656000D02*
X126550000Y-92844000D01*
X126590000Y-87746000D02*
X126590000Y-92754000D01*
X126630000Y-87840000D02*
X126630000Y-92660000D01*
X126670000Y-87938000D02*
X126670000Y-92562000D01*
X126710000Y-88042000D02*
X126710000Y-92458000D01*
X126750000Y-88151000D02*
X126750000Y-92349000D01*
X126790000Y-88266000D02*
X126790000Y-92234000D01*
X126830000Y-88390000D02*
X126830000Y-92110000D01*
X126870000Y-88523000D02*
X126870000Y-91977000D01*
X126910000Y-88668000D02*
X126910000Y-91832000D01*
X126950000Y-88828000D02*
X126950000Y-91672000D01*
X126990000Y-89010000D02*
X126990000Y-91490000D01*
X127030000Y-89223000D02*
X127030000Y-91277000D01*
X127070000Y-89493000D02*
X127070000Y-91007000D01*
X127110000Y-89933000D02*
X127110000Y-90567000D01*
X127120000Y-90250000D02*
G75*
G02*
X114380000Y-90250000I-6370000J0D01*
G01*
X114380000Y-90250000D02*
G75*
G02*
X127120000Y-90250000I6370000J0D01*
G01*
%TO.C,R17*%
X133762742Y-107977500D02*
X134237258Y-107977500D01*
X133762742Y-109022500D02*
X134237258Y-109022500D01*
%TO.C,J1*%
D10*
X97750000Y-82500000D02*
X97750000Y-76000000D01*
X97750000Y-83500000D02*
X97750000Y-91500000D01*
X99500000Y-93250000D02*
X100500000Y-93250000D01*
X103250000Y-93250000D02*
X107750000Y-93250000D01*
X110500000Y-93249999D02*
X111499999Y-93249999D01*
X113250000Y-76000000D02*
X97750000Y-76000000D01*
X113250000Y-82500000D02*
X113250000Y-76000000D01*
X113250000Y-83500000D02*
X113250000Y-91500000D01*
X99500000Y-93250000D02*
G75*
G02*
X97750000Y-91500000I0J1750000D01*
G01*
X113250000Y-91500000D02*
G75*
G02*
X111500000Y-93250000I-1750000J0D01*
G01*
%TO.C,SW2*%
X159400000Y-97300000D02*
X159400000Y-98250000D01*
X159400000Y-97300000D02*
X174100000Y-97300000D01*
X159400000Y-101700000D02*
X159400000Y-100750000D01*
X159400000Y-101700000D02*
X174100000Y-101700000D01*
X174100000Y-97300000D02*
X174100000Y-98250000D01*
X174100000Y-101700000D02*
X174100000Y-100750000D01*
%TO.C,Q3*%
X127750000Y-107750000D02*
X127590000Y-107750000D01*
X127750000Y-110750000D02*
X127590000Y-110750000D01*
X128600000Y-107750000D02*
X128825000Y-107750000D01*
X128600000Y-110750000D02*
X128825000Y-110750000D01*
X129900000Y-107750000D02*
X129675000Y-107750000D01*
X129900000Y-110750000D02*
X129675000Y-110750000D01*
X130750000Y-107750000D02*
X130910000Y-107750000D01*
X130750000Y-110750000D02*
X130910000Y-110750000D01*
D15*
X131875000Y-111500000D02*
G75*
G02*
X131625000Y-111500000I-125000J0D01*
G01*
X131625000Y-111500000D02*
G75*
G02*
X131875000Y-111500000I125000J0D01*
G01*
%TO.C,J4*%
D14*
X177790000Y-91515000D02*
X177790000Y-93315000D01*
X177790000Y-98185000D02*
X176800000Y-98185000D01*
X177790000Y-99985000D02*
X177790000Y-98185000D01*
X179240000Y-91515000D02*
X177790000Y-91515000D01*
X179240000Y-99985000D02*
X177790000Y-99985000D01*
X182060000Y-98715000D02*
X182060000Y-92785000D01*
%TO.C,C24*%
X126490000Y-103109420D02*
X126490000Y-103390580D01*
X127510000Y-103109420D02*
X127510000Y-103390580D01*
%TO.C,C16*%
X147990000Y-103109420D02*
X147990000Y-103390580D01*
X149010000Y-103109420D02*
X149010000Y-103390580D01*
%TO.C,C17*%
X149490000Y-103109420D02*
X149490000Y-103390580D01*
X150510000Y-103109420D02*
X150510000Y-103390580D01*
%TO.C,C30*%
X118670000Y-130901000D02*
X118670000Y-132099000D01*
X118710000Y-130638000D02*
X118710000Y-132362000D01*
X118750000Y-130438000D02*
X118750000Y-132562000D01*
X118790000Y-130270000D02*
X118790000Y-132730000D01*
X118830000Y-130123000D02*
X118830000Y-132877000D01*
X118870000Y-129991000D02*
X118870000Y-133009000D01*
X118910000Y-129870000D02*
X118910000Y-133130000D01*
X118950000Y-129758000D02*
X118950000Y-133242000D01*
X118990000Y-129654000D02*
X118990000Y-133346000D01*
X119030000Y-129556000D02*
X119030000Y-133444000D01*
X119070000Y-129463000D02*
X119070000Y-133537000D01*
X119110000Y-129376000D02*
X119110000Y-133624000D01*
X119150000Y-129292000D02*
X119150000Y-133708000D01*
X119190000Y-129212000D02*
X119190000Y-133788000D01*
X119230000Y-129135000D02*
X119230000Y-133865000D01*
X119270000Y-129061000D02*
X119270000Y-133939000D01*
X119310000Y-128990000D02*
X119310000Y-134010000D01*
X119350000Y-128922000D02*
X119350000Y-134078000D01*
X119390000Y-128856000D02*
X119390000Y-134144000D01*
X119430000Y-128792000D02*
X119430000Y-134208000D01*
X119470000Y-128730000D02*
X119470000Y-134270000D01*
X119510000Y-128670000D02*
X119510000Y-134330000D01*
X119550000Y-128612000D02*
X119550000Y-134388000D01*
X119590000Y-128555000D02*
X119590000Y-134445000D01*
X119630000Y-128500000D02*
X119630000Y-134500000D01*
X119670000Y-128447000D02*
X119670000Y-134553000D01*
X119710000Y-128395000D02*
X119710000Y-134605000D01*
X119750000Y-128344000D02*
X119750000Y-134656000D01*
X119790000Y-128295000D02*
X119790000Y-134705000D01*
X119830000Y-128246000D02*
X119830000Y-134754000D01*
X119870000Y-128199000D02*
X119870000Y-134801000D01*
X119910000Y-128153000D02*
X119910000Y-134847000D01*
X119950000Y-128109000D02*
X119950000Y-134891000D01*
X119990000Y-128065000D02*
X119990000Y-134935000D01*
X120030000Y-128022000D02*
X120030000Y-130260000D01*
X120030000Y-132740000D02*
X120030000Y-134978000D01*
X120070000Y-127980000D02*
X120070000Y-130260000D01*
X120070000Y-132740000D02*
X120070000Y-135020000D01*
X120110000Y-127939000D02*
X120110000Y-130260000D01*
X120110000Y-132740000D02*
X120110000Y-135061000D01*
X120150000Y-127899000D02*
X120150000Y-130260000D01*
X120150000Y-132740000D02*
X120150000Y-135101000D01*
X120190000Y-127860000D02*
X120190000Y-130260000D01*
X120190000Y-132740000D02*
X120190000Y-135140000D01*
X120230000Y-127822000D02*
X120230000Y-130260000D01*
X120230000Y-132740000D02*
X120230000Y-135178000D01*
X120270000Y-127784000D02*
X120270000Y-130260000D01*
X120270000Y-132740000D02*
X120270000Y-135216000D01*
X120310000Y-127748000D02*
X120310000Y-130260000D01*
X120310000Y-132740000D02*
X120310000Y-135252000D01*
X120350000Y-127712000D02*
X120350000Y-130260000D01*
X120350000Y-132740000D02*
X120350000Y-135288000D01*
X120390000Y-127677000D02*
X120390000Y-130260000D01*
X120390000Y-132740000D02*
X120390000Y-135323000D01*
X120430000Y-127642000D02*
X120430000Y-130260000D01*
X120430000Y-132740000D02*
X120430000Y-135358000D01*
X120470000Y-127609000D02*
X120470000Y-130260000D01*
X120470000Y-132740000D02*
X120470000Y-135391000D01*
X120510000Y-127576000D02*
X120510000Y-130260000D01*
X120510000Y-132740000D02*
X120510000Y-135424000D01*
X120550000Y-127543000D02*
X120550000Y-130260000D01*
X120550000Y-132740000D02*
X120550000Y-135457000D01*
X120590000Y-127512000D02*
X120590000Y-130260000D01*
X120590000Y-132740000D02*
X120590000Y-135488000D01*
X120630000Y-127480000D02*
X120630000Y-130260000D01*
X120630000Y-132740000D02*
X120630000Y-135520000D01*
X120670000Y-127450000D02*
X120670000Y-130260000D01*
X120670000Y-132740000D02*
X120670000Y-135550000D01*
X120710000Y-127420000D02*
X120710000Y-130260000D01*
X120710000Y-132740000D02*
X120710000Y-135580000D01*
X120750000Y-127391000D02*
X120750000Y-130260000D01*
X120750000Y-132740000D02*
X120750000Y-135609000D01*
X120790000Y-127362000D02*
X120790000Y-130260000D01*
X120790000Y-132740000D02*
X120790000Y-135638000D01*
X120830000Y-127334000D02*
X120830000Y-130260000D01*
X120830000Y-132740000D02*
X120830000Y-135666000D01*
X120870000Y-127307000D02*
X120870000Y-130260000D01*
X120870000Y-132740000D02*
X120870000Y-135693000D01*
X120910000Y-127280000D02*
X120910000Y-130260000D01*
X120910000Y-132740000D02*
X120910000Y-135720000D01*
X120950000Y-127253000D02*
X120950000Y-130260000D01*
X120950000Y-132740000D02*
X120950000Y-135747000D01*
X120990000Y-127228000D02*
X120990000Y-130260000D01*
X120990000Y-132740000D02*
X120990000Y-135772000D01*
X121030000Y-127202000D02*
X121030000Y-130260000D01*
X121030000Y-132740000D02*
X121030000Y-135798000D01*
X121070000Y-127177000D02*
X121070000Y-130260000D01*
X121070000Y-132740000D02*
X121070000Y-135823000D01*
X121110000Y-127153000D02*
X121110000Y-130260000D01*
X121110000Y-132740000D02*
X121110000Y-135847000D01*
X121150000Y-127129000D02*
X121150000Y-130260000D01*
X121150000Y-132740000D02*
X121150000Y-135871000D01*
X121190000Y-127106000D02*
X121190000Y-130260000D01*
X121190000Y-132740000D02*
X121190000Y-135894000D01*
X121230000Y-127083000D02*
X121230000Y-130260000D01*
X121230000Y-132740000D02*
X121230000Y-135917000D01*
X121270000Y-127061000D02*
X121270000Y-130260000D01*
X121270000Y-132740000D02*
X121270000Y-135939000D01*
X121310000Y-127039000D02*
X121310000Y-130260000D01*
X121310000Y-132740000D02*
X121310000Y-135961000D01*
X121350000Y-127017000D02*
X121350000Y-130260000D01*
X121350000Y-132740000D02*
X121350000Y-135983000D01*
X121390000Y-126996000D02*
X121390000Y-130260000D01*
X121390000Y-132740000D02*
X121390000Y-136004000D01*
X121430000Y-126976000D02*
X121430000Y-130260000D01*
X121430000Y-132740000D02*
X121430000Y-136024000D01*
X121470000Y-126956000D02*
X121470000Y-130260000D01*
X121470000Y-132740000D02*
X121470000Y-136044000D01*
X121510000Y-126936000D02*
X121510000Y-130260000D01*
X121510000Y-132740000D02*
X121510000Y-136064000D01*
X121550000Y-126917000D02*
X121550000Y-130260000D01*
X121550000Y-132740000D02*
X121550000Y-136083000D01*
X121590000Y-126898000D02*
X121590000Y-130260000D01*
X121590000Y-132740000D02*
X121590000Y-136102000D01*
X121630000Y-126880000D02*
X121630000Y-130260000D01*
X121630000Y-132740000D02*
X121630000Y-136120000D01*
X121670000Y-126862000D02*
X121670000Y-130260000D01*
X121670000Y-132740000D02*
X121670000Y-136138000D01*
X121710000Y-126844000D02*
X121710000Y-130260000D01*
X121710000Y-132740000D02*
X121710000Y-136156000D01*
X121750000Y-126827000D02*
X121750000Y-130260000D01*
X121750000Y-132740000D02*
X121750000Y-136173000D01*
X121790000Y-126810000D02*
X121790000Y-130260000D01*
X121790000Y-132740000D02*
X121790000Y-136190000D01*
X121830000Y-126794000D02*
X121830000Y-130260000D01*
X121830000Y-132740000D02*
X121830000Y-136206000D01*
X121870000Y-126778000D02*
X121870000Y-130260000D01*
X121870000Y-132740000D02*
X121870000Y-136222000D01*
X121910000Y-126762000D02*
X121910000Y-130260000D01*
X121910000Y-132740000D02*
X121910000Y-136238000D01*
X121950000Y-126747000D02*
X121950000Y-130260000D01*
X121950000Y-132740000D02*
X121950000Y-136253000D01*
X121990000Y-126732000D02*
X121990000Y-130260000D01*
X121990000Y-132740000D02*
X121990000Y-136268000D01*
X122030000Y-126718000D02*
X122030000Y-130260000D01*
X122030000Y-132740000D02*
X122030000Y-136282000D01*
X122070000Y-126703000D02*
X122070000Y-130260000D01*
X122070000Y-132740000D02*
X122070000Y-136297000D01*
X122110000Y-126690000D02*
X122110000Y-130260000D01*
X122110000Y-132740000D02*
X122110000Y-136310000D01*
X122150000Y-126676000D02*
X122150000Y-130260000D01*
X122150000Y-132740000D02*
X122150000Y-136324000D01*
X122190000Y-126663000D02*
X122190000Y-130260000D01*
X122190000Y-132740000D02*
X122190000Y-136337000D01*
X122230000Y-126651000D02*
X122230000Y-130260000D01*
X122230000Y-132740000D02*
X122230000Y-136349000D01*
X122270000Y-126639000D02*
X122270000Y-130260000D01*
X122270000Y-132740000D02*
X122270000Y-136361000D01*
X122310000Y-126627000D02*
X122310000Y-130260000D01*
X122310000Y-132740000D02*
X122310000Y-136373000D01*
X122350000Y-126615000D02*
X122350000Y-130260000D01*
X122350000Y-132740000D02*
X122350000Y-136385000D01*
X122390000Y-126604000D02*
X122390000Y-130260000D01*
X122390000Y-132740000D02*
X122390000Y-136396000D01*
X122430000Y-126593000D02*
X122430000Y-130260000D01*
X122430000Y-132740000D02*
X122430000Y-136407000D01*
X122470000Y-126583000D02*
X122470000Y-130260000D01*
X122470000Y-132740000D02*
X122470000Y-136417000D01*
X122510000Y-126572000D02*
X122510000Y-136428000D01*
X122550000Y-126563000D02*
X122550000Y-136437000D01*
X122590000Y-126553000D02*
X122590000Y-136447000D01*
X122630000Y-126544000D02*
X122630000Y-136456000D01*
X122670000Y-126535000D02*
X122670000Y-136465000D01*
X122710000Y-126527000D02*
X122710000Y-136473000D01*
X122750000Y-126519000D02*
X122750000Y-136481000D01*
X122790000Y-126511000D02*
X122790000Y-136489000D01*
X122830000Y-126503000D02*
X122830000Y-136497000D01*
X122870000Y-126496000D02*
X122870000Y-136504000D01*
X122910000Y-126489000D02*
X122910000Y-136511000D01*
X122950000Y-126483000D02*
X122950000Y-136517000D01*
X122990000Y-126477000D02*
X122990000Y-136523000D01*
X123030000Y-126471000D02*
X123030000Y-136529000D01*
X123070000Y-126465000D02*
X123070000Y-136535000D01*
X123110000Y-126460000D02*
X123110000Y-136540000D01*
X123150000Y-126455000D02*
X123150000Y-136545000D01*
X123190000Y-126451000D02*
X123190000Y-136549000D01*
X123230000Y-126446000D02*
X123230000Y-136554000D01*
X123270000Y-126443000D02*
X123270000Y-136557000D01*
X123310000Y-126439000D02*
X123310000Y-136561000D01*
X123350000Y-126436000D02*
X123350000Y-136564000D01*
X123390000Y-126433000D02*
X123390000Y-136567000D01*
X123430000Y-126430000D02*
X123430000Y-136570000D01*
X123470000Y-126428000D02*
X123470000Y-136572000D01*
X123510000Y-126426000D02*
X123510000Y-136574000D01*
X123550000Y-126424000D02*
X123550000Y-136576000D01*
X123590000Y-126423000D02*
X123590000Y-136577000D01*
X123630000Y-126421000D02*
X123630000Y-136579000D01*
X123670000Y-126421000D02*
X123670000Y-136579000D01*
X123710000Y-126420000D02*
X123710000Y-136580000D01*
X123750000Y-126420000D02*
X123750000Y-136580000D01*
X128729646Y-128125000D02*
X128729646Y-129125000D01*
X129229646Y-128625000D02*
X128229646Y-128625000D01*
X128870000Y-131500000D02*
G75*
G02*
X118630000Y-131500000I-5120000J0D01*
G01*
X118630000Y-131500000D02*
G75*
G02*
X128870000Y-131500000I5120000J0D01*
G01*
%TO.C,TP2*%
X131200000Y-135250000D02*
G75*
G02*
X128800000Y-135250000I-1200000J0D01*
G01*
X128800000Y-135250000D02*
G75*
G02*
X131200000Y-135250000I1200000J0D01*
G01*
%TO.C,L1*%
D10*
X161750000Y-102250000D02*
X182750000Y-102250000D01*
X182750000Y-129750000D01*
X161750000Y-129750000D01*
X161750000Y-102250000D01*
%TO.C,D1*%
D14*
X156000000Y-112710000D02*
X154000000Y-112710000D01*
%TO.C,R12*%
X140977500Y-101012742D02*
X140977500Y-101487258D01*
X142022500Y-101012742D02*
X142022500Y-101487258D01*
%TO.C,C27*%
X130990000Y-103109420D02*
X130990000Y-103390580D01*
X132010000Y-103109420D02*
X132010000Y-103390580D01*
%TO.C,Q1*%
D10*
X149250000Y-107750000D02*
X149090000Y-107750000D01*
X149250000Y-110750000D02*
X149090000Y-110750000D01*
X150100000Y-107750000D02*
X150325000Y-107750000D01*
X150100000Y-110750000D02*
X150325000Y-110750000D01*
X151400000Y-107750000D02*
X151175000Y-107750000D01*
X151400000Y-110750000D02*
X151175000Y-110750000D01*
X152250000Y-107750000D02*
X152410000Y-107750000D01*
X152250000Y-110750000D02*
X152410000Y-110750000D01*
D15*
X148375000Y-107000000D02*
G75*
G02*
X148125000Y-107000000I-125000J0D01*
G01*
X148125000Y-107000000D02*
G75*
G02*
X148375000Y-107000000I125000J0D01*
G01*
%TO.C,R22*%
D14*
X133762742Y-113227500D02*
X134237258Y-113227500D01*
X133762742Y-114272500D02*
X134237258Y-114272500D01*
%TO.C,Q4*%
D10*
X127750000Y-112750000D02*
X127590000Y-112750000D01*
X127750000Y-115750000D02*
X127590000Y-115750000D01*
X128600000Y-112750000D02*
X128825000Y-112750000D01*
X128600000Y-115750000D02*
X128825000Y-115750000D01*
X129900000Y-112750000D02*
X129675000Y-112750000D01*
X129900000Y-115750000D02*
X129675000Y-115750000D01*
X130750000Y-112750000D02*
X130910000Y-112750000D01*
X130750000Y-115750000D02*
X130910000Y-115750000D01*
D15*
X131875000Y-116500000D02*
G75*
G02*
X131625000Y-116500000I-125000J0D01*
G01*
X131625000Y-116500000D02*
G75*
G02*
X131875000Y-116500000I125000J0D01*
G01*
%TO.C,C3*%
D14*
X150770354Y-128625000D02*
X151770354Y-128625000D01*
X151270354Y-128125000D02*
X151270354Y-129125000D01*
X156250000Y-126420000D02*
X156250000Y-136580000D01*
X156290000Y-126420000D02*
X156290000Y-136580000D01*
X156330000Y-126421000D02*
X156330000Y-136579000D01*
X156370000Y-126421000D02*
X156370000Y-136579000D01*
X156410000Y-126423000D02*
X156410000Y-136577000D01*
X156450000Y-126424000D02*
X156450000Y-136576000D01*
X156490000Y-126426000D02*
X156490000Y-136574000D01*
X156530000Y-126428000D02*
X156530000Y-136572000D01*
X156570000Y-126430000D02*
X156570000Y-136570000D01*
X156610000Y-126433000D02*
X156610000Y-136567000D01*
X156650000Y-126436000D02*
X156650000Y-136564000D01*
X156690000Y-126439000D02*
X156690000Y-136561000D01*
X156730000Y-126443000D02*
X156730000Y-136557000D01*
X156770000Y-126446000D02*
X156770000Y-136554000D01*
X156810000Y-126451000D02*
X156810000Y-136549000D01*
X156850000Y-126455000D02*
X156850000Y-136545000D01*
X156890000Y-126460000D02*
X156890000Y-136540000D01*
X156930000Y-126465000D02*
X156930000Y-136535000D01*
X156970000Y-126471000D02*
X156970000Y-136529000D01*
X157010000Y-126477000D02*
X157010000Y-136523000D01*
X157050000Y-126483000D02*
X157050000Y-136517000D01*
X157090000Y-126489000D02*
X157090000Y-136511000D01*
X157130000Y-126496000D02*
X157130000Y-136504000D01*
X157170000Y-126503000D02*
X157170000Y-136497000D01*
X157210000Y-126511000D02*
X157210000Y-136489000D01*
X157250000Y-126519000D02*
X157250000Y-136481000D01*
X157290000Y-126527000D02*
X157290000Y-136473000D01*
X157330000Y-126535000D02*
X157330000Y-136465000D01*
X157370000Y-126544000D02*
X157370000Y-136456000D01*
X157410000Y-126553000D02*
X157410000Y-136447000D01*
X157450000Y-126563000D02*
X157450000Y-136437000D01*
X157490000Y-126572000D02*
X157490000Y-136428000D01*
X157530000Y-126583000D02*
X157530000Y-130260000D01*
X157530000Y-132740000D02*
X157530000Y-136417000D01*
X157570000Y-126593000D02*
X157570000Y-130260000D01*
X157570000Y-132740000D02*
X157570000Y-136407000D01*
X157610000Y-126604000D02*
X157610000Y-130260000D01*
X157610000Y-132740000D02*
X157610000Y-136396000D01*
X157650000Y-126615000D02*
X157650000Y-130260000D01*
X157650000Y-132740000D02*
X157650000Y-136385000D01*
X157690000Y-126627000D02*
X157690000Y-130260000D01*
X157690000Y-132740000D02*
X157690000Y-136373000D01*
X157730000Y-126639000D02*
X157730000Y-130260000D01*
X157730000Y-132740000D02*
X157730000Y-136361000D01*
X157770000Y-126651000D02*
X157770000Y-130260000D01*
X157770000Y-132740000D02*
X157770000Y-136349000D01*
X157810000Y-126663000D02*
X157810000Y-130260000D01*
X157810000Y-132740000D02*
X157810000Y-136337000D01*
X157850000Y-126676000D02*
X157850000Y-130260000D01*
X157850000Y-132740000D02*
X157850000Y-136324000D01*
X157890000Y-126690000D02*
X157890000Y-130260000D01*
X157890000Y-132740000D02*
X157890000Y-136310000D01*
X157930000Y-126703000D02*
X157930000Y-130260000D01*
X157930000Y-132740000D02*
X157930000Y-136297000D01*
X157970000Y-126718000D02*
X157970000Y-130260000D01*
X157970000Y-132740000D02*
X157970000Y-136282000D01*
X158010000Y-126732000D02*
X158010000Y-130260000D01*
X158010000Y-132740000D02*
X158010000Y-136268000D01*
X158050000Y-126747000D02*
X158050000Y-130260000D01*
X158050000Y-132740000D02*
X158050000Y-136253000D01*
X158090000Y-126762000D02*
X158090000Y-130260000D01*
X158090000Y-132740000D02*
X158090000Y-136238000D01*
X158130000Y-126778000D02*
X158130000Y-130260000D01*
X158130000Y-132740000D02*
X158130000Y-136222000D01*
X158170000Y-126794000D02*
X158170000Y-130260000D01*
X158170000Y-132740000D02*
X158170000Y-136206000D01*
X158210000Y-126810000D02*
X158210000Y-130260000D01*
X158210000Y-132740000D02*
X158210000Y-136190000D01*
X158250000Y-126827000D02*
X158250000Y-130260000D01*
X158250000Y-132740000D02*
X158250000Y-136173000D01*
X158290000Y-126844000D02*
X158290000Y-130260000D01*
X158290000Y-132740000D02*
X158290000Y-136156000D01*
X158330000Y-126862000D02*
X158330000Y-130260000D01*
X158330000Y-132740000D02*
X158330000Y-136138000D01*
X158370000Y-126880000D02*
X158370000Y-130260000D01*
X158370000Y-132740000D02*
X158370000Y-136120000D01*
X158410000Y-126898000D02*
X158410000Y-130260000D01*
X158410000Y-132740000D02*
X158410000Y-136102000D01*
X158450000Y-126917000D02*
X158450000Y-130260000D01*
X158450000Y-132740000D02*
X158450000Y-136083000D01*
X158490000Y-126936000D02*
X158490000Y-130260000D01*
X158490000Y-132740000D02*
X158490000Y-136064000D01*
X158530000Y-126956000D02*
X158530000Y-130260000D01*
X158530000Y-132740000D02*
X158530000Y-136044000D01*
X158570000Y-126976000D02*
X158570000Y-130260000D01*
X158570000Y-132740000D02*
X158570000Y-136024000D01*
X158610000Y-126996000D02*
X158610000Y-130260000D01*
X158610000Y-132740000D02*
X158610000Y-136004000D01*
X158650000Y-127017000D02*
X158650000Y-130260000D01*
X158650000Y-132740000D02*
X158650000Y-135983000D01*
X158690000Y-127039000D02*
X158690000Y-130260000D01*
X158690000Y-132740000D02*
X158690000Y-135961000D01*
X158730000Y-127061000D02*
X158730000Y-130260000D01*
X158730000Y-132740000D02*
X158730000Y-135939000D01*
X158770000Y-127083000D02*
X158770000Y-130260000D01*
X158770000Y-132740000D02*
X158770000Y-135917000D01*
X158810000Y-127106000D02*
X158810000Y-130260000D01*
X158810000Y-132740000D02*
X158810000Y-135894000D01*
X158850000Y-127129000D02*
X158850000Y-130260000D01*
X158850000Y-132740000D02*
X158850000Y-135871000D01*
X158890000Y-127153000D02*
X158890000Y-130260000D01*
X158890000Y-132740000D02*
X158890000Y-135847000D01*
X158930000Y-127177000D02*
X158930000Y-130260000D01*
X158930000Y-132740000D02*
X158930000Y-135823000D01*
X158970000Y-127202000D02*
X158970000Y-130260000D01*
X158970000Y-132740000D02*
X158970000Y-135798000D01*
X159010000Y-127228000D02*
X159010000Y-130260000D01*
X159010000Y-132740000D02*
X159010000Y-135772000D01*
X159050000Y-127253000D02*
X159050000Y-130260000D01*
X159050000Y-132740000D02*
X159050000Y-135747000D01*
X159090000Y-127280000D02*
X159090000Y-130260000D01*
X159090000Y-132740000D02*
X159090000Y-135720000D01*
X159130000Y-127307000D02*
X159130000Y-130260000D01*
X159130000Y-132740000D02*
X159130000Y-135693000D01*
X159170000Y-127334000D02*
X159170000Y-130260000D01*
X159170000Y-132740000D02*
X159170000Y-135666000D01*
X159210000Y-127362000D02*
X159210000Y-130260000D01*
X159210000Y-132740000D02*
X159210000Y-135638000D01*
X159250000Y-127391000D02*
X159250000Y-130260000D01*
X159250000Y-132740000D02*
X159250000Y-135609000D01*
X159290000Y-127420000D02*
X159290000Y-130260000D01*
X159290000Y-132740000D02*
X159290000Y-135580000D01*
X159330000Y-127450000D02*
X159330000Y-130260000D01*
X159330000Y-132740000D02*
X159330000Y-135550000D01*
X159370000Y-127480000D02*
X159370000Y-130260000D01*
X159370000Y-132740000D02*
X159370000Y-135520000D01*
X159410000Y-127512000D02*
X159410000Y-130260000D01*
X159410000Y-132740000D02*
X159410000Y-135488000D01*
X159450000Y-127543000D02*
X159450000Y-130260000D01*
X159450000Y-132740000D02*
X159450000Y-135457000D01*
X159490000Y-127576000D02*
X159490000Y-130260000D01*
X159490000Y-132740000D02*
X159490000Y-135424000D01*
X159530000Y-127609000D02*
X159530000Y-130260000D01*
X159530000Y-132740000D02*
X159530000Y-135391000D01*
X159570000Y-127642000D02*
X159570000Y-130260000D01*
X159570000Y-132740000D02*
X159570000Y-135358000D01*
X159610000Y-127677000D02*
X159610000Y-130260000D01*
X159610000Y-132740000D02*
X159610000Y-135323000D01*
X159650000Y-127712000D02*
X159650000Y-130260000D01*
X159650000Y-132740000D02*
X159650000Y-135288000D01*
X159690000Y-127748000D02*
X159690000Y-130260000D01*
X159690000Y-132740000D02*
X159690000Y-135252000D01*
X159730000Y-127784000D02*
X159730000Y-130260000D01*
X159730000Y-132740000D02*
X159730000Y-135216000D01*
X159770000Y-127822000D02*
X159770000Y-130260000D01*
X159770000Y-132740000D02*
X159770000Y-135178000D01*
X159810000Y-127860000D02*
X159810000Y-130260000D01*
X159810000Y-132740000D02*
X159810000Y-135140000D01*
X159850000Y-127899000D02*
X159850000Y-130260000D01*
X159850000Y-132740000D02*
X159850000Y-135101000D01*
X159890000Y-127939000D02*
X159890000Y-130260000D01*
X159890000Y-132740000D02*
X159890000Y-135061000D01*
X159930000Y-127980000D02*
X159930000Y-130260000D01*
X159930000Y-132740000D02*
X159930000Y-135020000D01*
X159970000Y-128022000D02*
X159970000Y-130260000D01*
X159970000Y-132740000D02*
X159970000Y-134978000D01*
X160010000Y-128065000D02*
X160010000Y-134935000D01*
X160050000Y-128109000D02*
X160050000Y-134891000D01*
X160090000Y-128153000D02*
X160090000Y-134847000D01*
X160130000Y-128199000D02*
X160130000Y-134801000D01*
X160170000Y-128246000D02*
X160170000Y-134754000D01*
X160210000Y-128295000D02*
X160210000Y-134705000D01*
X160250000Y-128344000D02*
X160250000Y-134656000D01*
X160290000Y-128395000D02*
X160290000Y-134605000D01*
X160330000Y-128447000D02*
X160330000Y-134553000D01*
X160370000Y-128500000D02*
X160370000Y-134500000D01*
X160410000Y-128555000D02*
X160410000Y-134445000D01*
X160450000Y-128612000D02*
X160450000Y-134388000D01*
X160490000Y-128670000D02*
X160490000Y-134330000D01*
X160530000Y-128730000D02*
X160530000Y-134270000D01*
X160570000Y-128792000D02*
X160570000Y-134208000D01*
X160610000Y-128856000D02*
X160610000Y-134144000D01*
X160650000Y-128922000D02*
X160650000Y-134078000D01*
X160690000Y-128990000D02*
X160690000Y-134010000D01*
X160730000Y-129061000D02*
X160730000Y-133939000D01*
X160770000Y-129135000D02*
X160770000Y-133865000D01*
X160810000Y-129212000D02*
X160810000Y-133788000D01*
X160850000Y-129292000D02*
X160850000Y-133708000D01*
X160890000Y-129376000D02*
X160890000Y-133624000D01*
X160930000Y-129463000D02*
X160930000Y-133537000D01*
X160970000Y-129556000D02*
X160970000Y-133444000D01*
X161010000Y-129654000D02*
X161010000Y-133346000D01*
X161050000Y-129758000D02*
X161050000Y-133242000D01*
X161090000Y-129870000D02*
X161090000Y-133130000D01*
X161130000Y-129991000D02*
X161130000Y-133009000D01*
X161170000Y-130123000D02*
X161170000Y-132877000D01*
X161210000Y-130270000D02*
X161210000Y-132730000D01*
X161250000Y-130438000D02*
X161250000Y-132562000D01*
X161290000Y-130638000D02*
X161290000Y-132362000D01*
X161330000Y-130901000D02*
X161330000Y-132099000D01*
X161370000Y-131500000D02*
G75*
G02*
X151130000Y-131500000I-5120000J0D01*
G01*
X151130000Y-131500000D02*
G75*
G02*
X161370000Y-131500000I5120000J0D01*
G01*
%TO.C,J3*%
X173515000Y-86760000D02*
X173515000Y-88210000D01*
X173515000Y-88210000D02*
X175315000Y-88210000D01*
X180185000Y-88210000D02*
X180185000Y-89200000D01*
X180715000Y-83940000D02*
X174785000Y-83940000D01*
X181985000Y-86760000D02*
X181985000Y-88210000D01*
X181985000Y-88210000D02*
X180185000Y-88210000D01*
%TO.C,R3*%
X146237258Y-107977500D02*
X145762742Y-107977500D01*
X146237258Y-109022500D02*
X145762742Y-109022500D01*
%TO.C,TP1*%
X151200000Y-135250000D02*
G75*
G02*
X148800000Y-135250000I-1200000J0D01*
G01*
X148800000Y-135250000D02*
G75*
G02*
X151200000Y-135250000I1200000J0D01*
G01*
%TO.C,C21*%
X155490000Y-103109420D02*
X155490000Y-103390580D01*
X156510000Y-103109420D02*
X156510000Y-103390580D01*
%TO.C,R2*%
X137727500Y-101012742D02*
X137727500Y-101487258D01*
X138772500Y-101012742D02*
X138772500Y-101487258D01*
%TO.C,C18*%
X150990000Y-103109420D02*
X150990000Y-103390580D01*
X152010000Y-103109420D02*
X152010000Y-103390580D01*
%TO.C,R1*%
X139227500Y-101012742D02*
X139227500Y-101487258D01*
X140272500Y-101012742D02*
X140272500Y-101487258D01*
%TO.C,TH1*%
X140237258Y-115727500D02*
X139762742Y-115727500D01*
X140237258Y-116772500D02*
X139762742Y-116772500D01*
%TO.C,C39*%
X145740000Y-103140580D02*
X145740000Y-102859420D01*
X146760000Y-103140580D02*
X146760000Y-102859420D01*
%TO.C,L2*%
D10*
X97250000Y-102250000D02*
X118250000Y-102250000D01*
X118250000Y-129750000D01*
X97250000Y-129750000D01*
X97250000Y-102250000D01*
%TO.C,R7*%
D14*
X146237258Y-114227500D02*
X145762742Y-114227500D01*
X146237258Y-115272500D02*
X145762742Y-115272500D01*
%TO.C,C15*%
X155182918Y-86675000D02*
X156432918Y-86675000D01*
X155807918Y-86050000D02*
X155807918Y-87300000D01*
X162000000Y-83920000D02*
X162000000Y-96580000D01*
X162040000Y-83920000D02*
X162040000Y-96580000D01*
X162080000Y-83921000D02*
X162080000Y-96579000D01*
X162120000Y-83921000D02*
X162120000Y-96579000D01*
X162160000Y-83922000D02*
X162160000Y-96578000D01*
X162200000Y-83923000D02*
X162200000Y-96577000D01*
X162240000Y-83925000D02*
X162240000Y-96575000D01*
X162280000Y-83926000D02*
X162280000Y-96574000D01*
X162320000Y-83928000D02*
X162320000Y-96572000D01*
X162360000Y-83930000D02*
X162360000Y-96570000D01*
X162400000Y-83933000D02*
X162400000Y-96567000D01*
X162440000Y-83935000D02*
X162440000Y-96565000D01*
X162480000Y-83938000D02*
X162480000Y-96562000D01*
X162520000Y-83941000D02*
X162520000Y-96559000D01*
X162560000Y-83945000D02*
X162560000Y-96555000D01*
X162600000Y-83948000D02*
X162600000Y-96552000D01*
X162640000Y-83952000D02*
X162640000Y-96548000D01*
X162680000Y-83956000D02*
X162680000Y-96544000D01*
X162720000Y-83961000D02*
X162720000Y-96539000D01*
X162760000Y-83966000D02*
X162760000Y-96534000D01*
X162800000Y-83970000D02*
X162800000Y-96530000D01*
X162840000Y-83976000D02*
X162840000Y-96524000D01*
X162880000Y-83981000D02*
X162880000Y-96519000D01*
X162920000Y-83987000D02*
X162920000Y-96513000D01*
X162960000Y-83993000D02*
X162960000Y-96507000D01*
X163000000Y-83999000D02*
X163000000Y-96501000D01*
X163040000Y-84005000D02*
X163040000Y-96495000D01*
X163080000Y-84012000D02*
X163080000Y-88810000D01*
X163080000Y-91690000D02*
X163080000Y-96488000D01*
X163120000Y-84019000D02*
X163120000Y-88810000D01*
X163120000Y-91690000D02*
X163120000Y-96481000D01*
X163160000Y-84027000D02*
X163160000Y-88810000D01*
X163160000Y-91690000D02*
X163160000Y-96473000D01*
X163200000Y-84034000D02*
X163200000Y-88810000D01*
X163200000Y-91690000D02*
X163200000Y-96466000D01*
X163240000Y-84042000D02*
X163240000Y-88810000D01*
X163240000Y-91690000D02*
X163240000Y-96458000D01*
X163280000Y-84050000D02*
X163280000Y-88810000D01*
X163280000Y-91690000D02*
X163280000Y-96450000D01*
X163320000Y-84058000D02*
X163320000Y-88810000D01*
X163320000Y-91690000D02*
X163320000Y-96442000D01*
X163360000Y-84067000D02*
X163360000Y-88810000D01*
X163360000Y-91690000D02*
X163360000Y-96433000D01*
X163400000Y-84076000D02*
X163400000Y-88810000D01*
X163400000Y-91690000D02*
X163400000Y-96424000D01*
X163440000Y-84085000D02*
X163440000Y-88810000D01*
X163440000Y-91690000D02*
X163440000Y-96415000D01*
X163480000Y-84094000D02*
X163480000Y-88810000D01*
X163480000Y-91690000D02*
X163480000Y-96406000D01*
X163520000Y-84104000D02*
X163520000Y-88810000D01*
X163520000Y-91690000D02*
X163520000Y-96396000D01*
X163560000Y-84114000D02*
X163560000Y-88810000D01*
X163560000Y-91690000D02*
X163560000Y-96386000D01*
X163600000Y-84124000D02*
X163600000Y-88810000D01*
X163600000Y-91690000D02*
X163600000Y-96376000D01*
X163640000Y-84135000D02*
X163640000Y-88810000D01*
X163640000Y-91690000D02*
X163640000Y-96365000D01*
X163680000Y-84146000D02*
X163680000Y-88810000D01*
X163680000Y-91690000D02*
X163680000Y-96354000D01*
X163720000Y-84157000D02*
X163720000Y-88810000D01*
X163720000Y-91690000D02*
X163720000Y-96343000D01*
X163760000Y-84168000D02*
X163760000Y-88810000D01*
X163760000Y-91690000D02*
X163760000Y-96332000D01*
X163800000Y-84180000D02*
X163800000Y-88810000D01*
X163800000Y-91690000D02*
X163800000Y-96320000D01*
X163840000Y-84192000D02*
X163840000Y-88810000D01*
X163840000Y-91690000D02*
X163840000Y-96308000D01*
X163880000Y-84204000D02*
X163880000Y-88810000D01*
X163880000Y-91690000D02*
X163880000Y-96296000D01*
X163920000Y-84216000D02*
X163920000Y-88810000D01*
X163920000Y-91690000D02*
X163920000Y-96284000D01*
X163960000Y-84229000D02*
X163960000Y-88810000D01*
X163960000Y-91690000D02*
X163960000Y-96271000D01*
X164000000Y-84242000D02*
X164000000Y-88810000D01*
X164000000Y-91690000D02*
X164000000Y-96258000D01*
X164040000Y-84255000D02*
X164040000Y-88810000D01*
X164040000Y-91690000D02*
X164040000Y-96245000D01*
X164080000Y-84269000D02*
X164080000Y-88810000D01*
X164080000Y-91690000D02*
X164080000Y-96231000D01*
X164120000Y-84283000D02*
X164120000Y-88810000D01*
X164120000Y-91690000D02*
X164120000Y-96217000D01*
X164160000Y-84297000D02*
X164160000Y-88810000D01*
X164160000Y-91690000D02*
X164160000Y-96203000D01*
X164200000Y-84312000D02*
X164200000Y-88810000D01*
X164200000Y-91690000D02*
X164200000Y-96188000D01*
X164240000Y-84327000D02*
X164240000Y-88810000D01*
X164240000Y-91690000D02*
X164240000Y-96173000D01*
X164280000Y-84342000D02*
X164280000Y-88810000D01*
X164280000Y-91690000D02*
X164280000Y-96158000D01*
X164320000Y-84358000D02*
X164320000Y-88810000D01*
X164320000Y-91690000D02*
X164320000Y-96142000D01*
X164360000Y-84373000D02*
X164360000Y-88810000D01*
X164360000Y-91690000D02*
X164360000Y-96127000D01*
X164400000Y-84389000D02*
X164400000Y-88810000D01*
X164400000Y-91690000D02*
X164400000Y-96111000D01*
X164440000Y-84406000D02*
X164440000Y-88810000D01*
X164440000Y-91690000D02*
X164440000Y-96094000D01*
X164480000Y-84423000D02*
X164480000Y-88810000D01*
X164480000Y-91690000D02*
X164480000Y-96077000D01*
X164520000Y-84440000D02*
X164520000Y-88810000D01*
X164520000Y-91690000D02*
X164520000Y-96060000D01*
X164560000Y-84457000D02*
X164560000Y-88810000D01*
X164560000Y-91690000D02*
X164560000Y-96043000D01*
X164600000Y-84475000D02*
X164600000Y-88810000D01*
X164600000Y-91690000D02*
X164600000Y-96025000D01*
X164640000Y-84493000D02*
X164640000Y-88810000D01*
X164640000Y-91690000D02*
X164640000Y-96007000D01*
X164680000Y-84511000D02*
X164680000Y-88810000D01*
X164680000Y-91690000D02*
X164680000Y-95989000D01*
X164720000Y-84530000D02*
X164720000Y-88810000D01*
X164720000Y-91690000D02*
X164720000Y-95970000D01*
X164760000Y-84549000D02*
X164760000Y-88810000D01*
X164760000Y-91690000D02*
X164760000Y-95951000D01*
X164800000Y-84568000D02*
X164800000Y-88810000D01*
X164800000Y-91690000D02*
X164800000Y-95932000D01*
X164840000Y-84588000D02*
X164840000Y-88810000D01*
X164840000Y-91690000D02*
X164840000Y-95912000D01*
X164880000Y-84608000D02*
X164880000Y-88810000D01*
X164880000Y-91690000D02*
X164880000Y-95892000D01*
X164920000Y-84629000D02*
X164920000Y-88810000D01*
X164920000Y-91690000D02*
X164920000Y-95871000D01*
X164960000Y-84649000D02*
X164960000Y-88810000D01*
X164960000Y-91690000D02*
X164960000Y-95851000D01*
X165000000Y-84671000D02*
X165000000Y-88810000D01*
X165000000Y-91690000D02*
X165000000Y-95829000D01*
X165040000Y-84692000D02*
X165040000Y-88810000D01*
X165040000Y-91690000D02*
X165040000Y-95808000D01*
X165080000Y-84714000D02*
X165080000Y-88810000D01*
X165080000Y-91690000D02*
X165080000Y-95786000D01*
X165120000Y-84736000D02*
X165120000Y-88810000D01*
X165120000Y-91690000D02*
X165120000Y-95764000D01*
X165160000Y-84759000D02*
X165160000Y-88810000D01*
X165160000Y-91690000D02*
X165160000Y-95741000D01*
X165200000Y-84782000D02*
X165200000Y-88810000D01*
X165200000Y-91690000D02*
X165200000Y-95718000D01*
X165240000Y-84806000D02*
X165240000Y-88810000D01*
X165240000Y-91690000D02*
X165240000Y-95694000D01*
X165280000Y-84829000D02*
X165280000Y-88810000D01*
X165280000Y-91690000D02*
X165280000Y-95671000D01*
X165320000Y-84854000D02*
X165320000Y-88810000D01*
X165320000Y-91690000D02*
X165320000Y-95646000D01*
X165360000Y-84878000D02*
X165360000Y-88810000D01*
X165360000Y-91690000D02*
X165360000Y-95622000D01*
X165400000Y-84903000D02*
X165400000Y-88810000D01*
X165400000Y-91690000D02*
X165400000Y-95597000D01*
X165440000Y-84929000D02*
X165440000Y-88810000D01*
X165440000Y-91690000D02*
X165440000Y-95571000D01*
X165480000Y-84955000D02*
X165480000Y-88810000D01*
X165480000Y-91690000D02*
X165480000Y-95545000D01*
X165520000Y-84981000D02*
X165520000Y-88810000D01*
X165520000Y-91690000D02*
X165520000Y-95519000D01*
X165560000Y-85008000D02*
X165560000Y-88810000D01*
X165560000Y-91690000D02*
X165560000Y-95492000D01*
X165600000Y-85035000D02*
X165600000Y-88810000D01*
X165600000Y-91690000D02*
X165600000Y-95465000D01*
X165640000Y-85062000D02*
X165640000Y-88810000D01*
X165640000Y-91690000D02*
X165640000Y-95438000D01*
X165680000Y-85091000D02*
X165680000Y-88810000D01*
X165680000Y-91690000D02*
X165680000Y-95409000D01*
X165720000Y-85119000D02*
X165720000Y-88810000D01*
X165720000Y-91690000D02*
X165720000Y-95381000D01*
X165760000Y-85148000D02*
X165760000Y-88810000D01*
X165760000Y-91690000D02*
X165760000Y-95352000D01*
X165800000Y-85178000D02*
X165800000Y-88810000D01*
X165800000Y-91690000D02*
X165800000Y-95322000D01*
X165840000Y-85208000D02*
X165840000Y-88810000D01*
X165840000Y-91690000D02*
X165840000Y-95292000D01*
X165880000Y-85238000D02*
X165880000Y-88810000D01*
X165880000Y-91690000D02*
X165880000Y-95262000D01*
X165920000Y-85269000D02*
X165920000Y-88810000D01*
X165920000Y-91690000D02*
X165920000Y-95231000D01*
X165960000Y-85300000D02*
X165960000Y-95200000D01*
X166000000Y-85332000D02*
X166000000Y-95168000D01*
X166040000Y-85365000D02*
X166040000Y-95135000D01*
X166080000Y-85398000D02*
X166080000Y-95102000D01*
X166120000Y-85432000D02*
X166120000Y-95068000D01*
X166160000Y-85466000D02*
X166160000Y-95034000D01*
X166200000Y-85501000D02*
X166200000Y-94999000D01*
X166240000Y-85536000D02*
X166240000Y-94964000D01*
X166280000Y-85572000D02*
X166280000Y-94928000D01*
X166320000Y-85609000D02*
X166320000Y-94891000D01*
X166360000Y-85646000D02*
X166360000Y-94854000D01*
X166400000Y-85684000D02*
X166400000Y-94816000D01*
X166440000Y-85722000D02*
X166440000Y-94778000D01*
X166480000Y-85762000D02*
X166480000Y-94738000D01*
X166520000Y-85802000D02*
X166520000Y-94698000D01*
X166560000Y-85842000D02*
X166560000Y-94658000D01*
X166600000Y-85884000D02*
X166600000Y-94616000D01*
X166640000Y-85926000D02*
X166640000Y-94574000D01*
X166680000Y-85969000D02*
X166680000Y-94531000D01*
X166720000Y-86012000D02*
X166720000Y-94488000D01*
X166760000Y-86057000D02*
X166760000Y-94443000D01*
X166800000Y-86102000D02*
X166800000Y-94398000D01*
X166840000Y-86149000D02*
X166840000Y-94351000D01*
X166880000Y-86196000D02*
X166880000Y-94304000D01*
X166920000Y-86244000D02*
X166920000Y-94256000D01*
X166960000Y-86293000D02*
X166960000Y-94207000D01*
X167000000Y-86343000D02*
X167000000Y-94157000D01*
X167040000Y-86394000D02*
X167040000Y-94106000D01*
X167080000Y-86447000D02*
X167080000Y-94053000D01*
X167120000Y-86500000D02*
X167120000Y-94000000D01*
X167160000Y-86555000D02*
X167160000Y-93945000D01*
X167200000Y-86611000D02*
X167200000Y-93889000D01*
X167240000Y-86668000D02*
X167240000Y-93832000D01*
X167280000Y-86727000D02*
X167280000Y-93773000D01*
X167320000Y-86787000D02*
X167320000Y-93713000D01*
X167360000Y-86848000D02*
X167360000Y-93652000D01*
X167400000Y-86911000D02*
X167400000Y-93589000D01*
X167440000Y-86976000D02*
X167440000Y-93524000D01*
X167480000Y-87042000D02*
X167480000Y-93458000D01*
X167520000Y-87111000D02*
X167520000Y-93389000D01*
X167560000Y-87181000D02*
X167560000Y-93319000D01*
X167600000Y-87254000D02*
X167600000Y-93246000D01*
X167640000Y-87329000D02*
X167640000Y-93171000D01*
X167680000Y-87407000D02*
X167680000Y-93093000D01*
X167720000Y-87487000D02*
X167720000Y-93013000D01*
X167760000Y-87570000D02*
X167760000Y-92930000D01*
X167800000Y-87656000D02*
X167800000Y-92844000D01*
X167840000Y-87746000D02*
X167840000Y-92754000D01*
X167880000Y-87840000D02*
X167880000Y-92660000D01*
X167920000Y-87938000D02*
X167920000Y-92562000D01*
X167960000Y-88042000D02*
X167960000Y-92458000D01*
X168000000Y-88151000D02*
X168000000Y-92349000D01*
X168040000Y-88266000D02*
X168040000Y-92234000D01*
X168080000Y-88390000D02*
X168080000Y-92110000D01*
X168120000Y-88523000D02*
X168120000Y-91977000D01*
X168160000Y-88668000D02*
X168160000Y-91832000D01*
X168200000Y-88828000D02*
X168200000Y-91672000D01*
X168240000Y-89010000D02*
X168240000Y-91490000D01*
X168280000Y-89223000D02*
X168280000Y-91277000D01*
X168320000Y-89493000D02*
X168320000Y-91007000D01*
X168360000Y-89933000D02*
X168360000Y-90567000D01*
X168370000Y-90250000D02*
G75*
G02*
X155630000Y-90250000I-6370000J0D01*
G01*
X155630000Y-90250000D02*
G75*
G02*
X168370000Y-90250000I6370000J0D01*
G01*
%TO.C,C31*%
X140240000Y-112359420D02*
X140240000Y-112640580D01*
X141260000Y-112359420D02*
X141260000Y-112640580D01*
%TO.C,SW1*%
D10*
X105900000Y-97300000D02*
X105900000Y-98250000D01*
X105900000Y-97300000D02*
X120600000Y-97300000D01*
X105900000Y-101700000D02*
X105900000Y-100750000D01*
X105900000Y-101700000D02*
X120600000Y-101700000D01*
X120600000Y-97300000D02*
X120600000Y-98250000D01*
X120600000Y-101700000D02*
X120600000Y-100750000D01*
%TO.C,R4*%
D14*
X146237258Y-109477500D02*
X145762742Y-109477500D01*
X146237258Y-110522500D02*
X145762742Y-110522500D01*
%TO.C,Q2*%
D10*
X149250000Y-112750000D02*
X149090000Y-112750000D01*
X149250000Y-115750000D02*
X149090000Y-115750000D01*
X150100000Y-112750000D02*
X150325000Y-112750000D01*
X150100000Y-115750000D02*
X150325000Y-115750000D01*
X151400000Y-112750000D02*
X151175000Y-112750000D01*
X151400000Y-115750000D02*
X151175000Y-115750000D01*
X152250000Y-112750000D02*
X152410000Y-112750000D01*
X152250000Y-115750000D02*
X152410000Y-115750000D01*
D15*
X148375000Y-112000000D02*
G75*
G02*
X148125000Y-112000000I-125000J0D01*
G01*
X148125000Y-112000000D02*
G75*
G02*
X148375000Y-112000000I125000J0D01*
G01*
%TO.C,C35*%
D14*
X138740000Y-112640580D02*
X138740000Y-112359420D01*
X139760000Y-112640580D02*
X139760000Y-112359420D01*
%TO.C,R13*%
X134227500Y-105512742D02*
X134227500Y-105987258D01*
X135272500Y-105512742D02*
X135272500Y-105987258D01*
%TO.C,R19*%
X133762742Y-109477500D02*
X134237258Y-109477500D01*
X133762742Y-110522500D02*
X134237258Y-110522500D01*
%TO.C,C26*%
X129490000Y-103109420D02*
X129490000Y-103390580D01*
X130510000Y-103109420D02*
X130510000Y-103390580D01*
%TO.C,R20*%
X146237258Y-104727500D02*
X145762742Y-104727500D01*
X146237258Y-105772500D02*
X145762742Y-105772500D01*
%TO.C,R21*%
X133762742Y-114727500D02*
X134237258Y-114727500D01*
X133762742Y-115772500D02*
X134237258Y-115772500D01*
%TO.C,R8*%
X146237258Y-112727500D02*
X145762742Y-112727500D01*
X146237258Y-113772500D02*
X145762742Y-113772500D01*
%TO.C,C20*%
X153990000Y-103109420D02*
X153990000Y-103390580D01*
X155010000Y-103109420D02*
X155010000Y-103390580D01*
%TO.C,C13*%
X127682918Y-86675000D02*
X128932918Y-86675000D01*
X128307918Y-86050000D02*
X128307918Y-87300000D01*
X134500000Y-83920000D02*
X134500000Y-96580000D01*
X134540000Y-83920000D02*
X134540000Y-96580000D01*
X134580000Y-83921000D02*
X134580000Y-96579000D01*
X134620000Y-83921000D02*
X134620000Y-96579000D01*
X134660000Y-83922000D02*
X134660000Y-96578000D01*
X134700000Y-83923000D02*
X134700000Y-96577000D01*
X134740000Y-83925000D02*
X134740000Y-96575000D01*
X134780000Y-83926000D02*
X134780000Y-96574000D01*
X134820000Y-83928000D02*
X134820000Y-96572000D01*
X134860000Y-83930000D02*
X134860000Y-96570000D01*
X134900000Y-83933000D02*
X134900000Y-96567000D01*
X134940000Y-83935000D02*
X134940000Y-96565000D01*
X134980000Y-83938000D02*
X134980000Y-96562000D01*
X135020000Y-83941000D02*
X135020000Y-96559000D01*
X135060000Y-83945000D02*
X135060000Y-96555000D01*
X135100000Y-83948000D02*
X135100000Y-96552000D01*
X135140000Y-83952000D02*
X135140000Y-96548000D01*
X135180000Y-83956000D02*
X135180000Y-96544000D01*
X135220000Y-83961000D02*
X135220000Y-96539000D01*
X135260000Y-83966000D02*
X135260000Y-96534000D01*
X135300000Y-83970000D02*
X135300000Y-96530000D01*
X135340000Y-83976000D02*
X135340000Y-96524000D01*
X135380000Y-83981000D02*
X135380000Y-96519000D01*
X135420000Y-83987000D02*
X135420000Y-96513000D01*
X135460000Y-83993000D02*
X135460000Y-96507000D01*
X135500000Y-83999000D02*
X135500000Y-96501000D01*
X135540000Y-84005000D02*
X135540000Y-96495000D01*
X135580000Y-84012000D02*
X135580000Y-88810000D01*
X135580000Y-91690000D02*
X135580000Y-96488000D01*
X135620000Y-84019000D02*
X135620000Y-88810000D01*
X135620000Y-91690000D02*
X135620000Y-96481000D01*
X135660000Y-84027000D02*
X135660000Y-88810000D01*
X135660000Y-91690000D02*
X135660000Y-96473000D01*
X135700000Y-84034000D02*
X135700000Y-88810000D01*
X135700000Y-91690000D02*
X135700000Y-96466000D01*
X135740000Y-84042000D02*
X135740000Y-88810000D01*
X135740000Y-91690000D02*
X135740000Y-96458000D01*
X135780000Y-84050000D02*
X135780000Y-88810000D01*
X135780000Y-91690000D02*
X135780000Y-96450000D01*
X135820000Y-84058000D02*
X135820000Y-88810000D01*
X135820000Y-91690000D02*
X135820000Y-96442000D01*
X135860000Y-84067000D02*
X135860000Y-88810000D01*
X135860000Y-91690000D02*
X135860000Y-96433000D01*
X135900000Y-84076000D02*
X135900000Y-88810000D01*
X135900000Y-91690000D02*
X135900000Y-96424000D01*
X135940000Y-84085000D02*
X135940000Y-88810000D01*
X135940000Y-91690000D02*
X135940000Y-96415000D01*
X135980000Y-84094000D02*
X135980000Y-88810000D01*
X135980000Y-91690000D02*
X135980000Y-96406000D01*
X136020000Y-84104000D02*
X136020000Y-88810000D01*
X136020000Y-91690000D02*
X136020000Y-96396000D01*
X136060000Y-84114000D02*
X136060000Y-88810000D01*
X136060000Y-91690000D02*
X136060000Y-96386000D01*
X136100000Y-84124000D02*
X136100000Y-88810000D01*
X136100000Y-91690000D02*
X136100000Y-96376000D01*
X136140000Y-84135000D02*
X136140000Y-88810000D01*
X136140000Y-91690000D02*
X136140000Y-96365000D01*
X136180000Y-84146000D02*
X136180000Y-88810000D01*
X136180000Y-91690000D02*
X136180000Y-96354000D01*
X136220000Y-84157000D02*
X136220000Y-88810000D01*
X136220000Y-91690000D02*
X136220000Y-96343000D01*
X136260000Y-84168000D02*
X136260000Y-88810000D01*
X136260000Y-91690000D02*
X136260000Y-96332000D01*
X136300000Y-84180000D02*
X136300000Y-88810000D01*
X136300000Y-91690000D02*
X136300000Y-96320000D01*
X136340000Y-84192000D02*
X136340000Y-88810000D01*
X136340000Y-91690000D02*
X136340000Y-96308000D01*
X136380000Y-84204000D02*
X136380000Y-88810000D01*
X136380000Y-91690000D02*
X136380000Y-96296000D01*
X136420000Y-84216000D02*
X136420000Y-88810000D01*
X136420000Y-91690000D02*
X136420000Y-96284000D01*
X136460000Y-84229000D02*
X136460000Y-88810000D01*
X136460000Y-91690000D02*
X136460000Y-96271000D01*
X136500000Y-84242000D02*
X136500000Y-88810000D01*
X136500000Y-91690000D02*
X136500000Y-96258000D01*
X136540000Y-84255000D02*
X136540000Y-88810000D01*
X136540000Y-91690000D02*
X136540000Y-96245000D01*
X136580000Y-84269000D02*
X136580000Y-88810000D01*
X136580000Y-91690000D02*
X136580000Y-96231000D01*
X136620000Y-84283000D02*
X136620000Y-88810000D01*
X136620000Y-91690000D02*
X136620000Y-96217000D01*
X136660000Y-84297000D02*
X136660000Y-88810000D01*
X136660000Y-91690000D02*
X136660000Y-96203000D01*
X136700000Y-84312000D02*
X136700000Y-88810000D01*
X136700000Y-91690000D02*
X136700000Y-96188000D01*
X136740000Y-84327000D02*
X136740000Y-88810000D01*
X136740000Y-91690000D02*
X136740000Y-96173000D01*
X136780000Y-84342000D02*
X136780000Y-88810000D01*
X136780000Y-91690000D02*
X136780000Y-96158000D01*
X136820000Y-84358000D02*
X136820000Y-88810000D01*
X136820000Y-91690000D02*
X136820000Y-96142000D01*
X136860000Y-84373000D02*
X136860000Y-88810000D01*
X136860000Y-91690000D02*
X136860000Y-96127000D01*
X136900000Y-84389000D02*
X136900000Y-88810000D01*
X136900000Y-91690000D02*
X136900000Y-96111000D01*
X136940000Y-84406000D02*
X136940000Y-88810000D01*
X136940000Y-91690000D02*
X136940000Y-96094000D01*
X136980000Y-84423000D02*
X136980000Y-88810000D01*
X136980000Y-91690000D02*
X136980000Y-96077000D01*
X137020000Y-84440000D02*
X137020000Y-88810000D01*
X137020000Y-91690000D02*
X137020000Y-96060000D01*
X137060000Y-84457000D02*
X137060000Y-88810000D01*
X137060000Y-91690000D02*
X137060000Y-96043000D01*
X137100000Y-84475000D02*
X137100000Y-88810000D01*
X137100000Y-91690000D02*
X137100000Y-96025000D01*
X137140000Y-84493000D02*
X137140000Y-88810000D01*
X137140000Y-91690000D02*
X137140000Y-96007000D01*
X137180000Y-84511000D02*
X137180000Y-88810000D01*
X137180000Y-91690000D02*
X137180000Y-95989000D01*
X137220000Y-84530000D02*
X137220000Y-88810000D01*
X137220000Y-91690000D02*
X137220000Y-95970000D01*
X137260000Y-84549000D02*
X137260000Y-88810000D01*
X137260000Y-91690000D02*
X137260000Y-95951000D01*
X137300000Y-84568000D02*
X137300000Y-88810000D01*
X137300000Y-91690000D02*
X137300000Y-95932000D01*
X137340000Y-84588000D02*
X137340000Y-88810000D01*
X137340000Y-91690000D02*
X137340000Y-95912000D01*
X137380000Y-84608000D02*
X137380000Y-88810000D01*
X137380000Y-91690000D02*
X137380000Y-95892000D01*
X137420000Y-84629000D02*
X137420000Y-88810000D01*
X137420000Y-91690000D02*
X137420000Y-95871000D01*
X137460000Y-84649000D02*
X137460000Y-88810000D01*
X137460000Y-91690000D02*
X137460000Y-95851000D01*
X137500000Y-84671000D02*
X137500000Y-88810000D01*
X137500000Y-91690000D02*
X137500000Y-95829000D01*
X137540000Y-84692000D02*
X137540000Y-88810000D01*
X137540000Y-91690000D02*
X137540000Y-95808000D01*
X137580000Y-84714000D02*
X137580000Y-88810000D01*
X137580000Y-91690000D02*
X137580000Y-95786000D01*
X137620000Y-84736000D02*
X137620000Y-88810000D01*
X137620000Y-91690000D02*
X137620000Y-95764000D01*
X137660000Y-84759000D02*
X137660000Y-88810000D01*
X137660000Y-91690000D02*
X137660000Y-95741000D01*
X137700000Y-84782000D02*
X137700000Y-88810000D01*
X137700000Y-91690000D02*
X137700000Y-95718000D01*
X137740000Y-84806000D02*
X137740000Y-88810000D01*
X137740000Y-91690000D02*
X137740000Y-95694000D01*
X137780000Y-84829000D02*
X137780000Y-88810000D01*
X137780000Y-91690000D02*
X137780000Y-95671000D01*
X137820000Y-84854000D02*
X137820000Y-88810000D01*
X137820000Y-91690000D02*
X137820000Y-95646000D01*
X137860000Y-84878000D02*
X137860000Y-88810000D01*
X137860000Y-91690000D02*
X137860000Y-95622000D01*
X137900000Y-84903000D02*
X137900000Y-88810000D01*
X137900000Y-91690000D02*
X137900000Y-95597000D01*
X137940000Y-84929000D02*
X137940000Y-88810000D01*
X137940000Y-91690000D02*
X137940000Y-95571000D01*
X137980000Y-84955000D02*
X137980000Y-88810000D01*
X137980000Y-91690000D02*
X137980000Y-95545000D01*
X138020000Y-84981000D02*
X138020000Y-88810000D01*
X138020000Y-91690000D02*
X138020000Y-95519000D01*
X138060000Y-85008000D02*
X138060000Y-88810000D01*
X138060000Y-91690000D02*
X138060000Y-95492000D01*
X138100000Y-85035000D02*
X138100000Y-88810000D01*
X138100000Y-91690000D02*
X138100000Y-95465000D01*
X138140000Y-85062000D02*
X138140000Y-88810000D01*
X138140000Y-91690000D02*
X138140000Y-95438000D01*
X138180000Y-85091000D02*
X138180000Y-88810000D01*
X138180000Y-91690000D02*
X138180000Y-95409000D01*
X138220000Y-85119000D02*
X138220000Y-88810000D01*
X138220000Y-91690000D02*
X138220000Y-95381000D01*
X138260000Y-85148000D02*
X138260000Y-88810000D01*
X138260000Y-91690000D02*
X138260000Y-95352000D01*
X138300000Y-85178000D02*
X138300000Y-88810000D01*
X138300000Y-91690000D02*
X138300000Y-95322000D01*
X138340000Y-85208000D02*
X138340000Y-88810000D01*
X138340000Y-91690000D02*
X138340000Y-95292000D01*
X138380000Y-85238000D02*
X138380000Y-88810000D01*
X138380000Y-91690000D02*
X138380000Y-95262000D01*
X138420000Y-85269000D02*
X138420000Y-88810000D01*
X138420000Y-91690000D02*
X138420000Y-95231000D01*
X138460000Y-85300000D02*
X138460000Y-95200000D01*
X138500000Y-85332000D02*
X138500000Y-95168000D01*
X138540000Y-85365000D02*
X138540000Y-95135000D01*
X138580000Y-85398000D02*
X138580000Y-95102000D01*
X138620000Y-85432000D02*
X138620000Y-95068000D01*
X138660000Y-85466000D02*
X138660000Y-95034000D01*
X138700000Y-85501000D02*
X138700000Y-94999000D01*
X138740000Y-85536000D02*
X138740000Y-94964000D01*
X138780000Y-85572000D02*
X138780000Y-94928000D01*
X138820000Y-85609000D02*
X138820000Y-94891000D01*
X138860000Y-85646000D02*
X138860000Y-94854000D01*
X138900000Y-85684000D02*
X138900000Y-94816000D01*
X138940000Y-85722000D02*
X138940000Y-94778000D01*
X138980000Y-85762000D02*
X138980000Y-94738000D01*
X139020000Y-85802000D02*
X139020000Y-94698000D01*
X139060000Y-85842000D02*
X139060000Y-94658000D01*
X139100000Y-85884000D02*
X139100000Y-94616000D01*
X139140000Y-85926000D02*
X139140000Y-94574000D01*
X139180000Y-85969000D02*
X139180000Y-94531000D01*
X139220000Y-86012000D02*
X139220000Y-94488000D01*
X139260000Y-86057000D02*
X139260000Y-94443000D01*
X139300000Y-86102000D02*
X139300000Y-94398000D01*
X139340000Y-86149000D02*
X139340000Y-94351000D01*
X139380000Y-86196000D02*
X139380000Y-94304000D01*
X139420000Y-86244000D02*
X139420000Y-94256000D01*
X139460000Y-86293000D02*
X139460000Y-94207000D01*
X139500000Y-86343000D02*
X139500000Y-94157000D01*
X139540000Y-86394000D02*
X139540000Y-94106000D01*
X139580000Y-86447000D02*
X139580000Y-94053000D01*
X139620000Y-86500000D02*
X139620000Y-94000000D01*
X139660000Y-86555000D02*
X139660000Y-93945000D01*
X139700000Y-86611000D02*
X139700000Y-93889000D01*
X139740000Y-86668000D02*
X139740000Y-93832000D01*
X139780000Y-86727000D02*
X139780000Y-93773000D01*
X139820000Y-86787000D02*
X139820000Y-93713000D01*
X139860000Y-86848000D02*
X139860000Y-93652000D01*
X139900000Y-86911000D02*
X139900000Y-93589000D01*
X139940000Y-86976000D02*
X139940000Y-93524000D01*
X139980000Y-87042000D02*
X139980000Y-93458000D01*
X140020000Y-87111000D02*
X140020000Y-93389000D01*
X140060000Y-87181000D02*
X140060000Y-93319000D01*
X140100000Y-87254000D02*
X140100000Y-93246000D01*
X140140000Y-87329000D02*
X140140000Y-93171000D01*
X140180000Y-87407000D02*
X140180000Y-93093000D01*
X140220000Y-87487000D02*
X140220000Y-93013000D01*
X140260000Y-87570000D02*
X140260000Y-92930000D01*
X140300000Y-87656000D02*
X140300000Y-92844000D01*
X140340000Y-87746000D02*
X140340000Y-92754000D01*
X140380000Y-87840000D02*
X140380000Y-92660000D01*
X140420000Y-87938000D02*
X140420000Y-92562000D01*
X140460000Y-88042000D02*
X140460000Y-92458000D01*
X140500000Y-88151000D02*
X140500000Y-92349000D01*
X140540000Y-88266000D02*
X140540000Y-92234000D01*
X140580000Y-88390000D02*
X140580000Y-92110000D01*
X140620000Y-88523000D02*
X140620000Y-91977000D01*
X140660000Y-88668000D02*
X140660000Y-91832000D01*
X140700000Y-88828000D02*
X140700000Y-91672000D01*
X140740000Y-89010000D02*
X140740000Y-91490000D01*
X140780000Y-89223000D02*
X140780000Y-91277000D01*
X140820000Y-89493000D02*
X140820000Y-91007000D01*
X140860000Y-89933000D02*
X140860000Y-90567000D01*
X140870000Y-90250000D02*
G75*
G02*
X128130000Y-90250000I-6370000J0D01*
G01*
X128130000Y-90250000D02*
G75*
G02*
X140870000Y-90250000I6370000J0D01*
G01*
%TO.C,R11*%
X142477500Y-101012742D02*
X142477500Y-101487258D01*
X143522500Y-101012742D02*
X143522500Y-101487258D01*
%TO.C,U1*%
X136890000Y-103640000D02*
X137365000Y-103640000D01*
X136890000Y-104115000D02*
X136890000Y-103640000D01*
X136890000Y-109860000D02*
X136890000Y-109385000D01*
X137365000Y-109860000D02*
X136890000Y-109860000D01*
X142635000Y-103640000D02*
X143110000Y-103640000D01*
X143110000Y-103640000D02*
X143110000Y-104115000D01*
X143110000Y-109385000D02*
X143110000Y-109860000D01*
X143110000Y-109860000D02*
X142635000Y-109860000D01*
X142250000Y-103110000D02*
X142010000Y-102780000D01*
X142490000Y-102780000D01*
X142250000Y-103110000D01*
G36*
X142250000Y-103110000D02*
G01*
X142010000Y-102780000D01*
X142490000Y-102780000D01*
X142250000Y-103110000D01*
G37*
%TO.C,J2*%
D10*
X132250000Y-136500000D02*
X132250000Y-128500000D01*
X133250000Y-137500000D02*
X133250000Y-144000000D01*
X133250000Y-144000000D02*
X146750000Y-144000000D01*
X135000000Y-126750001D02*
X134000001Y-126750001D01*
X142250000Y-126750000D02*
X137750000Y-126750000D01*
X146000000Y-126750000D02*
X145000000Y-126750000D01*
X146750000Y-137500000D02*
X146750000Y-144000000D01*
X147750000Y-136500000D02*
X147750000Y-128500000D01*
X132250000Y-128500000D02*
G75*
G02*
X134000000Y-126750000I1750000J0D01*
G01*
X146000000Y-126750000D02*
G75*
G02*
X147750000Y-128500000I0J-1750000D01*
G01*
%TO.C,C14*%
D14*
X141432918Y-86675000D02*
X142682918Y-86675000D01*
X142057918Y-86050000D02*
X142057918Y-87300000D01*
X148250000Y-83920000D02*
X148250000Y-96580000D01*
X148290000Y-83920000D02*
X148290000Y-96580000D01*
X148330000Y-83921000D02*
X148330000Y-96579000D01*
X148370000Y-83921000D02*
X148370000Y-96579000D01*
X148410000Y-83922000D02*
X148410000Y-96578000D01*
X148450000Y-83923000D02*
X148450000Y-96577000D01*
X148490000Y-83925000D02*
X148490000Y-96575000D01*
X148530000Y-83926000D02*
X148530000Y-96574000D01*
X148570000Y-83928000D02*
X148570000Y-96572000D01*
X148610000Y-83930000D02*
X148610000Y-96570000D01*
X148650000Y-83933000D02*
X148650000Y-96567000D01*
X148690000Y-83935000D02*
X148690000Y-96565000D01*
X148730000Y-83938000D02*
X148730000Y-96562000D01*
X148770000Y-83941000D02*
X148770000Y-96559000D01*
X148810000Y-83945000D02*
X148810000Y-96555000D01*
X148850000Y-83948000D02*
X148850000Y-96552000D01*
X148890000Y-83952000D02*
X148890000Y-96548000D01*
X148930000Y-83956000D02*
X148930000Y-96544000D01*
X148970000Y-83961000D02*
X148970000Y-96539000D01*
X149010000Y-83966000D02*
X149010000Y-96534000D01*
X149050000Y-83970000D02*
X149050000Y-96530000D01*
X149090000Y-83976000D02*
X149090000Y-96524000D01*
X149130000Y-83981000D02*
X149130000Y-96519000D01*
X149170000Y-83987000D02*
X149170000Y-96513000D01*
X149210000Y-83993000D02*
X149210000Y-96507000D01*
X149250000Y-83999000D02*
X149250000Y-96501000D01*
X149290000Y-84005000D02*
X149290000Y-96495000D01*
X149330000Y-84012000D02*
X149330000Y-88810000D01*
X149330000Y-91690000D02*
X149330000Y-96488000D01*
X149370000Y-84019000D02*
X149370000Y-88810000D01*
X149370000Y-91690000D02*
X149370000Y-96481000D01*
X149410000Y-84027000D02*
X149410000Y-88810000D01*
X149410000Y-91690000D02*
X149410000Y-96473000D01*
X149450000Y-84034000D02*
X149450000Y-88810000D01*
X149450000Y-91690000D02*
X149450000Y-96466000D01*
X149490000Y-84042000D02*
X149490000Y-88810000D01*
X149490000Y-91690000D02*
X149490000Y-96458000D01*
X149530000Y-84050000D02*
X149530000Y-88810000D01*
X149530000Y-91690000D02*
X149530000Y-96450000D01*
X149570000Y-84058000D02*
X149570000Y-88810000D01*
X149570000Y-91690000D02*
X149570000Y-96442000D01*
X149610000Y-84067000D02*
X149610000Y-88810000D01*
X149610000Y-91690000D02*
X149610000Y-96433000D01*
X149650000Y-84076000D02*
X149650000Y-88810000D01*
X149650000Y-91690000D02*
X149650000Y-96424000D01*
X149690000Y-84085000D02*
X149690000Y-88810000D01*
X149690000Y-91690000D02*
X149690000Y-96415000D01*
X149730000Y-84094000D02*
X149730000Y-88810000D01*
X149730000Y-91690000D02*
X149730000Y-96406000D01*
X149770000Y-84104000D02*
X149770000Y-88810000D01*
X149770000Y-91690000D02*
X149770000Y-96396000D01*
X149810000Y-84114000D02*
X149810000Y-88810000D01*
X149810000Y-91690000D02*
X149810000Y-96386000D01*
X149850000Y-84124000D02*
X149850000Y-88810000D01*
X149850000Y-91690000D02*
X149850000Y-96376000D01*
X149890000Y-84135000D02*
X149890000Y-88810000D01*
X149890000Y-91690000D02*
X149890000Y-96365000D01*
X149930000Y-84146000D02*
X149930000Y-88810000D01*
X149930000Y-91690000D02*
X149930000Y-96354000D01*
X149970000Y-84157000D02*
X149970000Y-88810000D01*
X149970000Y-91690000D02*
X149970000Y-96343000D01*
X150010000Y-84168000D02*
X150010000Y-88810000D01*
X150010000Y-91690000D02*
X150010000Y-96332000D01*
X150050000Y-84180000D02*
X150050000Y-88810000D01*
X150050000Y-91690000D02*
X150050000Y-96320000D01*
X150090000Y-84192000D02*
X150090000Y-88810000D01*
X150090000Y-91690000D02*
X150090000Y-96308000D01*
X150130000Y-84204000D02*
X150130000Y-88810000D01*
X150130000Y-91690000D02*
X150130000Y-96296000D01*
X150170000Y-84216000D02*
X150170000Y-88810000D01*
X150170000Y-91690000D02*
X150170000Y-96284000D01*
X150210000Y-84229000D02*
X150210000Y-88810000D01*
X150210000Y-91690000D02*
X150210000Y-96271000D01*
X150250000Y-84242000D02*
X150250000Y-88810000D01*
X150250000Y-91690000D02*
X150250000Y-96258000D01*
X150290000Y-84255000D02*
X150290000Y-88810000D01*
X150290000Y-91690000D02*
X150290000Y-96245000D01*
X150330000Y-84269000D02*
X150330000Y-88810000D01*
X150330000Y-91690000D02*
X150330000Y-96231000D01*
X150370000Y-84283000D02*
X150370000Y-88810000D01*
X150370000Y-91690000D02*
X150370000Y-96217000D01*
X150410000Y-84297000D02*
X150410000Y-88810000D01*
X150410000Y-91690000D02*
X150410000Y-96203000D01*
X150450000Y-84312000D02*
X150450000Y-88810000D01*
X150450000Y-91690000D02*
X150450000Y-96188000D01*
X150490000Y-84327000D02*
X150490000Y-88810000D01*
X150490000Y-91690000D02*
X150490000Y-96173000D01*
X150530000Y-84342000D02*
X150530000Y-88810000D01*
X150530000Y-91690000D02*
X150530000Y-96158000D01*
X150570000Y-84358000D02*
X150570000Y-88810000D01*
X150570000Y-91690000D02*
X150570000Y-96142000D01*
X150610000Y-84373000D02*
X150610000Y-88810000D01*
X150610000Y-91690000D02*
X150610000Y-96127000D01*
X150650000Y-84389000D02*
X150650000Y-88810000D01*
X150650000Y-91690000D02*
X150650000Y-96111000D01*
X150690000Y-84406000D02*
X150690000Y-88810000D01*
X150690000Y-91690000D02*
X150690000Y-96094000D01*
X150730000Y-84423000D02*
X150730000Y-88810000D01*
X150730000Y-91690000D02*
X150730000Y-96077000D01*
X150770000Y-84440000D02*
X150770000Y-88810000D01*
X150770000Y-91690000D02*
X150770000Y-96060000D01*
X150810000Y-84457000D02*
X150810000Y-88810000D01*
X150810000Y-91690000D02*
X150810000Y-96043000D01*
X150850000Y-84475000D02*
X150850000Y-88810000D01*
X150850000Y-91690000D02*
X150850000Y-96025000D01*
X150890000Y-84493000D02*
X150890000Y-88810000D01*
X150890000Y-91690000D02*
X150890000Y-96007000D01*
X150930000Y-84511000D02*
X150930000Y-88810000D01*
X150930000Y-91690000D02*
X150930000Y-95989000D01*
X150970000Y-84530000D02*
X150970000Y-88810000D01*
X150970000Y-91690000D02*
X150970000Y-95970000D01*
X151010000Y-84549000D02*
X151010000Y-88810000D01*
X151010000Y-91690000D02*
X151010000Y-95951000D01*
X151050000Y-84568000D02*
X151050000Y-88810000D01*
X151050000Y-91690000D02*
X151050000Y-95932000D01*
X151090000Y-84588000D02*
X151090000Y-88810000D01*
X151090000Y-91690000D02*
X151090000Y-95912000D01*
X151130000Y-84608000D02*
X151130000Y-88810000D01*
X151130000Y-91690000D02*
X151130000Y-95892000D01*
X151170000Y-84629000D02*
X151170000Y-88810000D01*
X151170000Y-91690000D02*
X151170000Y-95871000D01*
X151210000Y-84649000D02*
X151210000Y-88810000D01*
X151210000Y-91690000D02*
X151210000Y-95851000D01*
X151250000Y-84671000D02*
X151250000Y-88810000D01*
X151250000Y-91690000D02*
X151250000Y-95829000D01*
X151290000Y-84692000D02*
X151290000Y-88810000D01*
X151290000Y-91690000D02*
X151290000Y-95808000D01*
X151330000Y-84714000D02*
X151330000Y-88810000D01*
X151330000Y-91690000D02*
X151330000Y-95786000D01*
X151370000Y-84736000D02*
X151370000Y-88810000D01*
X151370000Y-91690000D02*
X151370000Y-95764000D01*
X151410000Y-84759000D02*
X151410000Y-88810000D01*
X151410000Y-91690000D02*
X151410000Y-95741000D01*
X151450000Y-84782000D02*
X151450000Y-88810000D01*
X151450000Y-91690000D02*
X151450000Y-95718000D01*
X151490000Y-84806000D02*
X151490000Y-88810000D01*
X151490000Y-91690000D02*
X151490000Y-95694000D01*
X151530000Y-84829000D02*
X151530000Y-88810000D01*
X151530000Y-91690000D02*
X151530000Y-95671000D01*
X151570000Y-84854000D02*
X151570000Y-88810000D01*
X151570000Y-91690000D02*
X151570000Y-95646000D01*
X151610000Y-84878000D02*
X151610000Y-88810000D01*
X151610000Y-91690000D02*
X151610000Y-95622000D01*
X151650000Y-84903000D02*
X151650000Y-88810000D01*
X151650000Y-91690000D02*
X151650000Y-95597000D01*
X151690000Y-84929000D02*
X151690000Y-88810000D01*
X151690000Y-91690000D02*
X151690000Y-95571000D01*
X151730000Y-84955000D02*
X151730000Y-88810000D01*
X151730000Y-91690000D02*
X151730000Y-95545000D01*
X151770000Y-84981000D02*
X151770000Y-88810000D01*
X151770000Y-91690000D02*
X151770000Y-95519000D01*
X151810000Y-85008000D02*
X151810000Y-88810000D01*
X151810000Y-91690000D02*
X151810000Y-95492000D01*
X151850000Y-85035000D02*
X151850000Y-88810000D01*
X151850000Y-91690000D02*
X151850000Y-95465000D01*
X151890000Y-85062000D02*
X151890000Y-88810000D01*
X151890000Y-91690000D02*
X151890000Y-95438000D01*
X151930000Y-85091000D02*
X151930000Y-88810000D01*
X151930000Y-91690000D02*
X151930000Y-95409000D01*
X151970000Y-85119000D02*
X151970000Y-88810000D01*
X151970000Y-91690000D02*
X151970000Y-95381000D01*
X152010000Y-85148000D02*
X152010000Y-88810000D01*
X152010000Y-91690000D02*
X152010000Y-95352000D01*
X152050000Y-85178000D02*
X152050000Y-88810000D01*
X152050000Y-91690000D02*
X152050000Y-95322000D01*
X152090000Y-85208000D02*
X152090000Y-88810000D01*
X152090000Y-91690000D02*
X152090000Y-95292000D01*
X152130000Y-85238000D02*
X152130000Y-88810000D01*
X152130000Y-91690000D02*
X152130000Y-95262000D01*
X152170000Y-85269000D02*
X152170000Y-88810000D01*
X152170000Y-91690000D02*
X152170000Y-95231000D01*
X152210000Y-85300000D02*
X152210000Y-95200000D01*
X152250000Y-85332000D02*
X152250000Y-95168000D01*
X152290000Y-85365000D02*
X152290000Y-95135000D01*
X152330000Y-85398000D02*
X152330000Y-95102000D01*
X152370000Y-85432000D02*
X152370000Y-95068000D01*
X152410000Y-85466000D02*
X152410000Y-95034000D01*
X152450000Y-85501000D02*
X152450000Y-94999000D01*
X152490000Y-85536000D02*
X152490000Y-94964000D01*
X152530000Y-85572000D02*
X152530000Y-94928000D01*
X152570000Y-85609000D02*
X152570000Y-94891000D01*
X152610000Y-85646000D02*
X152610000Y-94854000D01*
X152650000Y-85684000D02*
X152650000Y-94816000D01*
X152690000Y-85722000D02*
X152690000Y-94778000D01*
X152730000Y-85762000D02*
X152730000Y-94738000D01*
X152770000Y-85802000D02*
X152770000Y-94698000D01*
X152810000Y-85842000D02*
X152810000Y-94658000D01*
X152850000Y-85884000D02*
X152850000Y-94616000D01*
X152890000Y-85926000D02*
X152890000Y-94574000D01*
X152930000Y-85969000D02*
X152930000Y-94531000D01*
X152970000Y-86012000D02*
X152970000Y-94488000D01*
X153010000Y-86057000D02*
X153010000Y-94443000D01*
X153050000Y-86102000D02*
X153050000Y-94398000D01*
X153090000Y-86149000D02*
X153090000Y-94351000D01*
X153130000Y-86196000D02*
X153130000Y-94304000D01*
X153170000Y-86244000D02*
X153170000Y-94256000D01*
X153210000Y-86293000D02*
X153210000Y-94207000D01*
X153250000Y-86343000D02*
X153250000Y-94157000D01*
X153290000Y-86394000D02*
X153290000Y-94106000D01*
X153330000Y-86447000D02*
X153330000Y-94053000D01*
X153370000Y-86500000D02*
X153370000Y-94000000D01*
X153410000Y-86555000D02*
X153410000Y-93945000D01*
X153450000Y-86611000D02*
X153450000Y-93889000D01*
X153490000Y-86668000D02*
X153490000Y-93832000D01*
X153530000Y-86727000D02*
X153530000Y-93773000D01*
X153570000Y-86787000D02*
X153570000Y-93713000D01*
X153610000Y-86848000D02*
X153610000Y-93652000D01*
X153650000Y-86911000D02*
X153650000Y-93589000D01*
X153690000Y-86976000D02*
X153690000Y-93524000D01*
X153730000Y-87042000D02*
X153730000Y-93458000D01*
X153770000Y-87111000D02*
X153770000Y-93389000D01*
X153810000Y-87181000D02*
X153810000Y-93319000D01*
X153850000Y-87254000D02*
X153850000Y-93246000D01*
X153890000Y-87329000D02*
X153890000Y-93171000D01*
X153930000Y-87407000D02*
X153930000Y-93093000D01*
X153970000Y-87487000D02*
X153970000Y-93013000D01*
X154010000Y-87570000D02*
X154010000Y-92930000D01*
X154050000Y-87656000D02*
X154050000Y-92844000D01*
X154090000Y-87746000D02*
X154090000Y-92754000D01*
X154130000Y-87840000D02*
X154130000Y-92660000D01*
X154170000Y-87938000D02*
X154170000Y-92562000D01*
X154210000Y-88042000D02*
X154210000Y-92458000D01*
X154250000Y-88151000D02*
X154250000Y-92349000D01*
X154290000Y-88266000D02*
X154290000Y-92234000D01*
X154330000Y-88390000D02*
X154330000Y-92110000D01*
X154370000Y-88523000D02*
X154370000Y-91977000D01*
X154410000Y-88668000D02*
X154410000Y-91832000D01*
X154450000Y-88828000D02*
X154450000Y-91672000D01*
X154490000Y-89010000D02*
X154490000Y-91490000D01*
X154530000Y-89223000D02*
X154530000Y-91277000D01*
X154570000Y-89493000D02*
X154570000Y-91007000D01*
X154610000Y-89933000D02*
X154610000Y-90567000D01*
X154620000Y-90250000D02*
G75*
G02*
X141880000Y-90250000I-6370000J0D01*
G01*
X141880000Y-90250000D02*
G75*
G02*
X154620000Y-90250000I6370000J0D01*
G01*
%TO.C,C41*%
X135740000Y-111359420D02*
X135740000Y-111640580D01*
X136760000Y-111359420D02*
X136760000Y-111640580D01*
%TO.C,C38*%
X146140580Y-106240000D02*
X145859420Y-106240000D01*
X146140580Y-107260000D02*
X145859420Y-107260000D01*
%TO.C,C34*%
X143240000Y-111359420D02*
X143240000Y-111640580D01*
X144260000Y-111359420D02*
X144260000Y-111640580D01*
%TD*%
M02*
