%TF.GenerationSoftware,KiCad,Pcbnew,10.0.0*%
%TF.CreationDate,2026-03-30T02:23:06-04:00*%
%TF.ProjectId,LTC7890_Buck,4c544337-3839-4305-9f42-75636b2e6b69,rev?*%
%TF.SameCoordinates,Original*%
%TF.FileFunction,Legend,Bot*%
%TF.FilePolarity,Positive*%
%FSLAX46Y46*%
G04 Gerber Fmt 4.6, Leading zero omitted, Abs format (unit mm)*
G04 Created by KiCad (PCBNEW 10.0.0) date 2026-03-30 02:23:06*
%MOMM*%
%LPD*%
G01*
G04 APERTURE LIST*
%ADD10C,0.150000*%
%ADD11C,0.120000*%
%ADD12C,0.100000*%
G04 APERTURE END LIST*
D10*
X152273809Y-99169104D02*
X151797619Y-99169104D01*
X152369047Y-99454819D02*
X152035714Y-98454819D01*
X152035714Y-98454819D02*
X151702381Y-99454819D01*
X151226190Y-99454819D02*
X151321428Y-99407200D01*
X151321428Y-99407200D02*
X151369047Y-99311961D01*
X151369047Y-99311961D02*
X151369047Y-98454819D01*
X150464285Y-99407200D02*
X150559523Y-99454819D01*
X150559523Y-99454819D02*
X150749999Y-99454819D01*
X150749999Y-99454819D02*
X150845237Y-99407200D01*
X150845237Y-99407200D02*
X150892856Y-99311961D01*
X150892856Y-99311961D02*
X150892856Y-98931009D01*
X150892856Y-98931009D02*
X150845237Y-98835771D01*
X150845237Y-98835771D02*
X150749999Y-98788152D01*
X150749999Y-98788152D02*
X150559523Y-98788152D01*
X150559523Y-98788152D02*
X150464285Y-98835771D01*
X150464285Y-98835771D02*
X150416666Y-98931009D01*
X150416666Y-98931009D02*
X150416666Y-99026247D01*
X150416666Y-99026247D02*
X150892856Y-99121485D01*
X149988094Y-99454819D02*
X149988094Y-98788152D01*
X149988094Y-98978628D02*
X149940475Y-98883390D01*
X149940475Y-98883390D02*
X149892856Y-98835771D01*
X149892856Y-98835771D02*
X149797618Y-98788152D01*
X149797618Y-98788152D02*
X149702380Y-98788152D01*
X149511903Y-98788152D02*
X149130951Y-98788152D01*
X149369046Y-98454819D02*
X149369046Y-99311961D01*
X149369046Y-99311961D02*
X149321427Y-99407200D01*
X149321427Y-99407200D02*
X149226189Y-99454819D01*
X149226189Y-99454819D02*
X149130951Y-99454819D01*
X152364286Y-98177200D02*
X149135713Y-98177200D01*
X145642857Y-106454819D02*
X145976190Y-105978628D01*
X146214285Y-106454819D02*
X146214285Y-105454819D01*
X146214285Y-105454819D02*
X145833333Y-105454819D01*
X145833333Y-105454819D02*
X145738095Y-105502438D01*
X145738095Y-105502438D02*
X145690476Y-105550057D01*
X145690476Y-105550057D02*
X145642857Y-105645295D01*
X145642857Y-105645295D02*
X145642857Y-105788152D01*
X145642857Y-105788152D02*
X145690476Y-105883390D01*
X145690476Y-105883390D02*
X145738095Y-105931009D01*
X145738095Y-105931009D02*
X145833333Y-105978628D01*
X145833333Y-105978628D02*
X146214285Y-105978628D01*
X144690476Y-106454819D02*
X145261904Y-106454819D01*
X144976190Y-106454819D02*
X144976190Y-105454819D01*
X144976190Y-105454819D02*
X145071428Y-105597676D01*
X145071428Y-105597676D02*
X145166666Y-105692914D01*
X145166666Y-105692914D02*
X145261904Y-105740533D01*
X144357142Y-105454819D02*
X143738095Y-105454819D01*
X143738095Y-105454819D02*
X144071428Y-105835771D01*
X144071428Y-105835771D02*
X143928571Y-105835771D01*
X143928571Y-105835771D02*
X143833333Y-105883390D01*
X143833333Y-105883390D02*
X143785714Y-105931009D01*
X143785714Y-105931009D02*
X143738095Y-106026247D01*
X143738095Y-106026247D02*
X143738095Y-106264342D01*
X143738095Y-106264342D02*
X143785714Y-106359580D01*
X143785714Y-106359580D02*
X143833333Y-106407200D01*
X143833333Y-106407200D02*
X143928571Y-106454819D01*
X143928571Y-106454819D02*
X144214285Y-106454819D01*
X144214285Y-106454819D02*
X144309523Y-106407200D01*
X144309523Y-106407200D02*
X144357142Y-106359580D01*
X133704819Y-114857142D02*
X133228628Y-114523809D01*
X133704819Y-114285714D02*
X132704819Y-114285714D01*
X132704819Y-114285714D02*
X132704819Y-114666666D01*
X132704819Y-114666666D02*
X132752438Y-114761904D01*
X132752438Y-114761904D02*
X132800057Y-114809523D01*
X132800057Y-114809523D02*
X132895295Y-114857142D01*
X132895295Y-114857142D02*
X133038152Y-114857142D01*
X133038152Y-114857142D02*
X133133390Y-114809523D01*
X133133390Y-114809523D02*
X133181009Y-114761904D01*
X133181009Y-114761904D02*
X133228628Y-114666666D01*
X133228628Y-114666666D02*
X133228628Y-114285714D01*
X132800057Y-115238095D02*
X132752438Y-115285714D01*
X132752438Y-115285714D02*
X132704819Y-115380952D01*
X132704819Y-115380952D02*
X132704819Y-115619047D01*
X132704819Y-115619047D02*
X132752438Y-115714285D01*
X132752438Y-115714285D02*
X132800057Y-115761904D01*
X132800057Y-115761904D02*
X132895295Y-115809523D01*
X132895295Y-115809523D02*
X132990533Y-115809523D01*
X132990533Y-115809523D02*
X133133390Y-115761904D01*
X133133390Y-115761904D02*
X133704819Y-115190476D01*
X133704819Y-115190476D02*
X133704819Y-115809523D01*
X133038152Y-116666666D02*
X133704819Y-116666666D01*
X132657200Y-116428571D02*
X133371485Y-116190476D01*
X133371485Y-116190476D02*
X133371485Y-116809523D01*
X153359580Y-133583333D02*
X153407200Y-133535714D01*
X153407200Y-133535714D02*
X153454819Y-133392857D01*
X153454819Y-133392857D02*
X153454819Y-133297619D01*
X153454819Y-133297619D02*
X153407200Y-133154762D01*
X153407200Y-133154762D02*
X153311961Y-133059524D01*
X153311961Y-133059524D02*
X153216723Y-133011905D01*
X153216723Y-133011905D02*
X153026247Y-132964286D01*
X153026247Y-132964286D02*
X152883390Y-132964286D01*
X152883390Y-132964286D02*
X152692914Y-133011905D01*
X152692914Y-133011905D02*
X152597676Y-133059524D01*
X152597676Y-133059524D02*
X152502438Y-133154762D01*
X152502438Y-133154762D02*
X152454819Y-133297619D01*
X152454819Y-133297619D02*
X152454819Y-133392857D01*
X152454819Y-133392857D02*
X152502438Y-133535714D01*
X152502438Y-133535714D02*
X152550057Y-133583333D01*
X152550057Y-133964286D02*
X152502438Y-134011905D01*
X152502438Y-134011905D02*
X152454819Y-134107143D01*
X152454819Y-134107143D02*
X152454819Y-134345238D01*
X152454819Y-134345238D02*
X152502438Y-134440476D01*
X152502438Y-134440476D02*
X152550057Y-134488095D01*
X152550057Y-134488095D02*
X152645295Y-134535714D01*
X152645295Y-134535714D02*
X152740533Y-134535714D01*
X152740533Y-134535714D02*
X152883390Y-134488095D01*
X152883390Y-134488095D02*
X153454819Y-133916667D01*
X153454819Y-133916667D02*
X153454819Y-134535714D01*
X142859580Y-106607142D02*
X142907200Y-106559523D01*
X142907200Y-106559523D02*
X142954819Y-106416666D01*
X142954819Y-106416666D02*
X142954819Y-106321428D01*
X142954819Y-106321428D02*
X142907200Y-106178571D01*
X142907200Y-106178571D02*
X142811961Y-106083333D01*
X142811961Y-106083333D02*
X142716723Y-106035714D01*
X142716723Y-106035714D02*
X142526247Y-105988095D01*
X142526247Y-105988095D02*
X142383390Y-105988095D01*
X142383390Y-105988095D02*
X142192914Y-106035714D01*
X142192914Y-106035714D02*
X142097676Y-106083333D01*
X142097676Y-106083333D02*
X142002438Y-106178571D01*
X142002438Y-106178571D02*
X141954819Y-106321428D01*
X141954819Y-106321428D02*
X141954819Y-106416666D01*
X141954819Y-106416666D02*
X142002438Y-106559523D01*
X142002438Y-106559523D02*
X142050057Y-106607142D01*
X141954819Y-106940476D02*
X141954819Y-107559523D01*
X141954819Y-107559523D02*
X142335771Y-107226190D01*
X142335771Y-107226190D02*
X142335771Y-107369047D01*
X142335771Y-107369047D02*
X142383390Y-107464285D01*
X142383390Y-107464285D02*
X142431009Y-107511904D01*
X142431009Y-107511904D02*
X142526247Y-107559523D01*
X142526247Y-107559523D02*
X142764342Y-107559523D01*
X142764342Y-107559523D02*
X142859580Y-107511904D01*
X142859580Y-107511904D02*
X142907200Y-107464285D01*
X142907200Y-107464285D02*
X142954819Y-107369047D01*
X142954819Y-107369047D02*
X142954819Y-107083333D01*
X142954819Y-107083333D02*
X142907200Y-106988095D01*
X142907200Y-106988095D02*
X142859580Y-106940476D01*
X142288152Y-108416666D02*
X142954819Y-108416666D01*
X141907200Y-108178571D02*
X142621485Y-107940476D01*
X142621485Y-107940476D02*
X142621485Y-108559523D01*
X126142857Y-112359580D02*
X126190476Y-112407200D01*
X126190476Y-112407200D02*
X126333333Y-112454819D01*
X126333333Y-112454819D02*
X126428571Y-112454819D01*
X126428571Y-112454819D02*
X126571428Y-112407200D01*
X126571428Y-112407200D02*
X126666666Y-112311961D01*
X126666666Y-112311961D02*
X126714285Y-112216723D01*
X126714285Y-112216723D02*
X126761904Y-112026247D01*
X126761904Y-112026247D02*
X126761904Y-111883390D01*
X126761904Y-111883390D02*
X126714285Y-111692914D01*
X126714285Y-111692914D02*
X126666666Y-111597676D01*
X126666666Y-111597676D02*
X126571428Y-111502438D01*
X126571428Y-111502438D02*
X126428571Y-111454819D01*
X126428571Y-111454819D02*
X126333333Y-111454819D01*
X126333333Y-111454819D02*
X126190476Y-111502438D01*
X126190476Y-111502438D02*
X126142857Y-111550057D01*
X125190476Y-112454819D02*
X125761904Y-112454819D01*
X125476190Y-112454819D02*
X125476190Y-111454819D01*
X125476190Y-111454819D02*
X125571428Y-111597676D01*
X125571428Y-111597676D02*
X125666666Y-111692914D01*
X125666666Y-111692914D02*
X125761904Y-111740533D01*
X124238095Y-112454819D02*
X124809523Y-112454819D01*
X124523809Y-112454819D02*
X124523809Y-111454819D01*
X124523809Y-111454819D02*
X124619047Y-111597676D01*
X124619047Y-111597676D02*
X124714285Y-111692914D01*
X124714285Y-111692914D02*
X124809523Y-111740533D01*
X135359580Y-94107142D02*
X135407200Y-94059523D01*
X135407200Y-94059523D02*
X135454819Y-93916666D01*
X135454819Y-93916666D02*
X135454819Y-93821428D01*
X135454819Y-93821428D02*
X135407200Y-93678571D01*
X135407200Y-93678571D02*
X135311961Y-93583333D01*
X135311961Y-93583333D02*
X135216723Y-93535714D01*
X135216723Y-93535714D02*
X135026247Y-93488095D01*
X135026247Y-93488095D02*
X134883390Y-93488095D01*
X134883390Y-93488095D02*
X134692914Y-93535714D01*
X134692914Y-93535714D02*
X134597676Y-93583333D01*
X134597676Y-93583333D02*
X134502438Y-93678571D01*
X134502438Y-93678571D02*
X134454819Y-93821428D01*
X134454819Y-93821428D02*
X134454819Y-93916666D01*
X134454819Y-93916666D02*
X134502438Y-94059523D01*
X134502438Y-94059523D02*
X134550057Y-94107142D01*
X134788152Y-94964285D02*
X135454819Y-94964285D01*
X134407200Y-94726190D02*
X135121485Y-94488095D01*
X135121485Y-94488095D02*
X135121485Y-95107142D01*
X134454819Y-95678571D02*
X134454819Y-95773809D01*
X134454819Y-95773809D02*
X134502438Y-95869047D01*
X134502438Y-95869047D02*
X134550057Y-95916666D01*
X134550057Y-95916666D02*
X134645295Y-95964285D01*
X134645295Y-95964285D02*
X134835771Y-96011904D01*
X134835771Y-96011904D02*
X135073866Y-96011904D01*
X135073866Y-96011904D02*
X135264342Y-95964285D01*
X135264342Y-95964285D02*
X135359580Y-95916666D01*
X135359580Y-95916666D02*
X135407200Y-95869047D01*
X135407200Y-95869047D02*
X135454819Y-95773809D01*
X135454819Y-95773809D02*
X135454819Y-95678571D01*
X135454819Y-95678571D02*
X135407200Y-95583333D01*
X135407200Y-95583333D02*
X135359580Y-95535714D01*
X135359580Y-95535714D02*
X135264342Y-95488095D01*
X135264342Y-95488095D02*
X135073866Y-95440476D01*
X135073866Y-95440476D02*
X134835771Y-95440476D01*
X134835771Y-95440476D02*
X134645295Y-95488095D01*
X134645295Y-95488095D02*
X134550057Y-95535714D01*
X134550057Y-95535714D02*
X134502438Y-95583333D01*
X134502438Y-95583333D02*
X134454819Y-95678571D01*
X129204819Y-114857142D02*
X128728628Y-114523809D01*
X129204819Y-114285714D02*
X128204819Y-114285714D01*
X128204819Y-114285714D02*
X128204819Y-114666666D01*
X128204819Y-114666666D02*
X128252438Y-114761904D01*
X128252438Y-114761904D02*
X128300057Y-114809523D01*
X128300057Y-114809523D02*
X128395295Y-114857142D01*
X128395295Y-114857142D02*
X128538152Y-114857142D01*
X128538152Y-114857142D02*
X128633390Y-114809523D01*
X128633390Y-114809523D02*
X128681009Y-114761904D01*
X128681009Y-114761904D02*
X128728628Y-114666666D01*
X128728628Y-114666666D02*
X128728628Y-114285714D01*
X128204819Y-115190476D02*
X128204819Y-115809523D01*
X128204819Y-115809523D02*
X128585771Y-115476190D01*
X128585771Y-115476190D02*
X128585771Y-115619047D01*
X128585771Y-115619047D02*
X128633390Y-115714285D01*
X128633390Y-115714285D02*
X128681009Y-115761904D01*
X128681009Y-115761904D02*
X128776247Y-115809523D01*
X128776247Y-115809523D02*
X129014342Y-115809523D01*
X129014342Y-115809523D02*
X129109580Y-115761904D01*
X129109580Y-115761904D02*
X129157200Y-115714285D01*
X129157200Y-115714285D02*
X129204819Y-115619047D01*
X129204819Y-115619047D02*
X129204819Y-115333333D01*
X129204819Y-115333333D02*
X129157200Y-115238095D01*
X129157200Y-115238095D02*
X129109580Y-115190476D01*
X128204819Y-116142857D02*
X128204819Y-116761904D01*
X128204819Y-116761904D02*
X128585771Y-116428571D01*
X128585771Y-116428571D02*
X128585771Y-116571428D01*
X128585771Y-116571428D02*
X128633390Y-116666666D01*
X128633390Y-116666666D02*
X128681009Y-116714285D01*
X128681009Y-116714285D02*
X128776247Y-116761904D01*
X128776247Y-116761904D02*
X129014342Y-116761904D01*
X129014342Y-116761904D02*
X129109580Y-116714285D01*
X129109580Y-116714285D02*
X129157200Y-116666666D01*
X129157200Y-116666666D02*
X129204819Y-116571428D01*
X129204819Y-116571428D02*
X129204819Y-116285714D01*
X129204819Y-116285714D02*
X129157200Y-116190476D01*
X129157200Y-116190476D02*
X129109580Y-116142857D01*
X141454819Y-105333333D02*
X140978628Y-105000000D01*
X141454819Y-104761905D02*
X140454819Y-104761905D01*
X140454819Y-104761905D02*
X140454819Y-105142857D01*
X140454819Y-105142857D02*
X140502438Y-105238095D01*
X140502438Y-105238095D02*
X140550057Y-105285714D01*
X140550057Y-105285714D02*
X140645295Y-105333333D01*
X140645295Y-105333333D02*
X140788152Y-105333333D01*
X140788152Y-105333333D02*
X140883390Y-105285714D01*
X140883390Y-105285714D02*
X140931009Y-105238095D01*
X140931009Y-105238095D02*
X140978628Y-105142857D01*
X140978628Y-105142857D02*
X140978628Y-104761905D01*
X140454819Y-105666667D02*
X140454819Y-106333333D01*
X140454819Y-106333333D02*
X141454819Y-105904762D01*
X132204819Y-114857142D02*
X131728628Y-114523809D01*
X132204819Y-114285714D02*
X131204819Y-114285714D01*
X131204819Y-114285714D02*
X131204819Y-114666666D01*
X131204819Y-114666666D02*
X131252438Y-114761904D01*
X131252438Y-114761904D02*
X131300057Y-114809523D01*
X131300057Y-114809523D02*
X131395295Y-114857142D01*
X131395295Y-114857142D02*
X131538152Y-114857142D01*
X131538152Y-114857142D02*
X131633390Y-114809523D01*
X131633390Y-114809523D02*
X131681009Y-114761904D01*
X131681009Y-114761904D02*
X131728628Y-114666666D01*
X131728628Y-114666666D02*
X131728628Y-114285714D01*
X131204819Y-115190476D02*
X131204819Y-115809523D01*
X131204819Y-115809523D02*
X131585771Y-115476190D01*
X131585771Y-115476190D02*
X131585771Y-115619047D01*
X131585771Y-115619047D02*
X131633390Y-115714285D01*
X131633390Y-115714285D02*
X131681009Y-115761904D01*
X131681009Y-115761904D02*
X131776247Y-115809523D01*
X131776247Y-115809523D02*
X132014342Y-115809523D01*
X132014342Y-115809523D02*
X132109580Y-115761904D01*
X132109580Y-115761904D02*
X132157200Y-115714285D01*
X132157200Y-115714285D02*
X132204819Y-115619047D01*
X132204819Y-115619047D02*
X132204819Y-115333333D01*
X132204819Y-115333333D02*
X132157200Y-115238095D01*
X132157200Y-115238095D02*
X132109580Y-115190476D01*
X131300057Y-116190476D02*
X131252438Y-116238095D01*
X131252438Y-116238095D02*
X131204819Y-116333333D01*
X131204819Y-116333333D02*
X131204819Y-116571428D01*
X131204819Y-116571428D02*
X131252438Y-116666666D01*
X131252438Y-116666666D02*
X131300057Y-116714285D01*
X131300057Y-116714285D02*
X131395295Y-116761904D01*
X131395295Y-116761904D02*
X131490533Y-116761904D01*
X131490533Y-116761904D02*
X131633390Y-116714285D01*
X131633390Y-116714285D02*
X132204819Y-116142857D01*
X132204819Y-116142857D02*
X132204819Y-116761904D01*
X147392857Y-126454819D02*
X147726190Y-125978628D01*
X147964285Y-126454819D02*
X147964285Y-125454819D01*
X147964285Y-125454819D02*
X147583333Y-125454819D01*
X147583333Y-125454819D02*
X147488095Y-125502438D01*
X147488095Y-125502438D02*
X147440476Y-125550057D01*
X147440476Y-125550057D02*
X147392857Y-125645295D01*
X147392857Y-125645295D02*
X147392857Y-125788152D01*
X147392857Y-125788152D02*
X147440476Y-125883390D01*
X147440476Y-125883390D02*
X147488095Y-125931009D01*
X147488095Y-125931009D02*
X147583333Y-125978628D01*
X147583333Y-125978628D02*
X147964285Y-125978628D01*
X147011904Y-125550057D02*
X146964285Y-125502438D01*
X146964285Y-125502438D02*
X146869047Y-125454819D01*
X146869047Y-125454819D02*
X146630952Y-125454819D01*
X146630952Y-125454819D02*
X146535714Y-125502438D01*
X146535714Y-125502438D02*
X146488095Y-125550057D01*
X146488095Y-125550057D02*
X146440476Y-125645295D01*
X146440476Y-125645295D02*
X146440476Y-125740533D01*
X146440476Y-125740533D02*
X146488095Y-125883390D01*
X146488095Y-125883390D02*
X147059523Y-126454819D01*
X147059523Y-126454819D02*
X146440476Y-126454819D01*
X145583333Y-125454819D02*
X145773809Y-125454819D01*
X145773809Y-125454819D02*
X145869047Y-125502438D01*
X145869047Y-125502438D02*
X145916666Y-125550057D01*
X145916666Y-125550057D02*
X146011904Y-125692914D01*
X146011904Y-125692914D02*
X146059523Y-125883390D01*
X146059523Y-125883390D02*
X146059523Y-126264342D01*
X146059523Y-126264342D02*
X146011904Y-126359580D01*
X146011904Y-126359580D02*
X145964285Y-126407200D01*
X145964285Y-126407200D02*
X145869047Y-126454819D01*
X145869047Y-126454819D02*
X145678571Y-126454819D01*
X145678571Y-126454819D02*
X145583333Y-126407200D01*
X145583333Y-126407200D02*
X145535714Y-126359580D01*
X145535714Y-126359580D02*
X145488095Y-126264342D01*
X145488095Y-126264342D02*
X145488095Y-126026247D01*
X145488095Y-126026247D02*
X145535714Y-125931009D01*
X145535714Y-125931009D02*
X145583333Y-125883390D01*
X145583333Y-125883390D02*
X145678571Y-125835771D01*
X145678571Y-125835771D02*
X145869047Y-125835771D01*
X145869047Y-125835771D02*
X145964285Y-125883390D01*
X145964285Y-125883390D02*
X146011904Y-125931009D01*
X146011904Y-125931009D02*
X146059523Y-126026247D01*
X146142857Y-101109580D02*
X146190476Y-101157200D01*
X146190476Y-101157200D02*
X146333333Y-101204819D01*
X146333333Y-101204819D02*
X146428571Y-101204819D01*
X146428571Y-101204819D02*
X146571428Y-101157200D01*
X146571428Y-101157200D02*
X146666666Y-101061961D01*
X146666666Y-101061961D02*
X146714285Y-100966723D01*
X146714285Y-100966723D02*
X146761904Y-100776247D01*
X146761904Y-100776247D02*
X146761904Y-100633390D01*
X146761904Y-100633390D02*
X146714285Y-100442914D01*
X146714285Y-100442914D02*
X146666666Y-100347676D01*
X146666666Y-100347676D02*
X146571428Y-100252438D01*
X146571428Y-100252438D02*
X146428571Y-100204819D01*
X146428571Y-100204819D02*
X146333333Y-100204819D01*
X146333333Y-100204819D02*
X146190476Y-100252438D01*
X146190476Y-100252438D02*
X146142857Y-100300057D01*
X145285714Y-100538152D02*
X145285714Y-101204819D01*
X145523809Y-100157200D02*
X145761904Y-100871485D01*
X145761904Y-100871485D02*
X145142857Y-100871485D01*
X144333333Y-100538152D02*
X144333333Y-101204819D01*
X144571428Y-100157200D02*
X144809523Y-100871485D01*
X144809523Y-100871485D02*
X144190476Y-100871485D01*
X155954819Y-94107142D02*
X155478628Y-93773809D01*
X155954819Y-93535714D02*
X154954819Y-93535714D01*
X154954819Y-93535714D02*
X154954819Y-93916666D01*
X154954819Y-93916666D02*
X155002438Y-94011904D01*
X155002438Y-94011904D02*
X155050057Y-94059523D01*
X155050057Y-94059523D02*
X155145295Y-94107142D01*
X155145295Y-94107142D02*
X155288152Y-94107142D01*
X155288152Y-94107142D02*
X155383390Y-94059523D01*
X155383390Y-94059523D02*
X155431009Y-94011904D01*
X155431009Y-94011904D02*
X155478628Y-93916666D01*
X155478628Y-93916666D02*
X155478628Y-93535714D01*
X154954819Y-94440476D02*
X154954819Y-95059523D01*
X154954819Y-95059523D02*
X155335771Y-94726190D01*
X155335771Y-94726190D02*
X155335771Y-94869047D01*
X155335771Y-94869047D02*
X155383390Y-94964285D01*
X155383390Y-94964285D02*
X155431009Y-95011904D01*
X155431009Y-95011904D02*
X155526247Y-95059523D01*
X155526247Y-95059523D02*
X155764342Y-95059523D01*
X155764342Y-95059523D02*
X155859580Y-95011904D01*
X155859580Y-95011904D02*
X155907200Y-94964285D01*
X155907200Y-94964285D02*
X155954819Y-94869047D01*
X155954819Y-94869047D02*
X155954819Y-94583333D01*
X155954819Y-94583333D02*
X155907200Y-94488095D01*
X155907200Y-94488095D02*
X155859580Y-94440476D01*
X155288152Y-95916666D02*
X155954819Y-95916666D01*
X154907200Y-95678571D02*
X155621485Y-95440476D01*
X155621485Y-95440476D02*
X155621485Y-96059523D01*
X151704819Y-114857142D02*
X151228628Y-114523809D01*
X151704819Y-114285714D02*
X150704819Y-114285714D01*
X150704819Y-114285714D02*
X150704819Y-114666666D01*
X150704819Y-114666666D02*
X150752438Y-114761904D01*
X150752438Y-114761904D02*
X150800057Y-114809523D01*
X150800057Y-114809523D02*
X150895295Y-114857142D01*
X150895295Y-114857142D02*
X151038152Y-114857142D01*
X151038152Y-114857142D02*
X151133390Y-114809523D01*
X151133390Y-114809523D02*
X151181009Y-114761904D01*
X151181009Y-114761904D02*
X151228628Y-114666666D01*
X151228628Y-114666666D02*
X151228628Y-114285714D01*
X150704819Y-115190476D02*
X150704819Y-115809523D01*
X150704819Y-115809523D02*
X151085771Y-115476190D01*
X151085771Y-115476190D02*
X151085771Y-115619047D01*
X151085771Y-115619047D02*
X151133390Y-115714285D01*
X151133390Y-115714285D02*
X151181009Y-115761904D01*
X151181009Y-115761904D02*
X151276247Y-115809523D01*
X151276247Y-115809523D02*
X151514342Y-115809523D01*
X151514342Y-115809523D02*
X151609580Y-115761904D01*
X151609580Y-115761904D02*
X151657200Y-115714285D01*
X151657200Y-115714285D02*
X151704819Y-115619047D01*
X151704819Y-115619047D02*
X151704819Y-115333333D01*
X151704819Y-115333333D02*
X151657200Y-115238095D01*
X151657200Y-115238095D02*
X151609580Y-115190476D01*
X150704819Y-116428571D02*
X150704819Y-116523809D01*
X150704819Y-116523809D02*
X150752438Y-116619047D01*
X150752438Y-116619047D02*
X150800057Y-116666666D01*
X150800057Y-116666666D02*
X150895295Y-116714285D01*
X150895295Y-116714285D02*
X151085771Y-116761904D01*
X151085771Y-116761904D02*
X151323866Y-116761904D01*
X151323866Y-116761904D02*
X151514342Y-116714285D01*
X151514342Y-116714285D02*
X151609580Y-116666666D01*
X151609580Y-116666666D02*
X151657200Y-116619047D01*
X151657200Y-116619047D02*
X151704819Y-116523809D01*
X151704819Y-116523809D02*
X151704819Y-116428571D01*
X151704819Y-116428571D02*
X151657200Y-116333333D01*
X151657200Y-116333333D02*
X151609580Y-116285714D01*
X151609580Y-116285714D02*
X151514342Y-116238095D01*
X151514342Y-116238095D02*
X151323866Y-116190476D01*
X151323866Y-116190476D02*
X151085771Y-116190476D01*
X151085771Y-116190476D02*
X150895295Y-116238095D01*
X150895295Y-116238095D02*
X150800057Y-116285714D01*
X150800057Y-116285714D02*
X150752438Y-116333333D01*
X150752438Y-116333333D02*
X150704819Y-116428571D01*
X130704819Y-114857142D02*
X130228628Y-114523809D01*
X130704819Y-114285714D02*
X129704819Y-114285714D01*
X129704819Y-114285714D02*
X129704819Y-114666666D01*
X129704819Y-114666666D02*
X129752438Y-114761904D01*
X129752438Y-114761904D02*
X129800057Y-114809523D01*
X129800057Y-114809523D02*
X129895295Y-114857142D01*
X129895295Y-114857142D02*
X130038152Y-114857142D01*
X130038152Y-114857142D02*
X130133390Y-114809523D01*
X130133390Y-114809523D02*
X130181009Y-114761904D01*
X130181009Y-114761904D02*
X130228628Y-114666666D01*
X130228628Y-114666666D02*
X130228628Y-114285714D01*
X129800057Y-115238095D02*
X129752438Y-115285714D01*
X129752438Y-115285714D02*
X129704819Y-115380952D01*
X129704819Y-115380952D02*
X129704819Y-115619047D01*
X129704819Y-115619047D02*
X129752438Y-115714285D01*
X129752438Y-115714285D02*
X129800057Y-115761904D01*
X129800057Y-115761904D02*
X129895295Y-115809523D01*
X129895295Y-115809523D02*
X129990533Y-115809523D01*
X129990533Y-115809523D02*
X130133390Y-115761904D01*
X130133390Y-115761904D02*
X130704819Y-115190476D01*
X130704819Y-115190476D02*
X130704819Y-115809523D01*
X129704819Y-116714285D02*
X129704819Y-116238095D01*
X129704819Y-116238095D02*
X130181009Y-116190476D01*
X130181009Y-116190476D02*
X130133390Y-116238095D01*
X130133390Y-116238095D02*
X130085771Y-116333333D01*
X130085771Y-116333333D02*
X130085771Y-116571428D01*
X130085771Y-116571428D02*
X130133390Y-116666666D01*
X130133390Y-116666666D02*
X130181009Y-116714285D01*
X130181009Y-116714285D02*
X130276247Y-116761904D01*
X130276247Y-116761904D02*
X130514342Y-116761904D01*
X130514342Y-116761904D02*
X130609580Y-116714285D01*
X130609580Y-116714285D02*
X130657200Y-116666666D01*
X130657200Y-116666666D02*
X130704819Y-116571428D01*
X130704819Y-116571428D02*
X130704819Y-116333333D01*
X130704819Y-116333333D02*
X130657200Y-116238095D01*
X130657200Y-116238095D02*
X130609580Y-116190476D01*
X153666666Y-120954819D02*
X153999999Y-120478628D01*
X154238094Y-120954819D02*
X154238094Y-119954819D01*
X154238094Y-119954819D02*
X153857142Y-119954819D01*
X153857142Y-119954819D02*
X153761904Y-120002438D01*
X153761904Y-120002438D02*
X153714285Y-120050057D01*
X153714285Y-120050057D02*
X153666666Y-120145295D01*
X153666666Y-120145295D02*
X153666666Y-120288152D01*
X153666666Y-120288152D02*
X153714285Y-120383390D01*
X153714285Y-120383390D02*
X153761904Y-120431009D01*
X153761904Y-120431009D02*
X153857142Y-120478628D01*
X153857142Y-120478628D02*
X154238094Y-120478628D01*
X153095237Y-120383390D02*
X153190475Y-120335771D01*
X153190475Y-120335771D02*
X153238094Y-120288152D01*
X153238094Y-120288152D02*
X153285713Y-120192914D01*
X153285713Y-120192914D02*
X153285713Y-120145295D01*
X153285713Y-120145295D02*
X153238094Y-120050057D01*
X153238094Y-120050057D02*
X153190475Y-120002438D01*
X153190475Y-120002438D02*
X153095237Y-119954819D01*
X153095237Y-119954819D02*
X152904761Y-119954819D01*
X152904761Y-119954819D02*
X152809523Y-120002438D01*
X152809523Y-120002438D02*
X152761904Y-120050057D01*
X152761904Y-120050057D02*
X152714285Y-120145295D01*
X152714285Y-120145295D02*
X152714285Y-120192914D01*
X152714285Y-120192914D02*
X152761904Y-120288152D01*
X152761904Y-120288152D02*
X152809523Y-120335771D01*
X152809523Y-120335771D02*
X152904761Y-120383390D01*
X152904761Y-120383390D02*
X153095237Y-120383390D01*
X153095237Y-120383390D02*
X153190475Y-120431009D01*
X153190475Y-120431009D02*
X153238094Y-120478628D01*
X153238094Y-120478628D02*
X153285713Y-120573866D01*
X153285713Y-120573866D02*
X153285713Y-120764342D01*
X153285713Y-120764342D02*
X153238094Y-120859580D01*
X153238094Y-120859580D02*
X153190475Y-120907200D01*
X153190475Y-120907200D02*
X153095237Y-120954819D01*
X153095237Y-120954819D02*
X152904761Y-120954819D01*
X152904761Y-120954819D02*
X152809523Y-120907200D01*
X152809523Y-120907200D02*
X152761904Y-120859580D01*
X152761904Y-120859580D02*
X152714285Y-120764342D01*
X152714285Y-120764342D02*
X152714285Y-120573866D01*
X152714285Y-120573866D02*
X152761904Y-120478628D01*
X152761904Y-120478628D02*
X152809523Y-120431009D01*
X152809523Y-120431009D02*
X152904761Y-120383390D01*
X118642857Y-128359580D02*
X118690476Y-128407200D01*
X118690476Y-128407200D02*
X118833333Y-128454819D01*
X118833333Y-128454819D02*
X118928571Y-128454819D01*
X118928571Y-128454819D02*
X119071428Y-128407200D01*
X119071428Y-128407200D02*
X119166666Y-128311961D01*
X119166666Y-128311961D02*
X119214285Y-128216723D01*
X119214285Y-128216723D02*
X119261904Y-128026247D01*
X119261904Y-128026247D02*
X119261904Y-127883390D01*
X119261904Y-127883390D02*
X119214285Y-127692914D01*
X119214285Y-127692914D02*
X119166666Y-127597676D01*
X119166666Y-127597676D02*
X119071428Y-127502438D01*
X119071428Y-127502438D02*
X118928571Y-127454819D01*
X118928571Y-127454819D02*
X118833333Y-127454819D01*
X118833333Y-127454819D02*
X118690476Y-127502438D01*
X118690476Y-127502438D02*
X118642857Y-127550057D01*
X118261904Y-127550057D02*
X118214285Y-127502438D01*
X118214285Y-127502438D02*
X118119047Y-127454819D01*
X118119047Y-127454819D02*
X117880952Y-127454819D01*
X117880952Y-127454819D02*
X117785714Y-127502438D01*
X117785714Y-127502438D02*
X117738095Y-127550057D01*
X117738095Y-127550057D02*
X117690476Y-127645295D01*
X117690476Y-127645295D02*
X117690476Y-127740533D01*
X117690476Y-127740533D02*
X117738095Y-127883390D01*
X117738095Y-127883390D02*
X118309523Y-128454819D01*
X118309523Y-128454819D02*
X117690476Y-128454819D01*
X117119047Y-127883390D02*
X117214285Y-127835771D01*
X117214285Y-127835771D02*
X117261904Y-127788152D01*
X117261904Y-127788152D02*
X117309523Y-127692914D01*
X117309523Y-127692914D02*
X117309523Y-127645295D01*
X117309523Y-127645295D02*
X117261904Y-127550057D01*
X117261904Y-127550057D02*
X117214285Y-127502438D01*
X117214285Y-127502438D02*
X117119047Y-127454819D01*
X117119047Y-127454819D02*
X116928571Y-127454819D01*
X116928571Y-127454819D02*
X116833333Y-127502438D01*
X116833333Y-127502438D02*
X116785714Y-127550057D01*
X116785714Y-127550057D02*
X116738095Y-127645295D01*
X116738095Y-127645295D02*
X116738095Y-127692914D01*
X116738095Y-127692914D02*
X116785714Y-127788152D01*
X116785714Y-127788152D02*
X116833333Y-127835771D01*
X116833333Y-127835771D02*
X116928571Y-127883390D01*
X116928571Y-127883390D02*
X117119047Y-127883390D01*
X117119047Y-127883390D02*
X117214285Y-127931009D01*
X117214285Y-127931009D02*
X117261904Y-127978628D01*
X117261904Y-127978628D02*
X117309523Y-128073866D01*
X117309523Y-128073866D02*
X117309523Y-128264342D01*
X117309523Y-128264342D02*
X117261904Y-128359580D01*
X117261904Y-128359580D02*
X117214285Y-128407200D01*
X117214285Y-128407200D02*
X117119047Y-128454819D01*
X117119047Y-128454819D02*
X116928571Y-128454819D01*
X116928571Y-128454819D02*
X116833333Y-128407200D01*
X116833333Y-128407200D02*
X116785714Y-128359580D01*
X116785714Y-128359580D02*
X116738095Y-128264342D01*
X116738095Y-128264342D02*
X116738095Y-128073866D01*
X116738095Y-128073866D02*
X116785714Y-127978628D01*
X116785714Y-127978628D02*
X116833333Y-127931009D01*
X116833333Y-127931009D02*
X116928571Y-127883390D01*
X150204819Y-114857142D02*
X149728628Y-114523809D01*
X150204819Y-114285714D02*
X149204819Y-114285714D01*
X149204819Y-114285714D02*
X149204819Y-114666666D01*
X149204819Y-114666666D02*
X149252438Y-114761904D01*
X149252438Y-114761904D02*
X149300057Y-114809523D01*
X149300057Y-114809523D02*
X149395295Y-114857142D01*
X149395295Y-114857142D02*
X149538152Y-114857142D01*
X149538152Y-114857142D02*
X149633390Y-114809523D01*
X149633390Y-114809523D02*
X149681009Y-114761904D01*
X149681009Y-114761904D02*
X149728628Y-114666666D01*
X149728628Y-114666666D02*
X149728628Y-114285714D01*
X149300057Y-115238095D02*
X149252438Y-115285714D01*
X149252438Y-115285714D02*
X149204819Y-115380952D01*
X149204819Y-115380952D02*
X149204819Y-115619047D01*
X149204819Y-115619047D02*
X149252438Y-115714285D01*
X149252438Y-115714285D02*
X149300057Y-115761904D01*
X149300057Y-115761904D02*
X149395295Y-115809523D01*
X149395295Y-115809523D02*
X149490533Y-115809523D01*
X149490533Y-115809523D02*
X149633390Y-115761904D01*
X149633390Y-115761904D02*
X150204819Y-115190476D01*
X150204819Y-115190476D02*
X150204819Y-115809523D01*
X149300057Y-116190476D02*
X149252438Y-116238095D01*
X149252438Y-116238095D02*
X149204819Y-116333333D01*
X149204819Y-116333333D02*
X149204819Y-116571428D01*
X149204819Y-116571428D02*
X149252438Y-116666666D01*
X149252438Y-116666666D02*
X149300057Y-116714285D01*
X149300057Y-116714285D02*
X149395295Y-116761904D01*
X149395295Y-116761904D02*
X149490533Y-116761904D01*
X149490533Y-116761904D02*
X149633390Y-116714285D01*
X149633390Y-116714285D02*
X150204819Y-116142857D01*
X150204819Y-116142857D02*
X150204819Y-116761904D01*
X133704819Y-94107142D02*
X133228628Y-93773809D01*
X133704819Y-93535714D02*
X132704819Y-93535714D01*
X132704819Y-93535714D02*
X132704819Y-93916666D01*
X132704819Y-93916666D02*
X132752438Y-94011904D01*
X132752438Y-94011904D02*
X132800057Y-94059523D01*
X132800057Y-94059523D02*
X132895295Y-94107142D01*
X132895295Y-94107142D02*
X133038152Y-94107142D01*
X133038152Y-94107142D02*
X133133390Y-94059523D01*
X133133390Y-94059523D02*
X133181009Y-94011904D01*
X133181009Y-94011904D02*
X133228628Y-93916666D01*
X133228628Y-93916666D02*
X133228628Y-93535714D01*
X132800057Y-94488095D02*
X132752438Y-94535714D01*
X132752438Y-94535714D02*
X132704819Y-94630952D01*
X132704819Y-94630952D02*
X132704819Y-94869047D01*
X132704819Y-94869047D02*
X132752438Y-94964285D01*
X132752438Y-94964285D02*
X132800057Y-95011904D01*
X132800057Y-95011904D02*
X132895295Y-95059523D01*
X132895295Y-95059523D02*
X132990533Y-95059523D01*
X132990533Y-95059523D02*
X133133390Y-95011904D01*
X133133390Y-95011904D02*
X133704819Y-94440476D01*
X133704819Y-94440476D02*
X133704819Y-95059523D01*
X133704819Y-96011904D02*
X133704819Y-95440476D01*
X133704819Y-95726190D02*
X132704819Y-95726190D01*
X132704819Y-95726190D02*
X132847676Y-95630952D01*
X132847676Y-95630952D02*
X132942914Y-95535714D01*
X132942914Y-95535714D02*
X132990533Y-95440476D01*
X154454819Y-94107142D02*
X153978628Y-93773809D01*
X154454819Y-93535714D02*
X153454819Y-93535714D01*
X153454819Y-93535714D02*
X153454819Y-93916666D01*
X153454819Y-93916666D02*
X153502438Y-94011904D01*
X153502438Y-94011904D02*
X153550057Y-94059523D01*
X153550057Y-94059523D02*
X153645295Y-94107142D01*
X153645295Y-94107142D02*
X153788152Y-94107142D01*
X153788152Y-94107142D02*
X153883390Y-94059523D01*
X153883390Y-94059523D02*
X153931009Y-94011904D01*
X153931009Y-94011904D02*
X153978628Y-93916666D01*
X153978628Y-93916666D02*
X153978628Y-93535714D01*
X153454819Y-94440476D02*
X153454819Y-95059523D01*
X153454819Y-95059523D02*
X153835771Y-94726190D01*
X153835771Y-94726190D02*
X153835771Y-94869047D01*
X153835771Y-94869047D02*
X153883390Y-94964285D01*
X153883390Y-94964285D02*
X153931009Y-95011904D01*
X153931009Y-95011904D02*
X154026247Y-95059523D01*
X154026247Y-95059523D02*
X154264342Y-95059523D01*
X154264342Y-95059523D02*
X154359580Y-95011904D01*
X154359580Y-95011904D02*
X154407200Y-94964285D01*
X154407200Y-94964285D02*
X154454819Y-94869047D01*
X154454819Y-94869047D02*
X154454819Y-94583333D01*
X154454819Y-94583333D02*
X154407200Y-94488095D01*
X154407200Y-94488095D02*
X154359580Y-94440476D01*
X153454819Y-95964285D02*
X153454819Y-95488095D01*
X153454819Y-95488095D02*
X153931009Y-95440476D01*
X153931009Y-95440476D02*
X153883390Y-95488095D01*
X153883390Y-95488095D02*
X153835771Y-95583333D01*
X153835771Y-95583333D02*
X153835771Y-95821428D01*
X153835771Y-95821428D02*
X153883390Y-95916666D01*
X153883390Y-95916666D02*
X153931009Y-95964285D01*
X153931009Y-95964285D02*
X154026247Y-96011904D01*
X154026247Y-96011904D02*
X154264342Y-96011904D01*
X154264342Y-96011904D02*
X154359580Y-95964285D01*
X154359580Y-95964285D02*
X154407200Y-95916666D01*
X154407200Y-95916666D02*
X154454819Y-95821428D01*
X154454819Y-95821428D02*
X154454819Y-95583333D01*
X154454819Y-95583333D02*
X154407200Y-95488095D01*
X154407200Y-95488095D02*
X154359580Y-95440476D01*
X147204819Y-114857142D02*
X146728628Y-114523809D01*
X147204819Y-114285714D02*
X146204819Y-114285714D01*
X146204819Y-114285714D02*
X146204819Y-114666666D01*
X146204819Y-114666666D02*
X146252438Y-114761904D01*
X146252438Y-114761904D02*
X146300057Y-114809523D01*
X146300057Y-114809523D02*
X146395295Y-114857142D01*
X146395295Y-114857142D02*
X146538152Y-114857142D01*
X146538152Y-114857142D02*
X146633390Y-114809523D01*
X146633390Y-114809523D02*
X146681009Y-114761904D01*
X146681009Y-114761904D02*
X146728628Y-114666666D01*
X146728628Y-114666666D02*
X146728628Y-114285714D01*
X146300057Y-115238095D02*
X146252438Y-115285714D01*
X146252438Y-115285714D02*
X146204819Y-115380952D01*
X146204819Y-115380952D02*
X146204819Y-115619047D01*
X146204819Y-115619047D02*
X146252438Y-115714285D01*
X146252438Y-115714285D02*
X146300057Y-115761904D01*
X146300057Y-115761904D02*
X146395295Y-115809523D01*
X146395295Y-115809523D02*
X146490533Y-115809523D01*
X146490533Y-115809523D02*
X146633390Y-115761904D01*
X146633390Y-115761904D02*
X147204819Y-115190476D01*
X147204819Y-115190476D02*
X147204819Y-115809523D01*
X146204819Y-116142857D02*
X146204819Y-116761904D01*
X146204819Y-116761904D02*
X146585771Y-116428571D01*
X146585771Y-116428571D02*
X146585771Y-116571428D01*
X146585771Y-116571428D02*
X146633390Y-116666666D01*
X146633390Y-116666666D02*
X146681009Y-116714285D01*
X146681009Y-116714285D02*
X146776247Y-116761904D01*
X146776247Y-116761904D02*
X147014342Y-116761904D01*
X147014342Y-116761904D02*
X147109580Y-116714285D01*
X147109580Y-116714285D02*
X147157200Y-116666666D01*
X147157200Y-116666666D02*
X147204819Y-116571428D01*
X147204819Y-116571428D02*
X147204819Y-116285714D01*
X147204819Y-116285714D02*
X147157200Y-116190476D01*
X147157200Y-116190476D02*
X147109580Y-116142857D01*
X135416666Y-112359580D02*
X135464285Y-112407200D01*
X135464285Y-112407200D02*
X135607142Y-112454819D01*
X135607142Y-112454819D02*
X135702380Y-112454819D01*
X135702380Y-112454819D02*
X135845237Y-112407200D01*
X135845237Y-112407200D02*
X135940475Y-112311961D01*
X135940475Y-112311961D02*
X135988094Y-112216723D01*
X135988094Y-112216723D02*
X136035713Y-112026247D01*
X136035713Y-112026247D02*
X136035713Y-111883390D01*
X136035713Y-111883390D02*
X135988094Y-111692914D01*
X135988094Y-111692914D02*
X135940475Y-111597676D01*
X135940475Y-111597676D02*
X135845237Y-111502438D01*
X135845237Y-111502438D02*
X135702380Y-111454819D01*
X135702380Y-111454819D02*
X135607142Y-111454819D01*
X135607142Y-111454819D02*
X135464285Y-111502438D01*
X135464285Y-111502438D02*
X135416666Y-111550057D01*
X134845237Y-111883390D02*
X134940475Y-111835771D01*
X134940475Y-111835771D02*
X134988094Y-111788152D01*
X134988094Y-111788152D02*
X135035713Y-111692914D01*
X135035713Y-111692914D02*
X135035713Y-111645295D01*
X135035713Y-111645295D02*
X134988094Y-111550057D01*
X134988094Y-111550057D02*
X134940475Y-111502438D01*
X134940475Y-111502438D02*
X134845237Y-111454819D01*
X134845237Y-111454819D02*
X134654761Y-111454819D01*
X134654761Y-111454819D02*
X134559523Y-111502438D01*
X134559523Y-111502438D02*
X134511904Y-111550057D01*
X134511904Y-111550057D02*
X134464285Y-111645295D01*
X134464285Y-111645295D02*
X134464285Y-111692914D01*
X134464285Y-111692914D02*
X134511904Y-111788152D01*
X134511904Y-111788152D02*
X134559523Y-111835771D01*
X134559523Y-111835771D02*
X134654761Y-111883390D01*
X134654761Y-111883390D02*
X134845237Y-111883390D01*
X134845237Y-111883390D02*
X134940475Y-111931009D01*
X134940475Y-111931009D02*
X134988094Y-111978628D01*
X134988094Y-111978628D02*
X135035713Y-112073866D01*
X135035713Y-112073866D02*
X135035713Y-112264342D01*
X135035713Y-112264342D02*
X134988094Y-112359580D01*
X134988094Y-112359580D02*
X134940475Y-112407200D01*
X134940475Y-112407200D02*
X134845237Y-112454819D01*
X134845237Y-112454819D02*
X134654761Y-112454819D01*
X134654761Y-112454819D02*
X134559523Y-112407200D01*
X134559523Y-112407200D02*
X134511904Y-112359580D01*
X134511904Y-112359580D02*
X134464285Y-112264342D01*
X134464285Y-112264342D02*
X134464285Y-112073866D01*
X134464285Y-112073866D02*
X134511904Y-111978628D01*
X134511904Y-111978628D02*
X134559523Y-111931009D01*
X134559523Y-111931009D02*
X134654761Y-111883390D01*
X132166666Y-112359580D02*
X132214285Y-112407200D01*
X132214285Y-112407200D02*
X132357142Y-112454819D01*
X132357142Y-112454819D02*
X132452380Y-112454819D01*
X132452380Y-112454819D02*
X132595237Y-112407200D01*
X132595237Y-112407200D02*
X132690475Y-112311961D01*
X132690475Y-112311961D02*
X132738094Y-112216723D01*
X132738094Y-112216723D02*
X132785713Y-112026247D01*
X132785713Y-112026247D02*
X132785713Y-111883390D01*
X132785713Y-111883390D02*
X132738094Y-111692914D01*
X132738094Y-111692914D02*
X132690475Y-111597676D01*
X132690475Y-111597676D02*
X132595237Y-111502438D01*
X132595237Y-111502438D02*
X132452380Y-111454819D01*
X132452380Y-111454819D02*
X132357142Y-111454819D01*
X132357142Y-111454819D02*
X132214285Y-111502438D01*
X132214285Y-111502438D02*
X132166666Y-111550057D01*
X131690475Y-112454819D02*
X131499999Y-112454819D01*
X131499999Y-112454819D02*
X131404761Y-112407200D01*
X131404761Y-112407200D02*
X131357142Y-112359580D01*
X131357142Y-112359580D02*
X131261904Y-112216723D01*
X131261904Y-112216723D02*
X131214285Y-112026247D01*
X131214285Y-112026247D02*
X131214285Y-111645295D01*
X131214285Y-111645295D02*
X131261904Y-111550057D01*
X131261904Y-111550057D02*
X131309523Y-111502438D01*
X131309523Y-111502438D02*
X131404761Y-111454819D01*
X131404761Y-111454819D02*
X131595237Y-111454819D01*
X131595237Y-111454819D02*
X131690475Y-111502438D01*
X131690475Y-111502438D02*
X131738094Y-111550057D01*
X131738094Y-111550057D02*
X131785713Y-111645295D01*
X131785713Y-111645295D02*
X131785713Y-111883390D01*
X131785713Y-111883390D02*
X131738094Y-111978628D01*
X131738094Y-111978628D02*
X131690475Y-112026247D01*
X131690475Y-112026247D02*
X131595237Y-112073866D01*
X131595237Y-112073866D02*
X131404761Y-112073866D01*
X131404761Y-112073866D02*
X131309523Y-112026247D01*
X131309523Y-112026247D02*
X131261904Y-111978628D01*
X131261904Y-111978628D02*
X131214285Y-111883390D01*
X133954819Y-103261905D02*
X132954819Y-103261905D01*
X132954819Y-103261905D02*
X132954819Y-103500000D01*
X132954819Y-103500000D02*
X133002438Y-103642857D01*
X133002438Y-103642857D02*
X133097676Y-103738095D01*
X133097676Y-103738095D02*
X133192914Y-103785714D01*
X133192914Y-103785714D02*
X133383390Y-103833333D01*
X133383390Y-103833333D02*
X133526247Y-103833333D01*
X133526247Y-103833333D02*
X133716723Y-103785714D01*
X133716723Y-103785714D02*
X133811961Y-103738095D01*
X133811961Y-103738095D02*
X133907200Y-103642857D01*
X133907200Y-103642857D02*
X133954819Y-103500000D01*
X133954819Y-103500000D02*
X133954819Y-103261905D01*
X132954819Y-104166667D02*
X132954819Y-104785714D01*
X132954819Y-104785714D02*
X133335771Y-104452381D01*
X133335771Y-104452381D02*
X133335771Y-104595238D01*
X133335771Y-104595238D02*
X133383390Y-104690476D01*
X133383390Y-104690476D02*
X133431009Y-104738095D01*
X133431009Y-104738095D02*
X133526247Y-104785714D01*
X133526247Y-104785714D02*
X133764342Y-104785714D01*
X133764342Y-104785714D02*
X133859580Y-104738095D01*
X133859580Y-104738095D02*
X133907200Y-104690476D01*
X133907200Y-104690476D02*
X133954819Y-104595238D01*
X133954819Y-104595238D02*
X133954819Y-104309524D01*
X133954819Y-104309524D02*
X133907200Y-104214286D01*
X133907200Y-104214286D02*
X133859580Y-104166667D01*
X138761904Y-94704819D02*
X138761904Y-95514342D01*
X138761904Y-95514342D02*
X138714285Y-95609580D01*
X138714285Y-95609580D02*
X138666666Y-95657200D01*
X138666666Y-95657200D02*
X138571428Y-95704819D01*
X138571428Y-95704819D02*
X138380952Y-95704819D01*
X138380952Y-95704819D02*
X138285714Y-95657200D01*
X138285714Y-95657200D02*
X138238095Y-95609580D01*
X138238095Y-95609580D02*
X138190476Y-95514342D01*
X138190476Y-95514342D02*
X138190476Y-94704819D01*
X137761904Y-94800057D02*
X137714285Y-94752438D01*
X137714285Y-94752438D02*
X137619047Y-94704819D01*
X137619047Y-94704819D02*
X137380952Y-94704819D01*
X137380952Y-94704819D02*
X137285714Y-94752438D01*
X137285714Y-94752438D02*
X137238095Y-94800057D01*
X137238095Y-94800057D02*
X137190476Y-94895295D01*
X137190476Y-94895295D02*
X137190476Y-94990533D01*
X137190476Y-94990533D02*
X137238095Y-95133390D01*
X137238095Y-95133390D02*
X137809523Y-95704819D01*
X137809523Y-95704819D02*
X137190476Y-95704819D01*
X154666666Y-112359580D02*
X154714285Y-112407200D01*
X154714285Y-112407200D02*
X154857142Y-112454819D01*
X154857142Y-112454819D02*
X154952380Y-112454819D01*
X154952380Y-112454819D02*
X155095237Y-112407200D01*
X155095237Y-112407200D02*
X155190475Y-112311961D01*
X155190475Y-112311961D02*
X155238094Y-112216723D01*
X155238094Y-112216723D02*
X155285713Y-112026247D01*
X155285713Y-112026247D02*
X155285713Y-111883390D01*
X155285713Y-111883390D02*
X155238094Y-111692914D01*
X155238094Y-111692914D02*
X155190475Y-111597676D01*
X155190475Y-111597676D02*
X155095237Y-111502438D01*
X155095237Y-111502438D02*
X154952380Y-111454819D01*
X154952380Y-111454819D02*
X154857142Y-111454819D01*
X154857142Y-111454819D02*
X154714285Y-111502438D01*
X154714285Y-111502438D02*
X154666666Y-111550057D01*
X153809523Y-111788152D02*
X153809523Y-112454819D01*
X154047618Y-111407200D02*
X154285713Y-112121485D01*
X154285713Y-112121485D02*
X153666666Y-112121485D01*
X148704819Y-114857142D02*
X148228628Y-114523809D01*
X148704819Y-114285714D02*
X147704819Y-114285714D01*
X147704819Y-114285714D02*
X147704819Y-114666666D01*
X147704819Y-114666666D02*
X147752438Y-114761904D01*
X147752438Y-114761904D02*
X147800057Y-114809523D01*
X147800057Y-114809523D02*
X147895295Y-114857142D01*
X147895295Y-114857142D02*
X148038152Y-114857142D01*
X148038152Y-114857142D02*
X148133390Y-114809523D01*
X148133390Y-114809523D02*
X148181009Y-114761904D01*
X148181009Y-114761904D02*
X148228628Y-114666666D01*
X148228628Y-114666666D02*
X148228628Y-114285714D01*
X147704819Y-115190476D02*
X147704819Y-115809523D01*
X147704819Y-115809523D02*
X148085771Y-115476190D01*
X148085771Y-115476190D02*
X148085771Y-115619047D01*
X148085771Y-115619047D02*
X148133390Y-115714285D01*
X148133390Y-115714285D02*
X148181009Y-115761904D01*
X148181009Y-115761904D02*
X148276247Y-115809523D01*
X148276247Y-115809523D02*
X148514342Y-115809523D01*
X148514342Y-115809523D02*
X148609580Y-115761904D01*
X148609580Y-115761904D02*
X148657200Y-115714285D01*
X148657200Y-115714285D02*
X148704819Y-115619047D01*
X148704819Y-115619047D02*
X148704819Y-115333333D01*
X148704819Y-115333333D02*
X148657200Y-115238095D01*
X148657200Y-115238095D02*
X148609580Y-115190476D01*
X148704819Y-116761904D02*
X148704819Y-116190476D01*
X148704819Y-116476190D02*
X147704819Y-116476190D01*
X147704819Y-116476190D02*
X147847676Y-116380952D01*
X147847676Y-116380952D02*
X147942914Y-116285714D01*
X147942914Y-116285714D02*
X147990533Y-116190476D01*
X152011904Y-93956819D02*
X151440476Y-93956819D01*
X151726190Y-94956819D02*
X151726190Y-93956819D01*
X151107142Y-94956819D02*
X151107142Y-93956819D01*
X151107142Y-93956819D02*
X150726190Y-93956819D01*
X150726190Y-93956819D02*
X150630952Y-94004438D01*
X150630952Y-94004438D02*
X150583333Y-94052057D01*
X150583333Y-94052057D02*
X150535714Y-94147295D01*
X150535714Y-94147295D02*
X150535714Y-94290152D01*
X150535714Y-94290152D02*
X150583333Y-94385390D01*
X150583333Y-94385390D02*
X150630952Y-94433009D01*
X150630952Y-94433009D02*
X150726190Y-94480628D01*
X150726190Y-94480628D02*
X151107142Y-94480628D01*
X149630952Y-93956819D02*
X150107142Y-93956819D01*
X150107142Y-93956819D02*
X150154761Y-94433009D01*
X150154761Y-94433009D02*
X150107142Y-94385390D01*
X150107142Y-94385390D02*
X150011904Y-94337771D01*
X150011904Y-94337771D02*
X149773809Y-94337771D01*
X149773809Y-94337771D02*
X149678571Y-94385390D01*
X149678571Y-94385390D02*
X149630952Y-94433009D01*
X149630952Y-94433009D02*
X149583333Y-94528247D01*
X149583333Y-94528247D02*
X149583333Y-94766342D01*
X149583333Y-94766342D02*
X149630952Y-94861580D01*
X149630952Y-94861580D02*
X149678571Y-94909200D01*
X149678571Y-94909200D02*
X149773809Y-94956819D01*
X149773809Y-94956819D02*
X150011904Y-94956819D01*
X150011904Y-94956819D02*
X150107142Y-94909200D01*
X150107142Y-94909200D02*
X150154761Y-94861580D01*
X127359580Y-133607142D02*
X127407200Y-133559523D01*
X127407200Y-133559523D02*
X127454819Y-133416666D01*
X127454819Y-133416666D02*
X127454819Y-133321428D01*
X127454819Y-133321428D02*
X127407200Y-133178571D01*
X127407200Y-133178571D02*
X127311961Y-133083333D01*
X127311961Y-133083333D02*
X127216723Y-133035714D01*
X127216723Y-133035714D02*
X127026247Y-132988095D01*
X127026247Y-132988095D02*
X126883390Y-132988095D01*
X126883390Y-132988095D02*
X126692914Y-133035714D01*
X126692914Y-133035714D02*
X126597676Y-133083333D01*
X126597676Y-133083333D02*
X126502438Y-133178571D01*
X126502438Y-133178571D02*
X126454819Y-133321428D01*
X126454819Y-133321428D02*
X126454819Y-133416666D01*
X126454819Y-133416666D02*
X126502438Y-133559523D01*
X126502438Y-133559523D02*
X126550057Y-133607142D01*
X126550057Y-133988095D02*
X126502438Y-134035714D01*
X126502438Y-134035714D02*
X126454819Y-134130952D01*
X126454819Y-134130952D02*
X126454819Y-134369047D01*
X126454819Y-134369047D02*
X126502438Y-134464285D01*
X126502438Y-134464285D02*
X126550057Y-134511904D01*
X126550057Y-134511904D02*
X126645295Y-134559523D01*
X126645295Y-134559523D02*
X126740533Y-134559523D01*
X126740533Y-134559523D02*
X126883390Y-134511904D01*
X126883390Y-134511904D02*
X127454819Y-133940476D01*
X127454819Y-133940476D02*
X127454819Y-134559523D01*
X127454819Y-135035714D02*
X127454819Y-135226190D01*
X127454819Y-135226190D02*
X127407200Y-135321428D01*
X127407200Y-135321428D02*
X127359580Y-135369047D01*
X127359580Y-135369047D02*
X127216723Y-135464285D01*
X127216723Y-135464285D02*
X127026247Y-135511904D01*
X127026247Y-135511904D02*
X126645295Y-135511904D01*
X126645295Y-135511904D02*
X126550057Y-135464285D01*
X126550057Y-135464285D02*
X126502438Y-135416666D01*
X126502438Y-135416666D02*
X126454819Y-135321428D01*
X126454819Y-135321428D02*
X126454819Y-135130952D01*
X126454819Y-135130952D02*
X126502438Y-135035714D01*
X126502438Y-135035714D02*
X126550057Y-134988095D01*
X126550057Y-134988095D02*
X126645295Y-134940476D01*
X126645295Y-134940476D02*
X126883390Y-134940476D01*
X126883390Y-134940476D02*
X126978628Y-134988095D01*
X126978628Y-134988095D02*
X127026247Y-135035714D01*
X127026247Y-135035714D02*
X127073866Y-135130952D01*
X127073866Y-135130952D02*
X127073866Y-135321428D01*
X127073866Y-135321428D02*
X127026247Y-135416666D01*
X127026247Y-135416666D02*
X126978628Y-135464285D01*
X126978628Y-135464285D02*
X126883390Y-135511904D01*
X141142857Y-100609580D02*
X141190476Y-100657200D01*
X141190476Y-100657200D02*
X141333333Y-100704819D01*
X141333333Y-100704819D02*
X141428571Y-100704819D01*
X141428571Y-100704819D02*
X141571428Y-100657200D01*
X141571428Y-100657200D02*
X141666666Y-100561961D01*
X141666666Y-100561961D02*
X141714285Y-100466723D01*
X141714285Y-100466723D02*
X141761904Y-100276247D01*
X141761904Y-100276247D02*
X141761904Y-100133390D01*
X141761904Y-100133390D02*
X141714285Y-99942914D01*
X141714285Y-99942914D02*
X141666666Y-99847676D01*
X141666666Y-99847676D02*
X141571428Y-99752438D01*
X141571428Y-99752438D02*
X141428571Y-99704819D01*
X141428571Y-99704819D02*
X141333333Y-99704819D01*
X141333333Y-99704819D02*
X141190476Y-99752438D01*
X141190476Y-99752438D02*
X141142857Y-99800057D01*
X140285714Y-100038152D02*
X140285714Y-100704819D01*
X140523809Y-99657200D02*
X140761904Y-100371485D01*
X140761904Y-100371485D02*
X140142857Y-100371485D01*
X139857142Y-99704819D02*
X139238095Y-99704819D01*
X139238095Y-99704819D02*
X139571428Y-100085771D01*
X139571428Y-100085771D02*
X139428571Y-100085771D01*
X139428571Y-100085771D02*
X139333333Y-100133390D01*
X139333333Y-100133390D02*
X139285714Y-100181009D01*
X139285714Y-100181009D02*
X139238095Y-100276247D01*
X139238095Y-100276247D02*
X139238095Y-100514342D01*
X139238095Y-100514342D02*
X139285714Y-100609580D01*
X139285714Y-100609580D02*
X139333333Y-100657200D01*
X139333333Y-100657200D02*
X139428571Y-100704819D01*
X139428571Y-100704819D02*
X139714285Y-100704819D01*
X139714285Y-100704819D02*
X139809523Y-100657200D01*
X139809523Y-100657200D02*
X139857142Y-100609580D01*
X144916666Y-112359580D02*
X144964285Y-112407200D01*
X144964285Y-112407200D02*
X145107142Y-112454819D01*
X145107142Y-112454819D02*
X145202380Y-112454819D01*
X145202380Y-112454819D02*
X145345237Y-112407200D01*
X145345237Y-112407200D02*
X145440475Y-112311961D01*
X145440475Y-112311961D02*
X145488094Y-112216723D01*
X145488094Y-112216723D02*
X145535713Y-112026247D01*
X145535713Y-112026247D02*
X145535713Y-111883390D01*
X145535713Y-111883390D02*
X145488094Y-111692914D01*
X145488094Y-111692914D02*
X145440475Y-111597676D01*
X145440475Y-111597676D02*
X145345237Y-111502438D01*
X145345237Y-111502438D02*
X145202380Y-111454819D01*
X145202380Y-111454819D02*
X145107142Y-111454819D01*
X145107142Y-111454819D02*
X144964285Y-111502438D01*
X144964285Y-111502438D02*
X144916666Y-111550057D01*
X144583332Y-111454819D02*
X143916666Y-111454819D01*
X143916666Y-111454819D02*
X144345237Y-112454819D01*
X141859580Y-110357142D02*
X141907200Y-110309523D01*
X141907200Y-110309523D02*
X141954819Y-110166666D01*
X141954819Y-110166666D02*
X141954819Y-110071428D01*
X141954819Y-110071428D02*
X141907200Y-109928571D01*
X141907200Y-109928571D02*
X141811961Y-109833333D01*
X141811961Y-109833333D02*
X141716723Y-109785714D01*
X141716723Y-109785714D02*
X141526247Y-109738095D01*
X141526247Y-109738095D02*
X141383390Y-109738095D01*
X141383390Y-109738095D02*
X141192914Y-109785714D01*
X141192914Y-109785714D02*
X141097676Y-109833333D01*
X141097676Y-109833333D02*
X141002438Y-109928571D01*
X141002438Y-109928571D02*
X140954819Y-110071428D01*
X140954819Y-110071428D02*
X140954819Y-110166666D01*
X140954819Y-110166666D02*
X141002438Y-110309523D01*
X141002438Y-110309523D02*
X141050057Y-110357142D01*
X141288152Y-111214285D02*
X141954819Y-111214285D01*
X140907200Y-110976190D02*
X141621485Y-110738095D01*
X141621485Y-110738095D02*
X141621485Y-111357142D01*
X141050057Y-111690476D02*
X141002438Y-111738095D01*
X141002438Y-111738095D02*
X140954819Y-111833333D01*
X140954819Y-111833333D02*
X140954819Y-112071428D01*
X140954819Y-112071428D02*
X141002438Y-112166666D01*
X141002438Y-112166666D02*
X141050057Y-112214285D01*
X141050057Y-112214285D02*
X141145295Y-112261904D01*
X141145295Y-112261904D02*
X141240533Y-112261904D01*
X141240533Y-112261904D02*
X141383390Y-112214285D01*
X141383390Y-112214285D02*
X141954819Y-111642857D01*
X141954819Y-111642857D02*
X141954819Y-112261904D01*
X137859580Y-106606954D02*
X137907200Y-106559335D01*
X137907200Y-106559335D02*
X137954819Y-106416478D01*
X137954819Y-106416478D02*
X137954819Y-106321240D01*
X137954819Y-106321240D02*
X137907200Y-106178383D01*
X137907200Y-106178383D02*
X137811961Y-106083145D01*
X137811961Y-106083145D02*
X137716723Y-106035526D01*
X137716723Y-106035526D02*
X137526247Y-105987907D01*
X137526247Y-105987907D02*
X137383390Y-105987907D01*
X137383390Y-105987907D02*
X137192914Y-106035526D01*
X137192914Y-106035526D02*
X137097676Y-106083145D01*
X137097676Y-106083145D02*
X137002438Y-106178383D01*
X137002438Y-106178383D02*
X136954819Y-106321240D01*
X136954819Y-106321240D02*
X136954819Y-106416478D01*
X136954819Y-106416478D02*
X137002438Y-106559335D01*
X137002438Y-106559335D02*
X137050057Y-106606954D01*
X136954819Y-106940288D02*
X136954819Y-107559335D01*
X136954819Y-107559335D02*
X137335771Y-107226002D01*
X137335771Y-107226002D02*
X137335771Y-107368859D01*
X137335771Y-107368859D02*
X137383390Y-107464097D01*
X137383390Y-107464097D02*
X137431009Y-107511716D01*
X137431009Y-107511716D02*
X137526247Y-107559335D01*
X137526247Y-107559335D02*
X137764342Y-107559335D01*
X137764342Y-107559335D02*
X137859580Y-107511716D01*
X137859580Y-107511716D02*
X137907200Y-107464097D01*
X137907200Y-107464097D02*
X137954819Y-107368859D01*
X137954819Y-107368859D02*
X137954819Y-107083145D01*
X137954819Y-107083145D02*
X137907200Y-106987907D01*
X137907200Y-106987907D02*
X137859580Y-106940288D01*
X136954819Y-108464097D02*
X136954819Y-107987907D01*
X136954819Y-107987907D02*
X137431009Y-107940288D01*
X137431009Y-107940288D02*
X137383390Y-107987907D01*
X137383390Y-107987907D02*
X137335771Y-108083145D01*
X137335771Y-108083145D02*
X137335771Y-108321240D01*
X137335771Y-108321240D02*
X137383390Y-108416478D01*
X137383390Y-108416478D02*
X137431009Y-108464097D01*
X137431009Y-108464097D02*
X137526247Y-108511716D01*
X137526247Y-108511716D02*
X137764342Y-108511716D01*
X137764342Y-108511716D02*
X137859580Y-108464097D01*
X137859580Y-108464097D02*
X137907200Y-108416478D01*
X137907200Y-108416478D02*
X137954819Y-108321240D01*
X137954819Y-108321240D02*
X137954819Y-108083145D01*
X137954819Y-108083145D02*
X137907200Y-107987907D01*
X137907200Y-107987907D02*
X137859580Y-107940288D01*
X146311904Y-93504819D02*
X146311904Y-94314342D01*
X146311904Y-94314342D02*
X146264285Y-94409580D01*
X146264285Y-94409580D02*
X146216666Y-94457200D01*
X146216666Y-94457200D02*
X146121428Y-94504819D01*
X146121428Y-94504819D02*
X145930952Y-94504819D01*
X145930952Y-94504819D02*
X145835714Y-94457200D01*
X145835714Y-94457200D02*
X145788095Y-94409580D01*
X145788095Y-94409580D02*
X145740476Y-94314342D01*
X145740476Y-94314342D02*
X145740476Y-93504819D01*
X145359523Y-93504819D02*
X144740476Y-93504819D01*
X144740476Y-93504819D02*
X145073809Y-93885771D01*
X145073809Y-93885771D02*
X144930952Y-93885771D01*
X144930952Y-93885771D02*
X144835714Y-93933390D01*
X144835714Y-93933390D02*
X144788095Y-93981009D01*
X144788095Y-93981009D02*
X144740476Y-94076247D01*
X144740476Y-94076247D02*
X144740476Y-94314342D01*
X144740476Y-94314342D02*
X144788095Y-94409580D01*
X144788095Y-94409580D02*
X144835714Y-94457200D01*
X144835714Y-94457200D02*
X144930952Y-94504819D01*
X144930952Y-94504819D02*
X145216666Y-94504819D01*
X145216666Y-94504819D02*
X145311904Y-94457200D01*
X145311904Y-94457200D02*
X145359523Y-94409580D01*
X127142857Y-120954819D02*
X127476190Y-120478628D01*
X127714285Y-120954819D02*
X127714285Y-119954819D01*
X127714285Y-119954819D02*
X127333333Y-119954819D01*
X127333333Y-119954819D02*
X127238095Y-120002438D01*
X127238095Y-120002438D02*
X127190476Y-120050057D01*
X127190476Y-120050057D02*
X127142857Y-120145295D01*
X127142857Y-120145295D02*
X127142857Y-120288152D01*
X127142857Y-120288152D02*
X127190476Y-120383390D01*
X127190476Y-120383390D02*
X127238095Y-120431009D01*
X127238095Y-120431009D02*
X127333333Y-120478628D01*
X127333333Y-120478628D02*
X127714285Y-120478628D01*
X126190476Y-120954819D02*
X126761904Y-120954819D01*
X126476190Y-120954819D02*
X126476190Y-119954819D01*
X126476190Y-119954819D02*
X126571428Y-120097676D01*
X126571428Y-120097676D02*
X126666666Y-120192914D01*
X126666666Y-120192914D02*
X126761904Y-120240533D01*
X125809523Y-120050057D02*
X125761904Y-120002438D01*
X125761904Y-120002438D02*
X125666666Y-119954819D01*
X125666666Y-119954819D02*
X125428571Y-119954819D01*
X125428571Y-119954819D02*
X125333333Y-120002438D01*
X125333333Y-120002438D02*
X125285714Y-120050057D01*
X125285714Y-120050057D02*
X125238095Y-120145295D01*
X125238095Y-120145295D02*
X125238095Y-120240533D01*
X125238095Y-120240533D02*
X125285714Y-120383390D01*
X125285714Y-120383390D02*
X125857142Y-120954819D01*
X125857142Y-120954819D02*
X125238095Y-120954819D01*
X129392857Y-112359580D02*
X129440476Y-112407200D01*
X129440476Y-112407200D02*
X129583333Y-112454819D01*
X129583333Y-112454819D02*
X129678571Y-112454819D01*
X129678571Y-112454819D02*
X129821428Y-112407200D01*
X129821428Y-112407200D02*
X129916666Y-112311961D01*
X129916666Y-112311961D02*
X129964285Y-112216723D01*
X129964285Y-112216723D02*
X130011904Y-112026247D01*
X130011904Y-112026247D02*
X130011904Y-111883390D01*
X130011904Y-111883390D02*
X129964285Y-111692914D01*
X129964285Y-111692914D02*
X129916666Y-111597676D01*
X129916666Y-111597676D02*
X129821428Y-111502438D01*
X129821428Y-111502438D02*
X129678571Y-111454819D01*
X129678571Y-111454819D02*
X129583333Y-111454819D01*
X129583333Y-111454819D02*
X129440476Y-111502438D01*
X129440476Y-111502438D02*
X129392857Y-111550057D01*
X128440476Y-112454819D02*
X129011904Y-112454819D01*
X128726190Y-112454819D02*
X128726190Y-111454819D01*
X128726190Y-111454819D02*
X128821428Y-111597676D01*
X128821428Y-111597676D02*
X128916666Y-111692914D01*
X128916666Y-111692914D02*
X129011904Y-111740533D01*
X127821428Y-111454819D02*
X127726190Y-111454819D01*
X127726190Y-111454819D02*
X127630952Y-111502438D01*
X127630952Y-111502438D02*
X127583333Y-111550057D01*
X127583333Y-111550057D02*
X127535714Y-111645295D01*
X127535714Y-111645295D02*
X127488095Y-111835771D01*
X127488095Y-111835771D02*
X127488095Y-112073866D01*
X127488095Y-112073866D02*
X127535714Y-112264342D01*
X127535714Y-112264342D02*
X127583333Y-112359580D01*
X127583333Y-112359580D02*
X127630952Y-112407200D01*
X127630952Y-112407200D02*
X127726190Y-112454819D01*
X127726190Y-112454819D02*
X127821428Y-112454819D01*
X127821428Y-112454819D02*
X127916666Y-112407200D01*
X127916666Y-112407200D02*
X127964285Y-112359580D01*
X127964285Y-112359580D02*
X128011904Y-112264342D01*
X128011904Y-112264342D02*
X128059523Y-112073866D01*
X128059523Y-112073866D02*
X128059523Y-111835771D01*
X128059523Y-111835771D02*
X128011904Y-111645295D01*
X128011904Y-111645295D02*
X127964285Y-111550057D01*
X127964285Y-111550057D02*
X127916666Y-111502438D01*
X127916666Y-111502438D02*
X127821428Y-111454819D01*
X134142857Y-126454819D02*
X134476190Y-125978628D01*
X134714285Y-126454819D02*
X134714285Y-125454819D01*
X134714285Y-125454819D02*
X134333333Y-125454819D01*
X134333333Y-125454819D02*
X134238095Y-125502438D01*
X134238095Y-125502438D02*
X134190476Y-125550057D01*
X134190476Y-125550057D02*
X134142857Y-125645295D01*
X134142857Y-125645295D02*
X134142857Y-125788152D01*
X134142857Y-125788152D02*
X134190476Y-125883390D01*
X134190476Y-125883390D02*
X134238095Y-125931009D01*
X134238095Y-125931009D02*
X134333333Y-125978628D01*
X134333333Y-125978628D02*
X134714285Y-125978628D01*
X133761904Y-125550057D02*
X133714285Y-125502438D01*
X133714285Y-125502438D02*
X133619047Y-125454819D01*
X133619047Y-125454819D02*
X133380952Y-125454819D01*
X133380952Y-125454819D02*
X133285714Y-125502438D01*
X133285714Y-125502438D02*
X133238095Y-125550057D01*
X133238095Y-125550057D02*
X133190476Y-125645295D01*
X133190476Y-125645295D02*
X133190476Y-125740533D01*
X133190476Y-125740533D02*
X133238095Y-125883390D01*
X133238095Y-125883390D02*
X133809523Y-126454819D01*
X133809523Y-126454819D02*
X133190476Y-126454819D01*
X132714285Y-126454819D02*
X132523809Y-126454819D01*
X132523809Y-126454819D02*
X132428571Y-126407200D01*
X132428571Y-126407200D02*
X132380952Y-126359580D01*
X132380952Y-126359580D02*
X132285714Y-126216723D01*
X132285714Y-126216723D02*
X132238095Y-126026247D01*
X132238095Y-126026247D02*
X132238095Y-125645295D01*
X132238095Y-125645295D02*
X132285714Y-125550057D01*
X132285714Y-125550057D02*
X132333333Y-125502438D01*
X132333333Y-125502438D02*
X132428571Y-125454819D01*
X132428571Y-125454819D02*
X132619047Y-125454819D01*
X132619047Y-125454819D02*
X132714285Y-125502438D01*
X132714285Y-125502438D02*
X132761904Y-125550057D01*
X132761904Y-125550057D02*
X132809523Y-125645295D01*
X132809523Y-125645295D02*
X132809523Y-125883390D01*
X132809523Y-125883390D02*
X132761904Y-125978628D01*
X132761904Y-125978628D02*
X132714285Y-126026247D01*
X132714285Y-126026247D02*
X132619047Y-126073866D01*
X132619047Y-126073866D02*
X132428571Y-126073866D01*
X132428571Y-126073866D02*
X132333333Y-126026247D01*
X132333333Y-126026247D02*
X132285714Y-125978628D01*
X132285714Y-125978628D02*
X132238095Y-125883390D01*
X142892857Y-126454819D02*
X143226190Y-125978628D01*
X143464285Y-126454819D02*
X143464285Y-125454819D01*
X143464285Y-125454819D02*
X143083333Y-125454819D01*
X143083333Y-125454819D02*
X142988095Y-125502438D01*
X142988095Y-125502438D02*
X142940476Y-125550057D01*
X142940476Y-125550057D02*
X142892857Y-125645295D01*
X142892857Y-125645295D02*
X142892857Y-125788152D01*
X142892857Y-125788152D02*
X142940476Y-125883390D01*
X142940476Y-125883390D02*
X142988095Y-125931009D01*
X142988095Y-125931009D02*
X143083333Y-125978628D01*
X143083333Y-125978628D02*
X143464285Y-125978628D01*
X142511904Y-125550057D02*
X142464285Y-125502438D01*
X142464285Y-125502438D02*
X142369047Y-125454819D01*
X142369047Y-125454819D02*
X142130952Y-125454819D01*
X142130952Y-125454819D02*
X142035714Y-125502438D01*
X142035714Y-125502438D02*
X141988095Y-125550057D01*
X141988095Y-125550057D02*
X141940476Y-125645295D01*
X141940476Y-125645295D02*
X141940476Y-125740533D01*
X141940476Y-125740533D02*
X141988095Y-125883390D01*
X141988095Y-125883390D02*
X142559523Y-126454819D01*
X142559523Y-126454819D02*
X141940476Y-126454819D01*
X141607142Y-125454819D02*
X140940476Y-125454819D01*
X140940476Y-125454819D02*
X141369047Y-126454819D01*
X139454819Y-105357142D02*
X138978628Y-105023809D01*
X139454819Y-104785714D02*
X138454819Y-104785714D01*
X138454819Y-104785714D02*
X138454819Y-105166666D01*
X138454819Y-105166666D02*
X138502438Y-105261904D01*
X138502438Y-105261904D02*
X138550057Y-105309523D01*
X138550057Y-105309523D02*
X138645295Y-105357142D01*
X138645295Y-105357142D02*
X138788152Y-105357142D01*
X138788152Y-105357142D02*
X138883390Y-105309523D01*
X138883390Y-105309523D02*
X138931009Y-105261904D01*
X138931009Y-105261904D02*
X138978628Y-105166666D01*
X138978628Y-105166666D02*
X138978628Y-104785714D01*
X139454819Y-106309523D02*
X139454819Y-105738095D01*
X139454819Y-106023809D02*
X138454819Y-106023809D01*
X138454819Y-106023809D02*
X138597676Y-105928571D01*
X138597676Y-105928571D02*
X138692914Y-105833333D01*
X138692914Y-105833333D02*
X138740533Y-105738095D01*
X138788152Y-107166666D02*
X139454819Y-107166666D01*
X138407200Y-106928571D02*
X139121485Y-106690476D01*
X139121485Y-106690476D02*
X139121485Y-107309523D01*
X161666666Y-128359580D02*
X161714285Y-128407200D01*
X161714285Y-128407200D02*
X161857142Y-128454819D01*
X161857142Y-128454819D02*
X161952380Y-128454819D01*
X161952380Y-128454819D02*
X162095237Y-128407200D01*
X162095237Y-128407200D02*
X162190475Y-128311961D01*
X162190475Y-128311961D02*
X162238094Y-128216723D01*
X162238094Y-128216723D02*
X162285713Y-128026247D01*
X162285713Y-128026247D02*
X162285713Y-127883390D01*
X162285713Y-127883390D02*
X162238094Y-127692914D01*
X162238094Y-127692914D02*
X162190475Y-127597676D01*
X162190475Y-127597676D02*
X162095237Y-127502438D01*
X162095237Y-127502438D02*
X161952380Y-127454819D01*
X161952380Y-127454819D02*
X161857142Y-127454819D01*
X161857142Y-127454819D02*
X161714285Y-127502438D01*
X161714285Y-127502438D02*
X161666666Y-127550057D01*
X160714285Y-128454819D02*
X161285713Y-128454819D01*
X160999999Y-128454819D02*
X160999999Y-127454819D01*
X160999999Y-127454819D02*
X161095237Y-127597676D01*
X161095237Y-127597676D02*
X161190475Y-127692914D01*
X161190475Y-127692914D02*
X161285713Y-127740533D01*
X148454819Y-103357142D02*
X147978628Y-103023809D01*
X148454819Y-102785714D02*
X147454819Y-102785714D01*
X147454819Y-102785714D02*
X147454819Y-103166666D01*
X147454819Y-103166666D02*
X147502438Y-103261904D01*
X147502438Y-103261904D02*
X147550057Y-103309523D01*
X147550057Y-103309523D02*
X147645295Y-103357142D01*
X147645295Y-103357142D02*
X147788152Y-103357142D01*
X147788152Y-103357142D02*
X147883390Y-103309523D01*
X147883390Y-103309523D02*
X147931009Y-103261904D01*
X147931009Y-103261904D02*
X147978628Y-103166666D01*
X147978628Y-103166666D02*
X147978628Y-102785714D01*
X148454819Y-104309523D02*
X148454819Y-103738095D01*
X148454819Y-104023809D02*
X147454819Y-104023809D01*
X147454819Y-104023809D02*
X147597676Y-103928571D01*
X147597676Y-103928571D02*
X147692914Y-103833333D01*
X147692914Y-103833333D02*
X147740533Y-103738095D01*
X147454819Y-105166666D02*
X147454819Y-104976190D01*
X147454819Y-104976190D02*
X147502438Y-104880952D01*
X147502438Y-104880952D02*
X147550057Y-104833333D01*
X147550057Y-104833333D02*
X147692914Y-104738095D01*
X147692914Y-104738095D02*
X147883390Y-104690476D01*
X147883390Y-104690476D02*
X148264342Y-104690476D01*
X148264342Y-104690476D02*
X148359580Y-104738095D01*
X148359580Y-104738095D02*
X148407200Y-104785714D01*
X148407200Y-104785714D02*
X148454819Y-104880952D01*
X148454819Y-104880952D02*
X148454819Y-105071428D01*
X148454819Y-105071428D02*
X148407200Y-105166666D01*
X148407200Y-105166666D02*
X148359580Y-105214285D01*
X148359580Y-105214285D02*
X148264342Y-105261904D01*
X148264342Y-105261904D02*
X148026247Y-105261904D01*
X148026247Y-105261904D02*
X147931009Y-105214285D01*
X147931009Y-105214285D02*
X147883390Y-105166666D01*
X147883390Y-105166666D02*
X147835771Y-105071428D01*
X147835771Y-105071428D02*
X147835771Y-104880952D01*
X147835771Y-104880952D02*
X147883390Y-104785714D01*
X147883390Y-104785714D02*
X147931009Y-104738095D01*
X147931009Y-104738095D02*
X148026247Y-104690476D01*
X138392857Y-126454819D02*
X138726190Y-125978628D01*
X138964285Y-126454819D02*
X138964285Y-125454819D01*
X138964285Y-125454819D02*
X138583333Y-125454819D01*
X138583333Y-125454819D02*
X138488095Y-125502438D01*
X138488095Y-125502438D02*
X138440476Y-125550057D01*
X138440476Y-125550057D02*
X138392857Y-125645295D01*
X138392857Y-125645295D02*
X138392857Y-125788152D01*
X138392857Y-125788152D02*
X138440476Y-125883390D01*
X138440476Y-125883390D02*
X138488095Y-125931009D01*
X138488095Y-125931009D02*
X138583333Y-125978628D01*
X138583333Y-125978628D02*
X138964285Y-125978628D01*
X138011904Y-125550057D02*
X137964285Y-125502438D01*
X137964285Y-125502438D02*
X137869047Y-125454819D01*
X137869047Y-125454819D02*
X137630952Y-125454819D01*
X137630952Y-125454819D02*
X137535714Y-125502438D01*
X137535714Y-125502438D02*
X137488095Y-125550057D01*
X137488095Y-125550057D02*
X137440476Y-125645295D01*
X137440476Y-125645295D02*
X137440476Y-125740533D01*
X137440476Y-125740533D02*
X137488095Y-125883390D01*
X137488095Y-125883390D02*
X138059523Y-126454819D01*
X138059523Y-126454819D02*
X137440476Y-126454819D01*
X136869047Y-125883390D02*
X136964285Y-125835771D01*
X136964285Y-125835771D02*
X137011904Y-125788152D01*
X137011904Y-125788152D02*
X137059523Y-125692914D01*
X137059523Y-125692914D02*
X137059523Y-125645295D01*
X137059523Y-125645295D02*
X137011904Y-125550057D01*
X137011904Y-125550057D02*
X136964285Y-125502438D01*
X136964285Y-125502438D02*
X136869047Y-125454819D01*
X136869047Y-125454819D02*
X136678571Y-125454819D01*
X136678571Y-125454819D02*
X136583333Y-125502438D01*
X136583333Y-125502438D02*
X136535714Y-125550057D01*
X136535714Y-125550057D02*
X136488095Y-125645295D01*
X136488095Y-125645295D02*
X136488095Y-125692914D01*
X136488095Y-125692914D02*
X136535714Y-125788152D01*
X136535714Y-125788152D02*
X136583333Y-125835771D01*
X136583333Y-125835771D02*
X136678571Y-125883390D01*
X136678571Y-125883390D02*
X136869047Y-125883390D01*
X136869047Y-125883390D02*
X136964285Y-125931009D01*
X136964285Y-125931009D02*
X137011904Y-125978628D01*
X137011904Y-125978628D02*
X137059523Y-126073866D01*
X137059523Y-126073866D02*
X137059523Y-126264342D01*
X137059523Y-126264342D02*
X137011904Y-126359580D01*
X137011904Y-126359580D02*
X136964285Y-126407200D01*
X136964285Y-126407200D02*
X136869047Y-126454819D01*
X136869047Y-126454819D02*
X136678571Y-126454819D01*
X136678571Y-126454819D02*
X136583333Y-126407200D01*
X136583333Y-126407200D02*
X136535714Y-126359580D01*
X136535714Y-126359580D02*
X136488095Y-126264342D01*
X136488095Y-126264342D02*
X136488095Y-126073866D01*
X136488095Y-126073866D02*
X136535714Y-125978628D01*
X136535714Y-125978628D02*
X136583333Y-125931009D01*
X136583333Y-125931009D02*
X136678571Y-125883390D01*
X151416666Y-112359580D02*
X151464285Y-112407200D01*
X151464285Y-112407200D02*
X151607142Y-112454819D01*
X151607142Y-112454819D02*
X151702380Y-112454819D01*
X151702380Y-112454819D02*
X151845237Y-112407200D01*
X151845237Y-112407200D02*
X151940475Y-112311961D01*
X151940475Y-112311961D02*
X151988094Y-112216723D01*
X151988094Y-112216723D02*
X152035713Y-112026247D01*
X152035713Y-112026247D02*
X152035713Y-111883390D01*
X152035713Y-111883390D02*
X151988094Y-111692914D01*
X151988094Y-111692914D02*
X151940475Y-111597676D01*
X151940475Y-111597676D02*
X151845237Y-111502438D01*
X151845237Y-111502438D02*
X151702380Y-111454819D01*
X151702380Y-111454819D02*
X151607142Y-111454819D01*
X151607142Y-111454819D02*
X151464285Y-111502438D01*
X151464285Y-111502438D02*
X151416666Y-111550057D01*
X150511904Y-111454819D02*
X150988094Y-111454819D01*
X150988094Y-111454819D02*
X151035713Y-111931009D01*
X151035713Y-111931009D02*
X150988094Y-111883390D01*
X150988094Y-111883390D02*
X150892856Y-111835771D01*
X150892856Y-111835771D02*
X150654761Y-111835771D01*
X150654761Y-111835771D02*
X150559523Y-111883390D01*
X150559523Y-111883390D02*
X150511904Y-111931009D01*
X150511904Y-111931009D02*
X150464285Y-112026247D01*
X150464285Y-112026247D02*
X150464285Y-112264342D01*
X150464285Y-112264342D02*
X150511904Y-112359580D01*
X150511904Y-112359580D02*
X150559523Y-112407200D01*
X150559523Y-112407200D02*
X150654761Y-112454819D01*
X150654761Y-112454819D02*
X150892856Y-112454819D01*
X150892856Y-112454819D02*
X150988094Y-112407200D01*
X150988094Y-112407200D02*
X151035713Y-112359580D01*
X141359580Y-94107142D02*
X141407200Y-94059523D01*
X141407200Y-94059523D02*
X141454819Y-93916666D01*
X141454819Y-93916666D02*
X141454819Y-93821428D01*
X141454819Y-93821428D02*
X141407200Y-93678571D01*
X141407200Y-93678571D02*
X141311961Y-93583333D01*
X141311961Y-93583333D02*
X141216723Y-93535714D01*
X141216723Y-93535714D02*
X141026247Y-93488095D01*
X141026247Y-93488095D02*
X140883390Y-93488095D01*
X140883390Y-93488095D02*
X140692914Y-93535714D01*
X140692914Y-93535714D02*
X140597676Y-93583333D01*
X140597676Y-93583333D02*
X140502438Y-93678571D01*
X140502438Y-93678571D02*
X140454819Y-93821428D01*
X140454819Y-93821428D02*
X140454819Y-93916666D01*
X140454819Y-93916666D02*
X140502438Y-94059523D01*
X140502438Y-94059523D02*
X140550057Y-94107142D01*
X140788152Y-94964285D02*
X141454819Y-94964285D01*
X140407200Y-94726190D02*
X141121485Y-94488095D01*
X141121485Y-94488095D02*
X141121485Y-95107142D01*
X141454819Y-96011904D02*
X141454819Y-95440476D01*
X141454819Y-95726190D02*
X140454819Y-95726190D01*
X140454819Y-95726190D02*
X140597676Y-95630952D01*
X140597676Y-95630952D02*
X140692914Y-95535714D01*
X140692914Y-95535714D02*
X140740533Y-95440476D01*
X148166666Y-112359580D02*
X148214285Y-112407200D01*
X148214285Y-112407200D02*
X148357142Y-112454819D01*
X148357142Y-112454819D02*
X148452380Y-112454819D01*
X148452380Y-112454819D02*
X148595237Y-112407200D01*
X148595237Y-112407200D02*
X148690475Y-112311961D01*
X148690475Y-112311961D02*
X148738094Y-112216723D01*
X148738094Y-112216723D02*
X148785713Y-112026247D01*
X148785713Y-112026247D02*
X148785713Y-111883390D01*
X148785713Y-111883390D02*
X148738094Y-111692914D01*
X148738094Y-111692914D02*
X148690475Y-111597676D01*
X148690475Y-111597676D02*
X148595237Y-111502438D01*
X148595237Y-111502438D02*
X148452380Y-111454819D01*
X148452380Y-111454819D02*
X148357142Y-111454819D01*
X148357142Y-111454819D02*
X148214285Y-111502438D01*
X148214285Y-111502438D02*
X148166666Y-111550057D01*
X147309523Y-111454819D02*
X147499999Y-111454819D01*
X147499999Y-111454819D02*
X147595237Y-111502438D01*
X147595237Y-111502438D02*
X147642856Y-111550057D01*
X147642856Y-111550057D02*
X147738094Y-111692914D01*
X147738094Y-111692914D02*
X147785713Y-111883390D01*
X147785713Y-111883390D02*
X147785713Y-112264342D01*
X147785713Y-112264342D02*
X147738094Y-112359580D01*
X147738094Y-112359580D02*
X147690475Y-112407200D01*
X147690475Y-112407200D02*
X147595237Y-112454819D01*
X147595237Y-112454819D02*
X147404761Y-112454819D01*
X147404761Y-112454819D02*
X147309523Y-112407200D01*
X147309523Y-112407200D02*
X147261904Y-112359580D01*
X147261904Y-112359580D02*
X147214285Y-112264342D01*
X147214285Y-112264342D02*
X147214285Y-112026247D01*
X147214285Y-112026247D02*
X147261904Y-111931009D01*
X147261904Y-111931009D02*
X147309523Y-111883390D01*
X147309523Y-111883390D02*
X147404761Y-111835771D01*
X147404761Y-111835771D02*
X147595237Y-111835771D01*
X147595237Y-111835771D02*
X147690475Y-111883390D01*
X147690475Y-111883390D02*
X147738094Y-111931009D01*
X147738094Y-111931009D02*
X147785713Y-112026247D01*
%TO.C,R13*%
D11*
X144477500Y-103762742D02*
X144477500Y-104237258D01*
X145522500Y-103762742D02*
X145522500Y-104237258D01*
%TO.C,R24*%
X138727500Y-115737258D02*
X138727500Y-115262742D01*
X139772500Y-115737258D02*
X139772500Y-115262742D01*
%TO.C,C2*%
X149140000Y-130538748D02*
X149140000Y-131961252D01*
X151860000Y-130538748D02*
X151860000Y-131961252D01*
%TO.C,C34*%
X142240000Y-104109420D02*
X142240000Y-104390580D01*
X143260000Y-104109420D02*
X143260000Y-104390580D01*
%TO.C,C11*%
X124140000Y-109711252D02*
X124140000Y-108288748D01*
X126860000Y-109711252D02*
X126860000Y-108288748D01*
%TO.C,C40*%
X134490000Y-97890580D02*
X134490000Y-97609420D01*
X135510000Y-97890580D02*
X135510000Y-97609420D01*
%TO.C,R33*%
X134227500Y-115737258D02*
X134227500Y-115262742D01*
X135272500Y-115737258D02*
X135272500Y-115262742D01*
%TO.C,R7*%
X140727500Y-103237258D02*
X140727500Y-102762742D01*
X141772500Y-103237258D02*
X141772500Y-102762742D01*
%TO.C,R32*%
X137227500Y-115737258D02*
X137227500Y-115262742D01*
X138272500Y-115737258D02*
X138272500Y-115262742D01*
%TO.C,R26*%
D12*
X145150000Y-119750000D02*
X145150000Y-123500000D01*
X148350000Y-123250000D02*
X148350000Y-119500000D01*
%TO.C,C44*%
D11*
X145615580Y-98740000D02*
X145334420Y-98740000D01*
X145615580Y-99760000D02*
X145334420Y-99760000D01*
%TO.C,R34*%
X154977500Y-97512742D02*
X154977500Y-97987258D01*
X156022500Y-97512742D02*
X156022500Y-97987258D01*
%TO.C,R30*%
X144727500Y-115737258D02*
X144727500Y-115262742D01*
X145772500Y-115737258D02*
X145772500Y-115262742D01*
%TO.C,R25*%
X135727500Y-115737258D02*
X135727500Y-115262742D01*
X136772500Y-115737258D02*
X136772500Y-115262742D01*
%TO.C,R8*%
D12*
X151900000Y-123500000D02*
X151900000Y-126500000D01*
X155100000Y-126500000D02*
X155100000Y-123500000D01*
%TO.C,C28*%
D11*
X122461252Y-126640000D02*
X121038748Y-126640000D01*
X122461252Y-129360000D02*
X121038748Y-129360000D01*
%TO.C,R22*%
X143227500Y-115737258D02*
X143227500Y-115262742D01*
X144272500Y-115737258D02*
X144272500Y-115262742D01*
%TO.C,R21*%
X132727500Y-97987258D02*
X132727500Y-97512742D01*
X133772500Y-97987258D02*
X133772500Y-97512742D01*
%TO.C,R35*%
X153477500Y-97512742D02*
X153477500Y-97987258D01*
X154522500Y-97512742D02*
X154522500Y-97987258D01*
%TO.C,R23*%
X140227500Y-115737258D02*
X140227500Y-115262742D01*
X141272500Y-115737258D02*
X141272500Y-115262742D01*
%TO.C,C8*%
X133890000Y-109711252D02*
X133890000Y-108288748D01*
X136610000Y-109711252D02*
X136610000Y-108288748D01*
%TO.C,C9*%
X130640000Y-109711252D02*
X130640000Y-108288748D01*
X133360000Y-109711252D02*
X133360000Y-108288748D01*
%TO.C,D3*%
X134265000Y-102515000D02*
X135735000Y-102515000D01*
X134265000Y-104800000D02*
X134265000Y-102515000D01*
X135735000Y-102515000D02*
X135735000Y-104800000D01*
%TO.C,U2*%
X137090000Y-96190000D02*
X137090000Y-96240000D01*
X137090000Y-99260000D02*
X137090000Y-99310000D01*
X137090000Y-99310000D02*
X138910000Y-99310000D01*
X138910000Y-96190000D02*
X137090000Y-96190000D01*
X138910000Y-96240000D02*
X138910000Y-96190000D01*
X138910000Y-98140000D02*
X138910000Y-97360000D01*
X138910000Y-99310000D02*
X138910000Y-99260000D01*
X136790000Y-99590000D02*
X136310000Y-99590000D01*
X136550000Y-99260000D01*
X136790000Y-99590000D01*
G36*
X136790000Y-99590000D02*
G01*
X136310000Y-99590000D01*
X136550000Y-99260000D01*
X136790000Y-99590000D01*
G37*
%TO.C,C4*%
X153140000Y-109711252D02*
X153140000Y-108288748D01*
X155860000Y-109711252D02*
X155860000Y-108288748D01*
%TO.C,R31*%
X141727500Y-115737258D02*
X141727500Y-115262742D01*
X142772500Y-115737258D02*
X142772500Y-115262742D01*
%TO.C,TP5*%
X151950000Y-96500000D02*
G75*
G02*
X149550000Y-96500000I-1200000J0D01*
G01*
X149550000Y-96500000D02*
G75*
G02*
X151950000Y-96500000I1200000J0D01*
G01*
%TO.C,C29*%
X128140000Y-130538748D02*
X128140000Y-131961252D01*
X130860000Y-130538748D02*
X130860000Y-131961252D01*
%TO.C,C43*%
X142240000Y-99640580D02*
X142240000Y-99359420D01*
X143260000Y-99640580D02*
X143260000Y-99359420D01*
%TO.C,C7*%
X143390000Y-109711252D02*
X143390000Y-108288748D01*
X146110000Y-109711252D02*
X146110000Y-108288748D01*
%TO.C,C42*%
X139490000Y-111140580D02*
X139490000Y-110859420D01*
X140510000Y-111140580D02*
X140510000Y-110859420D01*
%TO.C,C35*%
X136740000Y-104390392D02*
X136740000Y-104109232D01*
X137760000Y-104390392D02*
X137760000Y-104109232D01*
%TO.C,U3*%
X143940000Y-94890000D02*
X143940000Y-95090000D01*
X143940000Y-97910000D02*
X143940000Y-98110000D01*
X143940000Y-98110000D02*
X147160000Y-98110000D01*
X147160000Y-94890000D02*
X143940000Y-94890000D01*
X147160000Y-95090000D02*
X147160000Y-94890000D01*
X147160000Y-98110000D02*
X147160000Y-97910000D01*
X147710000Y-95090000D02*
X147470000Y-94760000D01*
X147950000Y-94760000D01*
X147710000Y-95090000D01*
G36*
X147710000Y-95090000D02*
G01*
X147470000Y-94760000D01*
X147950000Y-94760000D01*
X147710000Y-95090000D01*
G37*
%TO.C,R12*%
D12*
X124900000Y-123500000D02*
X124900000Y-126500000D01*
X128100000Y-126500000D02*
X128100000Y-123500000D01*
%TO.C,C10*%
D11*
X127390000Y-109711252D02*
X127390000Y-108288748D01*
X130110000Y-109711252D02*
X130110000Y-108288748D01*
%TO.C,R29*%
D12*
X131650000Y-119750000D02*
X131650000Y-123500000D01*
X134850000Y-123250000D02*
X134850000Y-119500000D01*
%TO.C,R27*%
X140650000Y-119750000D02*
X140650000Y-123500000D01*
X143850000Y-123250000D02*
X143850000Y-119500000D01*
%TO.C,R14*%
D11*
X138227500Y-103237258D02*
X138227500Y-102762742D01*
X139272500Y-103237258D02*
X139272500Y-102762742D01*
%TO.C,C1*%
X157538748Y-126640000D02*
X158961252Y-126640000D01*
X157538748Y-129360000D02*
X158961252Y-129360000D01*
%TO.C,R16*%
X145977500Y-104237258D02*
X145977500Y-103762742D01*
X147022500Y-104237258D02*
X147022500Y-103762742D01*
%TO.C,R28*%
D12*
X136150000Y-119750000D02*
X136150000Y-123500000D01*
X139350000Y-123250000D02*
X139350000Y-119500000D01*
%TO.C,C5*%
D11*
X149890000Y-109711252D02*
X149890000Y-108288748D01*
X152610000Y-109711252D02*
X152610000Y-108288748D01*
%TO.C,C41*%
X140490000Y-97890580D02*
X140490000Y-97609420D01*
X141510000Y-97890580D02*
X141510000Y-97609420D01*
%TO.C,C6*%
X146640000Y-109711252D02*
X146640000Y-108288748D01*
X149360000Y-109711252D02*
X149360000Y-108288748D01*
%TD*%
M02*
