%TF.GenerationSoftware,KiCad,Pcbnew,10.0.1*%
%TF.CreationDate,2026-04-20T02:34:17-04:00*%
%TF.ProjectId,LTC7890_Buck,4c544337-3839-4305-9f42-75636b2e6b69,rev?*%
%TF.SameCoordinates,Original*%
%TF.FileFunction,Soldermask,Top*%
%TF.FilePolarity,Negative*%
%FSLAX46Y46*%
G04 Gerber Fmt 4.6, Leading zero omitted, Abs format (unit mm)*
G04 Created by KiCad (PCBNEW 10.0.1) date 2026-04-20 02:34:17*
%MOMM*%
%LPD*%
G01*
G04 APERTURE LIST*
G04 Aperture macros list*
%AMRoundRect*
0 Rectangle with rounded corners*
0 $1 Rounding radius*
0 $2 $3 $4 $5 $6 $7 $8 $9 X,Y pos of 4 corners*
0 Add a 4 corners polygon primitive as box body*
4,1,4,$2,$3,$4,$5,$6,$7,$8,$9,$2,$3,0*
0 Add four circle primitives for the rounded corners*
1,1,$1+$1,$2,$3*
1,1,$1+$1,$4,$5*
1,1,$1+$1,$6,$7*
1,1,$1+$1,$8,$9*
0 Add four rect primitives between the rounded corners*
20,1,$1+$1,$2,$3,$4,$5,0*
20,1,$1+$1,$4,$5,$6,$7,0*
20,1,$1+$1,$6,$7,$8,$9,0*
20,1,$1+$1,$8,$9,$2,$3,0*%
G04 Aperture macros list end*
%ADD10C,3.200000*%
%ADD11RoundRect,0.225000X-0.250000X0.225000X-0.250000X-0.225000X0.250000X-0.225000X0.250000X0.225000X0*%
%ADD12RoundRect,0.225000X0.250000X-0.225000X0.250000X0.225000X-0.250000X0.225000X-0.250000X-0.225000X0*%
%ADD13RoundRect,0.127000X-1.143000X1.208000X-1.143000X-1.208000X1.143000X-1.208000X1.143000X1.208000X0*%
%ADD14RoundRect,0.076200X-0.558800X0.304800X-0.558800X-0.304800X0.558800X-0.304800X0.558800X0.304800X0*%
%ADD15RoundRect,0.250001X-0.949999X-0.949999X0.949999X-0.949999X0.949999X0.949999X-0.949999X0.949999X0*%
%ADD16C,2.400000*%
%ADD17RoundRect,0.200000X-0.200000X-0.275000X0.200000X-0.275000X0.200000X0.275000X-0.200000X0.275000X0*%
%ADD18O,1.400000X2.500000*%
%ADD19C,4.500000*%
%ADD20O,1.400000X2.200000*%
%ADD21C,1.500000*%
%ADD22RoundRect,0.094500X0.220500X-0.380500X0.220500X0.380500X-0.220500X0.380500X-0.220500X-0.380500X0*%
%ADD23RoundRect,0.067500X0.157500X-1.582500X0.157500X1.582500X-0.157500X1.582500X-0.157500X-1.582500X0*%
%ADD24RoundRect,0.094500X0.220500X-1.555500X0.220500X1.555500X-0.220500X1.555500X-0.220500X-1.555500X0*%
%ADD25RoundRect,0.094500X0.220500X-0.930500X0.220500X0.930500X-0.220500X0.930500X-0.220500X-0.930500X0*%
%ADD26RoundRect,0.150000X0.700000X-0.150000X0.700000X0.150000X-0.700000X0.150000X-0.700000X-0.150000X0*%
%ADD27RoundRect,0.250000X1.100000X-0.250000X1.100000X0.250000X-1.100000X0.250000X-1.100000X-0.250000X0*%
%ADD28RoundRect,0.250000X0.750000X0.750000X-0.750000X0.750000X-0.750000X-0.750000X0.750000X-0.750000X0*%
%ADD29C,2.000000*%
%ADD30O,3.450000X7.000000*%
%ADD31RoundRect,0.200000X-0.275000X0.200000X-0.275000X-0.200000X0.275000X-0.200000X0.275000X0.200000X0*%
%ADD32RoundRect,0.094500X-0.220500X0.380500X-0.220500X-0.380500X0.220500X-0.380500X0.220500X0.380500X0*%
%ADD33RoundRect,0.067500X-0.157500X1.582500X-0.157500X-1.582500X0.157500X-1.582500X0.157500X1.582500X0*%
%ADD34RoundRect,0.094500X-0.220500X1.555500X-0.220500X-1.555500X0.220500X-1.555500X0.220500X1.555500X0*%
%ADD35RoundRect,0.094500X-0.220500X0.930500X-0.220500X-0.930500X0.220500X-0.930500X0.220500X0.930500X0*%
%ADD36RoundRect,0.250000X-0.750000X-0.750000X0.750000X-0.750000X0.750000X0.750000X-0.750000X0.750000X0*%
%ADD37RoundRect,0.150000X0.150000X0.700000X-0.150000X0.700000X-0.150000X-0.700000X0.150000X-0.700000X0*%
%ADD38RoundRect,0.250000X0.250000X1.100000X-0.250000X1.100000X-0.250000X-1.100000X0.250000X-1.100000X0*%
%ADD39RoundRect,0.200000X0.200000X0.275000X-0.200000X0.275000X-0.200000X-0.275000X0.200000X-0.275000X0*%
%ADD40RoundRect,0.062500X-0.062500X0.375000X-0.062500X-0.375000X0.062500X-0.375000X0.062500X0.375000X0*%
%ADD41RoundRect,0.062500X-0.375000X0.062500X-0.375000X-0.062500X0.375000X-0.062500X0.375000X0.062500X0*%
%ADD42R,4.100000X4.100000*%
%ADD43RoundRect,0.225000X0.225000X0.250000X-0.225000X0.250000X-0.225000X-0.250000X0.225000X-0.250000X0*%
%ADD44C,0.900000*%
G04 APERTURE END LIST*
D10*
%TO.C,H3*%
X100500000Y-133500000D03*
%TD*%
D11*
%TO.C,C25*%
X128500000Y-102475000D03*
X128500000Y-104025000D03*
%TD*%
%TO.C,C23*%
X125500000Y-102475000D03*
X125500000Y-104025000D03*
%TD*%
%TO.C,C19*%
X153000000Y-102475000D03*
X153000000Y-104025000D03*
%TD*%
D12*
%TO.C,C40*%
X144750000Y-103775000D03*
X144750000Y-102225000D03*
%TD*%
D13*
%TO.C,D2*%
X125000000Y-114301500D03*
D14*
X125000000Y-116652500D03*
%TD*%
D11*
%TO.C,C22*%
X124000000Y-102475000D03*
X124000000Y-104025000D03*
%TD*%
D15*
%TO.C,C12*%
X118250000Y-90250000D03*
D16*
X123250000Y-90250000D03*
%TD*%
D17*
%TO.C,R17*%
X133175000Y-108500000D03*
X134825000Y-108500000D03*
%TD*%
D18*
%TO.C,J1*%
X98750000Y-85000000D03*
X112250000Y-85000000D03*
D19*
X109100000Y-91000000D03*
X101900000Y-91000000D03*
%TD*%
D20*
%TO.C,SW2*%
X159600000Y-99500000D03*
X173900000Y-99500000D03*
D21*
X161750000Y-99500000D03*
X163750000Y-99500000D03*
X169750000Y-99500000D03*
X171750000Y-99500000D03*
X165750000Y-99500000D03*
%TD*%
D22*
%TO.C,Q3*%
X131425000Y-110425000D03*
D23*
X130325000Y-109250000D03*
X129250000Y-109250000D03*
X128175000Y-109250000D03*
D24*
X127075000Y-109250000D03*
D25*
X131425000Y-108625000D03*
%TD*%
D26*
%TO.C,J4*%
X177650000Y-97625000D03*
X177650000Y-96375000D03*
X177650000Y-95125000D03*
X177650000Y-93875000D03*
D27*
X180850000Y-99475000D03*
X180850000Y-92025000D03*
%TD*%
D11*
%TO.C,C24*%
X127000000Y-102475000D03*
X127000000Y-104025000D03*
%TD*%
%TO.C,C16*%
X148500000Y-102475000D03*
X148500000Y-104025000D03*
%TD*%
%TO.C,C17*%
X150000000Y-102475000D03*
X150000000Y-104025000D03*
%TD*%
D28*
%TO.C,C30*%
X126250000Y-131500000D03*
D29*
X121250000Y-131500000D03*
%TD*%
%TO.C,TP2*%
X130000000Y-135250000D03*
%TD*%
D30*
%TO.C,L1*%
X158250000Y-110750000D03*
X158250000Y-121250000D03*
%TD*%
D13*
%TO.C,D1*%
X155000000Y-114301500D03*
D14*
X155000000Y-116652500D03*
%TD*%
D31*
%TO.C,R12*%
X141500000Y-100425000D03*
X141500000Y-102075000D03*
%TD*%
D11*
%TO.C,C27*%
X131500000Y-102475000D03*
X131500000Y-104025000D03*
%TD*%
D32*
%TO.C,Q1*%
X148575000Y-108075000D03*
D33*
X149675000Y-109250000D03*
X150750000Y-109250000D03*
X151825000Y-109250000D03*
D34*
X152925000Y-109250000D03*
D35*
X148575000Y-109875000D03*
%TD*%
D17*
%TO.C,R22*%
X133175000Y-113750000D03*
X134825000Y-113750000D03*
%TD*%
D22*
%TO.C,Q4*%
X131425000Y-115425000D03*
D23*
X130325000Y-114250000D03*
X129250000Y-114250000D03*
X128175000Y-114250000D03*
D24*
X127075000Y-114250000D03*
D25*
X131425000Y-113625000D03*
%TD*%
D36*
%TO.C,C3*%
X153750000Y-131500000D03*
D29*
X158750000Y-131500000D03*
%TD*%
D37*
%TO.C,J3*%
X179625000Y-88350000D03*
X178375000Y-88350000D03*
X177125000Y-88350000D03*
X175875000Y-88350000D03*
D38*
X181475000Y-85150000D03*
X174025000Y-85150000D03*
%TD*%
D39*
%TO.C,R3*%
X146825000Y-108500000D03*
X145175000Y-108500000D03*
%TD*%
D29*
%TO.C,TP1*%
X150000000Y-135250000D03*
%TD*%
D11*
%TO.C,C21*%
X156000000Y-102475000D03*
X156000000Y-104025000D03*
%TD*%
D31*
%TO.C,R2*%
X138250000Y-100425000D03*
X138250000Y-102075000D03*
%TD*%
D11*
%TO.C,C18*%
X151500000Y-102475000D03*
X151500000Y-104025000D03*
%TD*%
D31*
%TO.C,R1*%
X139750000Y-100425000D03*
X139750000Y-102075000D03*
%TD*%
D39*
%TO.C,TH1*%
X140825000Y-116250000D03*
X139175000Y-116250000D03*
%TD*%
D12*
%TO.C,C39*%
X146250000Y-103775000D03*
X146250000Y-102225000D03*
%TD*%
D30*
%TO.C,L2*%
X121750000Y-121250000D03*
X121750000Y-110750000D03*
%TD*%
D39*
%TO.C,R7*%
X146825000Y-114750000D03*
X145175000Y-114750000D03*
%TD*%
D15*
%TO.C,C15*%
X159500000Y-90250000D03*
D16*
X164500000Y-90250000D03*
%TD*%
D11*
%TO.C,C31*%
X140750000Y-111725000D03*
X140750000Y-113275000D03*
%TD*%
D20*
%TO.C,SW1*%
X106100000Y-99500000D03*
X120400000Y-99500000D03*
D21*
X108250000Y-99500000D03*
X110250000Y-99500000D03*
X116250000Y-99500000D03*
X118250000Y-99500000D03*
X112250000Y-99500000D03*
%TD*%
D39*
%TO.C,R4*%
X146825000Y-110000000D03*
X145175000Y-110000000D03*
%TD*%
D32*
%TO.C,Q2*%
X148575000Y-113075000D03*
D33*
X149675000Y-114250000D03*
X150750000Y-114250000D03*
X151825000Y-114250000D03*
D34*
X152925000Y-114250000D03*
D35*
X148575000Y-114875000D03*
%TD*%
D12*
%TO.C,C35*%
X139250000Y-113275000D03*
X139250000Y-111725000D03*
%TD*%
D31*
%TO.C,R13*%
X134750000Y-104925000D03*
X134750000Y-106575000D03*
%TD*%
D17*
%TO.C,R19*%
X133175000Y-110000000D03*
X134825000Y-110000000D03*
%TD*%
D11*
%TO.C,C26*%
X130000000Y-102475000D03*
X130000000Y-104025000D03*
%TD*%
D10*
%TO.C,H1*%
X101000000Y-98000000D03*
%TD*%
D39*
%TO.C,R20*%
X146825000Y-105250000D03*
X145175000Y-105250000D03*
%TD*%
D17*
%TO.C,R21*%
X133175000Y-115250000D03*
X134825000Y-115250000D03*
%TD*%
D39*
%TO.C,R8*%
X146825000Y-113250000D03*
X145175000Y-113250000D03*
%TD*%
D11*
%TO.C,C20*%
X154500000Y-102475000D03*
X154500000Y-104025000D03*
%TD*%
D15*
%TO.C,C13*%
X132000000Y-90250000D03*
D16*
X137000000Y-90250000D03*
%TD*%
D10*
%TO.C,H4*%
X179500000Y-133500000D03*
%TD*%
%TO.C,H2*%
X172500000Y-93000000D03*
%TD*%
D31*
%TO.C,R11*%
X143000000Y-100425000D03*
X143000000Y-102075000D03*
%TD*%
D40*
%TO.C,U1*%
X142250000Y-103812500D03*
X141750000Y-103812500D03*
X141250000Y-103812500D03*
X140750000Y-103812500D03*
X140250000Y-103812500D03*
X139750000Y-103812500D03*
X139250000Y-103812500D03*
X138750000Y-103812500D03*
X138250000Y-103812500D03*
X137750000Y-103812500D03*
D41*
X137062500Y-104500000D03*
X137062500Y-105000000D03*
X137062500Y-105500000D03*
X137062500Y-106000000D03*
X137062500Y-106500000D03*
X137062500Y-107000000D03*
X137062500Y-107500000D03*
X137062500Y-108000000D03*
X137062500Y-108500000D03*
X137062500Y-109000000D03*
D40*
X137750000Y-109687500D03*
X138250000Y-109687500D03*
X138750000Y-109687500D03*
X139250000Y-109687500D03*
X139750000Y-109687500D03*
X140250000Y-109687500D03*
X140750000Y-109687500D03*
X141250000Y-109687500D03*
X141750000Y-109687500D03*
X142250000Y-109687500D03*
D41*
X142937500Y-109000000D03*
X142937500Y-108500000D03*
X142937500Y-108000000D03*
X142937500Y-107500000D03*
X142937500Y-107000000D03*
X142937500Y-106500000D03*
X142937500Y-106000000D03*
X142937500Y-105500000D03*
X142937500Y-105000000D03*
X142937500Y-104500000D03*
D42*
X140000000Y-106750000D03*
%TD*%
D18*
%TO.C,J2*%
X146750000Y-135000000D03*
X133250000Y-135000000D03*
D19*
X136400000Y-129000000D03*
X143600000Y-129000000D03*
%TD*%
D15*
%TO.C,C14*%
X145750000Y-90250000D03*
D16*
X150750000Y-90250000D03*
%TD*%
D11*
%TO.C,C41*%
X136250000Y-110725000D03*
X136250000Y-112275000D03*
%TD*%
D43*
%TO.C,C38*%
X146775000Y-106750000D03*
X145225000Y-106750000D03*
%TD*%
D11*
%TO.C,C34*%
X143750000Y-110725000D03*
X143750000Y-112275000D03*
%TD*%
D44*
%TO.C,SW4*%
X120500000Y-94250000D03*
X112500000Y-94250000D03*
%TD*%
%TO.C,SW3*%
X165500000Y-94750000D03*
X157500000Y-94750000D03*
%TD*%
M02*
