%TF.GenerationSoftware,KiCad,Pcbnew,10.0.1*%
%TF.CreationDate,2026-04-20T02:34:17-04:00*%
%TF.ProjectId,LTC7890_Buck,4c544337-3839-4305-9f42-75636b2e6b69,rev?*%
%TF.SameCoordinates,Original*%
%TF.FileFunction,Soldermask,Bot*%
%TF.FilePolarity,Negative*%
%FSLAX46Y46*%
G04 Gerber Fmt 4.6, Leading zero omitted, Abs format (unit mm)*
G04 Created by KiCad (PCBNEW 10.0.1) date 2026-04-20 02:34:17*
%MOMM*%
%LPD*%
G01*
G04 APERTURE LIST*
G04 Aperture macros list*
%AMRoundRect*
0 Rectangle with rounded corners*
0 $1 Rounding radius*
0 $2 $3 $4 $5 $6 $7 $8 $9 X,Y pos of 4 corners*
0 Add a 4 corners polygon primitive as box body*
4,1,4,$2,$3,$4,$5,$6,$7,$8,$9,$2,$3,0*
0 Add four circle primitives for the rounded corners*
1,1,$1+$1,$2,$3*
1,1,$1+$1,$4,$5*
1,1,$1+$1,$6,$7*
1,1,$1+$1,$8,$9*
0 Add four rect primitives between the rounded corners*
20,1,$1+$1,$2,$3,$4,$5,0*
20,1,$1+$1,$4,$5,$6,$7,0*
20,1,$1+$1,$6,$7,$8,$9,0*
20,1,$1+$1,$8,$9,$2,$3,0*%
G04 Aperture macros list end*
%ADD10C,3.200000*%
%ADD11RoundRect,0.250001X-0.949999X-0.949999X0.949999X-0.949999X0.949999X0.949999X-0.949999X0.949999X0*%
%ADD12C,2.400000*%
%ADD13O,1.400000X2.500000*%
%ADD14C,4.500000*%
%ADD15O,1.400000X2.200000*%
%ADD16C,1.500000*%
%ADD17RoundRect,0.250000X0.750000X0.750000X-0.750000X0.750000X-0.750000X-0.750000X0.750000X-0.750000X0*%
%ADD18C,2.000000*%
%ADD19O,3.450000X7.000000*%
%ADD20RoundRect,0.250000X-0.750000X-0.750000X0.750000X-0.750000X0.750000X0.750000X-0.750000X0.750000X0*%
%ADD21RoundRect,0.200000X-0.275000X0.200000X-0.275000X-0.200000X0.275000X-0.200000X0.275000X0.200000X0*%
%ADD22RoundRect,0.200000X0.275000X-0.200000X0.275000X0.200000X-0.275000X0.200000X-0.275000X-0.200000X0*%
%ADD23RoundRect,0.250000X-1.100000X0.325000X-1.100000X-0.325000X1.100000X-0.325000X1.100000X0.325000X0*%
%ADD24RoundRect,0.225000X-0.250000X0.225000X-0.250000X-0.225000X0.250000X-0.225000X0.250000X0.225000X0*%
%ADD25RoundRect,0.250000X1.100000X-0.325000X1.100000X0.325000X-1.100000X0.325000X-1.100000X-0.325000X0*%
%ADD26RoundRect,0.225000X0.250000X-0.225000X0.250000X0.225000X-0.250000X0.225000X-0.250000X-0.225000X0*%
%ADD27RoundRect,0.247500X0.752500X-0.577500X0.752500X0.577500X-0.752500X0.577500X-0.752500X-0.577500X0*%
%ADD28RoundRect,0.180000X0.420000X-0.520000X0.420000X0.520000X-0.420000X0.520000X-0.420000X-0.520000X0*%
%ADD29RoundRect,0.225000X0.225000X0.250000X-0.225000X0.250000X-0.225000X-0.250000X0.225000X-0.250000X0*%
%ADD30RoundRect,0.100000X-0.712500X-0.100000X0.712500X-0.100000X0.712500X0.100000X-0.712500X0.100000X0*%
%ADD31RoundRect,0.270000X-1.430000X0.630000X-1.430000X-0.630000X1.430000X-0.630000X1.430000X0.630000X0*%
%ADD32RoundRect,0.250000X0.325000X1.100000X-0.325000X1.100000X-0.325000X-1.100000X0.325000X-1.100000X0*%
%ADD33RoundRect,0.218750X-0.256250X0.218750X-0.256250X-0.218750X0.256250X-0.218750X0.256250X0.218750X0*%
%ADD34RoundRect,0.150000X-0.512500X-0.150000X0.512500X-0.150000X0.512500X0.150000X-0.512500X0.150000X0*%
%ADD35RoundRect,0.200000X0.200000X0.275000X-0.200000X0.275000X-0.200000X-0.275000X0.200000X-0.275000X0*%
%ADD36C,0.900000*%
%ADD37RoundRect,0.180000X0.420000X0.620000X-0.420000X0.620000X-0.420000X-0.620000X0.420000X-0.620000X0*%
%ADD38RoundRect,0.127000X1.208000X1.143000X-1.208000X1.143000X-1.208000X-1.143000X1.208000X-1.143000X0*%
%ADD39RoundRect,0.076200X0.304800X0.558800X-0.304800X0.558800X-0.304800X-0.558800X0.304800X-0.558800X0*%
%ADD40RoundRect,0.150000X0.587500X0.150000X-0.587500X0.150000X-0.587500X-0.150000X0.587500X-0.150000X0*%
%ADD41RoundRect,0.075000X0.650000X0.075000X-0.650000X0.075000X-0.650000X-0.075000X0.650000X-0.075000X0*%
%ADD42RoundRect,0.270000X1.430000X-0.630000X1.430000X0.630000X-1.430000X0.630000X-1.430000X-0.630000X0*%
%ADD43RoundRect,0.200000X-0.200000X-0.275000X0.200000X-0.275000X0.200000X0.275000X-0.200000X0.275000X0*%
%ADD44RoundRect,0.250000X-0.325000X-1.100000X0.325000X-1.100000X0.325000X1.100000X-0.325000X1.100000X0*%
G04 APERTURE END LIST*
D10*
%TO.C,H3*%
X100500000Y-133500000D03*
%TD*%
D11*
%TO.C,C12*%
X118250000Y-90250000D03*
D12*
X123250000Y-90250000D03*
%TD*%
D13*
%TO.C,J1*%
X98750000Y-85000000D03*
X112250000Y-85000000D03*
D14*
X109100000Y-91000000D03*
X101900000Y-91000000D03*
%TD*%
D15*
%TO.C,SW2*%
X159600000Y-99500000D03*
X173900000Y-99500000D03*
D16*
X161750000Y-99500000D03*
X163750000Y-99500000D03*
X169750000Y-99500000D03*
X171750000Y-99500000D03*
X165750000Y-99500000D03*
%TD*%
D17*
%TO.C,C30*%
X126250000Y-131500000D03*
D18*
X121250000Y-131500000D03*
%TD*%
%TO.C,TP2*%
X130000000Y-135250000D03*
%TD*%
D19*
%TO.C,L1*%
X158250000Y-110750000D03*
X158250000Y-121250000D03*
%TD*%
D20*
%TO.C,C3*%
X153750000Y-131500000D03*
D18*
X158750000Y-131500000D03*
%TD*%
%TO.C,TP1*%
X150000000Y-135250000D03*
%TD*%
D19*
%TO.C,L2*%
X121750000Y-121250000D03*
X121750000Y-110750000D03*
%TD*%
D11*
%TO.C,C15*%
X159500000Y-90250000D03*
D12*
X164500000Y-90250000D03*
%TD*%
D15*
%TO.C,SW1*%
X106100000Y-99500000D03*
X120400000Y-99500000D03*
D16*
X108250000Y-99500000D03*
X110250000Y-99500000D03*
X116250000Y-99500000D03*
X118250000Y-99500000D03*
X112250000Y-99500000D03*
%TD*%
D10*
%TO.C,H1*%
X101000000Y-98000000D03*
%TD*%
D11*
%TO.C,C13*%
X132000000Y-90250000D03*
D12*
X137000000Y-90250000D03*
%TD*%
D10*
%TO.C,H4*%
X179500000Y-133500000D03*
%TD*%
%TO.C,H2*%
X172500000Y-93000000D03*
%TD*%
D13*
%TO.C,J2*%
X146750000Y-135000000D03*
X133250000Y-135000000D03*
D14*
X136400000Y-129000000D03*
X143600000Y-129000000D03*
%TD*%
D11*
%TO.C,C14*%
X145750000Y-90250000D03*
D12*
X150750000Y-90250000D03*
%TD*%
D21*
%TO.C,R15*%
X145000000Y-103175000D03*
X145000000Y-104825000D03*
%TD*%
D22*
%TO.C,R26*%
X139250000Y-116325000D03*
X139250000Y-114675000D03*
%TD*%
D23*
%TO.C,C2*%
X150500000Y-129775000D03*
X150500000Y-132725000D03*
%TD*%
D24*
%TO.C,C36*%
X142750000Y-103475000D03*
X142750000Y-105025000D03*
%TD*%
D25*
%TO.C,C11*%
X125500000Y-110475000D03*
X125500000Y-107525000D03*
%TD*%
D26*
%TO.C,C42*%
X135000000Y-98525000D03*
X135000000Y-96975000D03*
%TD*%
D22*
%TO.C,R35*%
X134750000Y-116325000D03*
X134750000Y-114675000D03*
%TD*%
%TO.C,R9*%
X141250000Y-103825000D03*
X141250000Y-102175000D03*
%TD*%
%TO.C,R34*%
X137750000Y-116325000D03*
X137750000Y-114675000D03*
%TD*%
D27*
%TO.C,R28*%
X147600000Y-124325000D03*
D28*
X145500000Y-124450000D03*
X147950000Y-118550000D03*
D27*
X145850000Y-118675000D03*
%TD*%
D29*
%TO.C,C46*%
X146250000Y-99250000D03*
X144700000Y-99250000D03*
%TD*%
D30*
%TO.C,U2*%
X124887500Y-98725000D03*
X124887500Y-98075000D03*
X124887500Y-97425000D03*
X124887500Y-96775000D03*
X129112500Y-96775000D03*
X129112500Y-97425000D03*
X129112500Y-98075000D03*
X129112500Y-98725000D03*
%TD*%
D21*
%TO.C,R36*%
X155500000Y-96925000D03*
X155500000Y-98575000D03*
%TD*%
D22*
%TO.C,R32*%
X145250000Y-116325000D03*
X145250000Y-114675000D03*
%TD*%
%TO.C,R27*%
X136250000Y-116325000D03*
X136250000Y-114675000D03*
%TD*%
D31*
%TO.C,R10*%
X153500000Y-122400000D03*
X153500000Y-127600000D03*
%TD*%
D32*
%TO.C,C28*%
X123225000Y-128000000D03*
X120275000Y-128000000D03*
%TD*%
D26*
%TO.C,C33*%
X131250000Y-98525000D03*
X131250000Y-96975000D03*
%TD*%
D22*
%TO.C,R24*%
X143750000Y-116325000D03*
X143750000Y-114675000D03*
%TD*%
%TO.C,R23*%
X133250000Y-98575000D03*
X133250000Y-96925000D03*
%TD*%
D21*
%TO.C,R37*%
X154000000Y-96925000D03*
X154000000Y-98575000D03*
%TD*%
D22*
%TO.C,R25*%
X140750000Y-116325000D03*
X140750000Y-114675000D03*
%TD*%
D25*
%TO.C,C8*%
X135250000Y-110475000D03*
X135250000Y-107525000D03*
%TD*%
D26*
%TO.C,C32*%
X122750000Y-98525000D03*
X122750000Y-96975000D03*
%TD*%
D25*
%TO.C,C9*%
X132000000Y-110475000D03*
X132000000Y-107525000D03*
%TD*%
D33*
%TO.C,D3*%
X135000000Y-103212500D03*
X135000000Y-104787500D03*
%TD*%
D34*
%TO.C,U3*%
X136862500Y-98700000D03*
X136862500Y-97750000D03*
X136862500Y-96800000D03*
X139137500Y-96800000D03*
X139137500Y-98700000D03*
%TD*%
D25*
%TO.C,C4*%
X154500000Y-110475000D03*
X154500000Y-107525000D03*
%TD*%
D22*
%TO.C,R33*%
X142250000Y-116325000D03*
X142250000Y-114675000D03*
%TD*%
D35*
%TO.C,R6*%
X118575000Y-101500000D03*
X116925000Y-101500000D03*
%TD*%
D23*
%TO.C,C29*%
X129500000Y-129775000D03*
X129500000Y-132725000D03*
%TD*%
D36*
%TO.C,SW4*%
X120500000Y-94250000D03*
X112500000Y-94250000D03*
D37*
X121500000Y-92850000D03*
X119500000Y-95650000D03*
X115500000Y-95650000D03*
X113500000Y-92850000D03*
%TD*%
D26*
%TO.C,C45*%
X142750000Y-100275000D03*
X142750000Y-98725000D03*
%TD*%
D25*
%TO.C,C7*%
X144750000Y-110475000D03*
X144750000Y-107525000D03*
%TD*%
D36*
%TO.C,SW3*%
X165500000Y-94750000D03*
X157500000Y-94750000D03*
D37*
X166500000Y-93350000D03*
X164500000Y-96150000D03*
X160500000Y-96150000D03*
X158500000Y-93350000D03*
%TD*%
D38*
%TO.C,D4*%
X140698500Y-134000000D03*
D39*
X138347500Y-134000000D03*
%TD*%
D26*
%TO.C,C44*%
X140000000Y-111775000D03*
X140000000Y-110225000D03*
%TD*%
%TO.C,C37*%
X137250000Y-105024812D03*
X137250000Y-103474812D03*
%TD*%
D40*
%TO.C,Q5*%
X121937500Y-102050000D03*
X121937500Y-103950000D03*
X120062500Y-103000000D03*
%TD*%
D41*
%TO.C,U4*%
X147700000Y-95500000D03*
X147700000Y-96000000D03*
X147700000Y-96500000D03*
X147700000Y-97000000D03*
X147700000Y-97500000D03*
X143400000Y-97500000D03*
X143400000Y-97000000D03*
X143400000Y-96500000D03*
X143400000Y-96000000D03*
X143400000Y-95500000D03*
%TD*%
D42*
%TO.C,R14*%
X126500000Y-127600000D03*
X126500000Y-122400000D03*
%TD*%
D25*
%TO.C,C10*%
X128750000Y-110475000D03*
X128750000Y-107525000D03*
%TD*%
D43*
%TO.C,R5*%
X124925000Y-95000000D03*
X126575000Y-95000000D03*
%TD*%
D27*
%TO.C,R31*%
X134100000Y-124325000D03*
D28*
X132000000Y-124450000D03*
X134450000Y-118550000D03*
D27*
X132350000Y-118675000D03*
%TD*%
%TO.C,R29*%
X143100000Y-124325000D03*
D28*
X141000000Y-124450000D03*
X143450000Y-118550000D03*
D27*
X141350000Y-118675000D03*
%TD*%
D22*
%TO.C,R16*%
X138750000Y-103825000D03*
X138750000Y-102175000D03*
%TD*%
D44*
%TO.C,C1*%
X156775000Y-128000000D03*
X159725000Y-128000000D03*
%TD*%
D22*
%TO.C,R18*%
X146500000Y-104825000D03*
X146500000Y-103175000D03*
%TD*%
D27*
%TO.C,R30*%
X138600000Y-124325000D03*
D28*
X136500000Y-124450000D03*
X138950000Y-118550000D03*
D27*
X136850000Y-118675000D03*
%TD*%
D25*
%TO.C,C5*%
X151250000Y-110475000D03*
X151250000Y-107525000D03*
%TD*%
D26*
%TO.C,C43*%
X141000000Y-98525000D03*
X141000000Y-96975000D03*
%TD*%
D43*
%TO.C,R38*%
X149925000Y-96500000D03*
X151575000Y-96500000D03*
%TD*%
D25*
%TO.C,C6*%
X148000000Y-110475000D03*
X148000000Y-107525000D03*
%TD*%
M02*
