%TF.GenerationSoftware,KiCad,Pcbnew,10.0.0*%
%TF.CreationDate,2026-03-30T02:23:11-04:00*%
%TF.ProjectId,LTC7890_Buck,4c544337-3839-4305-9f42-75636b2e6b69,rev?*%
%TF.SameCoordinates,Original*%
%TF.FileFunction,Plated,1,4,PTH,Mixed*%
%TF.FilePolarity,Positive*%
%FSLAX46Y46*%
G04 Gerber Fmt 4.6, Leading zero omitted, Abs format (unit mm)*
G04 Created by KiCad (PCBNEW 10.0.0) date 2026-03-30 02:23:11*
%MOMM*%
%LPD*%
G01*
G04 APERTURE LIST*
%TA.AperFunction,ViaDrill*%
%ADD10C,0.300000*%
%TD*%
%TA.AperFunction,ComponentDrill*%
%ADD11C,0.300000*%
%TD*%
G04 aperture for slot hole*
%TA.AperFunction,ComponentDrill*%
%ADD12C,0.800000*%
%TD*%
%TA.AperFunction,ComponentDrill*%
%ADD13C,1.000000*%
%TD*%
%TA.AperFunction,ComponentDrill*%
%ADD14C,1.200000*%
%TD*%
G04 aperture for slot hole*
%TA.AperFunction,ComponentDrill*%
%ADD15C,1.950000*%
%TD*%
%TA.AperFunction,ComponentDrill*%
%ADD16C,2.900000*%
%TD*%
G04 APERTURE END LIST*
D10*
X97500000Y-88000000D03*
X97500000Y-96000000D03*
X97500000Y-104000000D03*
X97500000Y-112000000D03*
X97500000Y-120000000D03*
X97500000Y-128000000D03*
X97500000Y-136000000D03*
X100000000Y-92000000D03*
X100000000Y-100000000D03*
X100000000Y-108000000D03*
X100000000Y-116000000D03*
X100000000Y-124000000D03*
X100000000Y-132000000D03*
X102500000Y-88000000D03*
X102500000Y-96000000D03*
X102500000Y-104000000D03*
X102500000Y-112000000D03*
X102500000Y-120000000D03*
X102500000Y-128000000D03*
X102500000Y-136000000D03*
X105000000Y-84000000D03*
X105000000Y-108000000D03*
X105000000Y-116000000D03*
X105000000Y-124000000D03*
X105000000Y-132000000D03*
X107500000Y-88000000D03*
X107500000Y-96000000D03*
X107500000Y-104000000D03*
X107500000Y-112000000D03*
X107500000Y-120000000D03*
X107500000Y-128000000D03*
X107500000Y-136000000D03*
X110000000Y-84000000D03*
X110000000Y-108000000D03*
X110000000Y-116000000D03*
X110000000Y-124000000D03*
X110000000Y-132000000D03*
X112500000Y-96000000D03*
X112500000Y-104000000D03*
X112500000Y-112000000D03*
X112500000Y-120000000D03*
X112500000Y-128000000D03*
X112500000Y-136000000D03*
X115000000Y-108000000D03*
X115000000Y-116000000D03*
X115000000Y-124000000D03*
X115000000Y-132000000D03*
X117500000Y-88000000D03*
X117500000Y-104000000D03*
X117500000Y-112000000D03*
X117500000Y-120000000D03*
X117500000Y-128000000D03*
X117500000Y-136000000D03*
X120000000Y-92000000D03*
X120000000Y-97750000D03*
X120000000Y-108000000D03*
X120000000Y-116000000D03*
X122500000Y-88000000D03*
X122500000Y-104000000D03*
X122500000Y-136000000D03*
X124000000Y-101250000D03*
X124000000Y-118750000D03*
X124500000Y-100750000D03*
X124500000Y-119250000D03*
X124750000Y-105500000D03*
X124750000Y-106250000D03*
X125000000Y-84000000D03*
X125000000Y-101250000D03*
X125000000Y-118750000D03*
X125000000Y-124000000D03*
X125500000Y-100750000D03*
X125500000Y-119250000D03*
X126000000Y-101250000D03*
X126000000Y-118750000D03*
X126250000Y-105500000D03*
X126250000Y-106250000D03*
X126500000Y-100750000D03*
X126500000Y-124000000D03*
X126500000Y-126000000D03*
X127000000Y-101250000D03*
X127000000Y-116500000D03*
X127000000Y-117500000D03*
X127500000Y-88000000D03*
X127500000Y-100750000D03*
X127500000Y-117000000D03*
X127500000Y-118000000D03*
X127500000Y-120000000D03*
X127500000Y-136000000D03*
X127750000Y-105500000D03*
X127750000Y-106250000D03*
X128000000Y-101250000D03*
X128000000Y-116500000D03*
X128000000Y-117500000D03*
X128500000Y-100750000D03*
X128500000Y-117000000D03*
X128500000Y-118000000D03*
X129000000Y-101250000D03*
X129000000Y-116500000D03*
X129000000Y-117500000D03*
X129250000Y-105500000D03*
X129250000Y-106250000D03*
X129500000Y-100750000D03*
X129500000Y-117000000D03*
X129500000Y-118000000D03*
X130000000Y-84000000D03*
X130000000Y-101250000D03*
X130000000Y-116500000D03*
X130000000Y-117500000D03*
X130000000Y-124000000D03*
X130500000Y-100750000D03*
X130500000Y-117000000D03*
X130500000Y-118000000D03*
X130750000Y-105500000D03*
X130750000Y-106250000D03*
X131000000Y-101250000D03*
X131000000Y-116500000D03*
X131000000Y-117500000D03*
X131500000Y-100750000D03*
X131500000Y-117000000D03*
X132000000Y-123250000D03*
X132250000Y-105500000D03*
X132250000Y-106250000D03*
X132250000Y-108750000D03*
X132500000Y-88000000D03*
X132500000Y-112000000D03*
X132750000Y-120250000D03*
X132750000Y-121250000D03*
X132750000Y-122250000D03*
X133250000Y-112500000D03*
X133250000Y-120750000D03*
X133250000Y-121750000D03*
X133750000Y-105500000D03*
X133750000Y-106250000D03*
X133750000Y-120250000D03*
X133750000Y-121250000D03*
X133750000Y-122250000D03*
X134000000Y-112000000D03*
X134250000Y-120750000D03*
X134250000Y-121750000D03*
X134500000Y-102000000D03*
X134750000Y-105850000D03*
X134750000Y-112500000D03*
X134750000Y-120250000D03*
X134750000Y-121250000D03*
X134750000Y-122250000D03*
X135000000Y-84000000D03*
X135000000Y-92000000D03*
X135000000Y-132000000D03*
X135250000Y-120750000D03*
X135250000Y-121750000D03*
X135750000Y-100500000D03*
X135750000Y-102000000D03*
X135750000Y-120250000D03*
X135750000Y-121250000D03*
X135750000Y-122250000D03*
X136000000Y-104750000D03*
X136100000Y-102800000D03*
X136250000Y-103750000D03*
X136250000Y-106250000D03*
X136250000Y-109250000D03*
X136250000Y-117250000D03*
X136500000Y-123250000D03*
X137250000Y-120250000D03*
X137250000Y-121250000D03*
X137250000Y-122250000D03*
X137500000Y-88000000D03*
X137500000Y-101250000D03*
X137500000Y-136000000D03*
X137750000Y-120750000D03*
X137750000Y-121750000D03*
X138250000Y-120250000D03*
X138250000Y-121250000D03*
X138250000Y-122250000D03*
X138500000Y-112500000D03*
X138750000Y-120750000D03*
X138750000Y-121750000D03*
X139000000Y-101250000D03*
X139250000Y-117250000D03*
X139250000Y-120250000D03*
X139250000Y-121250000D03*
X139250000Y-122250000D03*
X139750000Y-120750000D03*
X139750000Y-121750000D03*
X140000000Y-84000000D03*
X140000000Y-110750000D03*
X140000000Y-114675000D03*
X140000000Y-115500000D03*
X140000000Y-126000000D03*
X140000000Y-132000000D03*
X140750000Y-101250000D03*
X140750000Y-117250000D03*
X141000000Y-123250000D03*
X141500000Y-99500000D03*
X141500000Y-112500000D03*
X142250000Y-120750000D03*
X142250000Y-121750000D03*
X142500000Y-88000000D03*
X142500000Y-136000000D03*
X142750000Y-120250000D03*
X142750000Y-121250000D03*
X142750000Y-122250000D03*
X143250000Y-120750000D03*
X143250000Y-121750000D03*
X143400000Y-98075000D03*
X143750000Y-102800000D03*
X143750000Y-103750000D03*
X143750000Y-117250000D03*
X143750000Y-120250000D03*
X143750000Y-121250000D03*
X143750000Y-122250000D03*
X143900000Y-104700000D03*
X144000000Y-101250000D03*
X144200000Y-105450000D03*
X144250000Y-120750000D03*
X144250000Y-121750000D03*
X144750000Y-120250000D03*
X144750000Y-121250000D03*
X144750000Y-122250000D03*
X145000000Y-84000000D03*
X145000000Y-100500000D03*
X145000000Y-132000000D03*
X145500000Y-123250000D03*
X146000000Y-95500000D03*
X146000000Y-106250000D03*
X146250000Y-100250000D03*
X146250000Y-101250000D03*
X146250000Y-120250000D03*
X146250000Y-121250000D03*
X146250000Y-122250000D03*
X146500000Y-96500000D03*
X146750000Y-120750000D03*
X146750000Y-121750000D03*
X147250000Y-120250000D03*
X147250000Y-121250000D03*
X147250000Y-122250000D03*
X147500000Y-88000000D03*
X147750000Y-105500000D03*
X147750000Y-106250000D03*
X147750000Y-120750000D03*
X147750000Y-121750000D03*
X148250000Y-120250000D03*
X148250000Y-121250000D03*
X148250000Y-122250000D03*
X148500000Y-100750000D03*
X148500000Y-117000000D03*
X149000000Y-101250000D03*
X149000000Y-116500000D03*
X149000000Y-117500000D03*
X149250000Y-105500000D03*
X149250000Y-106250000D03*
X149500000Y-100750000D03*
X149500000Y-117000000D03*
X149500000Y-118000000D03*
X150000000Y-84000000D03*
X150000000Y-92000000D03*
X150000000Y-98750000D03*
X150000000Y-101250000D03*
X150000000Y-116500000D03*
X150000000Y-117500000D03*
X150000000Y-124000000D03*
X150500000Y-100750000D03*
X150500000Y-117000000D03*
X150500000Y-118000000D03*
X150750000Y-105500000D03*
X150750000Y-106250000D03*
X151000000Y-101250000D03*
X151000000Y-116500000D03*
X151000000Y-117500000D03*
X151500000Y-100750000D03*
X151500000Y-117000000D03*
X151500000Y-118000000D03*
X152000000Y-101250000D03*
X152000000Y-116500000D03*
X152000000Y-117500000D03*
X152250000Y-105500000D03*
X152250000Y-106250000D03*
X152500000Y-88000000D03*
X152500000Y-100750000D03*
X152500000Y-117000000D03*
X152500000Y-118000000D03*
X152500000Y-120000000D03*
X152500000Y-136000000D03*
X152750000Y-97250000D03*
X153000000Y-101250000D03*
X153000000Y-116500000D03*
X153000000Y-117500000D03*
X153500000Y-100750000D03*
X153500000Y-124000000D03*
X153500000Y-126000000D03*
X153750000Y-105500000D03*
X153750000Y-106250000D03*
X154000000Y-101250000D03*
X154000000Y-118750000D03*
X154500000Y-100750000D03*
X154500000Y-119250000D03*
X154750000Y-97750000D03*
X155000000Y-84000000D03*
X155000000Y-92000000D03*
X155000000Y-101250000D03*
X155000000Y-118750000D03*
X155000000Y-124000000D03*
X155250000Y-105500000D03*
X155250000Y-106250000D03*
X155500000Y-100750000D03*
X155500000Y-119250000D03*
X156000000Y-101250000D03*
X156000000Y-118750000D03*
X157500000Y-88000000D03*
X157500000Y-104000000D03*
X157500000Y-136000000D03*
X160000000Y-84000000D03*
X160000000Y-92000000D03*
X160000000Y-108000000D03*
X160000000Y-116000000D03*
X162500000Y-88000000D03*
X162500000Y-104000000D03*
X162500000Y-112000000D03*
X162500000Y-120000000D03*
X162500000Y-128000000D03*
X162500000Y-136000000D03*
X165000000Y-84000000D03*
X165000000Y-108000000D03*
X165000000Y-116000000D03*
X165000000Y-124000000D03*
X165000000Y-132000000D03*
X167500000Y-88000000D03*
X167500000Y-96000000D03*
X167500000Y-104000000D03*
X167500000Y-112000000D03*
X167500000Y-120000000D03*
X167500000Y-128000000D03*
X167500000Y-136000000D03*
X170000000Y-84000000D03*
X170000000Y-108000000D03*
X170000000Y-116000000D03*
X170000000Y-124000000D03*
X170000000Y-132000000D03*
X172500000Y-88000000D03*
X172500000Y-96000000D03*
X172500000Y-104000000D03*
X172500000Y-112000000D03*
X172500000Y-120000000D03*
X172500000Y-128000000D03*
X172500000Y-136000000D03*
X175000000Y-84000000D03*
X175000000Y-92000000D03*
X175000000Y-108000000D03*
X175000000Y-116000000D03*
X175000000Y-124000000D03*
X175000000Y-132000000D03*
X175250000Y-98500000D03*
X175375000Y-96375000D03*
X177500000Y-104000000D03*
X177500000Y-112000000D03*
X177500000Y-120000000D03*
X177500000Y-128000000D03*
X177500000Y-136000000D03*
X179250000Y-86500000D03*
X179250000Y-87750000D03*
X180000000Y-100000000D03*
X180000000Y-108000000D03*
X180000000Y-116000000D03*
X180000000Y-124000000D03*
X180000000Y-132000000D03*
X182500000Y-88000000D03*
X182500000Y-96000000D03*
X182500000Y-104000000D03*
X182500000Y-112000000D03*
X182500000Y-120000000D03*
X182500000Y-128000000D03*
X182500000Y-136000000D03*
D11*
%TO.C,U1*%
X138250000Y-105000000D03*
X138250000Y-106150000D03*
X138250000Y-107350000D03*
X138250000Y-108500000D03*
X139400000Y-105000000D03*
X139400000Y-106150000D03*
X139400000Y-107350000D03*
X139400000Y-108500000D03*
X140600000Y-105000000D03*
X140600000Y-106150000D03*
X140600000Y-107350000D03*
X140600000Y-108500000D03*
X141750000Y-105000000D03*
X141750000Y-106150000D03*
X141750000Y-107350000D03*
X141750000Y-108500000D03*
%TO.C,J1*%
D12*
X102250000Y-85550000D02*
X102250000Y-84450000D01*
%TO.C,SW1*%
X106100000Y-100400000D02*
X106100000Y-99600000D01*
%TO.C,J1*%
X115750000Y-85550000D02*
X115750000Y-84450000D01*
%TO.C,SW1*%
X120400000Y-100400000D02*
X120400000Y-99600000D01*
%TO.C,J2*%
X133250000Y-134450000D02*
X133250000Y-135550000D01*
X146750000Y-134450000D02*
X146750000Y-135550000D01*
%TO.C,SW2*%
X159600000Y-100400000D02*
X159600000Y-99600000D01*
X173900000Y-100400000D02*
X173900000Y-99600000D01*
D13*
%TO.C,TP1*%
X99000000Y-85000000D03*
%TO.C,SW1*%
X108250000Y-100000000D03*
X110250000Y-100000000D03*
X112250000Y-100000000D03*
X116250000Y-100000000D03*
X118250000Y-100000000D03*
%TO.C,TP2*%
X119000000Y-85000000D03*
%TO.C,C30*%
X121250000Y-131500000D03*
X126250000Y-131500000D03*
%TO.C,TP4*%
X130000000Y-135000000D03*
%TO.C,TP3*%
X150000000Y-135000000D03*
%TO.C,C3*%
X153750000Y-131500000D03*
X158750000Y-131500000D03*
%TO.C,SW2*%
X161750000Y-100000000D03*
X163750000Y-100000000D03*
X165750000Y-100000000D03*
X169750000Y-100000000D03*
X171750000Y-100000000D03*
D14*
%TO.C,C12*%
X125000000Y-90500000D03*
X130000000Y-90500000D03*
%TO.C,C13*%
X138750000Y-90500000D03*
X143750000Y-90500000D03*
%TO.C,C14*%
X152500000Y-90500000D03*
X157500000Y-90500000D03*
%TO.C,C15*%
X166250000Y-90500000D03*
X171250000Y-90500000D03*
%TO.C,L2*%
D15*
X121750000Y-110225000D02*
X121750000Y-113775000D01*
X121750000Y-120725000D02*
X121750000Y-124275000D01*
%TO.C,L1*%
X158250000Y-113775000D02*
X158250000Y-110225000D01*
X158250000Y-124275000D02*
X158250000Y-120725000D01*
D16*
%TO.C,J1*%
X105400000Y-91000000D03*
X112600000Y-91000000D03*
%TO.C,J2*%
X136400000Y-129000000D03*
X143600000Y-129000000D03*
M02*
